<svg xmlns="http://www.w3.org/2000/svg" xmlns:xlink="http://www.w3.org/1999/xlink" x="0" y="0" version="1.1" viewBox="0 0 32 32" xml:space="preserve" style="enable-background:new 0 0 32 32"><style type="text/css">.st0{display:none}.st1{display:inline}.st2,.st3{fill:#010101}.st3{display:inline}</style><g id="Bold" class="st0"><g class="st1"><path d="M17,27.3H7.2V1.9h6.9c1.5,0,2.8,0.1,4,0.2c1.2,0.2,2.2,0.5,3.1,0.9c0.8,0.5,1.5,1.1,2,2c0.5,0.8,0.7,2,0.7,3.4 c0,2.3-0.7,4.1-2.1,5.3c1.5,0.6,2.6,1.3,3.4,2.3c0.7,0.9,1.1,2.2,1.1,3.8c0,1.4-0.3,2.6-0.8,3.5c-0.5,1-1.2,1.7-2.1,2.3 c-0.8,0.6-1.8,1-2.9,1.3C19.3,27.1,18.2,27.3,17,27.3z M16,5.8h-4.1v6.2h4.5c0.8,0,1.5-0.2,2.2-0.7c0.6-0.4,0.9-1.2,0.9-2.3 c0-1.2-0.3-2.1-0.9-2.6C18,6.1,17.2,5.8,16,5.8z M16.7,15.7h-4.8v7.6h4.6c1.6,0,2.8-0.3,3.6-0.9c0.8-0.6,1.2-1.5,1.2-2.9 C21.3,17,19.8,15.7,16.7,15.7z"/></g></g><g id="ButtonItalic" class="st0"><g class="st1"><path d="M12.1,27.3l3.2-17.9H19l-3.2,17.9H12.1z M15.9,5.8l0.7-3.9h3.7l-0.7,3.9H15.9z"/></g></g><g id="Underline" class="st0"><g class="st1"><path d="M25,26.9h-3.8L20.9,25c-1.3,1.5-3,2.3-5.2,2.3c-5.3,0-7.9-3.1-7.9-9.2V6.6H12v10.8c0,2.1,0.4,3.7,1.1,4.7 c0.7,1,1.8,1.5,3.4,1.5c1.9,0,3.4-0.7,4.4-2.1v-15H25V26.9z"/><path d="M5.5,31v-2.1h22V31H5.5z"/></g></g><g id="Strikethru" class="st0"><path d="M26.1,14.9h-5.6c-0.6-0.2-1.1-0.4-1.7-0.6l-2.7-0.8c-0.9-0.3-1.5-0.7-1.8-1.1c-0.3-0.4-0.5-0.9-0.5-1.5 c0-0.9,0.4-1.6,1.1-2.1c0.7-0.4,1.7-0.7,2.9-0.7c2,0,3.9,0.7,5.5,2l0.5-3.9c-1.8-1-3.8-1.5-6.1-1.5c-1.4,0-2.6,0.2-3.6,0.5 c-1,0.3-1.8,0.8-2.5,1.4C11,7.3,10.5,8,10.1,8.8c-0.3,0.8-0.5,1.7-0.5,2.6c0,1,0.2,1.9,0.5,2.6c0.2,0.3,0.4,0.6,0.6,0.9h-3v2.2h6.6 c0.2,0.1,0.3,0.1,0.5,0.2c1,0.3,1.9,0.6,2.7,0.8c0.8,0.3,1.4,0.6,1.9,1c0.5,0.4,0.7,1,0.7,1.8c0,0.8-0.3,1.4-1,1.9 c-0.7,0.5-1.6,0.7-2.9,0.7c-1.3,0-2.6-0.2-3.8-0.7c-1.2-0.5-2.2-1-2.8-1.5l-0.5,4c1.8,1.2,4.2,1.8,7.3,1.8c1.7,0,3.1-0.2,4.2-0.6 c1.1-0.4,1.9-0.9,2.5-1.5c0.6-0.6,1-1.3,1.2-2c0.2-0.7,0.3-1.5,0.3-2.2c0-1-0.2-1.9-0.6-2.7c-0.2-0.4-0.4-0.7-0.7-1h2.5V14.9z" class="st1"/></g><g id="Pre" class="st0"><rect width="29.8" height="3.4" x="1" y="1" class="st1"/><rect width="14.6" height="3.3" x="1" y="7.7" class="st1"/><rect width="18.2" height="3.3" x="12.4" y="14.3" class="st1"/><rect width="15.1" height="3.3" x="9.8" y="27.7" class="st1"/><rect width="29.8" height="3.3" x="1" y="21" class="st1"/></g><g id="Left" class="st0"><rect width="29.8" height="3.4" x="1" y="1" class="st1"/><rect width="14.6" height="3.3" x="1" y="7.7" class="st1"/><rect width="18.2" height="3.3" x="1" y="14.3" class="st1"/><rect width="15.1" height="3.3" x="1" y="27.7" class="st1"/><rect width="29.8" height="3.3" x="1" y="21" class="st1"/><g id="ButtonBold"><g class="st1"><path d="M17.2,30.4H6.1V1.6h7.8c1.7,0,3.2,0.1,4.5,0.3c1.4,0.2,2.5,0.5,3.5,1.1c1,0.5,1.7,1.3,2.2,2.2c0.5,1,0.8,2.2,0.8,3.8 c0,2.6-0.8,4.6-2.4,6c1.7,0.7,3,1.5,3.8,2.6c0.8,1.1,1.2,2.5,1.2,4.3c0,1.6-0.3,2.9-0.9,4c-0.6,1.1-1.4,2-2.3,2.6 c-1,0.7-2.1,1.1-3.3,1.4C19.7,30.3,18.5,30.4,17.2,30.4z M16,6.1h-4.6v7.1h5.1c0.9,0,1.7-0.3,2.4-0.8c0.7-0.5,1-1.4,1-2.6 c0-1.4-0.3-2.4-1-2.9C18.3,6.4,17.3,6.1,16,6.1z M16.8,17.4h-5.5v8.6h5.2c1.8,0,3.2-0.3,4.1-1c0.9-0.6,1.4-1.7,1.4-3.3 C22,18.8,20.3,17.4,16.8,17.4z"/></g></g></g><g id="Center" class="st0"><rect width="29.8" height="3.4" x="1" y="1" class="st1"/><rect width="14.6" height="3.3" x="8.6" y="7.7" class="st1"/><rect width="18.2" height="3.3" x="6.8" y="14.3" class="st1"/><rect width="15.1" height="3.3" x="8.3" y="27.7" class="st1"/><rect width="29.8" height="3.3" x="1" y="21" class="st1"/></g><g id="Right" class="st0"><rect width="29.8" height="3.4" x="1" y="1" class="st1"/><rect width="14.6" height="3.3" x="16.2" y="7.7" class="st1"/><rect width="18.2" height="3.3" x="12.6" y="14.3" class="st1"/><rect width="15.1" height="3.3" x="15.7" y="27.7" class="st1"/><rect width="29.8" height="3.3" x="1" y="21" class="st1"/></g><g id="Image" class="st0"><path d="M28.8,5.9v19.7H3V5.9H28.8 M28.8,3.9H3c-1.1,0-2,0.9-2,2v19.7c0,1.1,0.9,2,2,2h25.8c1.1,0,2-0.9,2-2V5.9 C30.8,4.8,29.9,3.9,28.8,3.9L28.8,3.9z" class="st1"/><polygon points="5 23.7 5 20.7 9.9 15.8 12.3 18.2 20.4 10.3 27 16.9 27 23.7" class="st1"/><circle cx="8" cy="11" r="3" class="st1"/></g><g id="Link" class="st0"><g class="st1"><g><path d="M22.2,19.3l4.5-2.2c3.3-1.6,4.6-5.6,3-8.8c-1.6-3.3-5.6-4.6-8.8-3l-6.4,3.2c-3.3,1.6-4.6,5.6-3,8.8 c0.2,0.5,0.5,0.9,0.9,1.3l3.4-1.7c-0.5-0.3-0.8-0.7-1.1-1.2c-0.7-1.5-0.1-3.3,1.3-4l6.4-3.2c1.5-0.7,3.3-0.1,4,1.3 c0.7,1.5,0.1,3.3-1.3,4l-1.9,0.9C23.3,16.3,23,17.9,22.2,19.3z" class="st2"/></g><g><path d="M10.3,10.5l-4.5,2.2c-3.3,1.6-4.6,5.6-3,8.8c1.6,3.3,5.6,4.6,8.8,3l6.4-3.2c3.3-1.6,4.6-5.6,3-8.8 c-0.2-0.5-0.5-0.9-0.9-1.3l-3.4,1.7c0.5,0.3,0.8,0.7,1.1,1.2c0.7,1.5,0.1,3.3-1.3,4l-6.4,3.2c-1.5,0.7-3.3,0.1-4-1.3 c-0.7-1.5-0.1-3.3,1.3-4L9.3,15C9.2,13.4,9.5,11.8,10.3,10.5z" class="st2"/></g></g></g><g id="Glow" class="st0"><g class="st1"><path d="M18.5,18.5h3v4.8c-0.8,0.3-1.9,0.5-3.2,0.5c-1.2,0-2.3-0.2-3.2-0.6c-0.9-0.4-1.7-0.9-2.3-1.5c-0.6-0.7-1.1-1.5-1.4-2.4 c-0.3-0.9-0.5-2-0.5-3.2c0-1.1,0.1-2.2,0.4-3.1c0.3-0.9,0.7-1.8,1.3-2.4c0.6-0.7,1.3-1.2,2.2-1.6c0.9-0.4,1.9-0.6,3-0.6 c1.7,0,3.5,0.3,5.4,1l0.2-2.3c-1.7-0.7-3.6-1.1-5.7-1.1c-1.4,0-2.7,0.2-3.9,0.7c-1.2,0.5-2.2,1.2-3.1,2c-0.9,0.9-1.5,1.9-2,3.2 c-0.5,1.2-0.7,2.6-0.7,4.1s0.2,2.9,0.7,4.1c0.5,1.2,1.1,2.3,2,3.2c0.8,0.9,1.8,1.6,3,2.1c1.2,0.5,2.4,0.7,3.8,0.7 c0.5,0,1.1,0,1.7-0.1c0.6-0.1,1.2-0.2,1.8-0.3c0.6-0.1,1.2-0.3,1.7-0.5c0.5-0.2,1-0.4,1.4-0.6v-8.6h-5.7V18.5z"/><path d="M24.6,14.1H18c-0.8,0-1.5,0.7-1.5,1.5V19c0,0.8,0.7,1.5,1.5,1.5h1.5v1.3c-0.4,0-0.8,0.1-1.2,0.1c-0.9,0-1.8-0.1-2.4-0.4 c-0.6-0.3-1.2-0.6-1.6-1.1c-0.4-0.4-0.7-1-1-1.7c-0.2-0.7-0.4-1.6-0.4-2.5c0-0.9,0.1-1.8,0.4-2.5c0.2-0.7,0.5-1.3,0.9-1.7 c0.4-0.4,0.9-0.8,1.5-1c0.6-0.3,1.3-0.4,2.2-0.4c1.4,0,3,0.3,4.7,0.9l0.6,0.2c0.2,0.1,0.3,0.1,0.5,0.1c0.3,0,0.6-0.1,0.8-0.2 c0.4-0.2,0.6-0.7,0.7-1.1l0.4-3.3c0.1-0.6-0.3-1.3-0.9-1.5l-0.3-0.1c-1.9-0.8-4.1-1.3-6.6-1.3c-1.7,0-3.2,0.3-4.7,0.9 c-1.4,0.6-2.7,1.4-3.7,2.5c-1,1.1-1.9,2.4-2.4,3.8c-0.6,1.5-0.9,3.1-0.9,4.8c0,1.7,0.3,3.4,0.8,4.8c0.6,1.5,1.4,2.8,2.4,3.8 c1,1.1,2.3,1.9,3.7,2.5c1.4,0.6,2.9,0.9,4.6,0.9c0.6,0,1.2,0,1.9-0.1c0.7-0.1,1.4-0.2,2-0.4c0.7-0.2,1.3-0.3,1.9-0.5 c0.7-0.2,1.2-0.5,1.7-0.7l0.3-0.1c0.5-0.3,0.8-0.8,0.8-1.3v-9.4C26.1,14.8,25.4,14.1,24.6,14.1z M25.1,16.1v8.6v0.6l-0.5,0.3 c-0.4,0.2-0.9,0.4-1.5,0.6c-0.6,0.2-1.2,0.3-1.8,0.5c-0.6,0.1-1.3,0.3-1.9,0.3c-0.7,0.1-1.3,0.1-1.8,0.1c-1.5,0-2.9-0.3-4.2-0.8 c-1.3-0.5-2.4-1.3-3.3-2.3c-0.9-1-1.7-2.2-2.2-3.5c-0.5-1.3-0.8-2.8-0.8-4.5c0-1.6,0.3-3.1,0.8-4.5c0.5-1.4,1.3-2.5,2.2-3.5 c0.9-1,2.1-1.7,3.4-2.3c1.3-0.5,2.7-0.8,4.3-0.8c2.3,0,4.4,0.4,6.1,1.2l0.7,0.3l-0.1,0.7l-0.2,2.3l-0.1,1.3l-1.2-0.4 c-1.8-0.6-3.5-1-5.1-1c-1,0-1.8,0.2-2.6,0.5c-0.7,0.3-1.3,0.7-1.8,1.3c-0.5,0.6-0.9,1.3-1.1,2.1c-0.3,0.8-0.4,1.8-0.4,2.8 c0,1,0.1,2,0.4,2.8c0.3,0.8,0.7,1.5,1.2,2c0.5,0.6,1.2,1,1.9,1.3c0.8,0.3,1.7,0.5,2.8,0.5c0.9,0,1.6-0.1,2.2-0.2v-3.1h-2h-1v-1 v-2.4v-1h1h5.7h1V16.1z"/></g></g><g id="Shadow" class="st0"><path d="M20.3,25.2c4.4-1.6,7.5-5.8,7.5-10.7C27.8,8.1,22.7,3,16.3,3S4.9,8.1,4.9,14.4c0,4.9,3.1,9,7.4,10.7 C5.8,25.4,1,26.1,1,27.1C1,28.1,7.7,29,15.9,29s14.9-0.9,14.9-1.9C30.9,26.2,26.4,25.4,20.3,25.2z M6.2,14.4 c0-5.6,4.5-10.1,10.1-10.1c0.1,0,0.2,0,0.2,0c3.2,2.4,5.2,6.1,5.2,10.1c0,4-1.9,7.8-5.2,10.1c-0.1,0-0.1,0-0.2,0 C10.8,24.6,6.2,20.1,6.2,14.4z" class="st3"/></g><g id="Layer_28" class="st0"><g class="st1"><g><path d="M28.5,17.2c0-4.1-1.7-6.2-5-6.2c-1.6,0-2.8,0.5-3.7,1.6V4.6h-2.4V24h2.4v-9.2c0.7-1.1,1.8-1.7,3.3-1.7 c1.1,0,1.9,0.3,2.4,0.9s0.7,1.7,0.7,3.2V24h2.3V17.2z"/></g><g><path d="M20.1,12c0.2-0.2,0.4-0.3,0.5-0.4V6.1h-0.5V12z"/></g><g><path d="M25.3,14.2c-0.4-0.5-1.1-0.8-2.2-0.8c-1.1,0-1.9,0.3-2.5,0.8c0,0,0,0,0,0v0c-0.2,0.2-0.4,0.4-0.5,0.6V24v0.3h-0.3h-1.6 v1.3h2.4v-9.2c0.7-1.1,1.8-1.7,3.3-1.7c0.7,0,1.3,0.1,1.7,0.4C25.6,14.7,25.4,14.4,25.3,14.2z"/></g><g><path d="M28.5,15c0.1,0.7,0.2,1.4,0.2,2.2V24v0.3h-0.3h-1.5v1.3h2.3v-6.8C29.3,17.2,29,16,28.5,15z"/></g></g><g class="st1"><g><path d="M11.9,23.8c0.9-0.3,1.6-0.8,2.1-1.3c0.5-0.5,0.8-1,1-1.6c0.2-0.6,0.2-1.1,0.2-1.6c-0.1-0.7-0.1-1.3-0.3-1.7 c-0.1-0.5-0.4-0.9-0.8-1.3l-0.6-0.7c-0.1-0.1-0.2-0.2-0.4-0.3s-0.3-0.2-0.6-0.3l-0.9-0.5c-0.6-0.3-1-0.4-1.3-0.5 c-0.3-0.1-0.5-0.2-0.6-0.2c-0.2,0-0.3-0.1-0.5-0.1c-0.2,0-0.4-0.1-0.8-0.2c-1.3-0.4-2.3-0.8-2.9-1.3c-0.6-0.4-1-1-1-1.8 c0-0.5,0.1-0.9,0.4-1.2c0.2-0.3,0.5-0.6,0.9-0.8S6.7,8,7.2,7.9c0.5-0.1,1-0.2,1.5-0.2c1.3,0,3,0.5,5.2,1.6l0.3-2.6 c-0.3-0.2-0.7-0.3-1.1-0.5c-0.4-0.2-0.9-0.3-1.4-0.4c-0.5-0.1-1-0.2-1.6-0.3C9.5,5.5,9,5.5,8.5,5.5C7.2,5.5,6.1,5.7,5.3,6 c-0.8,0.3-1.5,0.8-2,1.3S2.5,8.4,2.2,9C2,9.6,1.9,10.2,1.9,10.7c0,1,0.3,1.8,0.9,2.6C3.5,14,4.6,14.6,6,15.1l1.8,0.6 c0.7,0.2,1.4,0.5,1.9,0.7c0.6,0.2,1.1,0.5,1.5,0.8c0.4,0.3,0.7,0.6,0.9,0.9c0.2,0.4,0.3,0.8,0.3,1.3c0,0.5-0.1,0.9-0.3,1.2 c-0.2,0.4-0.5,0.6-0.9,0.9c-0.4,0.2-0.8,0.4-1.4,0.5c-0.5,0.1-1.1,0.2-1.7,0.2c-2.1,0-4-0.6-5.7-1.8l-0.3,2.9 c1.5,0.8,3.4,1.2,5.9,1.2C9.7,24.3,11,24.2,11.9,23.8z"/></g><g><path d="M11.1,17.3c-0.4-0.3-0.9-0.5-1.4-0.7c-0.6-0.2-1.2-0.5-1.9-0.7L6,15.3c-1.3-0.4-2.2-0.9-2.9-1.6c0.2,0.4,0.3,0.7,0.6,1.1 c0.6,0.7,1.7,1.3,3.2,1.8l1.8,0.6c0.7,0.2,1.4,0.5,1.9,0.7c0.6,0.2,1.1,0.5,1.5,0.8c0.1,0,0.1,0.1,0.2,0.2c0-0.2-0.1-0.4-0.2-0.6 C11.8,17.9,11.5,17.6,11.1,17.3z"/></g><g><path d="M14.2,9.4l0,0.4l-0.3-0.2C11.7,8.5,10,8,8.7,8C8.2,8,7.7,8,7.3,8.1C6.8,8.2,6.4,8.4,6,8.6C5.7,8.8,5.4,9,5.2,9.3 C5,9.6,4.9,10,4.9,10.4c0,0.5,0.2,1,0.6,1.3c0-0.4,0.1-0.7,0.3-1c0.2-0.3,0.5-0.6,0.9-0.8S7.5,9.5,8,9.4c0.5-0.1,1-0.2,1.5-0.2 c1.3,0,3,0.5,5.2,1.6L15,8.3c-0.2-0.1-0.4-0.2-0.7-0.3L14.2,9.4z"/></g><g><path d="M15.8,19.1c-0.1-0.3-0.2-0.5-0.4-0.8c0,0.3,0.1,0.6,0.1,1c0,0.5-0.1,1.1-0.2,1.7c-0.2,0.6-0.5,1.2-1.1,1.7 c-0.5,0.5-1.3,1-2.2,1.3c-0.9,0.3-2.2,0.5-3.8,0.5c-2,0-3.7-0.3-5-0.8L3,24.7c1.5,0.8,3.4,1.2,5.9,1.2c1.6,0,2.8-0.2,3.7-0.5 c0.9-0.3,1.6-0.8,2.1-1.3c0.5-0.5,0.8-1,1-1.6c0.2-0.6,0.2-1.1,0.2-1.6C16,20.2,15.9,19.6,15.8,19.1z"/></g></g></g><g id="Marquee" class="st0"><polygon points="6.4 9.3 1 14.7 6.4 20.1" class="st1"/><g class="st1"><path d="M30.8,26.3h-3.1l-1.8-14.1l-5.2,9.7l-5.3-9.7l-1.8,14.1h-3.1l2.6-19.5h2.5l5,9.4l5-9.4h2.5L30.8,26.3z"/></g><polygon points="11.6 12.7 4.9 12.7 4.9 17.1 10.9 17.1" class="st1"/></g><g id="Superscript" class="st0"><g class="st1"><path d="M4.7,12.1c-1.4,0-2.6-0.3-3.4-0.8l0.2-1.9C1.8,9.6,2.2,9.8,2.8,10s1.2,0.3,1.8,0.3c0.6,0,1.1-0.1,1.4-0.3s0.5-0.5,0.5-0.9 c0-0.4-0.1-0.7-0.3-0.9C5.9,8.1,5.6,8,5.2,7.8C4.8,7.7,4.4,7.6,3.9,7.4S3,7.1,2.5,6.8C2.1,6.5,1.9,6.3,1.7,5.9 C1.5,5.6,1.5,5.2,1.5,4.7c0-0.4,0.1-0.8,0.2-1.2c0.1-0.4,0.4-0.7,0.7-1S3,2,3.5,1.9s1-0.2,1.7-0.2c1.1,0,2,0.2,2.9,0.7L7.8,4.2 c-0.8-0.6-1.6-1-2.6-1c-0.6,0-1,0.1-1.4,0.3c-0.3,0.2-0.5,0.5-0.5,1c0,0.2,0.1,0.5,0.2,0.7c0.1,0.2,0.4,0.4,0.9,0.5l1.2,0.4 c0.3,0.1,0.7,0.2,1,0.4S7.4,6.8,7.6,7c0.3,0.2,0.5,0.5,0.7,0.9c0.2,0.3,0.3,0.8,0.3,1.2c0,0.3-0.1,0.7-0.2,1 c-0.1,0.3-0.3,0.7-0.6,1c-0.3,0.3-0.7,0.5-1.2,0.7C6.2,12,5.5,12.1,4.7,12.1z"/><path d="M18.8,11.9h-1.9l-0.1-0.9c-0.6,0.8-1.5,1.1-2.6,1.1c-2.6,0-3.9-1.5-3.9-4.6V1.8h2.1v5.3c0,1.1,0.2,1.8,0.5,2.3 c0.4,0.5,0.9,0.8,1.7,0.8c0.9,0,1.7-0.3,2.2-1V1.8h2.1V11.9z"/><path d="M26.1,12.1c-0.5,0-1-0.1-1.5-0.3s-1-0.5-1.3-0.9v5.9h-2.1V1.8h1.7L23.1,3c0.4-0.4,0.9-0.8,1.3-1c0.5-0.2,1-0.3,1.7-0.3 c0.7,0,1.4,0.1,1.9,0.4c0.6,0.3,1.1,0.7,1.5,1.1c0.4,0.5,0.7,1,0.9,1.7s0.3,1.3,0.3,2c0,0.7-0.1,1.4-0.3,2.1s-0.5,1.2-0.9,1.6 c-0.4,0.5-0.9,0.8-1.5,1.1C27.5,11.9,26.9,12.1,26.1,12.1z M25.9,3.4c-0.4,0-0.8,0.1-1.1,0.2S24.2,4,23.9,4.3 c-0.2,0.3-0.4,0.7-0.6,1.1c-0.1,0.4-0.2,0.9-0.2,1.4c0,1.1,0.3,1.9,0.8,2.5s1.2,0.9,2,0.9c0.4,0,0.8-0.1,1.1-0.3s0.6-0.4,0.9-0.7 c0.2-0.3,0.4-0.7,0.5-1.1s0.2-0.9,0.2-1.4c0-1-0.2-1.8-0.7-2.5C27.5,3.7,26.8,3.4,25.9,3.4z"/></g></g><g id="Subscript" class="st0"><g class="st1"><path d="M4.7,30.8c-1.4,0-2.6-0.3-3.4-0.8l0.2-1.9c0.3,0.2,0.7,0.5,1.3,0.7s1.2,0.3,1.8,0.3c0.6,0,1.1-0.1,1.4-0.3 s0.5-0.5,0.5-0.9c0-0.4-0.1-0.7-0.3-0.9c-0.2-0.2-0.5-0.3-0.9-0.5s-0.8-0.3-1.3-0.4c-0.5-0.1-1-0.4-1.4-0.7 c-0.4-0.2-0.6-0.5-0.8-0.8s-0.3-0.7-0.3-1.2c0-0.4,0.1-0.8,0.2-1.2c0.1-0.4,0.4-0.7,0.7-1C2.6,21,3,20.8,3.5,20.6 c0.5-0.2,1-0.2,1.7-0.2c1.1,0,2,0.2,2.9,0.7l-0.2,1.8c-0.8-0.6-1.6-1-2.6-1c-0.6,0-1,0.1-1.4,0.3c-0.3,0.2-0.5,0.5-0.5,1 c0,0.2,0.1,0.5,0.2,0.7c0.1,0.2,0.4,0.4,0.9,0.5l1.2,0.4c0.3,0.1,0.7,0.2,1,0.4c0.3,0.1,0.6,0.3,0.9,0.6s0.5,0.5,0.7,0.9 c0.2,0.3,0.3,0.8,0.3,1.3c0,0.3-0.1,0.7-0.2,1s-0.3,0.7-0.6,1c-0.3,0.3-0.7,0.5-1.2,0.7C6.1,30.7,5.5,30.8,4.7,30.8z"/><path d="M18.8,30.6h-1.9l-0.1-0.9c-0.6,0.8-1.5,1.1-2.6,1.1c-2.6,0-3.9-1.5-3.9-4.6v-5.7h2.1v5.3c0,1.1,0.2,1.8,0.5,2.3 c0.4,0.5,0.9,0.8,1.7,0.8c0.9,0,1.7-0.3,2.2-1v-7.4h2.1V30.6z"/><path d="M26.1,30.8c-0.5,0-1-0.1-1.5-0.3s-1-0.5-1.3-0.9l-0.2,1h-1.9V15.3h2.1v6.1c0.7-0.7,1.6-1.1,2.8-1.1c0.7,0,1.4,0.1,1.9,0.4 c0.6,0.3,1.1,0.7,1.5,1.1c0.4,0.5,0.7,1,0.9,1.7c0.2,0.6,0.3,1.3,0.3,2c0,0.7-0.1,1.4-0.3,2s-0.6,1.2-1,1.7 c-0.4,0.5-0.9,0.8-1.5,1.1C27.4,30.6,26.8,30.8,26.1,30.8z M25.9,22.1c-0.8,0-1.5,0.3-2,0.9c-0.5,0.6-0.8,1.4-0.8,2.5 c0,1.1,0.3,1.9,0.8,2.5c0.5,0.6,1.2,0.9,2,0.9c0.4,0,0.8-0.1,1.1-0.3c0.3-0.2,0.6-0.4,0.9-0.7c0.2-0.3,0.4-0.7,0.5-1.1 s0.2-0.9,0.2-1.4c0-0.5-0.1-1-0.2-1.4s-0.3-0.8-0.5-1.1s-0.5-0.5-0.9-0.7S26.3,22.1,25.9,22.1z"/></g></g><g id="Teletype" class="st0"><g class="st1"><path d="M13.1,24c0,0.5,0.1,0.9,0.2,1.2c0.1,0.3,0.3,0.5,0.6,0.7c0.2,0.2,0.5,0.3,0.9,0.3s0.7,0.1,1,0.1h0.8v1.4H6.3v-1.4H7 c0.4,0,0.7,0,1-0.1c0.3,0,0.6-0.1,0.9-0.3c0.2-0.1,0.4-0.4,0.6-0.7c0.1-0.3,0.2-0.7,0.2-1.2V5.9H6.6C6.1,5.9,5.7,6,5.4,6.1 C5.1,6.3,4.8,6.5,4.6,6.7C4.4,7,4.2,7.2,4.1,7.6C4,7.9,3.9,8.2,3.9,8.6L3.7,10H2l0.2-5.8h18.5l0.2,5.8h-1.7L19,8.6 c0-0.4-0.1-0.7-0.2-1c-0.1-0.3-0.3-0.6-0.5-0.9c-0.2-0.2-0.5-0.4-0.8-0.6c-0.3-0.1-0.7-0.2-1.2-0.2h-3.2V24z"/></g><g class="st1"><path d="M26.8,26.5c0.4,0,0.7,0,1-0.1c0.3,0,0.6-0.1,0.9-0.1v1.3c-0.1,0.1-0.3,0.1-0.5,0.2s-0.4,0.1-0.7,0.2 c-0.2,0-0.5,0.1-0.8,0.1c-0.3,0-0.5,0-0.8,0c-0.8,0-1.4-0.1-2-0.2c-0.6-0.2-1-0.4-1.4-0.8c-0.4-0.4-0.6-0.9-0.8-1.5 c-0.2-0.6-0.3-1.3-0.3-2.2V13.2h-2.3V12c0.4,0,0.8-0.1,1.2-0.2c0.4-0.1,0.8-0.4,1.2-0.7c0.3-0.4,0.6-0.8,0.8-1.3s0.4-1.2,0.6-2 h1.4v3.7h4v1.7h-4v10.3c0,1,0.2,1.8,0.6,2.3S26.1,26.5,26.8,26.5z"/></g></g><g id="Table" class="st0"><path d="M1,3.3v25.2h29.8V3.3H1z M12.4,19.8v-4.7h7.2v4.7H12.4z M19.6,21.8v4.8h-7.2v-4.8H19.6z M10.4,19.8H3v-4.7h7.4 V19.8z M12.4,13.1V7.8h7.2v5.2H12.4z M21.6,15.1h7.2v4.7h-7.2V15.1z M28.8,13.1h-7.2V7.8h7.2V13.1z M10.4,7.8v5.2H3V7.8H10.4z M3,21.8h7.4v4.8H3V21.8z M21.6,26.5v-4.8h7.2v4.8H21.6z" class="st1"/></g><g id="Code" class="st0"><g class="st1"><path d="M1,13.1l7.4-7.9V10l-4.8,4.8V15l4.8,4.8v4.9L1,16.8V13.1z"/><path d="M14.1,25.8h-2.7l6.3-19.5h2.7L14.1,25.8z"/><path d="M30.8,16.8l-7.4,7.9v-4.9l4.8-4.8v-0.1L23.3,10V5.1l7.4,7.9V16.8z"/></g></g><g id="Quote" class="st0"><g class="st1"><path d="M14.7,9.3c-1.8,0.7-3.1,1.6-4,2.6c-0.9,1-1.4,2.3-1.5,3.7c0.2,0,0.3-0.1,0.4-0.1c0.1,0,0.3,0,0.4,0c1.4,0,2.5,0.4,3.4,1.3 c0.9,0.9,1.3,2,1.3,3.5c0,1.6-0.5,2.9-1.4,3.9c-0.9,0.9-2.1,1.4-3.6,1.4c-2,0-3.5-0.7-4.6-2.2c-1-1.5-1.6-3.5-1.6-6.2 c0-2.7,0.7-5.1,2.2-7.1C7.3,8,9.5,6.4,12.6,5L14.7,9.3z M28,9.3c-1.8,0.7-3.1,1.6-4,2.6c-0.9,1-1.4,2.3-1.5,3.7 c0.2,0,0.3-0.1,0.4-0.1c0.1,0,0.3,0,0.4,0c1.4,0,2.6,0.4,3.4,1.3c0.9,0.9,1.3,2,1.3,3.5c0,1.6-0.5,2.9-1.4,3.9 c-0.9,0.9-2.1,1.4-3.6,1.4c-2,0-3.5-0.7-4.6-2.2c-1-1.5-1.6-3.5-1.6-6.2c0-2.7,0.7-5.1,2.2-7.1C20.6,8,22.9,6.4,26,5L28,9.3z"/></g></g><g id="UnorderedList" class="st0"><circle cx="5" cy="5" r="4" class="st1"/><rect width="19.9" height="3.7" x="11" y="3.1" class="st1"/><circle cx="5" cy="27" r="4" class="st1"/><circle cx="5" cy="16" r="4" class="st1"/><rect width="19.9" height="3.7" x="11" y="25.2" class="st1"/><rect width="19.9" height="3.7" x="11" y="14.1" class="st1"/></g><g id="Ordered" class="st0"><rect width="19.9" height="3.7" x="11" y="3.1" class="st1"/><rect width="19.9" height="3.7" x="11" y="25.2" class="st1"/><rect width="19.9" height="3.7" x="11" y="14.1" class="st1"/><g class="st1"><path d="M7.7,6.8v1.5H2.4V6.8h1.8V3.1H2.8V1.9c0.4-0.1,0.8-0.2,1.1-0.3s0.6-0.2,0.9-0.4h1.4v5.6H7.7z"/></g><g class="st1"><path d="M2.2,18.2c0.5-0.4,0.9-0.8,1.3-1.1c0.4-0.3,0.8-0.7,1-1s0.5-0.6,0.7-0.9c0.2-0.3,0.2-0.5,0.2-0.8c0-0.3-0.1-0.6-0.3-0.7 s-0.4-0.2-0.8-0.2c-0.3,0-0.5,0.1-0.7,0.2s-0.4,0.3-0.6,0.5l-1-1c0.2-0.2,0.4-0.4,0.6-0.5s0.4-0.3,0.6-0.4 c0.2-0.1,0.4-0.2,0.7-0.2s0.5-0.1,0.8-0.1c0.4,0,0.7,0.1,1,0.2c0.3,0.1,0.6,0.3,0.8,0.5c0.2,0.2,0.4,0.4,0.5,0.7 c0.1,0.3,0.2,0.6,0.2,1c0,0.3-0.1,0.6-0.2,0.9c-0.1,0.3-0.3,0.6-0.5,0.9S6.1,16.7,5.8,17c-0.3,0.3-0.6,0.5-0.9,0.8 c0.2,0,0.4,0,0.7-0.1c0.2,0,0.5,0,0.6,0h1.4v1.6H2.2V18.2z"/></g><g class="st1"><path d="M3.2,28.3c0.2,0.2,0.5,0.4,0.8,0.5C4.3,28.9,4.6,29,4.8,29c0.4,0,0.6-0.1,0.9-0.2S6,28.6,6,28.3c0-0.1,0-0.3-0.1-0.4 s-0.2-0.2-0.3-0.3c-0.1-0.1-0.4-0.1-0.6-0.2c-0.3,0-0.6-0.1-1-0.1v-1.3c0.6,0,1.1-0.1,1.4-0.2c0.3-0.1,0.4-0.3,0.4-0.6 c0-0.2-0.1-0.4-0.2-0.5c-0.2-0.1-0.4-0.2-0.7-0.2c-0.3,0-0.5,0-0.7,0.1s-0.4,0.2-0.7,0.4l-1-1.2c0.4-0.3,0.8-0.5,1.2-0.7 c0.4-0.2,0.8-0.2,1.3-0.2c0.4,0,0.8,0,1.1,0.1s0.6,0.2,0.9,0.4c0.2,0.2,0.4,0.4,0.6,0.6c0.1,0.3,0.2,0.5,0.2,0.9 c0,0.3-0.1,0.6-0.3,0.9c-0.2,0.3-0.5,0.5-1,0.6v0c0.4,0.1,0.8,0.3,1.1,0.6c0.3,0.3,0.4,0.6,0.4,1.1c0,0.3-0.1,0.6-0.2,0.9 c-0.2,0.3-0.4,0.5-0.6,0.7s-0.6,0.3-0.9,0.4S5.4,30.6,5,30.6c-0.6,0-1.1-0.1-1.6-0.3c-0.5-0.2-0.8-0.4-1.1-0.7L3.2,28.3z"/></g></g><g id="HR" class="st0"><rect width="29.9" height="2.3" x="1" y="14.8" class="st1"/></g><g id="YouTube" class="st0"><g id="Lozenge" class="st1"><path d="M30.5,10.5c0,0-0.3-2.1-1.2-3c-1.1-1.2-2.4-1.2-3-1.3C22.2,6,15.9,6,15.9,6h0c0,0-6.3,0-10.4,0.3c-0.6,0.1-1.9,0.1-3,1.3 c-0.9,0.9-1.2,3-1.2,3S1,12.9,1,15.4v2.3c0,2.4,0.3,4.8,0.3,4.8s0.3,2.1,1.2,3c1.1,1.2,2.6,1.2,3.3,1.3C8.2,26.9,15.9,27,15.9,27 s6.3,0,10.4-0.3c0.6-0.1,1.9-0.1,3-1.3c0.9-0.9,1.2-3,1.2-3s0.3-2.4,0.3-4.8v-2.3C30.8,12.9,30.5,10.5,30.5,10.5z M12.8,20.4 l0-8.4l8.1,4.2L12.8,20.4z"/></g></g><g id="Vimeo" class="st0"><path d="M30.8,9.5c-0.1,2.9-2.2,6.9-6.1,12c-4.1,5.3-7.5,7.9-10.3,7.9c-1.7,0-3.2-1.6-4.4-4.8c-0.8-3-1.6-5.9-2.4-8.9 c-0.9-3.2-1.9-4.8-2.9-4.8c-0.2,0-1,0.5-2.3,1.4L1,10.5c1.5-1.3,2.9-2.6,4.4-3.9c2-1.7,3.4-2.6,4.4-2.7c2.3-0.2,3.8,1.4,4.3,4.8 c0.6,3.7,1,6,1.2,6.9c0.7,3,1.4,4.6,2.2,4.6c0.6,0,1.6-1,2.8-3c1.3-2,1.9-3.5,2-4.5c0.2-1.7-0.5-2.6-2-2.6c-0.7,0-1.5,0.2-2.2,0.5 c1.5-4.8,4.3-7.2,8.4-7C29.6,3.7,31,5.7,30.8,9.5z" class="st1"/></g><g id="Weiner"><path d="M26.9,8.1c0.2-1,0.4-2.1,0.5-3.2c0.4-4.1-5.7-4.7-6.1-0.6l0,0.2c-0.1,0.3-0.2,0.5-0.2,0.8 c-1.5,0-3,0.9-3.5,2.9c-1.1,4.6-5.1,8.7-10.7,10.5c-2,0.6-2.7,2.2-2.6,3.8c-4,0.8-2.8,6.8,1.2,6c0.9-0.2,1.8-0.4,2.6-0.6 c0.7,1.9,2.6,3.4,5.1,2.5c8.4-2.7,15.1-9,17.1-17.2C30.9,10.3,29,8.4,26.9,8.1z M7.1,19.6c5.9-1.9,10.2-6.2,11.5-11.3 c0.3-1.3,1.3-1.9,2.3-2c0,0.2,0,0.3,0,0.5c-0.3,1.2-0.6,2.4-1.1,3.5c-0.2,0.1-0.3,0.2-0.5,0.4c-0.8,0.8-0.9,1.7-0.9,2.5 c-0.6,1-1.3,2-2.2,2.9c-0.3,0.1-0.5,0.2-0.6,0.2c-0.9,0.5-1.4,1.2-1.9,2c-0.7,0.5-1.4,1-2.2,1.4c-0.5,0-1.1,0.1-1.7,0.6 c-0.2,0.1-0.3,0.3-0.4,0.5c-0.9,0.4-2,0.7-3,1c-0.1,0-0.2,0-0.2,0c-0.3,0-0.6,0-0.9,0.1C5.3,20.9,5.9,20,7.1,19.6z M4.5,24.6 c-0.6,0.6-1.4-0.3-0.8-0.9c2-1.9,3.1-0.8,5.2-1.1c0.4-0.1,1.1-1.3,1.5-1.7c1.6-1.2,2.6,0.5,3.8-1.8c0.5-0.9,0.9-1.7,1.8-2.1 c0.8-0.4,3.2-0.8,3.2-2c0-0.6-0.1-0.9-0.1-1.4c0-0.8,0.1-1.6,0.7-2.3c0.4-0.4,2.1-1.1,2.1-1.5c0-2.1-1-2.9,0.2-5.6 c0.3-0.7,1.5-0.2,1.1,0.5c-1,2.2-0.1,3.1-0.1,5.1c0,1.7-1.7,1.5-2.5,2.4c-0.3,0.4-0.4,0.7-0.4,1.4c0,0.6,0.1,0.9,0.1,1.4 c0,2.2-2.4,2.4-3.9,3.1c-1.6,0.8-1.1,3.4-4.1,3.5c-0.4,0-0.9,0-1.3,0.2c-0.8,0.6-0.7,1.7-2.1,1.9C7.3,24,5.9,23.2,4.5,24.6z M29,12.8c-1.9,7.7-8.3,13.8-16.3,16.3c-1.8,0.6-3.1-0.4-3.6-1.9c-0.5-1.4,0-3,1.9-3.6c6.5-2.1,11.1-6.8,12.5-12.3 c0.5-1.9,2-2.4,3.5-2.1C28.3,9.7,29.4,10.9,29,12.8z" class="st2"/></g><g id="spoiler" class="st0"><g class="st1"><path d="M4.9,15.1c-1.2,0-2.1-0.2-2.8-0.7L2.4,13c0.2,0.2,0.6,0.4,1,0.6c0.5,0.2,1,0.3,1.5,0.3c1.1,0,1.6-0.3,1.6-1 c0-0.6-0.5-1-1.6-1.3c-0.3-0.1-0.6-0.2-0.9-0.3c-0.3-0.1-0.6-0.2-0.8-0.4c-0.2-0.2-0.4-0.4-0.6-0.6c-0.1-0.3-0.2-0.6-0.3-1 c0-0.7,0.2-1.3,0.7-1.7C3.6,7,4.3,6.8,5.4,6.8c0.7,0,1.5,0.2,2.2,0.5L7.4,8.6c-0.6-0.5-1.2-0.7-2-0.7c-1,0-1.6,0.4-1.6,1.1 c0,0.2,0,0.3,0.1,0.4C4,9.6,4.1,9.7,4.2,9.8C4.4,9.9,4.5,10,4.8,10s0.5,0.2,0.9,0.3c0.2,0.1,0.5,0.2,0.7,0.3 c0.3,0.1,0.5,0.3,0.7,0.5c0.2,0.2,0.4,0.4,0.6,0.7C7.9,12,8,12.4,8,12.7c0,0.3,0,0.5-0.1,0.8c-0.1,0.3-0.2,0.5-0.5,0.8 c-0.2,0.2-0.5,0.4-0.9,0.6C6.1,15.1,5.6,15.1,4.9,15.1z"/><path d="M13.5,15.1c-0.2,0-0.4,0-0.6-0.1s-0.5-0.1-0.7-0.2c-0.2-0.1-0.4-0.2-0.7-0.4c-0.2-0.1-0.4-0.3-0.5-0.5v5H9.5v-12h1.1 l0.2,1.1c0.4-0.4,0.8-0.8,1.2-1c0.4-0.2,0.9-0.3,1.5-0.3c0.5,0,1,0.1,1.5,0.3c0.4,0.2,0.8,0.5,1.1,0.9s0.6,0.8,0.7,1.3 c0.2,0.5,0.3,1,0.3,1.6c0,0.6-0.1,1.2-0.2,1.7s-0.4,1-0.7,1.3c-0.3,0.4-0.7,0.7-1.1,0.9C14.6,15,14,15.1,13.5,15.1z M13.3,8.1 c-0.3,0-0.6,0.1-0.9,0.2c-0.3,0.1-0.6,0.3-0.8,0.6c-0.2,0.2-0.4,0.5-0.5,0.9c-0.1,0.4-0.2,0.8-0.2,1.2c0,0.5,0.1,0.9,0.2,1.3 c0.1,0.4,0.3,0.7,0.5,0.9c0.2,0.2,0.5,0.4,0.8,0.5c0.3,0.1,0.6,0.2,0.9,0.2c0.3,0,0.6-0.1,0.9-0.2c0.3-0.1,0.5-0.3,0.7-0.6 c0.2-0.3,0.3-0.6,0.5-0.9c0.1-0.4,0.2-0.7,0.2-1.1c0-0.4-0.1-0.8-0.2-1.2c-0.1-0.4-0.3-0.7-0.5-0.9c-0.2-0.3-0.4-0.4-0.7-0.6 C13.9,8.1,13.6,8.1,13.3,8.1z"/><path d="M25,14c-0.7,0.8-1.7,1.2-2.9,1.2c-0.6,0-1.2-0.1-1.7-0.3c-0.5-0.2-0.9-0.5-1.3-0.9s-0.6-0.8-0.8-1.3 c-0.2-0.5-0.3-1.1-0.3-1.7c0-0.6,0.1-1.2,0.3-1.7c0.2-0.5,0.5-0.9,0.8-1.3s0.8-0.7,1.3-0.9c0.5-0.2,1-0.3,1.7-0.3 c0.6,0,1.2,0.1,1.7,0.3C24.3,7.3,24.7,7.6,25,8s0.6,0.8,0.8,1.3c0.2,0.5,0.3,1.1,0.3,1.6C26.1,12.2,25.7,13.2,25,14z M23.9,8.8 c-0.4-0.5-1-0.8-1.8-0.8s-1.4,0.2-1.8,0.7c-0.4,0.5-0.6,1.2-0.6,2.1s0.2,1.6,0.6,2.1c0.4,0.5,1,0.7,1.8,0.7c0.8,0,1.4-0.3,1.8-0.8 c0.4-0.5,0.6-1.2,0.6-2.1C24.6,10,24.4,9.3,23.9,8.8z"/><path d="M29.1,5.1h-1.5V3.5h1.5V5.1z M29.1,15h-1.5v-8h1.5V15z"/></g><g class="st1"><path d="M16.3,26.7l-0.2,1.2h-0.5c-0.7,0-1.2-0.2-1.5-0.5c-0.3-0.4-0.5-0.8-0.5-1.4V15.7H15v9.4c0,0.3,0,0.6,0,0.8 c0,0.2,0.1,0.4,0.2,0.5c0.1,0.1,0.2,0.2,0.4,0.2S16,26.7,16.3,26.7z"/><path d="M23.9,23.8h-5.7c0.2,1.9,1.2,2.8,2.9,2.8c0.8,0,1.6-0.2,2.3-0.5l0.2,1.1c-0.9,0.4-1.8,0.6-2.6,0.6c-0.7,0-1.3-0.1-1.8-0.3 c-0.5-0.2-1-0.5-1.3-0.9s-0.6-0.8-0.8-1.3c-0.2-0.5-0.3-1.1-0.3-1.6c0-0.6,0.1-1.1,0.3-1.6c0.2-0.5,0.4-0.9,0.8-1.3 s0.7-0.6,1.2-0.8s1-0.3,1.6-0.3c0.5,0,1,0.1,1.4,0.2s0.8,0.4,1.1,0.7c0.3,0.3,0.5,0.6,0.7,1C23.9,22,24,22.5,24,23 C24,23.3,24,23.6,23.9,23.8z M20.6,21c-1.2,0-1.9,0.6-2.2,1.8h4.1c0-0.6-0.2-1-0.5-1.3S21.2,21,20.6,21z"/><path d="M29.6,19.6l-0.3,1.6h-0.5c-0.2,0-0.3,0-0.5,0.1s-0.4,0.1-0.5,0.2c-0.2,0.1-0.3,0.2-0.5,0.3c-0.1,0.1-0.2,0.2-0.3,0.4v5.5 h-1.5v-7.8h1.2l0.2,1.3c0.5-0.6,0.9-1,1.3-1.2c0.4-0.3,0.8-0.4,1.3-0.4H29.6z"/></g></g><g id="VideoLoop" class="st0"><path d="M16.2,2.4c4.4,0.1,8.7,2.2,11.2,6.1c4.1,6.3,2.4,14.7-3.9,18.8c-6.2,4.1-14.7,2.4-18.8-3.8l-1.9,1.2l-0.2-4.2 l-0.2-4.3l3.8,1.9l3.8,1.9l-2,1.3c3,4.4,8.9,5.6,13.4,2.7c4.5-3,5.8-8.9,2.8-13.5s-9-5.7-13.5-2.8c-1.1,0.7-2.1,1.7-2.8,2.8 L4.6,8.5C5.7,7,7,5.7,8.6,4.6C10.9,3.1,13.6,2.4,16.2,2.4L16.2,2.4z" class="st1"/><path id="Triangle" d="M12.1,21.5L22.6,16l-10.5-5.5V21.5z" class="st3"/></g></svg>