<?xml version="1.0" encoding="utf-8"?>
<!-- Generator: Adobe Illustrator 19.1.0, SVG Export Plug-In . SVG Version: 6.00 Build 0)  -->
<!DOCTYPE svg PUBLIC "-//W3C//DTD SVG 1.1//EN" "http://www.w3.org/Graphics/SVG/1.1/DTD/svg11.dtd">
<svg version="1.1" xmlns="http://www.w3.org/2000/svg" xmlns:xlink="http://www.w3.org/1999/xlink" x="0px" y="0px"
	 viewBox="0 0 32 32" style="enable-background:new 0 0 32 32;" xml:space="preserve">
<style type="text/css">
	.st0{display:none;}
	.st1{display:inline;}
</style>
<g id="guides">
</g>
<g id="ButtonBold" class="st0">
	<g class="st1">
		<path d="M17.2,30.4H6.1V1.6h7.8c1.7,0,3.2,0.1,4.5,0.3c1.4,0.2,2.5,0.5,3.5,1.1c1,0.5,1.7,1.3,2.2,2.2c0.5,1,0.8,2.2,0.8,3.8
			c0,2.6-0.8,4.6-2.4,6c1.7,0.7,3,1.5,3.8,2.6c0.8,1.1,1.2,2.5,1.2,4.3c0,1.6-0.3,2.9-0.9,4c-0.6,1.1-1.4,2-2.3,2.6
			c-1,0.7-2.1,1.1-3.3,1.4C19.7,30.3,18.5,30.4,17.2,30.4z M16,6.1h-4.6v7.1h5.1c0.9,0,1.7-0.3,2.4-0.8c0.7-0.5,1-1.4,1-2.6
			c0-1.4-0.3-2.4-1-2.9C18.3,6.4,17.3,6.1,16,6.1z M16.8,17.4h-5.5v8.6h5.2c1.8,0,3.2-0.3,4.1-1c0.9-0.6,1.4-1.7,1.4-3.3
			C22,18.8,20.3,17.4,16.8,17.4z"/>
	</g>
</g>
<g id="ButtonItalic" class="st0">
	<g class="st1">
		<path d="M12.3,30.4l3.6-20.3h4.2l-3.6,20.3H12.3z M16.6,6.1l0.7-4.4h4.2l-0.8,4.4H16.6z"/>
	</g>
</g>
<g id="Underline" class="st0">
	<g class="st1">
		<path d="M25,24.1h-3.8l-0.3-1.9c-1.3,1.5-3,2.3-5.2,2.3c-5.3,0-7.9-3.1-7.9-9.2V3.8H12v10.8c0,2.1,0.4,3.7,1.1,4.7
			c0.7,1,1.8,1.5,3.4,1.5c1.9,0,3.4-0.7,4.4-2.1v-15H25V24.1z"/>
		<path d="M5.5,28.2v-2.1h22v2.1H5.5z"/>
	</g>
</g>
<g id="Strikethru">
	<path d="M25.1,15h-5.3c-0.5-0.2-1.1-0.4-1.6-0.6l-2.5-0.8c-0.9-0.3-1.5-0.6-1.7-1c-0.3-0.4-0.4-0.9-0.4-1.4c0-0.9,0.3-1.5,1-2
		c0.7-0.4,1.6-0.6,2.7-0.6c1.9,0,3.6,0.6,5.2,1.9l0.5-3.7c-1.7-0.9-3.6-1.4-5.8-1.4c-1.3,0-2.4,0.2-3.4,0.5
		c-0.9,0.3-1.7,0.8-2.3,1.3c-0.6,0.5-1.1,1.2-1.4,2c-0.3,0.8-0.5,1.6-0.5,2.4c0,1,0.2,1.8,0.5,2.5c0.2,0.3,0.4,0.6,0.6,0.8H7.9V17
		h6.2c0.2,0.1,0.3,0.1,0.5,0.2c1,0.3,1.8,0.6,2.6,0.8c0.8,0.2,1.4,0.6,1.8,0.9s0.7,1,0.7,1.7c0,0.7-0.3,1.3-0.9,1.8
		c-0.6,0.4-1.5,0.7-2.8,0.7c-1.3,0-2.5-0.2-3.6-0.7c-1.2-0.4-2-0.9-2.7-1.4l-0.5,3.8c1.7,1.1,4,1.7,6.9,1.7c1.6,0,2.9-0.2,3.9-0.6
		c1-0.4,1.8-0.9,2.4-1.5c0.6-0.6,1-1.2,1.2-1.9c0.2-0.7,0.3-1.4,0.3-2c0-1-0.2-1.8-0.5-2.5c-0.2-0.4-0.4-0.7-0.6-1h2.3V15z"/>
</g>
<g id="Pre" class="st0">
	<rect x="1" y="1" class="st1" width="29.8" height="3.4"/>
	<rect x="1" y="7.7" class="st1" width="14.6" height="3.3"/>
	<rect x="12.4" y="14.3" class="st1" width="18.2" height="3.3"/>
	<rect x="9.8" y="27.7" class="st1" width="15.1" height="3.3"/>
	<rect x="1" y="21" class="st1" width="29.8" height="3.3"/>
</g>
<g id="Left" class="st0">
	<rect x="1" y="1" class="st1" width="29.8" height="3.4"/>
	<rect x="1" y="7.7" class="st1" width="14.6" height="3.3"/>
	<rect x="1" y="14.3" class="st1" width="18.2" height="3.3"/>
	<rect x="1" y="27.7" class="st1" width="15.1" height="3.3"/>
	<rect x="1" y="21" class="st1" width="29.8" height="3.3"/>
</g>
<g id="Center" class="st0">
	<rect x="1" y="1" class="st1" width="29.8" height="3.4"/>
	<rect x="8.6" y="7.7" class="st1" width="14.6" height="3.3"/>
	<rect x="6.8" y="14.3" class="st1" width="18.2" height="3.3"/>
	<rect x="8.3" y="27.7" class="st1" width="15.1" height="3.3"/>
	<rect x="1" y="21" class="st1" width="29.8" height="3.3"/>
</g>
<g id="Right" class="st0">
	<rect x="1" y="1" class="st1" width="29.8" height="3.4"/>
	<rect x="16.2" y="7.7" class="st1" width="14.6" height="3.3"/>
	<rect x="12.6" y="14.3" class="st1" width="18.2" height="3.3"/>
	<rect x="15.7" y="27.7" class="st1" width="15.1" height="3.3"/>
	<rect x="1" y="21" class="st1" width="29.8" height="3.3"/>
</g>
</svg>
