<svg xmlns="http://www.w3.org/2000/svg" xmlns:xlink="http://www.w3.org/1999/xlink" x="0" y="0" enable-background="new 0 0 32 32" version="1.1" viewBox="0 0 32 32" xml:space="preserve"><g id="SpeechBubble"><path fill="#010101" d="M5,3h22.5c1.9,0,3.4,1.5,3.4,3.4v14.5c0,1.9-1.5,3.4-3.4,3.4h-9.8C14.3,28.1,9.1,29,9.1,29 c1.9-1.9,2-3.5,1.6-4.7H5c-1.9,0-3.4-1.5-3.4-3.4V6.4C1.7,4.5,3.2,3,5,3z"/></g><g id="Collapse"><rect width="29" height="2.6" x="1.6" y="3.1" fill="#010101"/><polygon fill="#010101" points="25.4 14.7 16.1 7.6 6.8 14.7 12.1 14.7 12.1 27.8 20.1 27.8 20.1 14.7"/></g><g id="Expand"><rect width="29" height="2.6" x="1.6" y="3.1" fill="#010101"/><polygon fill="#010101" points="6.8 20.7 16.1 27.8 25.4 20.7 20.1 20.7 20.1 7.6 12.1 7.6 12.1 20.7"/></g></svg>