<?xml version="1.0" encoding="utf-8"?>
<!-- Generator: Adobe Illustrator 18.1.1, SVG Export Plug-In . SVG Version: 6.00 Build 0)  -->
<!DOCTYPE svg PUBLIC "-//W3C//DTD SVG 1.1//EN" "http://www.w3.org/Graphics/SVG/1.1/DTD/svg11.dtd">
<svg version="1.1" id="Layer_1" xmlns="http://www.w3.org/2000/svg" xmlns:xlink="http://www.w3.org/1999/xlink" x="0px" y="0px"
	 viewBox="0 0 102.3 88.1" enable-background="new 0 0 102.3 88.1" xml:space="preserve">
<g>
	<path fill="#C1282D" d="M73.3,20.4c-12.8,0-24.3,5.6-32.2,14.4H92l-3.7,4c-1.8,2-1.8,2-3.4,4.4c-1.3,2-0.9,4.1-0.9,4.1l0.5,2.5
		H70.3l1.7-3.5l-9.2,0l-6.2,15.2h8l4.1-9.3l14.4,0L79,61.7h11l-5.6,13l-11.2,0l-4.3,9.7l-14.4,0l4.3-9.7l-7.8,0l-6,13.4
		c-0.8,1.7-1.8,3.3-3,4.7c7.9,8.4,19,13.7,31.5,13.7c23.8,0,43.1-19.3,43.1-43.1S97.1,20.4,73.3,20.4z"/>
</g>
<path fill="#CCCCCC" d="M86.8,63.8h-11l4.2-9.3l-9.8,0L66,63.8H53.5l7.9-19.4l14-0.1l-1.7,3.5h8.2c0,0-0.6-2.9,1.2-5.7
	c1.8-2.8,1.8-2.7,4.1-5.2H28.6c0,0-2.5,1.6-2.5,4.1c0,2.5,2.2,3.5,2.2,3.5l19.5-0.1l-8.4,19.4c-8.6,3.2-14.7,8.9-18.3,17L17,89.9
	c-0.3,0.7-0.5,1.3-0.5,2c0,1.8,1.2,3.2,3.6,4.3c2,0.9,4.1,1.3,6.4,1.3c3.5,0,6.6-0.8,9.4-2.4c3.2-1.8,5.5-4.3,7-7.6l6.6-14.6l12.4,0
	l-4.3,9.7l9.8,0l4.3-9.7l11.2,0L86.8,63.8z M28,89.3c-0.5,1-1.2,1.5-2.2,1.5c-0.9,0-1.3-0.3-1.3-0.9c0-0.1,0-0.3,0.1-0.4l3.9-8.8
	c2.1-4.7,4.4-7.4,6.9-8C32,80.1,29.5,85.6,28,89.3z"/>
</svg>
