<svg xmlns="http://www.w3.org/2000/svg" xmlns:xlink="http://www.w3.org/1999/xlink" id="Layer_1" x="0" y="0" version="1.1" viewBox="0 0 102 88" xml:space="preserve" style="enable-background:new 0 0 102 88"><style type="text/css">.st0{fill:#c1282d}.st1{fill:#222}</style><g><path d="M58.3,1.3c-12.6,0-23.9,5.5-31.7,14.2h50.1l-3.7,3.9c-1.8,1.9-1.8,2-3.4,4.4c-1.3,2-0.9,4.1-0.9,4.1l0.5,2.5 H55.3l1.7-3.5l-9.1,0l-6.1,15h7.9l4.1-9.1l14.2,0L63.9,42h10.8l-5.5,12.8l-11.1,0l-4.3,9.6l-14.2,0l4.3-9.6l-7.7,0l-6,13.2 c-0.8,1.7-1.8,3.3-3,4.6c7.7,8.3,18.8,13.5,31,13.5c23.4,0,42.5-19,42.5-42.5S81.8,1.3,58.3,1.3z" class="st0"/></g><path d="M71.6,44H60.7l4.1-9.2l-9.7,0L51.1,44H38.8l7.8-19.1l13.8-0.1l-1.7,3.5h8.1c0,0-0.6-2.8,1.2-5.6	c1.8-2.8,1.8-2.7,4.1-5.1H14.3c0,0-2.5,1.6-2.5,4C11.8,24,14,25,14,25l19.2-0.1L24.8,44c-8.5,3.2-14.5,8.8-18,16.7l-4,9	c-0.3,0.7-0.5,1.3-0.5,1.9c0,1.8,1.2,3.2,3.6,4.2c2,0.9,4.1,1.3,6.3,1.3c3.4,0,6.5-0.8,9.3-2.4c3.1-1.8,5.4-4.3,6.9-7.5l6.5-14.4	l12.2,0l-4.3,9.6l9.7,0l4.3-9.6l11.1,0L71.6,44z M13.6,69.2c-0.5,1-1.2,1.5-2.2,1.5c-0.9,0-1.3-0.3-1.3-0.9c0-0.1,0-0.2,0.1-0.4	l3.9-8.6c2-4.7,4.3-7.3,6.8-7.9C17.6,60.2,15.2,65.6,13.6,69.2z" class="st1"/></svg>