<svg xmlns="http://www.w3.org/2000/svg" xmlns:xlink="http://www.w3.org/1999/xlink" x="0" y="0" enable-background="new 0 0 32 32" version="1.1" viewBox="0 0 32 32" xml:space="preserve"><g id="You"><path fill="#010101" d="M28.8,1.5L3.3,1.5c0,0,0,0,0,0l0,1l25.4,0.1c0.6,0,1,0.5,1,1l-0.1,19.2c0,0.5-0.5,1-1,1l-8.4,0l-0.4,0 l-0.3,0.3c-1.6,1.7-3.6,2.8-5.2,3.4c0.5-1.2,0.4-2.2,0.2-3l-0.2-0.7l-0.8,0l-10.3,0c-0.6,0-1-0.5-1-1L2.3,3.5c0-0.5,0.5-1,1-1v-1 c-1.1,0-2,0.9-2,2L1.3,22.7c0,1.1,0.9,2,2,2l10.3,0c0.3,1.2,0.1,2.7-1.6,4.5c0,0,5-0.8,8.4-4.5l8.4,0c0,0,0,0,0,0c1.1,0,2-0.9,2-2 l0.1-19.2C30.8,2.4,29.9,1.5,28.8,1.5z"/></g><g id="Layer_13"><path fill="#ED1D24" d="M27,14.2c-1-1.1-1.8-1.8-2.3-3c-0.7-1.7-0.1-4.3-0.1-4.3s0.1-0.2-0.1-0.3c-0.2-0.1-0.3,0.1-0.3,0.1 s-2,2.3-1.8,5c0.2,2.6,1.8,3.8,1.4,6c-0.4,2.3-2.6,4-2.6,4s2.5-2.8,0.9-6.3c-1.1-2.5-3.8-3.7-3.8-3.7s-0.3-0.2-0.4,0 c-0.1,0.1,0,0.4,0,0.4s1.9,2.5,1.3,5.4c-0.3,1.6-1.8,3.5-1.8,3.5s2.2-2.8,0.3-5.9c-0.5-0.8-1.1-2.3-0.9-3.9C17,9,19.5,8,19.5,8 s0.2-0.1,0.2-0.2c0-0.2-0.2-0.2-0.2-0.2s-3-0.1-5,2.9c-1.1,1.7-0.9,3.6-2.2,5c-1.4,1.6-3.2,2.1-3.2,2.1s2.8-3.2,3-7.3 c0.1-3.3-1.6-6.7-1.6-6.7s-0.3-0.5-0.5-0.4c-0.3,0-0.2,0.5-0.2,0.5S10.4,7.6,9,9.3c-1.3,1.7-5.2,2.8-5.7,6.9 c-0.7,5.4,2.3,7.4,2.3,7.4h6.7c-0.3-1.2-0.3-2.5,0-3.5c0.6-2,2.3-3.5,2.3-3.5s-1.1,4.2-0.3,7.1c0.7,2.5,0,3.8,0,3.8 s1.5-0.4,3.3-1.6c0.7-0.5,1.7-1.5,2.3-2.1c0.2-0.3,3.8-1.1,4.3-1.7c1.5-1.5,1.8-3,1.8-3s0.5,1,0,2.6c-0.3,1-0.8,1.5-1.3,2.1h2.9 C27.7,23.7,31.3,19.1,27,14.2z"/><path fill="#ED1D24" d="M26.6,11.3c-0.2-1.6,0.8-3,2.2-3.4c-0.4-0.2-0.7-0.3-1.2-0.2c-1.2,0.1-2.1,1.3-2,2.6 c0.1,0.8,0.6,1.4,1.1,1.8C26.7,11.9,26.7,11.6,26.6,11.3z"/></g></svg>