<svg xmlns="http://www.w3.org/2000/svg" xmlns:xlink="http://www.w3.org/1999/xlink" id="Layer_1" width="700.465" height="409.48" x="0" y="0" baseProfile="tiny" version="1.2" viewBox="0 0 700.465 409.48" xml:space="preserve"><g><g><path fill="#15703B" fill-rule="evenodd" d="M218.582,16.141c-6.406-2.837-11.342-6.224-20.16-6.24 c-22.38-0.041-33.996,15.354-42.96,29.28c5.458-15.443,19.78-30.128,40.8-31.2C205.364,7.517,214.396,9.773,218.582,16.141z"/><path fill="#15703B" fill-rule="evenodd" d="M225.302,31.021c-8.626-5.27-16.06-11.781-29.76-10.8 c-14.628,1.048-25.996,9.143-33.12,18.24c-2.53,3.231-3.245,7.625-6.96,10.08c2.189-15.925,19.047-30.754,38.16-32.16 C208.562,15.282,220.747,20.394,225.302,31.021z"/><path fill="#0B9F58" fill-rule="evenodd" d="M557.702,152.941c17.32,2.6,33.391,6.45,48,11.76 C592.264,181.891,560.045,172.32,557.702,152.941z"/><path fill="#0B9F58" fill-rule="evenodd" d="M608.822,165.901c17.61,7.029,32.707,16.573,45.36,28.56 C635.429,211.288,600.536,194.82,608.822,165.901z"/><path fill="#0B9F58" fill-rule="evenodd" d="M681.782,242.221c2.95,11.617,3.233,27.622,1.68,41.04 C661.152,282.397,660.188,244.646,681.782,242.221z"/><path fill="#0B9F58" fill-rule="evenodd" d="M536.582,268.141c6.173,7.921-1.179,20.923-12,16.8 c3.164-6.356,7.558-11.482,11.76-16.8C536.422,268.141,536.502,268.141,536.582,268.141z"/><path fill="#0B9F58" fill-rule="evenodd" d="M523.862,285.901c8.729,3.323,7.236,20.475-2.16,21.84 c5.729,8.21,0.998,23.609-11.28,22.56c10.331,1.777,11.461,20.755,1.2,23.521C506.118,328.024,514.2,302.542,523.862,285.901z"/><path fill="#0B9F58" fill-rule="evenodd" d="M139.622,366.781c-13.138-1.262-25.539-3.262-36.48-6.72 c11.187-7.692,30.839-2.691,36.48,6.479C139.622,366.621,139.622,366.701,139.622,366.781z"/><path fill="#0B9F58" fill-rule="evenodd" d="M174.902,367.26c-12.033-0.225-22.227,0.538-33.12-0.479 c7.471-6.847,25.694-6.093,33.12,0.24C174.902,367.101,174.902,367.18,174.902,367.26z"/><path fill="#4FB95D" fill-rule="evenodd" d="M156.422,73.741c2.574-2.226,5.517-4.083,8.4-6 c-4.601,18.034-1.241,44.811,14.16,48.96c15.841,4.268,26.307-11.878,30.96-23.52c2.937,3.007,8.579,7.29,14.64,5.28 c11.302-3.747,9.033-25.48,4.56-35.28c22.343,10.297,39.577,25.703,49.2,48.72c-20.602-4.54-45.149-1.804-61.68,5.04 c-14.598,6.043-33.671,18.706-35.04,36.479c-1.225,15.905,13.875,24.302,24.48,29.04c13.536,6.048,29.421,10.795,46.32,8.88 c-7.159,4.842-19.29,9.793-30.72,10.56c-34.712,2.327-56.241-15.321-73.92-31.68c0.266,1.014,0.764,1.795,0.96,2.88 c-9.123,6.775-16.158,16.128-23.28,25.68c-6.37,8.543-12.01,17.126-15.36,27.6c-8.566,26.786,1.562,48.791,25.68,53.28 c25.577,4.761,48.513-4.317,68.16-11.76c20.649-7.822,40.806-17.312,60.24-26.16c-11.149,36.325-1.019,80.8,16.32,103.2 c-35.044,11.024-66.02,19.567-105.6,22.319c0-0.08,0-0.159,0-0.239c-7.426-6.333-25.649-7.087-33.12-0.24 c-1.115,0.141-1.449-0.328-2.16,0c0-0.08,0-0.16,0-0.24c-5.641-9.171-25.293-14.172-36.48-6.479c-0.24,0-0.48,0-0.72,0 c-1.018-22.181-15.419-35.836-39.12-32.16c10.471-17.531-0.219-42.824-19.2-44.88c11.525-6.918,22.769-19.856,20.16-39.36 c-1.407-10.518-7.139-17.997-12.96-23.76c28.604,3.35,40.098-33.152,22.8-50.16c17.635,13.344,45.202-3.272,36.72-26.88 c7.607,2.23,15.414-0.881,18.48-5.52c-0.792-2.428,5.064-8.605,1.92-14.16c10.095,2.891,14.982-9.646,9.12-16.56 c5.545-0.785,9.263-9.007,5.28-14.16c3.559-1.241,5.467-4.133,5.04-9.36C157.125,84.289,157.287,77.089,156.422,73.741z M249.782,103.021c0.703-2.092,0.149-5.023,0.96-7.44C246.988,92.399,244.823,103.478,249.782,103.021z M259.622,102.541 c1.51-1.05,1.146-3.975,1.2-6.48C257.414,92.978,256.37,102.188,259.622,102.541z"/><path fill="#0B9F58" fill-rule="evenodd" d="M102.422,360.061c-22.946-7.218-39.186-17.8-54.72-34.32 c-14.106-15.001-27.136-34.752-25.92-62.4c0.859-19.538,8.301-35.594,16.32-48.959c22.968-38.281,57.676-64.975,89.04-93.12 c0.493-0.387,0.557-1.204,0.48-2.16c1.101-0.238,1.491,1.029,2.4,0.24c4.637-19.363,12.699-35.302,26.4-45.6 c0.864,3.348,0.703,10.548-5.76,9.36c0.427,5.227-1.481,8.119-5.04,9.36c3.983,5.153,0.266,13.375-5.28,14.16 c5.862,6.914,0.975,19.451-9.12,16.56c3.145,5.555-2.712,11.732-1.92,14.16c-3.066,4.639-10.873,7.75-18.48,5.52 c8.481,23.608-19.085,40.224-36.72,26.88c17.298,17.008,5.805,53.51-22.8,50.16c5.821,5.763,11.553,13.242,12.96,23.76 c2.609,19.504-8.635,32.442-20.16,39.36c18.981,2.056,29.671,27.349,19.2,44.88C87.003,324.225,101.405,337.88,102.422,360.061z"/><path fill="#FFF" fill-rule="evenodd" d="M219.062,121.5c2.902-3.5,8.811-3.242,12.48-5.04c0.03,3.101-3.545,7.401-4.08,10.8 C224.253,125.75,221.688,123.595,219.062,121.5z"/><path fill="#70896D" fill-rule="evenodd" d="M690.422,259.741c0.781,3.287,0.779,10.418,0,12.96 C690.44,267.883,690.446,264.537,690.422,259.741z"/><path fill="#0B9F58" fill-rule="evenodd" d="M511.862,354.781c11.104-2.344,17.629,9.062,12.479,17.76 c8.457-4.845,19.487,0.247,19.92,9.36c5.325-6.357,20.754-4.441,22.561,4.56c3.087-6.293,17.964-8.386,22.56-1.2 c1.577-9.174,15.031-14.913,24-8.64c-0.764-12.23,9.889-18.996,20.88-14.88c-4.503-12.789,7.194-25.381,20.4-19.68 c-6.659-11.97,0.527-29.36,16.56-27.601c-8.331-10.024-2.212-29.317,12-29.52c-5.131,28.227-17.712,52.549-35.76,72 c-16.953,18.271-42.12,33.539-72.72,35.279c-31.632,1.8-54.412-13.906-62.88-37.199 C511.862,354.941,511.862,354.861,511.862,354.781z"/><path fill="#0B9F58" fill-rule="evenodd" d="M657.542,197.581c11.3,11.101,19.528,25.271,24,43.2 C655.442,246.305,641.549,214.034,657.542,197.581z"/><path fill="#4FB95D" fill-rule="evenodd" d="M501.542,246.061c-8.567-31.752-26.086-54.555-49.68-71.28 c9.897-1.622,16.075-6.965,18.72-15.84c4.436,4.549,9.678,8.524,17.521,8.64c12.321,0.182,17.448-8.732,22.56-15.84 c6.674,14.352,36.137,15.792,43.44,0.96c0.16,0,0.319,0,0.479,0c1.509,0.059,1.639,0.079,3.12,0.24 c2.343,19.379,34.562,28.95,48,11.76c1.058,0.382,2.002,0.877,3.12,1.2c-8.286,28.919,26.606,45.387,45.36,28.56 c1.188,0.893,2.059,2.102,3.359,2.88c0,0.08,0,0.16,0,0.24c-15.993,16.454-2.1,48.724,24,43.2c-0.031,0.591-0.036,1.156,0.24,1.44 c-21.594,2.426-20.63,40.176,1.68,41.04c-0.33,0.31-0.237,1.043-0.24,1.681c-14.212,0.202-20.331,19.495-12,29.52 c-16.032-1.76-23.219,15.631-16.56,27.601c-13.206-5.701-24.903,6.891-20.4,19.68c-10.991-4.116-21.644,2.649-20.88,14.88 c-8.969-6.273-22.423-0.534-24,8.64c-4.596-7.186-19.473-5.093-22.56,1.2c-1.807-9.001-17.235-10.917-22.561-4.56 c-0.433-9.113-11.463-14.205-19.92-9.36c5.149-8.698-1.375-20.104-12.479-17.76c0.018-0.418-0.054-0.746-0.24-0.96 c10.261-2.766,9.131-21.743-1.2-23.521c12.278,1.05,17.009-14.35,11.28-22.56c9.396-1.365,10.89-18.517,2.16-21.84 c0.051-0.27,0.267-0.374,0.479-0.48c0.054-0.186,0.007-0.474,0.24-0.479c10.821,4.123,18.173-8.879,12-16.8 c9.301-10.62,20.439-19.401,34.8-24.96c-9.35,5.51-14.415,14.416-21.359,21.36c-10.755,10.754-17.376,23.971-15.84,42.24 c1.637,19.479,11.757,31.388,31.92,32.64c23.044,1.432,42.375-5.45,54.239-18.479c10.25-11.256,17.746-28.28,16.561-47.04 c-2.294-36.29-38.013-46.613-74.88-44.64C539.716,230.455,519.318,236.39,501.542,246.061z"/><path fill="#15703B" fill-rule="evenodd" d="M149.462,373.741c-56.561-1.733-93.268-22.978-117.84-57.6 c-10.061-14.177-17.451-30.451-16.08-55.2c2.021-36.489,24.092-61.049,42-82.8c19.307-23.451,43.855-39.773,65.76-58.8 c6.083-5.922,6.675-16.512,10.08-24.24c6.841-15.529,17.872-27.239,34.8-35.52c2.921-16.213,32.742-25.012,40.56-7.2 c3.132,1.103,6.148-1.078,9.36-0.96c2.723,0.1,3.771,2.26,6,3.36c6.063,2.994,12.146,4.239,17.76,7.68 c14.946,9.162,32.572,23.686,37.68,42c0.816,2.926,0.054,8.502,2.16,10.08c-0.65,2.16-4.027,0.709-6,0.72 c-2.799,2.901-5.033,8.991-9.6,9.36c-5.235,0.424-8.196-6.049-9.36-10.8c-7.213-0.151-14.958,0.821-21.36,1.92 c-1.855,4.375-3.612,10.264-7.68,13.68c-5.063-0.403-9.27-3.453-11.52-7.44c-17.37,5.932-43.179,31.938-21.84,48.24 c1.92,1.691,5.228,4.043,8.16,5.52c14.969,9.077,34.894,11.866,54.96,13.68c-8.317,12.648-28.045,19.672-50.16,17.76 c-24.702-2.136-43.458-13.882-55.44-30c-9.268,8.292-17.916,19.08-25.92,31.2c-8.062,12.207-18.792,37.136-8.16,53.28 c14.603,22.176,56.764,10.2,78.24,2.16c25.036-9.373,48.004-20.444,71.28-30.96c-1.258,2.741-2.053,5.947-3.12,8.88 c-19.434,8.848-39.59,18.338-60.24,26.16c-19.647,7.442-42.583,16.521-68.16,11.76c-24.118-4.489-34.247-26.494-25.68-53.28 c3.35-10.474,8.99-19.057,15.36-27.6c7.123-9.552,14.157-18.905,23.28-25.68c-0.196-1.084-0.694-1.866-0.96-2.88 c17.679,16.359,39.208,34.007,73.92,31.68c11.431-0.767,23.562-5.718,30.72-10.56c-16.899,1.915-32.784-2.832-46.32-8.88 c-10.604-4.738-25.705-13.135-24.48-29.04c1.369-17.773,20.442-30.437,35.04-36.479c16.531-6.844,41.079-9.58,61.68-5.04 c-9.623-23.018-26.857-38.423-49.2-48.72c4.473,9.8,6.742,31.533-4.56,35.28c-6.061,2.01-11.703-2.273-14.64-5.28 c-4.653,11.642-15.12,27.788-30.96,23.52c-15.4-4.149-18.761-30.926-14.16-48.96c-2.883,1.917-5.826,3.774-8.4,6 c-13.702,10.298-21.763,26.237-26.4,45.6c-0.909,0.789-1.299-0.478-2.4-0.24c0.077,0.957,0.013,1.773-0.48,2.16 c-31.364,28.146-66.072,54.839-89.04,93.12c-8.019,13.365-15.461,29.422-16.32,48.959c-1.216,27.648,11.814,47.399,25.92,62.4 c15.535,16.521,31.774,27.103,54.72,34.32c0.24,0,0.48,0,0.72,0c10.941,3.458,23.342,5.458,36.48,6.72 c0.711-0.328,1.045,0.141,2.16,0c10.894,1.018,21.087,0.255,33.12,0.479c39.58-2.752,70.556-11.295,105.6-22.319 c1.163,1.798,2.608,3.312,3.6,5.279c-33.469,11.251-68.182,21.258-110.64,23.521C165.462,373.741,157.462,373.741,149.462,373.741 z M176.582,51.181c-10.1,10.36-15.314,39.765-7.2,53.04c7.361,12.044,19.326,12.449,29.28,2.64 c8.258-8.138,13.959-24.868,12.72-38.64c-0.917-10.186-8.144-22.949-18-23.52C187.228,43.87,179.921,47.756,176.582,51.181z M214.262,81.901c-0.896-0.372-0.113-2.051-0.96-1.92c0.537,4.665-2.679,6.07-1.92,10.08c0.884,4.668,9.323,7.553,13.44,5.28 c13.518-7.463-1.828-57.128-12.96-35.76c2.183,3.591,2.038,10.215,2.64,14.4c0.135-0.345,0.375-0.585,0.72-0.72 C214.84,76.079,213.851,78.29,214.262,81.901z M266.102,121.98c2.26-2.22,4.445-4.515,6.48-6.96 c-4.489-1.023-7.801-0.505-12.96-1.2C261.119,117.204,262.832,120.371,266.102,121.98z M227.462,127.261 c0.535-3.399,4.11-7.7,4.08-10.8c-3.669,1.798-9.578,1.54-12.48,5.04C221.688,123.595,224.253,125.75,227.462,127.261z"/><path fill="#FFF" fill-rule="evenodd" d="M259.622,113.821c5.159,0.694,8.471,0.177,12.96,1.2 c-2.035,2.445-4.22,4.74-6.48,6.96C262.832,120.371,261.119,117.204,259.622,113.821z"/><path fill="#C93834" fill-rule="evenodd" d="M194.342,170.221c14.535-19.442,64.174-39.752,90.48-18.24 c4.785,3.914,8.831,10.202,8.88,18.24c0.017,2.831-1.159,16.076-6.96,14.4c-2.973-0.859-0.603-4.041-0.48-6 c0.546-8.697-10.573-13.157-15.36-17.04c1.552,4.875,2.39,10.849,1.92,17.04c-0.309,4.074-0.892,13.47-5.52,11.76 c-3.654-1.35-0.969-8.6-1.68-12.24c-5.124-26.235-49.597-15.305-63.12-2.4C199.57,174.264,196.262,171.912,194.342,170.221z"/><path fill="#0B9F58" fill-rule="evenodd" d="M451.862,174.781c-6.231-4.088-12.75-7.891-19.92-11.04 c33.396-11.042,80.528-16.694,122.64-11.04c-0.16,0-0.319,0-0.479,0c-7.304,14.833-36.767,13.392-43.44-0.96 c-5.111,7.108-10.238,16.022-22.56,15.84c-7.843-0.116-13.085-4.09-17.521-8.64C467.938,167.816,461.76,173.159,451.862,174.781z"/><path fill="#15703B" fill-rule="evenodd" d="M427.143,161.581c44.346-21.005,121.828-20.569,172.319-5.52 c24.085,7.179,45.457,20.708,61.44,36c16.855,16.127,27.749,38.716,29.52,67.68c0.024,4.796,0.019,8.143,0,12.96 c-3.228,41.866-19.559,69.479-42.239,92.16c-10.852,10.851-24.37,20.039-40.801,26.399c-15.568,6.027-37.908,10.269-57.12,5.04 c-17.137-4.663-30.985-14.789-39.119-28.08c-8.536-13.944-9.283-36.33-4.08-55.68c6.32-23.505,21.395-48.012,41.52-59.28 c10.529-5.896,19.704-14.628,34.561-13.2c-16.348,6.614-30.464,20.594-38.16,36.96c-6.483,13.787-8.046,37.744,2.64,49.199 c9.912,10.626,34.808,8.308,49.44,3.36c15.335-5.185,24.189-16.499,30.239-30.72c7.066-16.608,4.002-35.828-5.279-47.04 c-18.104-21.872-67.829-19.963-98.4-10.8c-2.049,0.614-15.685,5.33-21.359,7.92c-0.412-0.788-0.636-1.765-0.721-2.88 c17.776-9.671,38.174-15.606,60.48-16.8c36.867-1.973,72.586,8.35,74.88,44.64c1.186,18.76-6.311,35.784-16.561,47.04 c-11.864,13.029-31.195,19.911-54.239,18.479c-20.163-1.252-30.283-13.161-31.92-32.64c-1.536-18.27,5.085-31.486,15.84-42.24 c6.944-6.944,12.01-15.85,21.359-21.36c-14.36,5.559-25.499,14.34-34.8,24.96c-0.08,0-0.16,0-0.24,0 c-4.202,5.317-8.596,10.443-11.76,16.8c-0.233,0.006-0.187,0.294-0.24,0.479c-0.213,0.106-0.429,0.211-0.479,0.48 c-9.662,16.642-17.744,42.123-12.24,67.92c0.187,0.214,0.258,0.542,0.24,0.96c0,0.08,0,0.16,0,0.24 c8.468,23.293,31.248,38.999,62.88,37.199c30.6-1.74,55.767-17.008,72.72-35.279c18.048-19.451,30.629-43.773,35.76-72 c0.003-0.638-0.09-1.371,0.24-1.681c1.554-13.418,1.271-29.423-1.68-41.04c-0.276-0.284-0.271-0.849-0.24-1.44 c-4.472-17.929-12.7-32.099-24-43.2c0-0.08,0-0.16,0-0.24c-1.301-0.779-2.172-1.988-3.359-2.88 c-12.653-11.987-27.75-21.53-45.36-28.56c-1.118-0.323-2.063-0.818-3.12-1.2c-14.609-5.31-30.68-9.16-48-11.76 c-1.481-0.161-1.611-0.181-3.12-0.24c-42.111-5.654-89.243-0.002-122.64,11.04C430.429,162.934,428.559,162.484,427.143,161.581z"/><path fill="#70896D" fill-rule="evenodd" d="M149.462,373.741c8,0,16,0,24,0C166.022,374.141,156.902,374.141,149.462,373.741z"/><path fill="#15703B" fill-rule="evenodd" d="M250.742,95.581c-0.811,2.417-0.257,5.348-0.96,7.44 C244.823,103.478,246.988,92.399,250.742,95.581z"/><path fill="#15703B" fill-rule="evenodd" d="M260.822,96.061c-0.055,2.505,0.31,5.43-1.2,6.48 C256.37,102.188,257.414,92.978,260.822,96.061z"/><path fill="#094020" fill-rule="evenodd" d="M198.422,72.301c4.574,0.143,3.342,9.984,0,10.32 C194.668,82.998,193.227,72.139,198.422,72.301z"/><path fill="#094020" fill-rule="evenodd" d="M215.222,73.261c0.269-0.051,0.374-0.267,0.48-0.48 c9.145-1.023,5.409,17.866-1.44,9.36c0-0.08,0-0.16,0-0.24C213.851,78.29,214.84,76.079,215.222,73.261z"/><path fill="#E4E17C" fill-rule="evenodd" d="M193.382,44.701c9.856,0.571,17.083,13.334,18,23.52 c1.239,13.772-4.462,30.502-12.72,38.64c-9.954,9.809-21.918,9.404-29.28-2.64c-8.114-13.275-2.9-42.68,7.2-53.04 C179.921,47.756,187.228,43.87,193.382,44.701z M198.422,82.621c3.342-0.336,4.574-10.177,0-10.32 C193.227,72.139,194.668,82.998,198.422,82.621z"/><path fill="#E4E17C" fill-rule="evenodd" d="M215.222,73.261c-0.346,0.134-0.585,0.375-0.72,0.72 c-0.602-4.185-0.457-10.809-2.64-14.4c11.132-21.368,26.478,28.297,12.96,35.76c-4.117,2.273-12.556-0.612-13.44-5.28 c-0.759-4.01,2.457-5.415,1.92-10.08c0.847-0.131,0.064,1.549,0.96,1.92c0,0.08,0,0.16,0,0.24 c6.849,8.506,10.584-10.383,1.44-9.36C215.596,72.994,215.491,73.21,215.222,73.261z"/></g></g><g><g><circle cx="381.08" cy="276.936" r="119.255" fill="none" stroke="#C52B28" stroke-width="10"/><circle cx="381.08" cy="276.936" r="119.255" fill="#F15E4F" fill-rule="evenodd"/></g><g><g><path fill="none" stroke="#E0DEDE" stroke-linejoin="round" stroke-width="4" d="M348.568,263.923 c4.505-0.84,7.804-2.226,9.875-4.191c2.071-1.964,3.107-4.941,3.107-8.916c0-1.816,0-3.635,0-5.451 c0-3.825-1.438-6.609-4.308-8.272c-2.869-1.652-8.337-2.598-16.325-2.459c7.167-1.515,12.01-2.915,14.462-4.454 s3.684-4.01,3.684-7.438c0-5.065-1.741-8.609-5.211-10.481c-3.474-1.866-8.027-2.745-13.631-2.464 c-5.602,0.289-13.83,1.597-24.478,4.718c-11.229,3.302-22.243,7.449-32.931,12.445c0,14.083,0,28.167,0,42.252 c12.393-1.258,25.224-2.267,38.321-3.029C334.81,265.398,344.071,264.774,348.568,263.923z M315.824,223.39 c3.477-0.859,5.834-1.295,7.046-1.391c1.212-0.097,2.198,0.119,2.955,0.642c0.756,0.523,1.136,1.642,1.136,3.341 c0,3.224-0.461,5.258-1.378,6.095c-0.921,0.844-3.054,1.545-6.383,2.181c-0.805,0.155-1.932,0.385-3.376,0.699 C315.824,231.101,315.824,227.245,315.824,223.39z M315.824,243.052c5.028-0.775,8.166-0.933,9.353-0.613 c1.188,0.323,1.784,1.658,1.784,3.985c0,1.689,0,3.379,0,5.068c0,2.195-0.665,3.634-1.986,4.307 c-1.322,0.679-4.391,1.255-9.15,1.806C315.824,252.755,315.824,247.903,315.824,243.052z"/><path fill="#333" d="M348.568,263.923c4.505-0.84,7.804-2.226,9.875-4.191c2.071-1.964,3.107-4.941,3.107-8.916 c0-1.816,0-3.635,0-5.451c0-3.825-1.438-6.609-4.308-8.272c-2.869-1.652-8.337-2.598-16.325-2.459 c7.167-1.515,12.01-2.915,14.462-4.454s3.684-4.01,3.684-7.438c0-5.065-1.741-8.609-5.211-10.481 c-3.474-1.866-8.027-2.745-13.631-2.464c-5.602,0.289-13.83,1.597-24.478,4.718c-11.229,3.302-22.243,7.449-32.931,12.445 c0,14.083,0,28.167,0,42.252c12.393-1.258,25.224-2.267,38.321-3.029C334.81,265.398,344.071,264.774,348.568,263.923z M315.824,223.39c3.477-0.859,5.834-1.295,7.046-1.391c1.212-0.097,2.198,0.119,2.955,0.642c0.756,0.523,1.136,1.642,1.136,3.341 c0,3.224-0.461,5.258-1.378,6.095c-0.921,0.844-3.054,1.545-6.383,2.181c-0.805,0.155-1.932,0.385-3.376,0.699 C315.824,231.101,315.824,227.245,315.824,223.39z M315.824,243.052c5.028-0.775,8.166-0.933,9.353-0.613 c1.188,0.323,1.784,1.658,1.784,3.985c0,1.689,0,3.379,0,5.068c0,2.195-0.665,3.634-1.986,4.307 c-1.322,0.679-4.391,1.255-9.15,1.806C315.824,252.755,315.824,247.903,315.824,243.052z"/></g><g><path fill="none" stroke="#E0DEDE" stroke-linejoin="round" stroke-width="4" d="M355.092,274.215 c-2.837-1.792-7.075-3.111-12.681-3.915c-5.603-0.8-13.603-1-23.817-0.521c-12.586,0.584-24.915,1.344-36.832,2.277 c0,20.798,0,41.598,0,62.395c11.833,5.61,24.071,10.179,36.564,13.7c0-10.519,0-21.038,0-31.557 c3.353,0.501,6.725,0.962,10.111,1.386c8.275,1.03,15.057,0.984,20.256,0.021c5.202-0.964,8.793-2.755,10.75-5.226 c1.955-2.473,2.937-6.529,2.937-12.13c0-2.544,0-5.093,0-7.64c0-5.488-0.506-9.549-1.516-12.163 C359.855,278.227,357.93,276.011,355.092,274.215z M330.328,296.758c0,3.036-0.677,4.995-2.024,5.85 c-1.349,0.858-3.763,1.138-7.215,0.83c-0.772-0.07-1.693-0.169-2.763-0.301c0-6.646,0-13.295,0-19.939 c4.867,0.043,8.104,0.479,9.662,1.338c1.558,0.856,2.34,2.692,2.34,5.494C330.328,292.272,330.328,294.516,330.328,296.758z"/><path fill="#333" d="M355.092,274.215c-2.837-1.792-7.075-3.111-12.681-3.915c-5.603-0.8-13.603-1-23.817-0.521 c-12.586,0.584-24.915,1.344-36.832,2.277c0,20.798,0,41.598,0,62.395c11.833,5.61,24.071,10.179,36.564,13.7 c0-10.519,0-21.038,0-31.557c3.353,0.501,6.725,0.962,10.111,1.386c8.275,1.03,15.057,0.984,20.256,0.021 c5.202-0.964,8.793-2.755,10.75-5.226c1.955-2.473,2.937-6.529,2.937-12.13c0-2.544,0-5.093,0-7.64 c0-5.488-0.506-9.549-1.516-12.163C359.855,278.227,357.93,276.011,355.092,274.215z M330.328,296.758 c0,3.036-0.677,4.995-2.024,5.85c-1.349,0.858-3.763,1.138-7.215,0.83c-0.772-0.07-1.693-0.169-2.763-0.301 c0-6.646,0-13.295,0-19.939c4.867,0.043,8.104,0.479,9.662,1.338c1.558,0.856,2.34,2.692,2.34,5.494 C330.328,292.272,330.328,294.516,330.328,296.758z"/></g><g><path fill="none" stroke="#E0DEDE" stroke-linejoin="round" stroke-width="4" d="M344.766,327.246 c-7.265-0.69-13.093,4.521-13.093,11.933c0,7.401,5.826,14.816,13.093,16.057c7.263,1.236,13.199-4.604,13.198-12.538 C357.965,334.748,352.028,327.963,344.766,327.246z"/><path fill="#333" d="M344.766,327.246c-7.265-0.69-13.093,4.521-13.093,11.933c0,7.401,5.826,14.816,13.093,16.057 c7.263,1.236,13.199-4.604,13.198-12.538C357.965,334.748,352.028,327.963,344.766,327.246z"/></g><g><path fill="none" stroke="#E0DEDE" stroke-linejoin="round" stroke-width="4" d="M396.814,275.126 c6.473,0.03,12.933,0.078,19.362,0.146c0-14.599,0-29.199,0-43.8c-0.001-8.729-1.82-15.41-5.47-20.044 c-3.649-4.613-9.297-7.368-16.955-7.724c-7.946-0.356-14.125,2.138-18.513,7.021c-4.389,4.898-6.581,11.672-6.581,20.216 c0,14.36,0,28.72,0,43.082c0,0.368,0,0.739,0,1.107c0,27.258,0,54.516,0,81.774c6.467,0.389,12.945,0.518,19.422,0.382 c0-27.396,0-54.79,0-82.185c0.007,0,0.013,0,0.021,0c0-5.543,0-11.086,0-16.631c2.906,0.019,5.811,0.053,8.714,0.102 C396.814,264.091,396.814,269.61,396.814,275.126z M388.101,240.051c0-2.899,0-5.798,0-8.698c0-4.84,1.517-7.252,4.55-7.163 c1.563,0.048,2.646,0.618,3.255,1.693c0.604,1.08,0.909,2.976,0.909,5.692c0,2.887,0,5.772,0,8.659 C393.911,240.146,391.006,240.085,388.101,240.051z"/><path fill="#333" d="M396.814,275.126c6.473,0.03,12.933,0.078,19.362,0.146c0-14.599,0-29.199,0-43.8 c-0.001-8.729-1.82-15.41-5.47-20.044c-3.649-4.613-9.297-7.368-16.955-7.724c-7.946-0.356-14.125,2.138-18.513,7.021 c-4.389,4.898-6.581,11.672-6.581,20.216c0,14.36,0,28.72,0,43.082c0,0.368,0,0.739,0,1.107c0,27.258,0,54.516,0,81.774 c6.467,0.389,12.945,0.518,19.422,0.382c0-27.396,0-54.79,0-82.185c0.007,0,0.013,0,0.021,0c0-5.543,0-11.086,0-16.631 c2.906,0.019,5.811,0.053,8.714,0.102C396.814,264.091,396.814,269.61,396.814,275.126z M388.101,240.051 c0-2.899,0-5.798,0-8.698c0-4.84,1.517-7.252,4.55-7.163c1.563,0.048,2.646,0.618,3.255,1.693 c0.604,1.08,0.909,2.976,0.909,5.692c0,2.887,0,5.772,0,8.659C393.911,240.146,391.006,240.085,388.101,240.051z"/></g><g><path fill="none" stroke="#E0DEDE" stroke-linejoin="round" stroke-width="4" d="M448.481,275.794 c1.666,0.035,3.327,0.073,4.984,0.113c0-5.819,0-11.639,0-17.456c-0.321-0.035-0.646-0.069-0.966-0.102 c-2.766-0.287-4.628-0.936-5.569-1.985c-0.943-1.047-1.415-3.022-1.415-5.913c0-12.336,0-24.672,0-37.008 c-6.284-1.693-12.627-3.125-19.016-4.295c0,14.172,0,28.345,0,42.517c-0.002,7.45,1.953,13.387,5.84,17.641 C436.223,273.571,441.631,275.654,448.481,275.794z"/><path fill="#333" d="M448.481,275.794c1.666,0.035,3.327,0.073,4.984,0.113c0-5.819,0-11.639,0-17.456 c-0.321-0.035-0.646-0.069-0.966-0.102c-2.766-0.287-4.628-0.936-5.569-1.985c-0.943-1.047-1.415-3.022-1.415-5.913 c0-12.336,0-24.672,0-37.008c-6.284-1.693-12.627-3.125-19.016-4.295c0,14.172,0,28.345,0,42.517 c-0.002,7.45,1.953,13.387,5.84,17.641C436.223,273.571,441.631,275.654,448.481,275.794z"/></g><g><path fill="none" stroke="#E0DEDE" stroke-linejoin="round" stroke-width="4" d="M483.462,262.424 c-2.638-0.42-4.422-1.078-5.323-2.021c-0.901-0.938-1.354-2.631-1.354-5.059c0-10.353,0-20.708,0-31.063 c-6.02-2.575-12.131-4.892-18.32-6.946c0,12.556,0,25.112,0,37.668c0,6.604,1.896,11.971,5.649,15.781 c3.749,3.833,8.959,5.666,15.512,5.876c1.593,0.054,3.18,0.11,4.759,0.167c0-4.751,0-9.502,0-14.253 C484.076,262.524,483.77,262.473,483.462,262.424z"/><path fill="#333" d="M483.462,262.424c-2.638-0.42-4.422-1.078-5.323-2.021c-0.901-0.938-1.354-2.631-1.354-5.059 c0-10.353,0-20.708,0-31.063c-6.02-2.575-12.131-4.892-18.32-6.946c0,12.556,0,25.112,0,37.668 c0,6.604,1.896,11.971,5.649,15.781c3.749,3.833,8.959,5.666,15.512,5.876c1.593,0.054,3.18,0.11,4.759,0.167 c0-4.751,0-9.502,0-14.253C484.076,262.524,483.77,262.473,483.462,262.424z"/></g><g><path fill="none" stroke="#E0DEDE" stroke-linejoin="round" stroke-width="4" d="M475.581,280.8 c-25.784-0.021-53.266-0.034-80.953-0.036c-1.167,0-1.748,0.408-1.748,1.02c0,6.063,0,12.126,0,18.188 c0,0.614,1.36,1.416,2.523,1.401c6.469-0.091,12.925-0.252,19.35-0.484c1.354-0.032,9.021,0.133,9.015,0.804 c0,17.011,0,34.022,0,51.033c0,0.783,1.343,1.139,2.684,0.889c6.686-1.24,13.323-2.77,19.892-4.588 c1.507-0.42,2.633-1.288,2.633-1.917c0-15.63,0-31.259,0-46.888c0.006-0.812,6.797-1.81,8.088-1.931 c6.191-0.546,12.31-1.162,18.337-1.849c1.447-0.168,2.526-0.753,2.527-1.357c0-4.456,0-8.914,0-13.37 C477.928,281.109,476.848,280.804,475.581,280.8z"/><path fill="#333" d="M475.581,280.8c-25.784-0.021-53.266-0.034-80.953-0.036c-1.167,0-1.748,0.408-1.748,1.02 c0,6.063,0,12.126,0,18.188c0,0.614,1.36,1.416,2.523,1.401c6.469-0.091,12.925-0.252,19.35-0.484 c1.354-0.032,9.021,0.133,9.015,0.804c0,17.011,0,34.022,0,51.033c0,0.783,1.343,1.139,2.684,0.889 c6.686-1.24,13.323-2.77,19.892-4.588c1.507-0.42,2.633-1.288,2.633-1.917c0-15.63,0-31.259,0-46.888 c0.006-0.812,6.797-1.81,8.088-1.931c6.191-0.546,12.31-1.162,18.337-1.849c1.447-0.168,2.526-0.753,2.527-1.357 c0-4.456,0-8.914,0-13.37C477.928,281.109,476.848,280.804,475.581,280.8z"/></g></g></g></svg>