<?xml version="1.0" encoding="utf-8"?>
<!-- Generator: Adobe Illustrator 19.0.0, SVG Export Plug-In . SVG Version: 6.00 Build 0)  -->
<!DOCTYPE svg PUBLIC "-//W3C//DTD SVG 1.1//EN" "http://www.w3.org/Graphics/SVG/1.1/DTD/svg11.dtd">
<svg version="1.1" xmlns="http://www.w3.org/2000/svg" xmlns:xlink="http://www.w3.org/1999/xlink" x="0px" y="0px"
	 viewBox="0 0 32 32" enable-background="new 0 0 32 32" xml:space="preserve">
<g id="SpeechBubbleOutlined">
	<g>
		<path fill="#010101" d="M17.2,4.6c6.3,0,11.5,5.2,11.5,11.7S23.5,28,17.2,28c-1.8,0-3.5-0.4-5.2-1.3l-0.1-0.1l-0.1,0
			c-1-0.3-2.1-0.6-3.1-0.6c-0.3,0-0.6,0-0.9,0c-0.6,0-1.2,0-1.8,0.1c0.3-0.9,0.4-1.8,0.5-2.8c0.1-0.9,0-1.9-0.1-2.9l0.1-0.1
			l-0.3-1.2c-0.2-1-0.4-1.9-0.4-2.9C5.7,9.9,10.9,4.6,17.2,4.6 M17.2,2.6C9.8,2.6,3.7,8.8,3.7,16.3c0,1.2,0.2,2.3,0.4,3.4l0,0
			c0.3,1.1,0.4,2.3,0.3,3.5c-0.2,2.7-1.4,5.2-3.1,7c1.8-1.4,4-2.2,6.4-2.2c0.3,0,0.5,0,0.8,0c0.9,0.1,1.8,0.3,2.6,0.5
			C13,29.5,15,30,17.2,30c7.4,0,13.5-6.1,13.5-13.7C30.7,8.8,24.7,2.6,17.2,2.6L17.2,2.6z M0.1,31.3C0,31.3,0,31.3,0.1,31.3
			C0,31.3,0,31.3,0.1,31.3C0,31.3,0,31.3,0.1,31.3L0.1,31.3z"/>
	</g>
</g>
<g id="ReplyArrow">
	<path fill="#010101" d="M13.4,15.2l4,2.3v-2.3c2.6,0,4.6,2.1,4.6,4.6c0,2.6-2.1,4.7-4.6,4.7c3.8,0,6.9-3.1,6.9-6.9
		c0-3.8-3.1-6.9-6.9-6.9V8.3l-4,2.3l-3.9,2.3L13.4,15.2z"/>
</g>
</svg>
