<svg xmlns="http://www.w3.org/2000/svg" xmlns:xlink="http://www.w3.org/1999/xlink" x="0" y="0" enable-background="new 0 0 32 32" version="1.1" viewBox="0 0 32 32" xml:space="preserve"><g id="You"><path fill="#010101" d="M28.8,1.5L3.3,1.5c0,0,0,0,0,0l0,1l25.4,0.1c0.6,0,1,0.5,1,1l-0.1,19.2c0,0.5-0.5,1-1,1l-8.4,0l-0.4,0 l-0.3,0.3c-1.6,1.7-3.6,2.8-5.2,3.4c0.5-1.2,0.4-2.2,0.2-3l-0.2-0.7l-0.8,0l-10.3,0c-0.6,0-1-0.5-1-1L2.3,3.5c0-0.5,0.5-1,1-1v-1 c-1.1,0-2,0.9-2,2L1.3,22.7c0,1.1,0.9,2,2,2l10.3,0c0.3,1.2,0.1,2.7-1.6,4.5c0,0,5-0.8,8.4-4.5l8.4,0c0,0,0,0,0,0c1.1,0,2-0.9,2-2 l0.1-19.2C30.8,2.4,29.9,1.5,28.8,1.5z"/></g><g id="PollMiddle" display="none"><rect width="4.5" height="5.9" x="7.6" y="14" fill="#010101" display="inline"/><path fill="#010101" d="M18,10.9v7.9h-2.5v-7.9H18 M19,9.9h-4.5v9.9H19V9.9L19,9.9z" display="inline"/><rect width="4.5" height="14" x="21.8" y="5.8" fill="#010101" display="inline"/></g><g id="Hot"><g><g><g><g><g><g><g><g><path fill="#010101" d="M18.8,16c-0.1,0-1.6,0.4-2.5,0.6c-0.3,0.1-0.6,0.1-0.6,0.1l0.6-0.3l2.2-1c-2,0.5-1.7,0.5-0.9,0 c0,0,0,0,0,0c0.1-0.1,0.2-0.1,0.3-0.2l-1.5,0.5L8,18.8h0c-0.1,0.1-0.2,0.3-0.1,0.5c0.1,0.2,0.2,0.3,0.3,0.3 c0,0,0.1,0,0.2,0l8-2.9L18.8,16z M16.6,15.3l2-0.7c0,0,0.1,0,0.1,0c0,0,0,0,0.1,0l0.6-0.3l0.7-0.4l0.9-0.4 c0.3-0.1,0.6-0.1,0.8,0.3l0.4,1.2c0.1,0.4,0,0.6-0.4,0.7l-1.4,0.3l-0.8,0.2l-0.1,0c-0.1,0-0.1,0-0.2,0c0,0-0.1,0.1-0.1,0.1 l-2.9,1l-1.6,0.6l-6.3,2.3c-0.2,0.1-0.3,0-0.5,0c-0.2-0.1-0.4-0.3-0.5-0.6c-0.1-0.3-0.1-0.6,0-0.8c0.1-0.1,0.2-0.2,0.3-0.3 l6.7-2.4L16.6,15.3z"/><path fill="#010101" d="M22.1,8.8c1,2.7,3.2,6,2.4,8.9c-0.2,0.6-0.4,0.9-0.5,1.1c-1.3,2-5.9,1.9-7.3-0.9l3.6-1.3 c0.4,0.2,0.9,0.2,1.4,0.1c0.9-0.4,1-2,0.5-3.6c-0.8-2.4-2.6-6.4-0.5-8.4C21,5.5,21.5,7.4,22.1,8.8z"/><path fill="#010101" d="M18.8,10.2c1,0.5,0.8,2,0.6,3.5l-2.4,0.9c0.2-0.3,0.4-0.5,0.5-0.8C18.3,12.6,19.7,11.6,18.8,10.2z"/></g></g></g></g></g></g></g></g></g><g id="VeryHot" display="none"><g display="inline"><path fill="#010101" d="M14.8,16.8c0,0-1.5-0.2-2.2-1.2c-0.7-1-1-2.2-0.7-3.2c0.2-1,1.2-1.5,1-2.2c-0.2-0.7,0.5,1,0.2,1.5 c-0.2,0.5,0.7,0.7,1,0c0.2-0.7-0.6-1.6-0.7-2c-0.5-1-0.1-2.4,0.2-2.9c0.5-0.7,0.8-1.1,1-1.2c0.5-0.5-0.5,0.7-0.2,1.7 c0.2,1,0.7,1.7,1.2,1.5c0.5-0.2-0.2-0.7-0.2-1.5c-0.2-2.2,1.5-3.4,1.5-3.4S17,7.6,18,8.1c0.7,0.3,0.7,1.7,0.2,2.7 c-0.5,0.9-1.5,2.2-0.7,2.9c0.7,0.7,2,0.7,2.4,0.2c0.5-0.5,0.5-1.5,0.7-2c0.2-0.5-0.5,1,0.2,1.7c0.7,0.7,0,2.9-0.7,3.2 c-0.7,0.2-2,0.2-2.2,0.2s0.5-0.2,0.2-1c-0.2-0.7,0,1-0.5-0.2c-0.5-1.2-1.9-0.8-1.2-1.5c0.2-0.2-0.5,0-0.2,0.7s1,1,0.2,1.2 c-0.5,0.2-1.5-0.7-1.5-1.2c0-0.5,0.2-1.7,0.2-1.7s-0.7,0.7-1,1.5c-0.2,0.5,0.2,0.9,0.5,1.2c0.2,0.2,0.7,0.5,0.7,0.7 S14.8,16.8,14.8,16.8z"/><path fill="#010101" d="M17.8,13.2C17.8,13.2,18,12.2,17.8,13.2c-0.1,0.5,1.2,1,1.7,0.5c0.5-0.5,0.5-1.5,0.5-2.2 c0-0.7,0.5-1.7,0.7-2C21,9.3,17.5,11.5,17.8,13.2z"/><path fill="#010101" d="M13.1,16.6l-4.4,0.1c0,0-0.5,0.6-0.4,1.2C8.4,18.3,8.7,19,9.5,19c0.8,0,4.2-1.7,4.2-1.7L13.1,16.6z"/><path fill="#010101" d="M21.3,16.6l-0.4,0.8l3.8,1.3c0,0,0.9,0.1,1.3-0.7c0.4-0.8-0.6-1.6-0.6-1.6L21.3,16.6z"/><path fill="#010101" d="M15.1,17.4l1.2,0.3l0.2,3.2c0,0-1.2,1.4-2.2,0.7c-1-0.6-1.7-1.1-1.7-1.6C12.7,19.4,15.1,17.4,15.1,17.4z"/><path fill="#010101" d="M17.5,17.6l1.3-0.1l2.7,1.9c0,0,0.2,0.7-0.4,1.1c-0.6,0.4-1.7,0.9-2.3,0.5C18.2,20.7,17.5,17.6,17.5,17.6z"/></g></g><g id="Layer_13" display="none"><path fill="#ED1D24" d="M27,14.2c-1-1.1-1.8-1.8-2.3-3c-0.7-1.7-0.1-4.3-0.1-4.3s0.1-0.2-0.1-0.3 c-0.2-0.1-0.3,0.1-0.3,0.1s-2,2.3-1.8,5c0.2,2.6,1.8,3.8,1.4,6c-0.4,2.3-2.6,4-2.6,4s2.5-2.8,0.9-6.3c-1.1-2.5-3.8-3.7-3.8-3.7 s-0.3-0.2-0.4,0c-0.1,0.1,0,0.4,0,0.4s1.9,2.5,1.3,5.4c-0.3,1.6-1.8,3.5-1.8,3.5s2.2-2.8,0.3-5.9c-0.5-0.8-1.1-2.3-0.9-3.9 C17,9,19.5,8,19.5,8s0.2-0.1,0.2-0.2c0-0.2-0.2-0.2-0.2-0.2s-3-0.1-5,2.9c-1.1,1.7-0.9,3.6-2.2,5c-1.4,1.6-3.2,2.1-3.2,2.1 s2.8-3.2,3-7.3c0.1-3.3-1.6-6.7-1.6-6.7s-0.3-0.5-0.5-0.4c-0.3,0-0.2,0.5-0.2,0.5S10.4,7.6,9,9.3c-1.3,1.7-5.2,2.8-5.7,6.9 c-0.7,5.4,2.3,7.4,2.3,7.4h6.7c-0.3-1.2-0.3-2.5,0-3.5c0.6-2,2.3-3.5,2.3-3.5s-1.1,4.2-0.3,7.1c0.7,2.5,0,3.8,0,3.8 s1.5-0.4,3.3-1.6c0.7-0.5,1.7-1.5,2.3-2.1c0.2-0.3,3.8-1.1,4.3-1.7c1.5-1.5,1.8-3,1.8-3s0.5,1,0,2.6c-0.3,1-0.8,1.5-1.3,2.1h2.9 C27.7,23.7,31.3,19.1,27,14.2z" display="inline"/><path fill="#ED1D24" d="M26.6,11.3c-0.2-1.6,0.8-3,2.2-3.4c-0.4-0.2-0.7-0.3-1.2-0.2c-1.2,0.1-2.1,1.3-2,2.6 c0.1,0.8,0.6,1.4,1.1,1.8C26.7,11.9,26.7,11.6,26.6,11.3z" display="inline"/></g><g id="Locked"><g><path fill="#010101" d="M30.8,22.9c0-0.1,0-0.2,0-0.4c0-2.2-1.8-4-4-4s-4,1.8-4,4c0,0.1,0,0.2,0,0.4h-0.9v8.8h9.9v-8.8H30.8z M27.2,27.3v1.8h-0.9v-1.8c-0.3-0.2-0.5-0.5-0.5-0.8c0-0.5,0.4-0.9,0.9-0.9c0.5,0,0.9,0.4,0.9,0.9C27.7,26.9,27.5,27.2,27.2,27.3z M29.3,22.9h-5.1c0-0.1,0-0.2,0-0.4c0-1.4,1.2-2.6,2.6-2.6c1.4,0,2.6,1.2,2.6,2.6C29.3,22.7,29.3,22.8,29.3,22.9z"/></g></g><g id="Layer_8" display="none"><path fill="#E04A3F" d="M10.2,30.2c-0.2,0-0.5,0-0.7,0.1c-0.6,0.2-1.1,0.2-1.7,0.3c-0.3,0-0.6,0-0.8-0.1 c-0.6-0.3-0.7-0.8-0.6-1.4c0.1-0.3,0.2-0.7,0.4-0.9c0.2-0.2,0.5-0.4,0.8-0.5c0.7-0.2,1.2-0.1,1.9,0.1c0,0,0.1,0,0.1,0 c0.5,0.1,0.9,0.3,1.4,0.2c0.5,0,0.8-0.4,1.3-0.5c0.1,0,0.2,0,0.2,0c0.1-0.4,0.2-0.9,0.2-1.4c0-3.1-2.5-5.6-5.6-5.6 c-3.1,0-5.6,2.5-5.6,5.6c0,3.1,2.5,5.6,5.6,5.6c1.4,0,2.6-0.5,3.6-1.3C10.5,30.3,10.4,30.2,10.2,30.2z" display="inline"/><circle cx="7.3" cy="22.8" r="1.5" fill="#F7EBEB" display="inline"/><circle cx="7.6" cy="23.1" r=".6" fill="#E04A3F" display="inline"/><path fill="#FFF" d="M10.5,26.6c0,0-0.1,0-0.1,0c0,0,0-0.1,0-0.2c0-0.1,0-0.2,0-0.4c0-0.2,0-0.4,0-0.6 c0.1,0.3,0.3,0.7,0.2,1C10.5,26.5,10.5,26.6,10.5,26.6z" display="inline"/><path fill="#FFF" d="M11,26.2c0.1,0,0.1,0,0.2,0c0,0,0.1,0,0.1-0.1c0,0,0,0,0,0c0-0.1-0.1-0.2-0.2-0.3 c-0.2-0.2-0.3-0.3-0.5-0.5c0.1,0.3,0.2,0.5,0.3,0.8C10.9,26.1,10.9,26.2,11,26.2z" display="inline"/><g display="inline"><circle cx="11.6" cy="22.2" r="1.8" fill="#FFF"/><path fill="#E04A3F" d="M11.6,24.3c-1.1,0-2.1-0.9-2.1-2.1s0.9-2.1,2.1-2.1c1.1,0,2.1,0.9,2.1,2.1S12.7,24.3,11.6,24.3z M11.6,20.6c-0.9,0-1.6,0.7-1.6,1.6s0.7,1.6,1.6,1.6s1.6-0.7,1.6-1.6S12.4,20.6,11.6,20.6z"/></g><circle cx="11.9" cy="21.5" r=".6" fill="#E04A3F" display="inline"/></g><g id="Layer_14"><path fill="#454545" d="M5,28.3h6.8v-5.8c0-1.1-0.9-2-2-2H2c-1.1,0-2,0.9-2,2V30c0,1.1,0.9,2,2,2h7.8c0.8,0,1.5-0.5,1.8-1.2H5 c-0.7,0-1.2-0.5-1.2-1.2v-0.1C3.8,28.8,4.4,28.3,5,28.3z M9.9,25.3H10c-0.1,0.1-0.1,0.2-0.1,0.4c0,0.4,0.3,0.8,0.8,0.8 c0.3,0,0.6-0.2,0.7-0.6c0,0.1,0,0.1,0,0.2c0,0.4-0.3,0.8-0.8,0.8H9.9c-0.4,0-0.8-0.3-0.8-0.8S9.4,25.3,9.9,25.3z M4.8,25.3h1.6 c-0.1,0.1-0.1,0.3-0.1,0.4c0,0.4,0.3,0.8,0.8,0.8c0.4,0,0.8-0.3,0.8-0.8c0,0,0,0,0,0c0.1,0.1,0.1,0.3,0.1,0.4 c0,0.4-0.4,0.8-0.8,0.8H4.8c-0.4,0-0.8-0.4-0.8-0.8S4.3,25.3,4.8,25.3z"/></g><g id="Poll" display="none"><rect width="2.5" height="6.8" x="22.8" y="4.1" fill="#FFF" display="inline"/><rect width="3.8" height="4.9" x="16.4" y="6.8" fill="#010101" display="inline"/><path fill="#010101" d="M24.9,4.4v6.3h-1.8V4.4H24.9 M25.9,3.4h-3.8v8.3h3.8V3.4L25.9,3.4z" display="inline"/><rect width="3.8" height="11.7" x="28.2" fill="#010101" display="inline"/></g><g id="Sticky"><g><path fill="#010101" d="M8.7,4.1L8.6,4.3C5.7,3.4,4.9,2.4,4,1.5L3.9,1.3l0.7-0.7L4,0L0,4l0.6,0.6l0.7-0.7L1.5,4 c0.9,0.8,1.9,1.7,2.9,4.5L4.1,8.7l0.6,0.6l2-2l3.7,3.7l1.8,1.3l-1.3-1.8L7.2,6.8l2.1-2.1L8.7,4.1z"/></g></g><g id="Collapse" display="none"><rect width="29" height="2.6" x="1.6" y="3.1" fill="#010101" display="inline"/><polygon fill="#010101" points="25.4 14.7 16.1 7.6 6.8 14.7 12.1 14.7 12.1 27.8 20.1 27.8 20.1 14.7" display="inline"/></g><g id="Expand" display="none"><rect width="29" height="2.6" x="1.6" y="3.1" fill="#010101" display="inline"/><polygon fill="#010101" points="6.8 20.7 16.1 27.8 25.4 20.7 20.1 20.7 20.1 7.6 12.1 7.6 12.1 20.7" display="inline"/></g></svg>