<?xml version="1.0" encoding="utf-8"?>
<!-- Generator: Adobe Illustrator 18.1.1, SVG Export Plug-In . SVG Version: 6.00 Build 0)  -->
<!DOCTYPE svg PUBLIC "-//W3C//DTD SVG 1.1//EN" "http://www.w3.org/Graphics/SVG/1.1/DTD/svg11.dtd">
<svg version="1.1" xmlns="http://www.w3.org/2000/svg" xmlns:xlink="http://www.w3.org/1999/xlink" x="0px" y="0px"
	 viewBox="0 0 32 32" enable-background="new 0 0 32 32" xml:space="preserve">
<g id="SpeechBubble">
	<g>
		<path fill="#010101" d="M0,31.3C0,31.3,0,31.3,0,31.3C0,31.3,0,31.3,0,31.3C0,31.3,0,31.3,0,31.3z M8.5,28
			c0.9,0.1,1.8,0.3,2.6,0.5C13,29.5,15,30,17.2,30c7.4,0,13.5-6.1,13.5-13.7c0-7.6-6-13.7-13.5-13.7S3.7,8.8,3.7,16.3
			c0,1.2,0.2,2.3,0.4,3.4l0,0c0.3,1.1,0.4,2.3,0.3,3.5c-0.2,2.7-1.4,5.2-3.1,7C3.3,28.6,5.9,27.8,8.5,28z"/>
	</g>
</g>
<g id="NewPosts">
	<g>
		<path fill="#010101" d="M0,31.3C0,31.3,0,31.3,0,31.3C0,31.3,0,31.3,0,31.3C0,31.3,0,31.3,0,31.3z"/>
		<path fill="#010101" d="M17.2,2.6C9.8,2.6,3.7,8.8,3.7,16.3c0,1.2,0.2,2.3,0.4,3.4l0,0c0.3,1.1,0.4,2.3,0.3,3.5
			c-0.2,2.7-1.4,5.2-3.1,7c2-1.5,4.5-2.4,7.2-2.2c0.9,0.1,1.8,0.3,2.6,0.5C13,29.5,15,30,17.2,30c7.4,0,13.5-6.1,13.5-13.7
			C30.7,8.8,24.7,2.6,17.2,2.6z M17.7,8.5c0.5,0,1,0.4,1,1c0,0.5-0.4,1-1,1s-1-0.4-1-1C16.7,9,17.1,8.5,17.7,8.5z M12.8,10.9
			c0.5,0,1,0.4,1,1c0,0.5-0.4,1-1,1s-1-0.4-1-1C11.8,11.4,12.3,10.9,12.8,10.9z M10.4,17.7c-0.5,0-1-0.4-1-1s0.4-1,1-1s1,0.4,1,1
			S10.9,17.7,10.4,17.7z M12.8,22.6c-0.5,0-1-0.4-1-1s0.4-1,1-1s1,0.4,1,1S13.3,22.6,12.8,22.6z M17.7,25c-0.5,0-1-0.4-1-1
			c0-0.5,0.4-1,1-1s1,0.4,1,1C18.6,24.6,18.2,25,17.7,25z M22.5,22.6c-0.5,0-1-0.4-1-1s0.4-1,1-1c0.5,0,1,0.4,1,1S23,22.6,22.5,22.6
			z M22.5,17.7h-1.9c-0.5,0-0.7,0.3-0.3,0.7l0.7,0.7c0.4,0.4,0.5,0.9,0.2,1.2c-0.3,0.3-0.8,0.2-1.2-0.2l-0.7-0.7
			c-0.4-0.4-0.7-0.2-0.7,0.3v1.9c0,0.5-0.4,1-1,1c-0.5,0-1-0.4-1-1v-1.9c0-0.5-0.3-0.7-0.7-0.3l-0.7,0.7c-0.4,0.4-0.9,0.5-1.2,0.2
			c-0.3-0.3-0.2-0.8,0.2-1.2l0.7-0.7c0.4-0.4,0.2-0.7-0.3-0.7h-1.9c-0.5,0-1-0.4-1-1c0-0.5,0.4-1,1-1h1.9c0.5,0,0.7-0.3,0.3-0.7
			l-0.7-0.7c-0.4-0.4-0.5-0.9-0.2-1.2c0.3-0.3,0.8-0.2,1.2,0.2l0.7,0.7c0.4,0.4,0.7,0.2,0.7-0.3v-1.9c0-0.5,0.4-1,1-1
			c0.5,0,1,0.4,1,1v1.9c0,0.5,0.3,0.7,0.7,0.3l0.7-0.7c0.4-0.4,0.9-0.5,1.2-0.2c0.3,0.3,0.2,0.8-0.2,1.2l-0.7,0.7
			c-0.4,0.4-0.2,0.7,0.3,0.7h1.9c0.5,0,1,0.4,1,1C23.5,17.3,23,17.7,22.5,17.7z M22.5,12.9c-0.5,0-1-0.4-1-1c0-0.5,0.4-1,1-1
			c0.5,0,1,0.4,1,1C23.5,12.4,23,12.9,22.5,12.9z M24.9,17.7c-0.5,0-1-0.4-1-1s0.4-1,1-1c0.5,0,1,0.4,1,1S25.5,17.7,24.9,17.7z"/>
	</g>
</g>
<g id="Skip">
	<g>
		<path fill="#010101" d="M0,31.3C0,31.3,0,31.3,0,31.3C0,31.3,0,31.3,0,31.3C0,31.3,0,31.3,0,31.3z"/>
		<path fill="#010101" d="M17.2,2.6C9.8,2.6,3.7,8.8,3.7,16.3c0,1.2,0.2,2.3,0.4,3.4l0,0c0.3,1.1,0.4,2.3,0.3,3.5
			c-0.2,2.7-1.4,5.2-3.1,7c2-1.5,4.5-2.4,7.2-2.2c0.9,0.1,1.8,0.3,2.6,0.5C13,29.5,15,30,17.2,30c7.4,0,13.5-6.1,13.5-13.7
			C30.7,8.8,24.7,2.6,17.2,2.6z M18,22.3c-0.9,0,0-5.2,0-5.2s-6.5,5.2-7.2,5.2c-0.3,0-0.6-2.5-0.7-5.2c0-0.2,0.4-0.7,0.4-0.7
			s-0.4-0.5-0.4-0.7c0-2.7,0.2-5.2,0.7-5.2c0.7,0,7.2,5.2,7.2,5.2s-0.7-5.2,0-5.2c0.7,0,8.1,5.2,8.1,5.9
			C26.1,17.1,18.9,22.3,18,22.3z"/>
	</g>
</g>
<g id="Quote">
	<g>
		<path fill="#010101" d="M0,31.3C0,31.3,0,31.3,0,31.3C0,31.3,0,31.3,0,31.3C0,31.3,0,31.3,0,31.3z"/>
		<path fill="#010101" d="M17.2,2.6C9.8,2.6,3.7,8.8,3.7,16.3c0,1.2,0.2,2.3,0.4,3.4l0,0c0.3,1.1,0.4,2.3,0.3,3.5
			c-0.2,2.7-1.4,5.2-3.1,7c2-1.5,4.5-2.4,7.2-2.2c0.9,0.1,1.8,0.3,2.6,0.5C13,29.5,15,30,17.2,30c7.4,0,13.5-6.1,13.5-13.7
			C30.7,8.8,24.7,2.6,17.2,2.6z M13.7,19.3c-0.2,0-0.3,0-0.5,0c0.1,1.2,0.8,2.2,1.8,2.8c-2.9-0.8-5.2-3.4-5-6.6
			c0.2-2,1.7-3.6,3.7-3.6c2.1,0,3.7,1.7,3.7,3.7C17.4,17.6,15.7,19.3,13.7,19.3z M21.5,19.3c-0.2,0-0.3,0-0.5,0
			c0.1,1.2,0.8,2.2,1.8,2.8c-2.9-0.8-5.2-3.4-5-6.6c0.2-2,1.7-3.6,3.7-3.6c2.1,0,3.7,1.7,3.7,3.7C25.2,17.6,23.6,19.3,21.5,19.3z"/>
	</g>
</g>
<g id="Edit">
	<g>
		<path fill="#010101" d="M17.2,2.6C9.8,2.6,3.7,8.8,3.7,16.3c0,1.2,0.2,2.3,0.4,3.4l0,0c0.3,1.1,0.4,2.3,0.3,3.5
			c-0.2,2.7-1.4,5.2-3.1,7c2-1.5,4.5-2.4,7.2-2.2c0.9,0.1,1.8,0.3,2.6,0.5C13,29.5,15,30,17.2,30c7.4,0,13.5-6.1,13.5-13.7
			C30.7,8.8,24.7,2.6,17.2,2.6z M11.7,23.6c-0.5,0.1-0.9-0.3-0.8-0.8l1-3.4l3.3,3.3L11.7,23.6z M16.1,21.5l-3.3-3.3l6.5-6.5l3.3,3.3
			L16.1,21.5z M23.7,13.9l-3.3-3.3c1.1-1.1,2.4-0.9,3.3,0C24.6,11.6,24.8,12.9,23.7,13.9z"/>
		<path fill="#010101" d="M0,31.3C0,31.3,0,31.3,0,31.3C0,31.3,0,31.3,0,31.3C0,31.3,0,31.3,0,31.3z"/>
	</g>
</g>
<g id="Remove">
	<g>
		<path fill="#010101" d="M0,31.3C0,31.3,0,31.3,0,31.3C0,31.3,0,31.3,0,31.3C0,31.3,0,31.3,0,31.3z"/>
		<path fill="#010101" d="M17.2,2.6C9.8,2.6,3.7,8.8,3.7,16.3c0,1.2,0.2,2.3,0.4,3.4l0,0c0.3,1.1,0.4,2.3,0.3,3.5
			c-0.2,2.7-1.4,5.2-3.1,7c2-1.5,4.5-2.4,7.2-2.2c0.9,0.1,1.8,0.3,2.6,0.5C13,29.5,15,30,17.2,30c7.4,0,13.5-6.1,13.5-13.7
			C30.7,8.8,24.7,2.6,17.2,2.6z M24,20.3c0.5,0.5,0.5,1.2,0,1.7l-1,1c-0.5,0.5-1.2,0.5-1.7,0l-3.6-3.6L14.1,23
			c-0.5,0.5-1.2,0.5-1.7,0l-1-1c-0.5-0.5-0.5-1.2,0-1.7l3.6-3.6l-3.6-3.6c-0.5-0.5-0.5-1.2,0-1.7l1-1c0.5-0.5,1.2-0.5,1.7,0l3.6,3.6
			l3.6-3.6c0.5-0.5,1.2-0.5,1.7,0l1,1c0.5,0.5,0.5,1.2,0,1.7l-3.6,3.6L24,20.3z"/>
	</g>
</g>
<g id="Split">
	<g>
		<path fill="#010101" d="M0,31.3C0,31.3,0,31.3,0,31.3C0,31.3,0,31.3,0,31.3C0,31.3,0,31.3,0,31.3z"/>
		<path fill="#010101" d="M17.2,2.6C9.8,2.6,3.7,8.8,3.7,16.3c0,1.2,0.2,2.3,0.4,3.4l0,0c0.3,1.1,0.4,2.3,0.3,3.5
			c-0.2,2.7-1.4,5.2-3.1,7c2-1.5,4.5-2.4,7.2-2.2c0.9,0.1,1.8,0.3,2.6,0.5C13,29.5,15,30,17.2,30c7.4,0,13.5-6.1,13.5-13.7
			C30.7,8.8,24.7,2.6,17.2,2.6z M21,23.4v-1.6c-1.4-0.1-2.5-0.8-3.3-1.6c-0.9-0.8-1.5-1.7-2.1-2.1c-0.4-0.3-0.7-0.4-1.2-0.4H9.9
			c-0.1,0-0.1,0-0.1,0v0h0v-2.1h4.6c0,0,0,0,0,0c0.5,0,0.8-0.1,1.2-0.4c0.4-0.3,0.8-0.8,1.3-1.3c0.9-1,2.1-2.2,4.1-2.4V10l4.5,2.6
			L21,15.1v-1.5c-0.8,0.1-1.3,0.5-1.9,1c-0.6,0.6-1.2,1.4-2.1,2.1c0.5,0.4,1,0.9,1.4,1.4c0.9,0.9,1.5,1.6,2.6,1.7l0-1.5l4.5,2.6
			L21,23.4z"/>
	</g>
</g>
<g id="AddPost">
	<g>
		<path fill="#010101" d="M0,31.3C0,31.3,0,31.3,0,31.3C0,31.3,0,31.3,0,31.3C0,31.3,0,31.3,0,31.3z"/>
		<path fill="#010101" d="M17.3,8.7c-4.2,0-7.7,3.5-7.7,7.7s3.5,7.7,7.7,7.7c4.2,0,7.7-3.5,7.7-7.7S21.6,8.7,17.3,8.7z M22.4,17.3
			h-4.1v4.1c0,0.6-0.4,1-1,1c-0.6,0-1-0.4-1-1v-4.1h-4.1c-0.6,0-1-0.4-1-1s0.4-1,1-1h4.1v-4.1c0-0.6,0.4-1,1-1c0.6,0,1,0.4,1,1v4.1
			h4.1c0.6,0,1,0.4,1,1S23,17.3,22.4,17.3z"/>
		<path fill="#010101" d="M17.2,2.6C9.8,2.6,3.7,8.8,3.7,16.3c0,1.2,0.2,2.3,0.4,3.4l0,0c0.3,1.1,0.4,2.3,0.3,3.5
			c-0.2,2.7-1.4,5.2-3.1,7c2-1.5,4.5-2.4,7.2-2.2c0.9,0.1,1.8,0.3,2.6,0.5C13,29.5,15,30,17.2,30c7.4,0,13.5-6.1,13.5-13.7
			C30.7,8.8,24.7,2.6,17.2,2.6z M17.3,26c-5.3,0-9.7-4.4-9.7-9.7s4.4-9.7,9.7-9.7c5.3,0,9.7,4.4,9.7,9.7S22.7,26,17.3,26z"/>
	</g>
</g>
<g id="Tattle">
	<g>
		<path fill="#010101" d="M4.6,13.9h0.8v4.8H4.6c-0.4,0-0.8-0.3-0.8-0.7v-3.5C3.8,14.2,4.2,13.9,4.6,13.9z"/>
		<path fill="#010101" d="M11.7,26.1c0.1,0.4-0.1,0.8-0.5,0.8l-1.3,0.3c-0.1,0-0.1,0-0.2,0c-0.3,0-0.6-0.2-0.7-0.5l-2-6.7h3
			L11.7,26.1z"/>
		<path fill="#010101" d="M11.1,22.1l-0.6-2h1.3l0.5,1.7c0.1,0.4-0.1,0.7-0.4,0.8c0,0-0.1,0-0.1,0C11.5,22.7,11.2,22.5,11.1,22.1z"
			/>
		<path fill="#010101" d="M30.4,9.2v14.2c0,0.6-0.5,0.7-0.9,0.4c0,0-5.9-4.5-14.8-5v-5c8.9-0.6,14.8-5,14.8-5
			C29.9,8.5,30.4,8.6,30.4,9.2z"/>
		<path fill="#010101" d="M6.6,12.9h6.9c0.4,0,0.8,0.3,0.8,0.7V19c0,0.4-0.3,0.7-0.8,0.7H6.6c-0.1,0-0.1,0-0.2,0
			c-0.3-0.1-0.5-0.3-0.5-0.5c0,0,0-0.1,0-0.1v-5.4c0,0,0-0.1,0-0.1C6,13.2,6.3,12.9,6.6,12.9z"/>
	</g>
</g>
<g id="Warning">
	<path fill="#010101" d="M25.8,14.4c-2-1.9-3.4-4.7-7.4-4.3c-1.5,0.1-2.8,1-4.1,1.7c-3.8,2-7.8,4.3-11.3,6.2c1.3,1.5,2.5,3,4,4.4
		c3.8-2.1,7.9-4.6,11.9-6.8C20.9,14.5,23.3,13.4,25.8,14.4z M14.8,12.2l1.9-1.1l2.9,3.2l-2,1L14.8,12.2z"/>
	<path fill="#010101" d="M22.9,14.6c-1.6,0.1-3,1-4.3,1.7c-3.9,2.2-7.8,4.4-11.5,6.7v3.3c1.5-0.8,3-1.6,4.5-2.5
		c1.5-0.9,2.9-1.9,4.5-2.5c0.3,3.7,2.6,5.9,6.2,5.5c3.3-0.3,6.4-3.1,6.7-6.5C29.3,16.6,26.5,14.2,22.9,14.6z"/>
	<polygon fill="#010101" points="3.1,21.4 4.5,20.6 3,19 	"/>
	<path fill="#010101" d="M4.7,21l-1.6,0.9l3.2,3.5l0-2.7C5.9,22.2,4.7,21,4.7,21z"/>
	<path fill="#010101" d="M15.1,22.3c0.2,0.4,0.6,0.8,0.9,0.9c-0.2-0.3-0.2-0.8-0.3-1.3C15.5,22,15.3,22.2,15.1,22.3z"/>
</g>
<g id="Thumbprint">
	<path fill="#010101" d="M13.3,6.7c-5.5,1.8-9,7.7-7.9,13.2c1,4.5,5.4,7,9.9,5.5c4.5-1.5,7.4-6.3,6.5-10.8c-0.7-3.5-4.2-5.4-7.8-4.3
		c-3.5,1.1-5.7,4.9-5,8.4c0.5,2.5,3,3.9,5.5,3.1c2.5-0.8,4.1-3.5,3.6-6c-0.3-1.6-1.8-2.4-3.4-1.9c-1.5,0.5-2.5,2.1-2.1,3.6
		c0.1,0.5,0.6,0.8,1.1,0.6c0.6-0.2,0.9-0.7,0.8-1.2c-0.1-0.5,0.2-1,0.6-1.1c0.5-0.1,0.9,0.1,1,0.6c0.3,1.5-0.6,3.1-2.1,3.5
		c-1.4,0.5-2.9-0.4-3.2-1.8c-0.5-2.5,1-5.1,3.5-5.9c2.5-0.8,4.9,0.6,5.4,3c0.7,3.5-1.5,7.2-4.9,8.3c-3.4,1.1-6.8-0.8-7.6-4.3
		C6.5,14.8,9.3,10,13.7,8.6c4.4-1.4,8.8,1,9.7,5.5c1.1,5.4-2.3,11.3-7.7,13c-1.6,0.5-3.3,0.6-5.1,0.3c-0.3-0.1-0.5,0-0.8,0.1
		c-0.2,0.1-0.4,0.4-0.5,0.6c0,0.2,0,0.3,0,0.5c0.1,0.4,0.3,0.6,0.7,0.7c1.9,0.5,4,0.4,6.1-0.3c6.5-2.1,10.6-9.1,9.3-15.5
		C24.3,7.9,18.8,4.9,13.3,6.7z"/>
	<path fill="#010101" d="M29.2,12c-0.7-3.5-2.8-6.3-5.8-8c-3-1.7-6.6-2-10.1-0.8c-0.5,0.2-0.9,0.7-0.8,1.3c0.1,0.5,0.6,0.8,1.2,0.6
		c3-1,6-0.7,8.6,0.7c2.6,1.4,4.3,3.9,5,6.9c0.1,0.4,0.4,0.7,0.9,0.7c0.1,0,0.2,0,0.3,0C29,13.1,29.3,12.5,29.2,12z"/>
</g>
<g id="Bulb">
	<g>
		<g>
			<path fill="#010101" d="M9.5,9.9C8.8,9.9,8.1,9.4,8,8.6c-0.1-0.4,0-0.9,0.2-1.2c0.2-0.4,0.6-0.6,1-0.7l14-3.3c0.1,0,0.2,0,0.4,0
				c0.8,0,1.4,0.5,1.6,1.2c0.1,0.4,0,0.9-0.2,1.2c-0.2,0.4-0.6,0.6-1,0.7l-14,3.3c0,0-0.1,0-0.2,0C9.7,9.9,9.6,9.9,9.5,9.9z"/>
		</g>
		<g>
			<path fill="#010101" d="M10.8,5C10,5,9.4,4.5,9.2,3.7c-0.1-0.4,0-0.9,0.2-1.2c0.2-0.4,0.6-0.6,1-0.7l6.8-1.6c0.1,0,0.2,0,0.4,0
				c0.8,0,1.4,0.5,1.6,1.2c0.2,0.9-0.3,1.7-1.2,1.9l-6.8,1.6c0,0-0.1,0-0.2,0C10.9,5,10.9,5,10.8,5z"/>
		</g>
		<g>
			<path fill="#010101" d="M9.5,15c-0.8,0-1.4-0.5-1.6-1.2c-0.1-0.4,0-0.9,0.2-1.2c0.2-0.4,0.6-0.6,1-0.7l14-3.3c0.1,0,0.2,0,0.4,0
				c0.8,0,1.4,0.5,1.6,1.2c0.1,0.4,0,0.9-0.2,1.2c-0.2,0.4-0.6,0.6-1,0.7L9.9,15c0,0-0.1,0-0.1,0C9.7,15,9.6,15,9.5,15z"/>
		</g>
		<g>
			<g>
				<path fill="#010101" d="M20.9,22.3h-3.2l0.1-0.7c0.4-2.3,1.9-3.3,1.9-3.4c0.3-0.2,0.6-0.3,0.9-0.3c0.5,0,1,0.3,1.3,0.7
					c0.2,0.4,0.3,0.8,0.2,1.2c-0.1,0.4-0.3,0.8-0.7,1c-0.1,0.1-0.4,0.4-0.5,1L20.9,22.3z"/>
			</g>
		</g>
		<g>
			<g>
				<path fill="#010101" d="M13.3,22.4l-0.2-0.2c-1-1-2.4-2.1-3.7-2.8c-0.6-0.3-0.9-1-0.8-1.6c0.1-0.7,0.6-1.2,1.2-1.3l12.4-2.9
					c0.9-0.2,1.7,0.3,1.9,1.2c0.1,0.4,0,0.8-0.2,1.2c-0.2,0.4-0.6,0.6-1,0.7l-9,2.1c0.1,0.1,0.2,0.2,0.4,0.3
					c0.8,0.7,1.7,1.7,2.2,2.4l0.7,0.9L13.3,22.4z"/>
			</g>
		</g>
		<path fill="#010101" d="M12.7,23.8c0,0,0,1.3,0,1.9c0,1.2,1.6,1.6,1.6,2.1l0,2.8c0,0.4,0.3,0.8,0.6,0.8h1.2c0,0,0.3,0,0.3,0.2v0.3
			c0,0.2,0.1,0.3,0.3,0.3h1.2c0.2,0,0.4,0,0.4-0.3v-0.3c0-0.2,0.2-0.1,0.2-0.1h1.1c0.4,0,0.6-0.4,0.6-0.8l0-2.7
			c0-0.4,1.5-0.9,1.5-2.1c0-0.5,0-1.9,0-1.9H12.7z"/>
	</g>
</g>
</svg>
