<svg xmlns="http://www.w3.org/2000/svg" xmlns:xlink="http://www.w3.org/1999/xlink" x="0" y="0" version="1.1" viewBox="0 0 32 32" xml:space="preserve" style="enable-background:new 0 0 32 32"><style type="text/css">.st0{display:none}.st1{display:inline}.st2,.st3{fill:#010101}.st3{display:inline}.st4{font-family:&apos;Cabin-Medium&apos;}.st5{font-size:20.3196px}.st6{font-family:&apos;Cabin-Regular&apos;}.st7{font-size:16.4185px}.st8{font-size:16px}</style><g id="ButtonBold" class="st0"><g class="st1"><path d="M17.2,30.4H6.1V1.6h7.8c1.7,0,3.2,0.1,4.5,0.3c1.4,0.2,2.5,0.5,3.5,1.1c1,0.5,1.7,1.3,2.2,2.2c0.5,1,0.8,2.2,0.8,3.8 c0,2.6-0.8,4.6-2.4,6c1.7,0.7,3,1.5,3.8,2.6c0.8,1.1,1.2,2.5,1.2,4.3c0,1.6-0.3,2.9-0.9,4c-0.6,1.1-1.4,2-2.3,2.6 c-1,0.7-2.1,1.1-3.3,1.4C19.7,30.3,18.5,30.4,17.2,30.4z M16,6.1h-4.6v7.1h5.1c0.9,0,1.7-0.3,2.4-0.8c0.7-0.5,1-1.4,1-2.6 c0-1.4-0.3-2.4-1-2.9C18.3,6.4,17.3,6.1,16,6.1z M16.8,17.4h-5.5v8.6h5.2c1.8,0,3.2-0.3,4.1-1c0.9-0.6,1.4-1.7,1.4-3.3 C22,18.8,20.3,17.4,16.8,17.4z"/></g></g><g id="ButtonItalic" class="st0"><g class="st1"><path d="M12.3,30.4l3.6-20.3h4.2l-3.6,20.3H12.3z M16.6,6.1l0.7-4.4h4.2l-0.8,4.4H16.6z"/></g></g><g id="Underline" class="st0"><g class="st1"><path d="M25,24.1h-3.8l-0.3-1.9c-1.3,1.5-3,2.3-5.2,2.3c-5.3,0-7.9-3.1-7.9-9.2V3.8H12v10.8c0,2.1,0.4,3.7,1.1,4.7 c0.7,1,1.8,1.5,3.4,1.5c1.9,0,3.4-0.7,4.4-2.1v-15H25V24.1z"/><path d="M5.5,28.2v-2.1h22v2.1H5.5z"/></g></g><g id="Strikethru" class="st0"><path d="M25.1,15h-5.3c-0.5-0.2-1.1-0.4-1.6-0.6l-2.5-0.8c-0.9-0.3-1.5-0.6-1.7-1c-0.3-0.4-0.4-0.9-0.4-1.4 c0-0.9,0.3-1.5,1-2c0.7-0.4,1.6-0.6,2.7-0.6c1.9,0,3.6,0.6,5.2,1.9l0.5-3.7c-1.7-0.9-3.6-1.4-5.8-1.4c-1.3,0-2.4,0.2-3.4,0.5 c-0.9,0.3-1.7,0.8-2.3,1.3c-0.6,0.5-1.1,1.2-1.4,2c-0.3,0.8-0.5,1.6-0.5,2.4c0,1,0.2,1.8,0.5,2.5c0.2,0.3,0.4,0.6,0.6,0.8H7.9V17 h6.2c0.2,0.1,0.3,0.1,0.5,0.2c1,0.3,1.8,0.6,2.6,0.8c0.8,0.2,1.4,0.6,1.8,0.9s0.7,1,0.7,1.7c0,0.7-0.3,1.3-0.9,1.8 c-0.6,0.4-1.5,0.7-2.8,0.7c-1.3,0-2.5-0.2-3.6-0.7c-1.2-0.4-2-0.9-2.7-1.4l-0.5,3.8c1.7,1.1,4,1.7,6.9,1.7c1.6,0,2.9-0.2,3.9-0.6 c1-0.4,1.8-0.9,2.4-1.5c0.6-0.6,1-1.2,1.2-1.9c0.2-0.7,0.3-1.4,0.3-2c0-1-0.2-1.8-0.5-2.5c-0.2-0.4-0.4-0.7-0.6-1h2.3V15z" class="st1"/></g><g id="Pre" class="st0"><rect width="29.8" height="3.4" x="1" y="1" class="st1"/><rect width="14.6" height="3.3" x="1" y="7.7" class="st1"/><rect width="18.2" height="3.3" x="12.4" y="14.3" class="st1"/><rect width="15.1" height="3.3" x="9.8" y="27.7" class="st1"/><rect width="29.8" height="3.3" x="1" y="21" class="st1"/></g><g id="Left" class="st0"><rect width="29.8" height="3.4" x="1" y="1" class="st1"/><rect width="14.6" height="3.3" x="1" y="7.7" class="st1"/><rect width="18.2" height="3.3" x="1" y="14.3" class="st1"/><rect width="15.1" height="3.3" x="1" y="27.7" class="st1"/><rect width="29.8" height="3.3" x="1" y="21" class="st1"/></g><g id="Center" class="st0"><rect width="29.8" height="3.4" x="1" y="1" class="st1"/><rect width="14.6" height="3.3" x="8.6" y="7.7" class="st1"/><rect width="18.2" height="3.3" x="6.8" y="14.3" class="st1"/><rect width="15.1" height="3.3" x="8.3" y="27.7" class="st1"/><rect width="29.8" height="3.3" x="1" y="21" class="st1"/></g><g id="Right" class="st0"><rect width="29.8" height="3.4" x="1" y="1" class="st1"/><rect width="14.6" height="3.3" x="16.2" y="7.7" class="st1"/><rect width="18.2" height="3.3" x="12.6" y="14.3" class="st1"/><rect width="15.1" height="3.3" x="15.7" y="27.7" class="st1"/><rect width="29.8" height="3.3" x="1" y="21" class="st1"/></g><g id="Image" class="st0"><path d="M28.8,5.9v19.7H3V5.9H28.8 M28.8,3.9H3c-1.1,0-2,0.9-2,2v19.7c0,1.1,0.9,2,2,2h25.8c1.1,0,2-0.9,2-2V5.9 C30.8,4.8,29.9,3.9,28.8,3.9L28.8,3.9z" class="st1"/><polygon points="5 23.7 5 20.7 9.9 15.8 12.3 18.2 20.4 10.3 27 16.9 27 23.7" class="st1"/><circle cx="8" cy="11" r="3" class="st1"/></g><g id="Link" class="st0"><g class="st1"><g><path d="M22.2,19.3l4.5-2.2c3.3-1.6,4.6-5.6,3-8.8c-1.6-3.3-5.6-4.6-8.8-3l-6.4,3.2c-3.3,1.6-4.6,5.6-3,8.8 c0.2,0.5,0.5,0.9,0.9,1.3l3.4-1.7c-0.5-0.3-0.8-0.7-1.1-1.2c-0.7-1.5-0.1-3.3,1.3-4l6.4-3.2c1.5-0.7,3.3-0.1,4,1.3 c0.7,1.5,0.1,3.3-1.3,4l-1.9,0.9C23.3,16.3,23,17.9,22.2,19.3z" class="st2"/></g><g><path d="M10.3,10.5l-4.5,2.2c-3.3,1.6-4.6,5.6-3,8.8c1.6,3.3,5.6,4.6,8.8,3l6.4-3.2c3.3-1.6,4.6-5.6,3-8.8 c-0.2-0.5-0.5-0.9-0.9-1.3l-3.4,1.7c0.5,0.3,0.8,0.7,1.1,1.2c0.7,1.5,0.1,3.3-1.3,4l-6.4,3.2c-1.5,0.7-3.3,0.1-4-1.3 c-0.7-1.5-0.1-3.3,1.3-4L9.3,15C9.2,13.4,9.5,11.8,10.3,10.5z" class="st2"/></g></g></g><g id="Glow" class="st0"><g class="st1"><path d="M18.5,18.5h3v4.8c-0.8,0.3-1.9,0.5-3.2,0.5c-1.2,0-2.3-0.2-3.2-0.6c-0.9-0.4-1.7-0.9-2.3-1.5c-0.6-0.7-1.1-1.5-1.4-2.4 c-0.3-0.9-0.5-2-0.5-3.2c0-1.1,0.1-2.2,0.4-3.1c0.3-0.9,0.7-1.8,1.3-2.4c0.6-0.7,1.3-1.2,2.2-1.6c0.9-0.4,1.9-0.6,3-0.6 c1.7,0,3.5,0.3,5.4,1l0.2-2.3c-1.7-0.7-3.6-1.1-5.7-1.1c-1.4,0-2.7,0.2-3.9,0.7c-1.2,0.5-2.2,1.2-3.1,2c-0.9,0.9-1.5,1.9-2,3.2 c-0.5,1.2-0.7,2.6-0.7,4.1s0.2,2.9,0.7,4.1c0.5,1.2,1.1,2.3,2,3.2c0.8,0.9,1.8,1.6,3,2.1c1.2,0.5,2.4,0.7,3.8,0.7 c0.5,0,1.1,0,1.7-0.1c0.6-0.1,1.2-0.2,1.8-0.3c0.6-0.1,1.2-0.3,1.7-0.5c0.5-0.2,1-0.4,1.4-0.6v-8.6h-5.7V18.5z"/><path d="M24.6,14.1H18c-0.8,0-1.5,0.7-1.5,1.5V19c0,0.8,0.7,1.5,1.5,1.5h1.5v1.3c-0.4,0-0.8,0.1-1.2,0.1c-0.9,0-1.8-0.1-2.4-0.4 c-0.6-0.3-1.2-0.6-1.6-1.1c-0.4-0.4-0.7-1-1-1.7c-0.2-0.7-0.4-1.6-0.4-2.5c0-0.9,0.1-1.8,0.4-2.5c0.2-0.7,0.5-1.3,0.9-1.7 c0.4-0.4,0.9-0.8,1.5-1c0.6-0.3,1.3-0.4,2.2-0.4c1.4,0,3,0.3,4.7,0.9l0.6,0.2c0.2,0.1,0.3,0.1,0.5,0.1c0.3,0,0.6-0.1,0.8-0.2 c0.4-0.2,0.6-0.7,0.7-1.1l0.4-3.3c0.1-0.6-0.3-1.3-0.9-1.5l-0.3-0.1c-1.9-0.8-4.1-1.3-6.6-1.3c-1.7,0-3.2,0.3-4.7,0.9 c-1.4,0.6-2.7,1.4-3.7,2.5c-1,1.1-1.9,2.4-2.4,3.8c-0.6,1.5-0.9,3.1-0.9,4.8c0,1.7,0.3,3.4,0.8,4.8c0.6,1.5,1.4,2.8,2.4,3.8 c1,1.1,2.3,1.9,3.7,2.5c1.4,0.6,2.9,0.9,4.6,0.9c0.6,0,1.2,0,1.9-0.1c0.7-0.1,1.4-0.2,2-0.4c0.7-0.2,1.3-0.3,1.9-0.5 c0.7-0.2,1.2-0.5,1.7-0.7l0.3-0.1c0.5-0.3,0.8-0.8,0.8-1.3v-9.4C26.1,14.8,25.4,14.1,24.6,14.1z M25.1,16.1v8.6v0.6l-0.5,0.3 c-0.4,0.2-0.9,0.4-1.5,0.6c-0.6,0.2-1.2,0.3-1.8,0.5c-0.6,0.1-1.3,0.3-1.9,0.3c-0.7,0.1-1.3,0.1-1.8,0.1c-1.5,0-2.9-0.3-4.2-0.8 c-1.3-0.5-2.4-1.3-3.3-2.3c-0.9-1-1.7-2.2-2.2-3.5c-0.5-1.3-0.8-2.8-0.8-4.5c0-1.6,0.3-3.1,0.8-4.5c0.5-1.4,1.3-2.5,2.2-3.5 c0.9-1,2.1-1.7,3.4-2.3c1.3-0.5,2.7-0.8,4.3-0.8c2.3,0,4.4,0.4,6.1,1.2l0.7,0.3l-0.1,0.7l-0.2,2.3l-0.1,1.3l-1.2-0.4 c-1.8-0.6-3.5-1-5.1-1c-1,0-1.8,0.2-2.6,0.5c-0.7,0.3-1.3,0.7-1.8,1.3c-0.5,0.6-0.9,1.3-1.1,2.1c-0.3,0.8-0.4,1.8-0.4,2.8 c0,1,0.1,2,0.4,2.8c0.3,0.8,0.7,1.5,1.2,2c0.5,0.6,1.2,1,1.9,1.3c0.8,0.3,1.7,0.5,2.8,0.5c0.9,0,1.6-0.1,2.2-0.2v-3.1h-2h-1v-1 v-2.4v-1h1h5.7h1V16.1z"/></g></g><g id="Shadow" class="st0"><path d="M20.3,25.2c4.4-1.6,7.5-5.8,7.5-10.7C27.8,8.1,22.7,3,16.3,3S4.9,8.1,4.9,14.4c0,4.9,3.1,9,7.4,10.7 C5.8,25.4,1,26.1,1,27.1C1,28.1,7.7,29,15.9,29s14.9-0.9,14.9-1.9C30.9,26.2,26.4,25.4,20.3,25.2z M6.2,14.4 c0-5.6,4.5-10.1,10.1-10.1c0.1,0,0.2,0,0.2,0c3.2,2.4,5.2,6.1,5.2,10.1c0,4-1.9,7.8-5.2,10.1c-0.1,0-0.1,0-0.2,0 C10.8,24.6,6.2,20.1,6.2,14.4z" class="st3"/></g><g id="Layer_28" class="st0"><g class="st1"><g><path d="M28.5,17.2c0-4.1-1.7-6.2-5-6.2c-1.6,0-2.8,0.5-3.7,1.6V4.6h-2.4V24h2.4v-9.2c0.7-1.1,1.8-1.7,3.3-1.7 c1.1,0,1.9,0.3,2.4,0.9s0.7,1.7,0.7,3.2V24h2.3V17.2z"/></g><g><path d="M20.1,12c0.2-0.2,0.4-0.3,0.5-0.4V6.1h-0.5V12z"/></g><g><path d="M25.3,14.2c-0.4-0.5-1.1-0.8-2.2-0.8c-1.1,0-1.9,0.3-2.5,0.8c0,0,0,0,0,0v0c-0.2,0.2-0.4,0.4-0.5,0.6V24v0.3h-0.3h-1.6 v1.3h2.4v-9.2c0.7-1.1,1.8-1.7,3.3-1.7c0.7,0,1.3,0.1,1.7,0.4C25.6,14.7,25.4,14.4,25.3,14.2z"/></g><g><path d="M28.5,15c0.1,0.7,0.2,1.4,0.2,2.2V24v0.3h-0.3h-1.5v1.3h2.3v-6.8C29.3,17.2,29,16,28.5,15z"/></g></g><g class="st1"><g><path d="M11.9,23.8c0.9-0.3,1.6-0.8,2.1-1.3c0.5-0.5,0.8-1,1-1.6c0.2-0.6,0.2-1.1,0.2-1.6c-0.1-0.7-0.1-1.3-0.3-1.7 c-0.1-0.5-0.4-0.9-0.8-1.3l-0.6-0.7c-0.1-0.1-0.2-0.2-0.4-0.3s-0.3-0.2-0.6-0.3l-0.9-0.5c-0.6-0.3-1-0.4-1.3-0.5 c-0.3-0.1-0.5-0.2-0.6-0.2c-0.2,0-0.3-0.1-0.5-0.1c-0.2,0-0.4-0.1-0.8-0.2c-1.3-0.4-2.3-0.8-2.9-1.3c-0.6-0.4-1-1-1-1.8 c0-0.5,0.1-0.9,0.4-1.2c0.2-0.3,0.5-0.6,0.9-0.8S6.7,8,7.2,7.9c0.5-0.1,1-0.2,1.5-0.2c1.3,0,3,0.5,5.2,1.6l0.3-2.6 c-0.3-0.2-0.7-0.3-1.1-0.5c-0.4-0.2-0.9-0.3-1.4-0.4c-0.5-0.1-1-0.2-1.6-0.3C9.5,5.5,9,5.5,8.5,5.5C7.2,5.5,6.1,5.7,5.3,6 c-0.8,0.3-1.5,0.8-2,1.3S2.5,8.4,2.2,9C2,9.6,1.9,10.2,1.9,10.7c0,1,0.3,1.8,0.9,2.6C3.5,14,4.6,14.6,6,15.1l1.8,0.6 c0.7,0.2,1.4,0.5,1.9,0.7c0.6,0.2,1.1,0.5,1.5,0.8c0.4,0.3,0.7,0.6,0.9,0.9c0.2,0.4,0.3,0.8,0.3,1.3c0,0.5-0.1,0.9-0.3,1.2 c-0.2,0.4-0.5,0.6-0.9,0.9c-0.4,0.2-0.8,0.4-1.4,0.5c-0.5,0.1-1.1,0.2-1.7,0.2c-2.1,0-4-0.6-5.7-1.8l-0.3,2.9 c1.5,0.8,3.4,1.2,5.9,1.2C9.7,24.3,11,24.2,11.9,23.8z"/></g><g><path d="M11.1,17.3c-0.4-0.3-0.9-0.5-1.4-0.7c-0.6-0.2-1.2-0.5-1.9-0.7L6,15.3c-1.3-0.4-2.2-0.9-2.9-1.6c0.2,0.4,0.3,0.7,0.6,1.1 c0.6,0.7,1.7,1.3,3.2,1.8l1.8,0.6c0.7,0.2,1.4,0.5,1.9,0.7c0.6,0.2,1.1,0.5,1.5,0.8c0.1,0,0.1,0.1,0.2,0.2c0-0.2-0.1-0.4-0.2-0.6 C11.8,17.9,11.5,17.6,11.1,17.3z"/></g><g><path d="M14.2,9.4l0,0.4l-0.3-0.2C11.7,8.5,10,8,8.7,8C8.2,8,7.7,8,7.3,8.1C6.8,8.2,6.4,8.4,6,8.6C5.7,8.8,5.4,9,5.2,9.3 C5,9.6,4.9,10,4.9,10.4c0,0.5,0.2,1,0.6,1.3c0-0.4,0.1-0.7,0.3-1c0.2-0.3,0.5-0.6,0.9-0.8S7.5,9.5,8,9.4c0.5-0.1,1-0.2,1.5-0.2 c1.3,0,3,0.5,5.2,1.6L15,8.3c-0.2-0.1-0.4-0.2-0.7-0.3L14.2,9.4z"/></g><g><path d="M15.8,19.1c-0.1-0.3-0.2-0.5-0.4-0.8c0,0.3,0.1,0.6,0.1,1c0,0.5-0.1,1.1-0.2,1.7c-0.2,0.6-0.5,1.2-1.1,1.7 c-0.5,0.5-1.3,1-2.2,1.3c-0.9,0.3-2.2,0.5-3.8,0.5c-2,0-3.7-0.3-5-0.8L3,24.7c1.5,0.8,3.4,1.2,5.9,1.2c1.6,0,2.8-0.2,3.7-0.5 c0.9-0.3,1.6-0.8,2.1-1.3c0.5-0.5,0.8-1,1-1.6c0.2-0.6,0.2-1.1,0.2-1.6C16,20.2,15.9,19.6,15.8,19.1z"/></g></g></g><g id="Marquee" class="st0"><polygon points="6.4 9.3 1 14.7 6.4 20.1" class="st1"/><g class="st1"><path d="M30.8,26.3h-3.1l-1.8-14.1l-5.2,9.7l-5.3-9.7l-1.8,14.1h-3.1l2.6-19.5h2.5l5,9.4l5-9.4h2.5L30.8,26.3z"/></g><polygon points="11.6 12.7 4.9 12.7 4.9 17.1 10.9 17.1" class="st1"/></g><g id="Superscript" class="st0"><text class="st1 st4 st5" transform="matrix(1 0 0 1 0.6182 11.8638)">sup</text></g><g id="Subscript" class="st0"><text class="st1 st4 st5" transform="matrix(1 0 0 1 0.6079 30.5721)">sub</text></g><g id="Teletype" class="st0"><g class="st1"><path d="M13.1,24c0,0.5,0.1,0.9,0.2,1.2c0.1,0.3,0.3,0.5,0.6,0.7c0.2,0.2,0.5,0.3,0.9,0.3s0.7,0.1,1,0.1h0.8v1.4H6.3v-1.4H7 c0.4,0,0.7,0,1-0.1c0.3,0,0.6-0.1,0.9-0.3c0.2-0.1,0.4-0.4,0.6-0.7c0.1-0.3,0.2-0.7,0.2-1.2V5.9H6.6C6.1,5.9,5.7,6,5.4,6.1 C5.1,6.3,4.8,6.5,4.6,6.7C4.4,7,4.2,7.2,4.1,7.6C4,7.9,3.9,8.2,3.9,8.6L3.7,10H2l0.2-5.8h18.5l0.2,5.8h-1.7L19,8.6 c0-0.4-0.1-0.7-0.2-1c-0.1-0.3-0.3-0.6-0.5-0.9c-0.2-0.2-0.5-0.4-0.8-0.6c-0.3-0.1-0.7-0.2-1.2-0.2h-3.2V24z"/></g><g class="st1"><path d="M26.8,26.5c0.4,0,0.7,0,1-0.1c0.3,0,0.6-0.1,0.9-0.1v1.3c-0.1,0.1-0.3,0.1-0.5,0.2s-0.4,0.1-0.7,0.2 c-0.2,0-0.5,0.1-0.8,0.1c-0.3,0-0.5,0-0.8,0c-0.8,0-1.4-0.1-2-0.2c-0.6-0.2-1-0.4-1.4-0.8c-0.4-0.4-0.6-0.9-0.8-1.5 c-0.2-0.6-0.3-1.3-0.3-2.2V13.2h-2.3V12c0.4,0,0.8-0.1,1.2-0.2c0.4-0.1,0.8-0.4,1.2-0.7c0.3-0.4,0.6-0.8,0.8-1.3s0.4-1.2,0.6-2 h1.4v3.7h4v1.7h-4v10.3c0,1,0.2,1.8,0.6,2.3S26.1,26.5,26.8,26.5z"/></g></g><g id="Table" class="st0"><path d="M1,3.3v25.2h29.8V3.3H1z M12.4,19.8v-4.7h7.2v4.7H12.4z M19.6,21.8v4.8h-7.2v-4.8H19.6z M10.4,19.8H3v-4.7h7.4 V19.8z M12.4,13.1V7.8h7.2v5.2H12.4z M21.6,15.1h7.2v4.7h-7.2V15.1z M28.8,13.1h-7.2V7.8h7.2V13.1z M10.4,7.8v5.2H3V7.8H10.4z M3,21.8h7.4v4.8H3V21.8z M21.6,26.5v-4.8h7.2v4.8H21.6z" class="st1"/></g><g id="Code" class="st0"><g class="st1"><path d="M1,13.1l7.4-7.9V10l-4.8,4.8V15l4.8,4.8v4.9L1,16.8V13.1z"/><path d="M14.1,25.8h-2.7l6.3-19.5h2.7L14.1,25.8z"/><path d="M30.8,16.8l-7.4,7.9v-4.9l4.8-4.8v-0.1L23.3,10V5.1l7.4,7.9V16.8z"/></g></g><g id="Quote" class="st0"><g class="st1"><path d="M14.7,9.3c-1.8,0.7-3.1,1.6-4,2.6c-0.9,1-1.4,2.3-1.5,3.7c0.2,0,0.3-0.1,0.4-0.1c0.1,0,0.3,0,0.4,0c1.4,0,2.5,0.4,3.4,1.3 c0.9,0.9,1.3,2,1.3,3.5c0,1.6-0.5,2.9-1.4,3.9c-0.9,0.9-2.1,1.4-3.6,1.4c-2,0-3.5-0.7-4.6-2.2c-1-1.5-1.6-3.5-1.6-6.2 c0-2.7,0.7-5.1,2.2-7.1C7.3,8,9.5,6.4,12.6,5L14.7,9.3z M28,9.3c-1.8,0.7-3.1,1.6-4,2.6c-0.9,1-1.4,2.3-1.5,3.7 c0.2,0,0.3-0.1,0.4-0.1c0.1,0,0.3,0,0.4,0c1.4,0,2.6,0.4,3.4,1.3c0.9,0.9,1.3,2,1.3,3.5c0,1.6-0.5,2.9-1.4,3.9 c-0.9,0.9-2.1,1.4-3.6,1.4c-2,0-3.5-0.7-4.6-2.2c-1-1.5-1.6-3.5-1.6-6.2c0-2.7,0.7-5.1,2.2-7.1C20.6,8,22.9,6.4,26,5L28,9.3z"/></g></g><g id="UnorderedList" class="st0"><circle cx="5" cy="5" r="4" class="st1"/><rect width="19.9" height="3.7" x="11" y="3.1" class="st1"/><circle cx="5" cy="27" r="4" class="st1"/><circle cx="5" cy="16" r="4" class="st1"/><rect width="19.9" height="3.7" x="11" y="25.2" class="st1"/><rect width="19.9" height="3.7" x="11" y="14.1" class="st1"/></g><g id="Ordered" class="st0"><rect width="19.9" height="3.7" x="11" y="3.1" class="st1"/><rect width="19.9" height="3.7" x="11" y="25.2" class="st1"/><rect width="19.9" height="3.7" x="11" y="14.1" class="st1"/><g class="st1"><path d="M7.7,6.8v1.5H2.4V6.8h1.8V3.1H2.8V1.9c0.4-0.1,0.8-0.2,1.1-0.3s0.6-0.2,0.9-0.4h1.4v5.6H7.7z"/></g><g class="st1"><path d="M2.2,18.2c0.5-0.4,0.9-0.8,1.3-1.1c0.4-0.3,0.8-0.7,1-1s0.5-0.6,0.7-0.9c0.2-0.3,0.2-0.5,0.2-0.8c0-0.3-0.1-0.6-0.3-0.7 s-0.4-0.2-0.8-0.2c-0.3,0-0.5,0.1-0.7,0.2s-0.4,0.3-0.6,0.5l-1-1c0.2-0.2,0.4-0.4,0.6-0.5s0.4-0.3,0.6-0.4 c0.2-0.1,0.4-0.2,0.7-0.2s0.5-0.1,0.8-0.1c0.4,0,0.7,0.1,1,0.2c0.3,0.1,0.6,0.3,0.8,0.5c0.2,0.2,0.4,0.4,0.5,0.7 c0.1,0.3,0.2,0.6,0.2,1c0,0.3-0.1,0.6-0.2,0.9c-0.1,0.3-0.3,0.6-0.5,0.9S6.1,16.7,5.8,17c-0.3,0.3-0.6,0.5-0.9,0.8 c0.2,0,0.4,0,0.7-0.1c0.2,0,0.5,0,0.6,0h1.4v1.6H2.2V18.2z"/></g><g class="st1"><path d="M3.2,28.3c0.2,0.2,0.5,0.4,0.8,0.5C4.3,28.9,4.6,29,4.8,29c0.4,0,0.6-0.1,0.9-0.2S6,28.6,6,28.3c0-0.1,0-0.3-0.1-0.4 s-0.2-0.2-0.3-0.3c-0.1-0.1-0.4-0.1-0.6-0.2c-0.3,0-0.6-0.1-1-0.1v-1.3c0.6,0,1.1-0.1,1.4-0.2c0.3-0.1,0.4-0.3,0.4-0.6 c0-0.2-0.1-0.4-0.2-0.5c-0.2-0.1-0.4-0.2-0.7-0.2c-0.3,0-0.5,0-0.7,0.1s-0.4,0.2-0.7,0.4l-1-1.2c0.4-0.3,0.8-0.5,1.2-0.7 c0.4-0.2,0.8-0.2,1.3-0.2c0.4,0,0.8,0,1.1,0.1s0.6,0.2,0.9,0.4c0.2,0.2,0.4,0.4,0.6,0.6c0.1,0.3,0.2,0.5,0.2,0.9 c0,0.3-0.1,0.6-0.3,0.9c-0.2,0.3-0.5,0.5-1,0.6v0c0.4,0.1,0.8,0.3,1.1,0.6c0.3,0.3,0.4,0.6,0.4,1.1c0,0.3-0.1,0.6-0.2,0.9 c-0.2,0.3-0.4,0.5-0.6,0.7s-0.6,0.3-0.9,0.4S5.4,30.6,5,30.6c-0.6,0-1.1-0.1-1.6-0.3c-0.5-0.2-0.8-0.4-1.1-0.7L3.2,28.3z"/></g></g><g id="HR" class="st0"><rect width="29.9" height="2.3" x="1" y="14.8" class="st1"/></g><g id="YouTube" class="st0"><g id="Lozenge" class="st1"><path d="M30.5,10.5c0,0-0.3-2.1-1.2-3c-1.1-1.2-2.4-1.2-3-1.3C22.2,6,15.9,6,15.9,6h0c0,0-6.3,0-10.4,0.3c-0.6,0.1-1.9,0.1-3,1.3 c-0.9,0.9-1.2,3-1.2,3S1,12.9,1,15.4v2.3c0,2.4,0.3,4.8,0.3,4.8s0.3,2.1,1.2,3c1.1,1.2,2.6,1.2,3.3,1.3C8.2,26.9,15.9,27,15.9,27 s6.3,0,10.4-0.3c0.6-0.1,1.9-0.1,3-1.3c0.9-0.9,1.2-3,1.2-3s0.3-2.4,0.3-4.8v-2.3C30.8,12.9,30.5,10.5,30.5,10.5z M12.8,20.4 l0-8.4l8.1,4.2L12.8,20.4z"/></g></g><g id="Vimeo" class="st0"><path d="M30.8,9.5c-0.1,2.9-2.2,6.9-6.1,12c-4.1,5.3-7.5,7.9-10.3,7.9c-1.7,0-3.2-1.6-4.4-4.8c-0.8-3-1.6-5.9-2.4-8.9 c-0.9-3.2-1.9-4.8-2.9-4.8c-0.2,0-1,0.5-2.3,1.4L1,10.5c1.5-1.3,2.9-2.6,4.4-3.9c2-1.7,3.4-2.6,4.4-2.7c2.3-0.2,3.8,1.4,4.3,4.8 c0.6,3.7,1,6,1.2,6.9c0.7,3,1.4,4.6,2.2,4.6c0.6,0,1.6-1,2.8-3c1.3-2,1.9-3.5,2-4.5c0.2-1.7-0.5-2.6-2-2.6c-0.7,0-1.5,0.2-2.2,0.5 c1.5-4.8,4.3-7.2,8.4-7C29.6,3.7,31,5.7,30.8,9.5z" class="st1"/></g><g id="nsfw" class="st0"><g class="st1"><path d="M2.4,15.4c-1.3,0.9-1,2.3,0.8,3.7C2,17.6,1.7,16.4,2.4,15.4z" class="st2"/><path d="M13.3,15.6c-0.6-0.8-1.6-0.6-2.3,0C12.5,15.3,12.6,15.4,13.3,15.6z" class="st2"/><path d="M7,14.8c-1.3,0.3-1.9,1-1.7,2.1c0-1.5,1.1-2.3,5-1.8C10.7,10.5,6.9,8.9,7,14.8z M9.2,12.9 c-0.4,0-0.7,0.5-0.7,1.1c0,0.2,0,0.6,0,0.6c-0.4,0-0.8,0-1.1,0.1c0-4.5,2.2-4,2.5-1.2C9.8,13.1,9.5,12.9,9.2,12.9z" class="st2"/><path d="M30.7,24.7c-0.1,0.1-0.3,0.2-0.5,0.3c0.3-1.3-0.6-2.6-2.1-3.2c-0.3-0.1-0.5-0.2-0.8-0.3 c-0.9-0.3-1.8-0.7-2.7-1c-1-0.4-2-0.7-3-1.1c-1.2-0.4-2.3-0.8-3.5-1.2c-0.3-0.1-0.5-0.2-0.7-0.4c-0.2-0.2-0.3-0.5-0.4-0.8 c0-0.1,0-0.3-0.1-0.4c0-0.1-0.1-0.2-0.2-0.3c-0.3-0.5-0.7-0.8-1.2-1.1c0-0.2,0-0.5,0-0.7c0.2-1.1,0.3-2.4,0.1-3.4l1.8-1.2 c2.7-1.6,0.6-2.7-1.2-3.3l-1.7-0.3C13.7,5,11.8,4.9,9.9,4.8c-0.8,0-1.7,0-2.8,0c-5.8,0-6.6,6.2-5.5,10.1c-0.6,0.4-0.8,1.4-0.4,2.4 c0.3,0.7,1.3,2.9,2.3,2.5C4,20,4.9,20.9,5.3,21.3c0.6,0.5,1.3,1,2.3,1.2L8,22.6c0.3,0.1,0.6,0.1,1,0.1c-2-0.4-3.1-1.4-4.4-2.7 c-0.2-0.2-0.5-0.4-0.7-0.6c0.1-0.1,0.2-0.2,0.3-0.3c0,0-0.9,0.3-1.2,0.1c-0.4-0.3-0.8-1-1.3-2.1c-0.6-2.2,0.9-2.5,2-1.4 c-0.5-0.7-1-1-1.4-1c2.6-3.4,9.2-6.9,13.4-3.4c0.1,0.5,0.2,1.2,0.1,1.9c-0.5-2.6-2.3-2.6-2.2,2.1c0.3,0,0.7,0,1.1,0.1 c1.5,0.3,2.2,1.1,2.4,2.1c-0.1,0.1-0.2,0.2-0.3,0.3L16,17.5c-0.4-0.1-0.8-0.2-1.2-0.2c-1.5-1.2-3.6-0.7-5.1,0.3 c0.4,3.5,1.8,4.5,3.2,3.6c0.3,0.4,0.7,0.7,1.2,0.9c-1.3,1-3,1-4.8,0c0.9,0.7,1.7,1.1,2.5,1.1c0.2,0,0.4,0,0.6,0 c0.8-0.1,1.5-0.4,2.1-1l0.8,0.3c0.1,0.1,2.3,1,2.5,0.9l8.8,3.2c1.5,0.5,3.1,0.1,3.6-1.1c0.2,0.2,0.3,0.2,0.5,0.2 C30.9,25.4,30.9,25.1,30.7,24.7z M11.3,5.9c-1.7-0.1-2.9,0.5-3.8,2l-1.9,3.2c-1.4,0.8-2.8,1.9-3.7,3.3c-1.2-4.3,0.6-9.3,5.3-9.3 c1.6,0,3.3-0.1,4.9,0.2c1,0.2,1.7,0.5,2.3,1.1L11.3,5.9z M15.1,13.4c-0.4,0-0.7,0.5-0.7,1.1c0,0.2,0,0.3,0,0.7 c-0.2,0-0.7-0.1-0.7-0.1c0-4.3,1.4-4,1.8-1.7C15.3,13.4,15.2,13.4,15.1,13.4z M13,17.8c-0.3,0.2-0.5,0.4-0.6,0.7 c-0.1-0.2-0.2-0.4-0.4-0.5C12.4,17.7,12.8,17.7,13,17.8z M10.2,18.6c0.1-0.3,1.2-0.7,1.5-0.5c0.2,0.1,0.3,0.3,0.4,0.5 c-0.1-0.1-0.2-0.1-0.3-0.1c-0.1,0.1,0,0.3,0,0.7C12,19,12.1,19,12.2,19c-0.2,0.6,0,1.3,0.4,1.9C11.4,21.5,10.8,20.8,10.2,18.6z M29.9,24.9c0,0.1,0,0.2-0.1,0.3c-0.7-0.1-1.5-0.3-2.3-0.6c0.8,0.6,1.5,0.8,2.3,0.7c0,0.1-0.1,0.1-0.1,0.2c-0.9,0.2-1.7,0.1-2.7,0 c1,0.4,1.9,0.4,2.7,0.1c-0.5,0.8-1.8,1.2-3.1,0.7l-10.3-3.7l0,0c-0.4-0.1-0.7-0.2-1.1-0.4C15.1,22,15.1,22,15,22c0,0,0,0,0,0 l-0.6-0.2c-1.3-0.5-2.1-1.7-1.9-2.7c0.4,0.8,1.1,1.3,2.1,1.7c-0.9-0.6-1.5-1-2-1.8c0-0.1,0-0.1,0.1-0.2c0.5,0.6,1.2,0.9,2.1,1 c-0.8-0.3-1.6-0.7-2.1-1.1c0-0.1,0.1-0.1,0.1-0.2c0.9-0.4,1.8-0.5,2.7-0.2c-1.1-0.5-2-0.4-2.6,0.1c0.5-0.8,1.8-1.2,3.1-0.7 l0.4,0.2c0,0,0,0,0,0c0.9,0.3,1.8,0.6,2.7,0.9c0.2,0.1,0.4,0.1,0.5,0.2l8.5,3.1c1.3,0.5,2,1.5,1.9,2.5C29.7,24,29.2,23.3,28,23 C28.9,23.4,29.6,24,29.9,24.9z" class="st2"/></g></g><g id="spoiler" class="st0"><text class="st1 st6 st7" transform="matrix(1 0 0 1 1.6548 14.9722)">spoi</text><text class="st1 st6 st8" transform="matrix(1 0 0 1 12.5581 27.7089)">ler</text></g><g id="VideoLoop" class="st0"><path d="M16.2,2.4c4.4,0.1,8.7,2.2,11.2,6.1c4.1,6.3,2.4,14.7-3.9,18.8c-6.2,4.1-14.7,2.4-18.8-3.8l-1.9,1.2l-0.2-4.2 l-0.2-4.3l3.8,1.9l3.8,1.9l-2,1.3c3,4.4,8.9,5.6,13.4,2.7c4.5-3,5.8-8.9,2.8-13.5s-9-5.7-13.5-2.8c-1.1,0.7-2.1,1.7-2.8,2.8 L4.6,8.5C5.7,7,7,5.7,8.6,4.6C10.9,3.1,13.6,2.4,16.2,2.4L16.2,2.4z" class="st3"/><path id="Triangle" d="M12.1,21.5L22.6,16l-10.5-5.5V21.5z" class="st3"/></g><g id="Clean"><path d="M23.4,5.4c0.2,0.3,0.5,0.6,0.9,0.9c0.4,0.3,0.8,0.5,1.2,0.6l0.9-1.2c0.5-0.1,0.8-0.4,1.1-0.9 c0.7-1,0.7-2.2-0.1-2.7C26.6,1.7,25.4,2,24.7,3c-0.3,0.4-0.5,0.8-0.5,1.3L23.4,5.4z M26.9,2.7c0.5,0.4,0.5,1.2,0,1.8 c-0.1,0.1-0.2,0.2-0.3,0.3c0,0-0.4,0.1-1-0.4C25,4,25,3.6,25,3.6c0.1-0.1,0.1-0.3,0.2-0.4C25.6,2.6,26.4,2.4,26.9,2.7z" class="st2"/><path d="M24,6.8c-0.4-0.3-0.7-0.6-0.9-0.9l-0.3,0.4c0.2,0.3,0.5,0.6,0.9,0.9c0.4,0.3,0.7,0.5,1.1,0.6c0,0,0.1,0,0.1,0 l0.2-0.3C24.7,7.3,24.3,7.1,24,6.8z" class="st2"/><path d="M17.1,16.5c1.7,1.2,3.3,2.1,4.8,2.7c0.8-2.5,1.4-4.5,1.7-6.1c0.2-0.9,0.2-1.8-0.2-2.6c-0.3-0.1-0.7-0.2-1-0.5 C22.1,10,22,9.9,21.8,9.8c-0.1-0.1-0.2-0.2-0.3-0.3c-0.3-0.3-0.6-0.6-0.8-0.9c-0.9-0.1-1.7,0.2-2.5,0.6C16.8,10,15,11.2,13,12.7 C13.9,13.9,15.3,15.2,17.1,16.5z" class="st2"/><path d="M21.2,8.4c0.1,0.1,0.1,0.1,0.2,0.2c0,0,0,0,0,0c0.1,0.1,0.1,0.2,0.2,0.2c0,0,0,0,0,0C21.7,9,21.7,9,21.8,9.1 c0,0,0,0,0.1,0c0.1,0.1,0.2,0.1,0.3,0.2c0.1,0.1,0.2,0.1,0.3,0.2c0,0,0,0,0.1,0c0.1,0.1,0.2,0.1,0.3,0.1c0,0,0,0,0,0 c0.1,0,0.2,0.1,0.3,0.1c0,0,0,0,0,0c0.1,0,0.2,0.1,0.3,0.1c0,0,0,0,0,0l1.2-1.7c-0.4-0.1-0.8-0.4-1.1-0.6c-0.4-0.3-0.7-0.6-0.9-0.9 L21.2,8.4C21.2,8.4,21.2,8.4,21.2,8.4z" class="st2"/><path d="M15.5,18.6c1.4,1,2.7,1.8,4,2.3c0.6,0.2,1.1,0.4,1.6,0.6c0.2-0.5,0.3-0.9,0.5-1.4c-1.6-0.6-3.3-1.6-5.1-2.8 c-1.8-1.3-3.3-2.7-4.3-4c-0.4,0.3-0.8,0.6-1.2,0.9c0.1,0.2,0.3,0.4,0.4,0.6C12.4,16,13.8,17.3,15.5,18.6z" class="st2"/><path d="M15,19.4c-2-1.5-3.7-3.1-4.8-4.6c-3.2,2.2-6,4.4-6.6,4.9l0,0c0,0,0,0.1,0.1,0.3c0.2,0.2,0.3,0.2,0.3,0.3 c0.3,0,0.5,0.2,0.7,0.5C5,21,5.1,21.2,5,21.4l0,0c0,0,0,0.1,0.2,0.3C5.4,21.9,5.5,22,5.6,22c0.3,0,0.5,0.1,0.7,0.4 c0.3,0.3,0.4,0.5,0.3,0.7l0,0c0,0,0,0.1,0.2,0.3c0.2,0.2,0.3,0.2,0.4,0.2c0.3,0,0.5,0.1,0.8,0.3c0.3,0.2,0.4,0.5,0.4,0.7l0,0 c0,0,0.1,0.1,0.2,0.3c0.2,0.2,0.3,0.2,0.4,0.2c0.2,0,0.5,0.1,0.8,0.3c0.3,0.2,0.5,0.5,0.5,0.7l0,0c0,0,0,0.1,0.3,0.3 c0.2,0.1,0.3,0.1,0.4,0.1c0.2-0.1,0.5,0,0.8,0.2c0.3,0.2,0.5,0.4,0.5,0.7l0,0c0,0,0.1,0.1,0.3,0.3c0.2,0.1,0.3,0.1,0.4,0.1 c0.2-0.1,0.5,0,0.8,0.1c0.3,0.2,0.5,0.4,0.6,0.6l0,0c0,0,0.1,0.1,0.3,0.2c0.2,0.1,0.3,0.1,0.4,0.1c0.2-0.1,0.5-0.1,0.8,0.1 c0.3,0.1,0.6,0.4,0.6,0.6l0,0c0,0,0.1,0.1,0.3,0.2c0.2,0.1,0.3,0,0.4,0c0.2-0.1,0.4-0.1,0.8,0c0.3,0.1,0.5,0.2,0.6,0.4 c0.3-1,1.4-4.2,2.5-7.6C19,21.9,17,20.9,15,19.4z" class="st2"/></g></svg>