<?xml version="1.0" encoding="utf-8"?>
<!-- Generator: Adobe Illustrator 18.1.1, SVG Export Plug-In . SVG Version: 6.00 Build 0)  -->
<!DOCTYPE svg PUBLIC "-//W3C//DTD SVG 1.1//EN" "http://www.w3.org/Graphics/SVG/1.1/DTD/svg11.dtd">
<svg version="1.1" xmlns="http://www.w3.org/2000/svg" xmlns:xlink="http://www.w3.org/1999/xlink" x="0px" y="0px"
	 viewBox="0 0 32 32" enable-background="new 0 0 32 32" xml:space="preserve">
<g id="You">
	<path fill="#010101" d="M28.8,1.5L3.3,1.5c0,0,0,0,0,0l0,1l25.4,0.1c0.6,0,1,0.5,1,1l-0.1,19.2c0,0.5-0.5,1-1,1l-8.4,0l-0.4,0
		l-0.3,0.3c-1.6,1.7-3.6,2.8-5.2,3.4c0.5-1.2,0.4-2.2,0.2-3l-0.2-0.7l-0.8,0l-10.3,0c-0.6,0-1-0.5-1-1L2.3,3.5c0-0.5,0.5-1,1-1v-1
		c-1.1,0-2,0.9-2,2L1.3,22.7c0,1.1,0.9,2,2,2l10.3,0c0.3,1.2,0.1,2.7-1.6,4.5c0,0,5-0.8,8.4-4.5l8.4,0c0,0,0,0,0,0c1.1,0,2-0.9,2-2
		l0.1-19.2C30.8,2.4,29.9,1.5,28.8,1.5z"/>
</g>
<g id="ThreadNewPosts">
	<path fill="#010101" d="M22.4,12h-2.2c-0.6,0-0.8-0.4-0.3-0.8l0.8-0.8c0.4-0.4,0.5-1.1,0.2-1.4c-0.3-0.3-0.9-0.2-1.4,0.2l-0.8,0.8
		c-0.4,0.4-0.8,0.3-0.8-0.3V7.5c0-0.6-0.5-1.1-1.1-1.1s-1.1,0.5-1.1,1.1v2.2c0,0.6-0.4,0.8-0.8,0.3l-0.8-0.8C13.6,8.8,13,8.7,12.7,9
		c-0.3,0.3-0.2,0.9,0.2,1.4l0.8,0.8c0.4,0.4,0.3,0.8-0.3,0.8h-2.2c-0.6,0-1.1,0.5-1.1,1.1c0,0.6,0.5,1.1,1.1,1.1h2.2
		c0.6,0,0.8,0.4,0.3,0.8l-0.8,0.8c-0.4,0.4-0.5,1.1-0.2,1.4c0.3,0.3,0.9,0.2,1.4-0.2l0.8-0.8c0.4-0.4,0.8-0.3,0.8,0.3v2.2
		c0,0.6,0.5,1.1,1.1,1.1s1.1-0.5,1.1-1.1v-2.2c0-0.6,0.4-0.8,0.8-0.3l0.8,0.8c0.4,0.4,1.1,0.5,1.4,0.2c0.3-0.3,0.2-0.9-0.2-1.4
		l-0.8-0.8c-0.4-0.4-0.3-0.8,0.3-0.8h2.2c0.6,0,1.1-0.5,1.1-1.1C23.6,12.5,23,12,22.4,12z"/>
	<circle fill="#010101" cx="22.4" cy="7.5" r="1.1"/>
	<circle fill="#010101" cx="16.8" cy="4.7" r="1.1"/>
	<circle fill="#010101" cx="16.8" cy="21.6" r="1.1"/>
	<circle fill="#010101" cx="25.2" cy="13.2" r="1.1"/>
	<circle fill="#010101" cx="8.3" cy="13.2" r="1.1"/>
	<circle fill="#010101" cx="22.4" cy="18.8" r="1.1"/>
	<circle fill="#010101" cx="11.1" cy="7.5" r="1.1"/>
	<circle fill="#010101" cx="11.1" cy="18.8" r="1.1"/>
</g>
</svg>
