<svg xmlns="http://www.w3.org/2000/svg" xmlns:xlink="http://www.w3.org/1999/xlink" x="0" y="0" enable-background="new 0 0 32 32" version="1.1" viewBox="0 0 32 32" xml:space="preserve"><g id="Bubble"><path fill="#010101" d="M28.8,1.5L3.3,1.5c0,0,0,0,0,0l0,1l25.4,0.1c0.6,0,1,0.5,1,1l-0.1,19.2c0,0.5-0.5,1-1,1l-8.4,0l-0.4,0 l-0.3,0.3c-1.6,1.7-3.6,2.8-5.2,3.4c0.5-1.2,0.4-2.2,0.2-3l-0.2-0.7l-0.8,0l-10.3,0c-0.6,0-1-0.5-1-1L2.3,3.5c0-0.5,0.5-1,1-1v-1 c-1.1,0-2,0.9-2,2L1.3,22.7c0,1.1,0.9,2,2,2l10.3,0c0.3,1.2,0.1,2.7-1.6,4.5c0,0,5-0.8,8.4-4.5l8.4,0c0,0,0,0,0,0c1.1,0,2-0.9,2-2 l0.1-19.2C30.8,2.4,29.9,1.5,28.8,1.5z"/></g><g id="ThreadSkip"><path fill="#010101" d="M26.3,13.6c0-0.8-8.3-6.6-9.1-6.6s0,5.9,0,5.9S9.8,6.9,9,6.9c-0.5,0-0.8,2.8-0.8,5.8c0,0.3,0.3,0.8,0.3,0.8 s-0.3,0.5-0.3,0.8c0.1,3,0.4,5.9,0.7,5.9c0.8,0,8.1-5.9,8.1-5.9s-1,5.9,0,5.9S26.3,14.4,26.3,13.6z"/></g></svg>