<svg xmlns="http://www.w3.org/2000/svg" xmlns:xlink="http://www.w3.org/1999/xlink" x="0" y="0" baseProfile="tiny" version="1.2" viewBox="0 0 32 32" xml:space="preserve"><path d="M27.972,11.78c-2.46-2.265-4.168-5.482-8.929-5.046c-1.857,0.17-3.422,1.142-4.968,1.94c-4.571,2.361-9.454,5.01-13.742,7.221c1.526,1.786,3.084,3.539,4.813,5.124c4.658-2.472,9.607-5.345,14.44-7.919C21.988,11.82,24.978,10.608,27.972,11.78z M14.618,9.14l2.329-1.264l3.549,3.783l-2.376,1.223L14.618,9.14z"/><path d="M24.477,11.935c-1.978,0.173-3.607,1.147-5.2,2.019c-4.779,2.61-9.468,5.142-13.975,7.763v3.805c1.781-0.881,3.611-1.857,5.435-2.872c1.803-1.007,3.561-2.201,5.512-2.951c0.34,4.316,3.098,6.831,7.531,6.444c4.019-0.352,7.772-3.635,8.073-7.609C32.178,14.249,28.793,11.555,24.477,11.935z"/><polygon points=".411 19.932 2.119 18.922 .333 17.137"/><path d="M2.429,19.465l-1.92,1.034l3.939,4.108l0.056-3.124C3.805,20.836,2.429,19.465,2.429,19.465z"/><path d="M15.006,20.94c0.24,0.435,0.783,0.976,1.086,1.087c-0.218-0.376-0.249-0.94-0.31-1.476C15.464,20.621,15.244,20.789,15.006,20.94z"/></svg>