<svg version="1" xmlns="http://www.w3.org/2000/svg" width="800" height="800" viewBox="0 0 600.000000 600.000000"><path d="M258.8 12.5c-.2.1-4.6.5-9.8.9-5.2.3-11.7 1-14.4 1.6-23.8 4.9-49 18.7-68.4 37.3-6.7 6.5-17.4 19-20.7 24.2-1 1.6-3.5 5-5.5 7.5-5.6 6.8-7.7 11.5-9.5 20.8-.7 3.7 2.5 2.3 4.9-2 6.1-10.9 18.7-27.9 27.6-37.2 12.3-13 14.2-14.7 22.3-20.8 13.6-10.1 30.1-18 43.4-20.9 3.2-.7 6.5-1.4 7.3-1.6 7.3-1.6 28.4-2.2 34.5-1 1.7.3 4.8.8 6.9 1.2 6.3 1.1 17.2 5.3 28.8 11.1 5.9 3 11 5.4 11.2 5.4 1.5 0-1.3-4.6-5-8.2-10.2-9.9-25.9-15.6-50.1-18.2-1.8-.2-3.4-.2-3.5-.1z"/><path d="M244.5 38.7c-8.2 1-20.9 3.9-28.5 6.5-25.7 9-51.8 26.9-68.3 46.9-6.3 7.6-16.5 28.8-17.2 35.8-.9 9.7 5.4 8.4 9.5-2 4-10.2 7.8-16.9 13-22.4 2.7-2.7 4.8-5.4 4.8-5.8 0-2.4 16.5-16 32.2-26.4 11.7-7.8 25-13.6 38.6-16.8 3.4-.8 7.5-1.7 9-2.1 5.1-1.2 32.9-1.4 38.9-.3 13 2.4 24.9 7.9 44 20.1 4.4 2.8 10.1 6.4 12.7 7.9l4.6 2.7-.9-3c-2.2-7.8-11.6-18.4-22.4-25.3-8.6-5.6-23.5-12-32-14-1.6-.4-3.9-.9-5-1.2-2.5-.6-29-1.1-33-.6zM225.2 124.5c-16.2 4.5-27.5 12-36.9 24.5-4 5.3-12 20.1-15.5 28.6-2.9 7.2-7.2 22.6-8.4 30.4-.3 1.9-.7 4.2-.9 5-2.3 8.3-2.2 40.4.1 52.4 3 15.9 4.4 20.5 9.2 30.6 2.9 6 5.6 9.6 13.7 17.7 11.4 11.6 16 14.3 24.5 14.2 11.2 0 25.7-4.8 34.7-11.6 6.5-4.8 16.4-14.5 21.5-21.3 12.3-16.2 24-47.1 28.4-75.5 1-5.8 1.1-23.9.3-30-3.4-25.1-18.3-51.4-34-60.3-10.1-5.7-25.7-7.7-36.7-4.7zM264 208c3.7 3.6 3.9 3.9 3.5 9.4-.4 6.8-3.8 14.3-7.2 15.9-3.1 1.4-7 0-9.7-3.6-1.6-2.2-2-4.2-2-10 0-8.2 2.1-13.1 6.4-14.5 4-1.4 5-1.1 9 2.8zM310 150.7c-6.5 2.7-11 8.5-11 14.2 0 1.7.8 5.2 1.9 7.8 2.9 7.5 3.9 14.3 4 28.2.1 6.3.3 7.2 1.4 5.8 2-2.8 7.7-3.1 11.5-.7 7.3 4.5 11.3 21 7.2 29.1-2.6 5-9 6.5-14.9 3.4-2.7-1.4-6.1-7.5-6.1-11.1 0-.8-.4-1.3-.9-1-.9.6-1.7 4-2.7 11.6-.3 2.5-1.1 6.1-1.8 8-3.7 9.8-2.4 14.2 5.6 20.1 13.1 9.6 29.2 10.7 36.1 2.5 3.1-3.7 7.5-13 9.2-19.4 1.7-6.8 2.3-26.1 1.1-35.2-3-21.6-13-47.1-22.1-56.6-7.3-7.6-12.2-9.4-18.5-6.7z"/><path d="M350.5 179.6c5.7 14.1 8.9 31.3 8.9 48.4.1 19.6-1.2 26.7-7 38.1-6.2 12.3-19.2 18.3-33.8 15.6-6.5-1.1-10.9-3.5-18.7-9.7-3.4-2.7-6.5-5-6.9-5-.4 0-1.5 2.1-2.5 4.7-1 2.7-2.9 6.8-4.3 9.3-1.4 2.5-3.2 5.8-4 7.5-6.4 12.8-22.8 29.9-36.2 38-11.9 7.1-22.1 10.3-32.7 10.3-10.4 0-14.3-1-21.3-5.7-3-2.1-7.2-4.9-9.3-6.2-3.9-2.5-7.5-8.1-18-27.9-5.5-10.6-8.6-20.6-10.7-35-.9-6.8-.6-36.6.6-43.5.3-2.2 1.4-8.7 2.4-14.5 1-5.8 1.7-10.7 1.5-10.8-1.1-1.2-8.8 3.7-21.3 13.4-3.2 2.5-3.3 2.7-2.7 7.9 1.5 11.3-2.7 19.8-10.3 21.1-6.8 1.1-6.7 1-6.9 6.8-.3 7.5-3.5 14-8.9 17.6-2.3 1.7-4.7 3-5.3 3-.6 0 0 1.7 1.2 3.7 3.3 5.8 3.4 17.1.1 24-2.9 6.1-9.3 12-13.9 12.9l-3.2.6 1.7 3.6c5.5 11.5 6.1 24.3 1.6 33.5-1.5 3.1-4.1 6.7-5.7 8.1-3.9 3.3-13 6-18.2 5.3l-4-.5.6 15.1c.3 8.4.8 16.5 1.2 18.2 3.4 17.5 5.4 25.5 9.4 37.1 7.1 20.3 14.4 35.8 23 48.4 22.2 32.9 42.3 54.9 63.3 69.1 10.3 7.1 38.3 20.3 57.3 27.2 24.7 9 46.6 14.7 62 16.2 3.9.4 7.9.9 9 1.2 2.8.5 31.1.4 36-.2 26.5-3.3 43.8-7.8 71.5-18.7 12.4-4.8 19-8.4 19-10.3 0-.6-7.1-1-19.2-1-17.4 0-23.7-.4-34.8-2.1-28.5-4.4-77.5-22.1-102.1-37-14.8-8.9-31.9-22.4-31.9-25.1 0-.7-1-1.8-2.3-2.4-1.3-.6-4.1-4.1-6.3-7.7-7.3-12.1-9.7-19.7-9.8-31.2-.1-14.2 1.6-21.3 7.9-34.5 11.7-24.1 38.5-49.7 72-68.8 21.5-12.3 58.1-24.8 82.1-28.2 2.2-.3 4.8-.7 5.9-1 1.9-.4 4.6-.7 15-2 20.8-2.5 67.9-2.5 80 0 1.1.2 4.1.7 6.7 1 2.6.3 6.9.9 9.5 1.4 2.6.5 4.9.8 5.1.7.5-.5-6.7-16.7-10.9-24.4-20.2-37.2-53.9-71-100.9-101.4-8.6-5.5-24.5-14-28.9-15.3-2.1-.6-2.3-.5-1.6 1.1z"/><path d="M440 328.1c0 1.7 3 7.9 6.1 12.5 2.6 3.8 9.4 9.4 11.5 9.4 2.5 0 18.4-16.9 18.4-19.6 0-.6-2.5-1.2-6-1.3-3.3-.1-7-.4-8.2-.6-6.1-1.2-21.8-1.5-21.8-.4zM337.6 340.1c-8.3 2.7-15.5 5.4-16.2 6-2.5 2 .9 7 6.7 10 2.1 1 4.3 2.4 5 3.1 6.6 6.4 11.3 7.5 12.4 3.1.4-1.6 2.9-7.6 5.6-13.4 5.3-11.4 5.9-13.9 3.2-13.8-1 0-8.5 2.3-16.7 5zM413.7 413.7c-.1 0-4.2.4-9.2.7-4.9.4-10.1.8-11.5 1-1.4.3-4.7.7-7.5 1.1-8.9 1.1-21.1 4.3-33.2 8.8-6.5 2.5-15.4 5.7-19.8 7.2-13.1 4.6-30.9 14.2-47 25.4-10.1 6.9-28.4 22.2-32 26.7-2.1 2.6-4.8 5.7-6.1 6.9-2.3 2.3-1.7 4.5 1.4 4.5.7 0 2.7 1.3 4.5 3 1.8 1.6 4.7 3.7 6.4 4.5 1.8.9 4.5 2.7 5.9 4 1.5 1.4 3.1 2.5 3.6 2.5.6 0 2.9-1.7 5.3-3.8 2.3-2 5.5-4.4 7.1-5.2 1.6-.8 3.1-1.7 3.4-2 .7-.7 18.3-9.4 24.5-12 13.3-5.8 37.9-13.5 49-15.4 15.3-2.7 34-3.7 44-2.3 14.4 1.9 27.5 7.8 34.6 15.3 5.8 6.3 13.9 18.2 17.4 25.9 2.6 5.8 2.7 6.4 2 17-.9 14.9-.7 18.5 1.4 22 1.4 2.4 2.5 3.1 5.7 3.3 7.8.6 11.1-5.3 13.1-23.4 1.5-13.6.9-41.7-1.2-51.4-1.8-8.6-1.8-9.3-.4-8.5 21 12.1 35.1 26.7 41.1 42.2 1.4 3.6 1.4 4.7.3 8-2.3 6.8-2.2 12.4.2 14.8 2.3 2.3 8.7 1.4 12-1.7 2.2-2 6.1-8.4 6.1-9.8 0-.3.5-2.3 1.1-4.5 8.4-28.7 1.8-55-19-75.6-3.6-3.6-8.7-7.5-11.2-8.7-2.5-1.2-4.8-2.6-5.2-3.2-.9-1.5-10.9-6.3-18.1-8.8-7.1-2.4-17.1-4.8-24-5.8-2.7-.3-5.2-.8-5.5-.9-1.3-.9-38.5-2.6-39.2-1.8z"/></svg>