<?xml version="1.0" encoding="utf-8"?>
<!-- Generator: Adobe Illustrator 18.1.1, SVG Export Plug-In . SVG Version: 6.00 Build 0)  -->
<!DOCTYPE svg PUBLIC "-//W3C//DTD SVG 1.1//EN" "http://www.w3.org/Graphics/SVG/1.1/DTD/svg11.dtd">
<svg version="1.1" xmlns="http://www.w3.org/2000/svg" xmlns:xlink="http://www.w3.org/1999/xlink" x="0px" y="0px"
	 viewBox="0 0 32 32" enable-background="new 0 0 32 32" xml:space="preserve">
<g id="NoStar">
	<g>
		<path fill="#333333" d="M16,2.9l3.9,8.2l0.2,0.5l0.5,0.1l8.8,1.3l-6.4,6.6L22.7,20l0.1,0.5l1.5,9.2l-7.7-4.3L16,25.1l-0.5,0.3
			l-7.7,4.3l1.5-9.2L9.4,20L9,19.6l-6.4-6.6l8.8-1.3l0.5-0.1l0.2-0.5L16,2.9 M16,0.6l-4.8,10.2L0.6,12.4l7.7,8L6.5,31.6l9.5-5.3
			l9.5,5.3l-1.8-11.2l7.7-8l-10.7-1.6L16,0.6L16,0.6z"/>
	</g>
</g>
<g id="FullStar">
	<polygon fill="#333333" points="16,0.6 20.8,10.7 31.5,12.4 23.8,20.3 25.6,31.6 16,26.3 6.5,31.6 8.3,20.3 0.6,12.4 11.3,10.7 	
		"/>
</g>
<g id="ChildStar">
	<polygon fill="#ED1F24" points="16,9.2 18.3,14 23.3,14.8 19.7,18.5 20.5,23.8 16,21.3 11.6,23.8 12.4,18.5 8.8,14.8 13.8,14 	"/>
</g>
</svg>
