<svg xmlns="http://www.w3.org/2000/svg" xmlns:xlink="http://www.w3.org/1999/xlink" id="Layer_1" x="0" y="0" version="1.1" viewBox="0 0 68.9 32" xml:space="preserve" style="enable-background:new 0 0 68.9 32"><style type="text/css">.st0{fill:#667c52}.st1{fill:#2a3320}</style><g><path d="M46.1,16c0,5.6-3.8,10.3-9,11.7h27.6V4.2H37C42.2,5.6,46.1,10.3,46.1,16z M55.1,12.1c2.1,0,3.9,1.7,3.9,3.9 s-1.7,3.9-3.9,3.9c-2.1,0-3.9-1.7-3.9-3.9S52.9,12.1,55.1,12.1z" class="st0"/><path d="M0,0.1v31.8h68.9V0.1H0z M66.4,29.4h-64V2.5h64L66.4,29.4L66.4,29.4z" class="st0"/><path d="M21.9,16c0-5.7,3.9-10.4,9.2-11.7H4.1v23.4h26.7C25.7,26.3,21.9,21.6,21.9,16z M12.9,19.9 C10.8,19.9,9,18.1,9,16c0-2.1,1.7-3.9,3.9-3.9s3.9,1.7,3.9,3.9C16.8,18.1,15,19.9,12.9,19.9z" class="st0"/><g><path d="M33,10.9v8.2h1.5c0.4,0,0.6,0.1,0.8,0.2c0.2,0.1,0.2,0.3,0.2,0.5c0,0.2-0.1,0.4-0.2,0.5 c-0.2,0.1-0.4,0.2-0.8,0.2h-4.5c-0.4,0-0.6-0.1-0.8-0.2c-0.2-0.1-0.2-0.3-0.2-0.5c0-0.2,0.1-0.4,0.2-0.5c0.2-0.1,0.4-0.2,0.8-0.2 h1.5v-6.2l-1.3,0.4c-0.2,0.1-0.4,0.1-0.5,0.1c-0.2,0-0.4-0.1-0.5-0.2c-0.1-0.2-0.2-0.3-0.2-0.6c0-0.2,0.1-0.4,0.2-0.5 c0.1-0.1,0.3-0.2,0.6-0.3L33,10.9z" class="st1"/><path d="M42.5,15.1v1.6c0,1-0.3,1.9-0.8,2.8c-0.6,0.9-1.4,1.3-2.4,1.3c-0.6,0-1.1-0.1-1.5-0.4 c-0.4-0.3-0.8-0.8-1.2-1.5c-0.4-0.7-0.6-1.5-0.6-2.3v-1.6c0-1,0.3-1.9,0.8-2.8c0.6-0.9,1.4-1.3,2.4-1.3c0.6,0,1.1,0.1,1.5,0.4 s0.8,0.8,1.2,1.5C42.3,13.5,42.5,14.3,42.5,15.1z M41,15.1c0-0.8-0.2-1.5-0.7-2.1c-0.3-0.3-0.6-0.5-1.1-0.5 c-0.5,0-0.8,0.2-1.1,0.6c-0.4,0.6-0.7,1.3-0.7,2.1v1.6c0,0.8,0.2,1.5,0.7,2.1c0.3,0.3,0.6,0.5,1.1,0.5c0.4,0,0.8-0.2,1.1-0.6 c0.4-0.6,0.7-1.3,0.7-2.1V15.1z" class="st1"/></g><g><path d="M26.4,13.3c0.2,0,0.4,0.1,0.6,0.2c0,0,0.1,0,0.1-0.1c0,0,0.1,0,0.1,0c0.1,0,0.2,0,0.3,0.1 c0.1,0.1,0.1,0.2,0.1,0.4v0.3c0,0.2,0,0.3-0.1,0.4c-0.1,0.1-0.2,0.1-0.3,0.1c-0.1,0-0.2,0-0.3-0.1c-0.1-0.1-0.1-0.2-0.1-0.3 c-0.2-0.2-0.4-0.2-0.7-0.2c-0.3,0-0.5,0.1-0.7,0.2c-0.1,0.1-0.2,0.2-0.2,0.4c0,0.1,0,0.2,0.1,0.3c0.1,0.1,0.3,0.1,0.5,0.2l0.6,0.1 c0.5,0.1,0.8,0.2,1,0.4c0.3,0.2,0.4,0.6,0.4,1c0,0.3-0.1,0.7-0.4,0.9c-0.2,0.3-0.6,0.4-1,0.5v0.7c0,0.2,0,0.3-0.1,0.4 c-0.1,0.1-0.2,0.1-0.3,0.1c-0.1,0-0.2,0-0.3-0.1c-0.1-0.1-0.1-0.2-0.1-0.4v-0.7c-0.2,0-0.4-0.1-0.6-0.2C24.8,18,24.7,18,24.6,18 c-0.1,0-0.2,0-0.3-0.1c-0.1-0.1-0.1-0.2-0.1-0.4v-0.5c0-0.2,0-0.3,0.1-0.4c0.1-0.1,0.2-0.1,0.3-0.1c0.1,0,0.2,0,0.3,0.1 c0.1,0.1,0.1,0.1,0.1,0.2c0,0.1,0.1,0.2,0.1,0.3c0.1,0.1,0.2,0.2,0.4,0.2s0.3,0.1,0.5,0.1c0.3,0,0.6-0.1,0.8-0.2 c0.1-0.1,0.2-0.2,0.2-0.4c0-0.1,0-0.3-0.1-0.3c-0.1-0.1-0.3-0.2-0.6-0.2l-0.6-0.1c-0.4-0.1-0.8-0.2-1-0.5 c-0.2-0.2-0.3-0.5-0.3-0.8c0-0.3,0.1-0.6,0.3-0.9c0.2-0.2,0.5-0.4,0.9-0.5v-0.2c0-0.2,0-0.3,0.1-0.4c0.1-0.1,0.2-0.1,0.3-0.1 c0.1,0,0.2,0,0.3,0.1c0.1,0.1,0.1,0.2,0.1,0.4V13.3z" class="st1"/></g></g></svg>