<svg xmlns="http://www.w3.org/2000/svg" xmlns:xlink="http://www.w3.org/1999/xlink" id="Layer_1" x="0" y="0" version="1.1" viewBox="0 0 74.8 32" xml:space="preserve" style="enable-background:new 0 0 74.8 32"><style type="text/css">.st0{fill:#9b1c1f}</style><g><g><path d="M69.4,8C69.4,8,69.3,8,69.4,8c-0.1,0-0.1,0-0.1,0c-0.1,0-0.3,0-0.4,0c-1.7,0.3-3.2,0.4-4.7,0.4 c-3.7,0-6.6-0.8-9.7-1.7c-3.3-0.9-6.7-1.9-11.2-1.9c-1.8,0-3.7,0.2-5.6,0.5c-1.7,0.3-3.2,0.4-4.7,0.4c-3.7,0-6.6-0.8-9.7-1.7 c-3.3-0.9-6.7-1.9-11.2-1.9h0c-1.8,0-3.7,0.2-5.6,0.5C5.1,2.8,4.1,3.8,4,5.1L3.6,9.3l-1,11.2c-0.1,0.9,0.2,1.7,0.9,2.3 c0.5,0.5,1.2,0.7,1.9,0.7c0.1,0,0.3,0,0.4,0c1.7-0.3,3.2-0.4,4.7-0.4c3.7,0,6.6,0.8,9.7,1.7c3.3,0.9,6.7,1.9,11.2,1.9 c1.8,0,3.7-0.2,5.6-0.5c1.7-0.3,3.2-0.4,4.7-0.4c3.7,0,6.6,0.8,9.7,1.7c3.3,0.9,6.7,1.9,11.2,1.9c1.8,0,3.7-0.2,5.6-0.5 c1.3-0.2,2.2-1.2,2.3-2.5l1-11.5l0.3-3.7c0-0.1,0-0.2,0-0.3C72.1,9.3,70.9,8.1,69.4,8z M68.1,21c-6.6,1.1-10.7-0.1-15-1.3 c-4.4-1.3-9-2.6-16.3-1.4c0,0,0,0,0,0c-6.6,1.1-10.7-0.1-15-1.3c-4.4-1.3-8.9-2.5-15.9-1.5c0.1-0.8,0.1-1.5,0.2-2.2 c0.1,0,0.2,0,0.3,0c6.6-1.1,10.7,0.1,15,1.3c3.2,0.9,6.5,1.9,10.8,1.9c1.6,0,3.4-0.1,5.4-0.5c0,0,0,0,0,0c6.6-1.1,10.7,0.1,15,1.3 c3.2,0.9,6.5,1.9,10.8,1.9c1.5,0,3.2-0.1,5.1-0.4c-0.1,0.7-0.1,1.5-0.2,2.2C68.3,20.9,68.2,20.9,68.1,21z M11.9,4.9 c8.3,0,12.6,3.6,20.9,3.6c1.6,0,3.3-0.1,5.2-0.4c1.9-0.3,3.6-0.4,5.2-0.4c8.3,0,12.6,3.6,20.9,3.6c1.6,0,3.3-0.1,5.2-0.4 c-0.1,0.9-0.1,1.7-0.2,2.5c-0.1,0-0.2,0-0.3,0c-6.6,1.1-10.7-0.1-15-1.3c-4.4-1.3-9-2.6-16.3-1.4c-6.6,1.1-10.7-0.1-15-1.3 C18.1,8,13.6,6.7,6.5,7.8C6.6,7,6.7,6.2,6.8,5.3C8.7,5,10.4,4.9,11.9,4.9z M62.8,26.6c-8.3,0-12.6-3.6-20.9-3.6 c-1.6,0-3.3,0.1-5.2,0.4c-1.9,0.3-3.6,0.4-5.2,0.4c-8.3,0-12.6-3.6-20.9-3.6c-1.6,0-3.3,0.1-5.2,0.4c0.1-0.9,0.1-1.7,0.2-2.5 c0.1,0,0.2,0,0.3,0c6.6-1.1,10.7,0.1,15,1.3c3.2,0.9,6.5,1.9,10.8,1.9c1.6,0,3.4-0.1,5.4-0.5c0,0,0,0,0,0c6.6-1.1,10.7,0.1,15,1.3 c3.2,0.9,6.5,1.9,10.8,1.9c1.5,0,3.2-0.1,5.1-0.4c-0.1,0.8-0.1,1.6-0.2,2.4C66.1,26.5,64.4,26.6,62.8,26.6z" class="st0"/></g></g></svg>