<?xml version="1.0" encoding="utf-8"?>
<!-- Generator: Adobe Illustrator 19.1.0, SVG Export Plug-In . SVG Version: 6.00 Build 0)  -->
<svg version="1.1" id="Layer_1" xmlns="http://www.w3.org/2000/svg" xmlns:xlink="http://www.w3.org/1999/xlink" x="0px" y="0px"
	 viewBox="0 0 26.7 32" style="enable-background:new 0 0 26.7 32;" xml:space="preserve">
<style type="text/css">
	.st0{fill-rule:evenodd;clip-rule:evenodd;fill:#15703B;}
	.st1{fill-rule:evenodd;clip-rule:evenodd;fill:#BDC1AE;}
	.st2{fill-rule:evenodd;clip-rule:evenodd;fill:#E7E974;}
	.st3{fill-rule:evenodd;clip-rule:evenodd;fill:#279150;}
	.st4{fill-rule:evenodd;clip-rule:evenodd;fill:#0D4222;}
	.st5{fill-rule:evenodd;clip-rule:evenodd;fill:#4FB95D;}
	.st6{fill-rule:evenodd;clip-rule:evenodd;fill:#FFFFFF;}
	.st7{fill-rule:evenodd;clip-rule:evenodd;fill:#982422;}
	.st8{fill-rule:evenodd;clip-rule:evenodd;fill:#C62928;}
</style>
<g>
	<g>
		<path class="st0" d="M14.7,1.4c-1.1-0.5-1.9-1.1-3.6-1C9.4,0.5,8.1,1.2,7.1,2.1C6.8,2.3,6.6,2.5,6.4,2.8C5.9,3.3,5.6,3.7,5.1,4.3
			C5.1,4.5,4.9,4.6,4.9,4.8C4.8,4.9,4.8,5.1,4.6,5.1c0-0.3,0.2-0.7,0.4-1.1C5,3.9,5.2,3.8,5.3,3.6c0.1-0.1,0.2-0.3,0.3-0.5
			C6.8,1.6,8.8,0,11.5,0c0.4,0,0.7,0,1.1,0.1c0.7,0.1,1.5,0.4,1.9,0.9C14.6,1.2,14.7,1.3,14.7,1.4z"/>
		<path class="st0" d="M15.8,3.8c-1.2-0.6-2-1.6-3.8-1.7C10.7,2,9.5,2.3,8.6,2.7c-0.5,0.2-1,0.6-1.5,0.9C6.8,3.9,6.4,4.1,6.2,4.3
			c0,0-0.1,0.1-0.1,0.1c0,0,0,0.1-0.1,0.2C5.9,4.8,5.6,5,5.4,5.3C5.3,5.5,5.2,5.8,5.1,6C5,6.2,5,6.6,4.6,6.6c-0.2-0.3,0-0.7,0.2-1.1
			c0.4-0.9,0.9-1.6,1.7-2.2c1.3-1,3.1-2.1,5.8-1.9c0.7,0.1,1.5,0.4,2.1,0.8C15,2.5,15.5,3,15.8,3.8z"/>
		<path class="st1" d="M12.1,26.9c0.3-0.4,0.9-0.7,1.5-0.9c1.2-0.6,3.1-1.3,4.9-1.3c0.7,0,1.4,0.1,1.9,0.4c0.4,0.2,0.7,0.4,1,0.8
			c0,0.1,0.1,0.1,0.2,0.2c0.1,0.2,0.3,0.4,0.4,0.6c0.1,0.2,0.2,0.4,0.2,0.6c0.1,0.5-0.4,1.8,0.3,1.9c0.6,0.1,0.7-0.7,0.8-1.3
			c0.1-1.3,0.1-2.1-0.2-3.2c1,0.6,2,1.3,2.4,2.6c-0.1,0.3-0.3,0.8,0,1.1c0.6,0.1,0.8-0.5,0.9-0.8c0.1-0.4,0.2-1.1,0.2-1.5
			c0-1.5-1-2.6-1.8-3.2c-0.1-0.1-0.2-0.1-0.3-0.1c-0.1-0.1-0.1-0.1-0.2-0.2c-1.6-0.9-4.6-1.1-6.9-0.5c-0.5,0.1-0.9,0.3-1.4,0.5
			c-0.4,0.2-0.9,0.3-1.3,0.5c-0.8,0.4-1.6,0.9-2.2,1.4c-0.4,0.3-0.7,0.6-1.1,0.9c-0.2,0.2-0.5,0.6-0.8,0.8c-0.3-0.3-0.7-0.7-0.9-1.1
			c0.3,0.4,0.6,0.7,0.9,1c1.9-2.1,5.6-4.3,10-4.3c0.9,0,1.8,0.2,2.6,0.4c0.7,0.2,1.2,0.5,1.7,0.9c1.1,0.8,2.2,2.6,1.5,4.6
			c-0.2,0.4-0.4,0.9-1,0.8c-0.4-0.3-0.1-0.8-0.1-1.1c0-0.3-0.1-0.5-0.2-0.8c0-0.1-0.2-0.1-0.2-0.2c-0.4-0.5-1.1-1.2-1.8-1.5
			c0.3,0.9,0.3,2,0.2,3.2c0,0.1,0,0.3,0,0.4c-0.1,0.5-0.4,1.2-0.9,1c-0.5-0.2-0.1-1.2-0.2-1.9c-0.1-0.3-0.3-0.7-0.5-1.1
			c-0.6-1-1.5-1.7-3.2-1.6c-1.2,0-2.5,0.4-3.5,0.7c-0.5,0.2-1,0.4-1.5,0.6c-0.5,0.2-1,0.5-1.2,0.9C12.2,26.9,12.2,26.9,12.1,26.9z"
			/>
		<path class="st2" d="M14,11.9c0.2,0.3,0.5,0.5,0.8,0.4c0.7-0.2,0.3-2.1-0.6-1.8c-0.1-0.1-0.2,0.2-0.2,0.1c0-0.5,0-1-0.1-1.5
			c-0.1-0.3-0.3-0.6-0.2-0.8c0-0.4,0.4-0.8,0.9-0.8c0.3,0,0.7,0.3,0.8,0.5c0.4,0.5,1,2,1.1,3.2c0,0.4,0,1.2-0.1,1.6
			C16.4,13,16,13.8,15.8,14c-0.4,0.3-1.1,0.2-1.6-0.1c-0.2-0.1-0.6-0.4-0.6-0.6c0-0.2,0.1-0.5,0.2-0.8c0-0.1,0-0.3,0.1-0.4
			c0-0.1,0.1-0.4,0.1-0.6C14,11.6,14,11.7,14,11.9z"/>
		<path class="st3" d="M8.3,29.8c-0.9-0.4-1.7-1-2.4-1.6c-0.5-0.5-1.1-0.9-1.6-1.4c-0.2-0.1-0.4-0.3-0.6-0.4C3.3,26,3.1,25.5,2.7,25
			c-0.3-0.5-0.6-0.9-0.8-1.5c-0.7-1.5-1.2-2.9-1.1-5.1c0-0.7,0.2-1.5,0.3-2.2c0-0.3,0-0.6,0.1-0.8c0-0.1,0.2-0.3,0.2-0.5
			c1-2.3,2.6-4.3,4.7-5.4c0,0.2-0.1,0.3-0.1,0.5c0,0,0,0-0.1,0c0-0.2,0.1-0.2,0.1-0.4c-0.2,0-0.5,0.2-0.7,0.4
			c-0.2,0.2-0.5,0.3-0.6,0.5c0.2,0.8,0,1.5-0.9,1.4c0,0.8-0.2,1.3-0.8,1.5c0.6,0.8,0.1,2.1-0.8,2.2c0.7,1,0.4,2.9-1.3,2.7
			c-0.1,1.7,0.2,3,0.7,4.2c0.2,0.6,0.4,1.1,0.7,1.6c0.1,0.2,0.3,0.4,0.5,0.6c0.1,0.1,0.1,0.3,0.2,0.4c0.1,0.1,0.2,0.2,0.2,0.3
			c0.2,0.2,0.3,0.5,0.5,0.6c0.2,0.2,0.4,0.3,0.6,0.4C5.5,27.7,6.8,28.9,8.3,29.8z"/>
		<path class="st0" d="M12.2,26.9c1.1,0.6,2.6,1.1,4,1.5c1.5,0.4,3.1,0.4,4.7,0.6c0,0.5-0.5,0.8-0.9,1c-0.2,0.1-0.4,0.3-0.6,0.5
			c-0.6,0.4-1.3,0.6-2,0.9c-1.1,0.4-2.3,0.6-3.8,0.6c-1.6-0.1-3.4-0.6-4.8-1.1c-0.8-0.3-1.6-0.7-2.3-1.2c-0.4-0.3-0.8-0.6-1.2-1
			c-0.3-0.3-0.6-0.6-1-0.9c-0.2-0.1-0.3-0.1-0.5-0.3c0,0-0.1-0.1-0.1-0.1c-0.2-0.1-0.5-0.5-0.8-0.8c-0.1-0.1-0.3-0.2-0.4-0.4
			c-0.1-0.1-0.1-0.2-0.1-0.2c0,0-0.1-0.1-0.2-0.1c-0.1-0.1-0.1-0.3-0.2-0.5c-0.1-0.1-0.2-0.2-0.3-0.4c-0.7-1-1.3-2.3-1.6-3.8
			C0.1,21,0.1,20.6,0,20.3c-0.4-5.6,2.3-9.9,6.5-11.9c0.4-0.8,1-1.6,1.7-2.2C8.8,5.8,9.9,5.3,11,5.5c0.3,0.1,0.7,0.2,0.9,0.4
			c0.5,0.3,0.8,0.8,1.2,1.2c0.2-0.1,0.4,0.1,0.6,0.1c0.3,0,0.5-0.2,0.8-0.2c0.4,0,0.6,0.3,1,0.5c0.2,0.1,0.5,0.2,0.8,0.3
			c1.7,0.6,3.2,1.6,4.5,2.8c1.1,1,2.1,2,2.9,3.4c0.2,0.4,0.5,0.9,0.6,1.4c0.1,0.4,0.1,1.1,0.2,1.4c0.1,0.1,0.4,0.3,0.2,0.5
			c-0.3,0.1-0.6,0-0.9,0c-0.2,0.3-0.4,0.7-0.8,1c0,0-0.2,0.1-0.2,0.1c-0.3,0.3-0.7,0.5-1.2,0.1c-0.4-0.3-0.7-0.8-0.9-1.5
			c-1.3,0-2.4,0.1-3.4,0.3c-0.3,0.8-0.6,1.6-1.2,2.2c-1,0-1.4-0.6-1.9-1.2c-1.6,0.7-3.5,2.1-4.3,3.8c-0.3,0.5-0.5,1.1-0.4,2
			c0,0.3,0.2,0.5,0.4,0.8c0.2,0.5,0.6,0.8,0.9,1.1c0,0.2,0.2,0.1,0.3,0.2c0.2,0.2,0.5,0.4,0.8,0.5c0.1,0.1,0.1,0.2,0.3,0.2
			C12.2,26.9,12.2,26.9,12.2,26.9z M8.3,29.8c1.3,0.5,3,1.2,4.9,1.3c2.4,0.2,4.3-0.4,5.8-1.1c0.2-0.1,0.4-0.1,0.6-0.2
			c0.1-0.1,0.4-0.2,0.4-0.4c-2.6,0.2-4.5-0.4-6.4-1.1c-1.1-0.4-2-0.9-2.9-1.5c-0.3-0.2-0.6-0.4-0.8-0.6c-0.1-0.1,0-0.1-0.1-0.2
			c-0.1-0.1-0.2-0.1-0.2-0.2c-0.3-0.4-0.6-1.1-0.7-1.6c-0.2-2,1-3.3,1.8-4.2c0.3-0.3,0.6-0.5,0.9-0.8c0.6-0.5,1.3-0.9,2-1.3
			c0.2-0.1,0.5-0.2,0.8-0.4c2.6-1.2,6.6-1.6,9.9-0.9c-1.1-2.8-3-4.7-5.3-6.3c-0.8-0.5-1.6-1.1-2.5-1.4c0.6,1.4,1,4.4-0.4,5.4
			c-0.5,0.4-1.3,0.3-1.9,0.1c-0.4-0.2-0.5-0.4-0.9-0.6c-0.1,0.4-0.3,0.8-0.5,1.1c-0.1,0.2-0.2,0.4-0.3,0.5c-0.3,0.5-0.7,0.8-1.1,1.2
			c-0.8,0.7-2.1,1.4-3.3,0.9c-0.1,0-0.3-0.2-0.5-0.4c-0.2-0.1-0.4-0.2-0.5-0.4c0,0-0.1-0.1-0.1-0.1c-0.2-0.4-0.4-0.6-0.6-1.1
			c-0.1-0.2-0.3-0.4-0.4-0.6c-0.5-1.5-0.5-3.3-0.1-4.8c0,0,0,0,0.1,0c0-0.2,0.1-0.3,0.1-0.5c-2.1,1.1-3.7,3.1-4.7,5.4
			c-0.1,0.2-0.2,0.3-0.2,0.5c-0.1,0.2,0,0.5-0.1,0.8c-0.1,0.7-0.3,1.5-0.3,2.2c-0.1,2.2,0.3,3.6,1.1,5.1c0.3,0.6,0.5,1,0.8,1.5
			c0.3,0.5,0.6,1,0.9,1.3c0.2,0.2,0.4,0.3,0.6,0.4c0.6,0.4,1.1,0.9,1.6,1.4C6.6,28.8,7.4,29.4,8.3,29.8z M8.4,6.6c0,0-0.1,0-0.1,0.1
			c-1,0.8-1.9,2.8-2.1,4.9c-0.1,1.4,0.1,2.7,0.5,3.5c0.2,0.6,0.5,0.8,0.9,1.2c0.3,0.3,0.6,0.6,1,0.7c0.5,0.1,1.1-0.1,1.5-0.2
			c0.7-0.3,1.5-1,1.9-1.7c0.8-1.1,1.5-3.2,1.5-4.9c0-1.3-0.6-2.5-1.1-3.2c-0.5-0.7-1.4-1.1-2.4-1C9.5,6.1,8.7,6.4,8.4,6.6z M13.8,12
			c0,0.1,0,0.3-0.1,0.4c-0.1,0.2-0.2,0.5-0.2,0.8c0,0.2,0.4,0.5,0.6,0.6c0.5,0.3,1.2,0.4,1.6,0.1c0.2-0.2,0.6-0.9,0.6-1.2
			c0.1-0.4,0.1-1.2,0.1-1.6c-0.1-1.2-0.7-2.7-1.1-3.2c-0.2-0.2-0.5-0.5-0.8-0.5c-0.4,0-0.8,0.4-0.9,0.8c0,0.2,0.2,0.5,0.2,0.8
			C14,9.5,14,10,14,10.5C14.1,10.7,13.8,12,13.8,12z M21.3,17c0.2,0.5,0.5,1,1,1.2c0.4-0.3,0.7-0.7,1-1.1C22.6,17.1,22,17,21.3,17z
			 M16.8,17.5c0,0,0-0.1-0.1-0.1c-0.4,0.2-1,0.3-1.4,0.5c-0.1,0.1-0.4,0.1-0.4,0.2c0.1,0.3,0.4,0.4,0.6,0.5c0.2,0.2,0.4,0.4,0.7,0.4
			C16.3,18.5,16.6,18.1,16.8,17.5z"/>
		<path class="st2" d="M10,6c1-0.1,1.9,0.3,2.4,1c0.6,0.7,1.1,1.9,1.1,3.2c0,1.7-0.7,3.7-1.5,4.9c-0.4,0.7-1.2,1.4-1.9,1.7
			C9.7,17,9.1,17.1,8.6,17c-0.4-0.1-0.7-0.4-1-0.7c-0.4-0.4-0.6-0.7-0.9-1.2c-0.4-0.8-0.6-2.1-0.5-3.5c0.1-2,1-4.1,2.1-4.9
			c0,0,0.1,0,0.1-0.1C8.7,6.4,9.5,6.1,10,6z M11.5,12c0.3,0,0.6-0.8,0.5-1.2c0-0.1-0.3-0.3-0.4-0.4C10.7,10.1,10.6,12.1,11.5,12z"/>
		<path class="st4" d="M14.2,10.4c0.9-0.3,1.3,1.7,0.6,1.9c-0.9,0.2-0.9-0.6-0.9-0.8c0.1-0.3,0.1-0.6,0.1-0.9
			C14.1,10.5,14.1,10.4,14.2,10.4z"/>
		<path class="st5" d="M6,10.1c-0.3,1.6-0.4,3.4,0.1,4.8c0.1,0.2,0.3,0.4,0.4,0.6c0.2,0.5,0.3,0.7,0.6,1.1c0,0,0,0.1,0.1,0.1
			c0.1,0.1,0.3,0.2,0.5,0.4c0.2,0.1,0.4,0.3,0.5,0.4c1.2,0.4,2.5-0.2,3.3-0.9c0.4-0.3,0.7-0.7,1.1-1.2c0.1-0.2,0.2-0.3,0.3-0.5
			c0.2-0.3,0.4-0.6,0.5-1.1c0.4,0.2,0.5,0.4,0.9,0.6c0.5,0.3,1.4,0.3,1.9-0.1c1.3-1,1-4,0.4-5.4c0.9,0.3,1.7,0.9,2.5,1.4
			c2.2,1.6,4.2,3.5,5.3,6.3c-3.4-0.7-7.3-0.2-9.9,0.9c-0.3,0.1-0.5,0.2-0.8,0.4c-0.7,0.4-1.4,0.8-2,1.3c-0.3,0.2-0.6,0.5-0.9,0.8
			c-0.8,0.9-2.1,2.2-1.8,4.2c0.1,0.5,0.4,1.2,0.7,1.6c0.1,0.1,0.2,0.1,0.2,0.2c0.1,0.1,0.1,0.2,0.1,0.2c0.2,0.2,0.5,0.4,0.8,0.6
			c0.8,0.6,1.7,1.1,2.9,1.5c1.9,0.8,3.8,1.4,6.4,1.1c0,0.2-0.2,0.3-0.4,0.4c-0.2,0.1-0.4,0.2-0.6,0.2c-1.6,0.6-3.4,1.2-5.8,1.1
			c-1.8-0.1-3.5-0.8-4.9-1.3c-1.5-0.8-2.8-2-4.1-3.1c-0.2-0.1-0.4-0.3-0.6-0.4c-0.2-0.2-0.3-0.4-0.5-0.6C3.1,25.5,3,25.5,3,25.4
			c-0.1-0.1-0.1-0.3-0.2-0.4c-0.1-0.2-0.3-0.4-0.5-0.6c-0.3-0.5-0.5-1-0.7-1.6c-0.5-1.2-0.8-2.5-0.7-4.2c1.7,0.2,2-1.7,1.3-2.7
			c0.9-0.1,1.4-1.4,0.8-2.2c0.6-0.2,0.9-0.7,0.8-1.5c0.8,0.1,1.1-0.7,0.9-1.4c0.1-0.2,0.4-0.4,0.6-0.5C5.6,10,5.9,9.7,6.1,9.7
			C6.1,9.9,6,9.9,6,10.1z"/>
		<path class="st6" d="M23.3,17.1c-0.3,0.4-0.6,0.8-1,1.1c-0.5-0.2-0.8-0.7-1-1.2C22,17,22.6,17.1,23.3,17.1z"/>
		<path class="st6" d="M16.1,19.1c-0.3,0-0.5-0.3-0.7-0.4c-0.2-0.1-0.5-0.2-0.6-0.5c0-0.2,0.3-0.2,0.4-0.2c0.4-0.2,1-0.3,1.4-0.5
			c0.1,0,0.1,0,0.1,0.1C16.6,18.1,16.3,18.5,16.1,19.1z"/>
		<path class="st7" d="M10.8,26c0.3-0.2,0.5-0.6,0.8-0.8c0.4-0.3,0.7-0.6,1.1-0.9c0.7-0.5,1.4-1,2.2-1.4c0.4-0.2,0.9-0.3,1.3-0.5
			c0.5-0.2,0.9-0.4,1.4-0.5c2.3-0.5,5.3-0.4,6.9,0.5c0.1,0,0.1,0.1,0.2,0.2c0.1,0.1,0.2,0.1,0.3,0.1c0.8,0.5,1.7,1.7,1.8,3.2
			c0,0.4-0.1,1-0.2,1.5c-0.1,0.4-0.3,0.9-0.9,0.8c-0.3-0.3-0.1-0.7,0-1.1c-0.4-1.3-1.4-2-2.4-2.6c0.2,1.1,0.3,2,0.2,3.2
			c-0.1,0.6-0.2,1.5-0.8,1.3c-0.6-0.1-0.2-1.4-0.3-1.9c0-0.2-0.2-0.4-0.2-0.6c-0.1-0.2-0.3-0.5-0.4-0.6c-0.1-0.1-0.1-0.2-0.2-0.2
			c-0.3-0.4-0.6-0.6-1-0.8c-0.5-0.2-1.2-0.4-1.9-0.4c-1.8,0-3.7,0.7-4.9,1.3c-0.5,0.3-1.1,0.6-1.5,0.9c-0.2,0-0.2-0.1-0.3-0.2
			c0.2,0,0.2-0.2,0.3-0.2c0.1-0.1,0.2-0.1,0.4-0.2c0.2-0.1,0.4-0.3,0.6-0.4c0.2-0.1,0.4-0.2,0.7-0.4c1.1-0.5,2.7-1,4.2-1.1
			c1.2-0.1,2.3,0.1,3.1,0.6c0,0,0.1,0.1,0.1,0.2c0.1,0,0.1,0,0.2,0.1c0,0,0.1,0.1,0.2,0.2c0.1,0.1,0.1,0.2,0.2,0.4
			c0.2,0.2,0.3,0.5,0.5,0.8c0.2,0.3,0.3,0.6,0.3,1.2c0,0.4-0.2,0.8,0,1.1c0.5-0.1,0.5-0.7,0.5-1.2c0.1-1.1,0-2.8-0.5-3.5
			c0.3-0.1,0.6,0.2,0.9,0.4c0.3,0.2,0.6,0.4,0.8,0.6c0.6,0.5,1.2,1,1.4,1.8c0,0.1,0.1,0.2,0.1,0.2c0,0.3-0.2,0.5-0.1,0.8
			c0.3,0.1,0.4-0.3,0.5-0.5c0.4-0.9,0.3-2.4-0.2-3.2c-0.1-0.1-0.2-0.3-0.4-0.4c-0.1-0.1-0.1-0.2-0.2-0.3c-0.9-0.8-2.2-1.5-3.9-1.6
			c-2.7-0.2-4.9,0.5-6.8,1.4c-1.1,0.6-2,1.2-2.9,2c-0.3,0.3-0.6,0.5-0.8,0.8C11,26.1,10.8,26.2,10.8,26z"/>
		<path class="st4" d="M11.6,10.4c0,0,0.3,0.3,0.4,0.4c0.1,0.4-0.1,1.2-0.5,1.2C10.6,12.1,10.7,10.1,11.6,10.4z"/>
		<path class="st8" d="M11.8,26.7c-0.3-0.2-0.6-0.3-0.8-0.5c0.2-0.3,0.5-0.6,0.8-0.8c0.9-0.8,1.8-1.4,2.9-2c1.9-0.9,4.1-1.6,6.8-1.4
			c1.7,0.1,3,0.8,3.9,1.6c0.1,0.1,0.1,0.2,0.2,0.3c0.1,0.1,0.3,0.3,0.4,0.4c0.5,0.8,0.6,2.3,0.2,3.2c-0.1,0.3-0.2,0.7-0.5,0.5
			c-0.1-0.3,0.1-0.5,0.1-0.8c0-0.1,0-0.1-0.1-0.2c-0.2-0.7-0.7-1.2-1.4-1.8c-0.3-0.2-0.5-0.4-0.8-0.6c-0.3-0.2-0.6-0.5-0.9-0.4
			c0.5,0.7,0.6,2.5,0.5,3.5c-0.1,0.6,0,1.2-0.5,1.2c-0.2-0.3,0-0.7,0-1.1c0-0.5-0.1-0.8-0.3-1.2c-0.2-0.3-0.3-0.6-0.5-0.8
			c-0.1-0.1-0.2-0.3-0.2-0.4c-0.1-0.1-0.1-0.2-0.2-0.2c0,0-0.1,0-0.2-0.1c0,0-0.1-0.1-0.1-0.2c-0.7-0.5-1.8-0.7-3.1-0.6
			c-1.4,0.1-3.1,0.6-4.2,1.1c-0.3,0.1-0.5,0.2-0.7,0.4c-0.2,0.1-0.4,0.3-0.6,0.4c-0.1,0.1-0.3,0.1-0.4,0.2
			C12,26.6,12,26.7,11.8,26.7z"/>
	</g>
</g>
</svg>
