<?xml version="1.0" encoding="utf-8"?>
<!-- Generator: Adobe Illustrator 19.1.0, SVG Export Plug-In . SVG Version: 6.00 Build 0)  -->
<svg version="1.1" id="Layer_1" xmlns="http://www.w3.org/2000/svg" xmlns:xlink="http://www.w3.org/1999/xlink" x="0px" y="0px"
	 viewBox="0 0 32 32" style="enable-background:new 0 0 32 32;" xml:space="preserve">
<style type="text/css">
	.st0{fill:#E89142;}
	.st1{fill:#454546;}
</style>
<circle class="st0" cx="23.2" cy="1.1" r="0.5"/>
<circle class="st0" cx="23.2" cy="2.6" r="0.5"/>
<circle class="st0" cx="23.2" cy="4.1" r="0.5"/>
<path class="st0" d="M21.5,9.5c-0.2,0.2-0.5,0.2-0.7,0c-0.2-0.2-0.2-0.5,0-0.7c0.2-0.2,0.5-0.2,0.7,0C21.6,9,21.6,9.3,21.5,9.5z"/>
<circle class="st0" cx="20" cy="10.2" r="0.5"/>
<circle class="st0" cx="18.9" cy="11.3" r="0.5"/>
<path class="st0" d="M27.8,3.2c-0.2,0.2-0.5,0.2-0.7,0c-0.2-0.2-0.2-0.5,0-0.7c0.2-0.2,0.5-0.2,0.7,0C27.9,2.7,27.9,3,27.8,3.2z"/>
<circle class="st0" cx="26.3" cy="3.9" r="0.5"/>
<circle class="st0" cx="25.3" cy="5" r="0.5"/>
<path class="st0" d="M25.6,8.8c0.2,0.2,0.2,0.5,0,0.7c-0.2,0.2-0.5,0.2-0.7,0c-0.2-0.2-0.2-0.5,0-0.7C25.1,8.6,25.4,8.6,25.6,8.8z"
	/>
<circle class="st0" cx="26.3" cy="10.2" r="0.5"/>
<circle class="st0" cx="27.4" cy="11.3" r="0.5"/>
<path class="st0" d="M19.2,2.5c0.2,0.2,0.2,0.5,0,0.7c-0.2,0.2-0.5,0.2-0.7,0c-0.2-0.2-0.2-0.5,0-0.7C18.8,2.3,19.1,2.3,19.2,2.5z"
	/>
<circle class="st0" cx="20" cy="3.9" r="0.5"/>
<circle class="st0" cx="21.1" cy="5" r="0.5"/>
<circle class="st0" cx="23.2" cy="10" r="0.5"/>
<circle class="st0" cx="23.2" cy="11.5" r="0.5"/>
<circle class="st0" cx="23.2" cy="13.1" r="0.5"/>
<circle class="st0" cx="26.1" cy="7.1" r="0.5"/>
<circle class="st0" cx="27.6" cy="7.1" r="0.5"/>
<circle class="st0" cx="29.2" cy="7.1" r="0.5"/>
<path class="st1" d="M13.8,6.8c0.5,0,1.3,0.3,2.1,0.7C17,7.9,18.1,8.3,19,8.3c1.1,0,3-0.4,4.2-0.7V6.3c-1,0.3-3.1,0.7-4.2,0.7
	c-0.7,0-1.7-0.4-2.6-0.8c-1-0.4-1.9-0.8-2.6-0.8c-1.4,0-3.7,1-4,3.7H7.6c-0.5,0-0.9,0.4-0.9,0.9v1.9c-3.7,1.5-6.3,5.1-6.3,9.3
	c0,5.5,4.5,10,10,10s10-4.5,10-10c0-4.2-2.6-7.8-6.3-9.3v-1.9c0-0.5-0.4-0.9-0.9-0.9h-2.1C11.4,7.2,13.1,6.8,13.8,6.8z"/>
</svg>
