<svg xmlns="http://www.w3.org/2000/svg" xmlns:xlink="http://www.w3.org/1999/xlink" id="Layer_1" x="0" y="0" version="1.1" viewBox="0 0 77.3 32" xml:space="preserve" style="enable-background:new 0 0 77.3 32"><style type="text/css">.st0{fill:#ec8794}.st1{fill:#454546}</style><circle cx="20.3" cy="15.7" r="3" class="st0"/><circle cx="57.3" cy="15.7" r="3" class="st0"/><g><path d="M71.8,1.2c-0.2,0.2-0.3,0.5-0.1,0.8C74,5,75.1,8.7,75.1,12.5c0,9.9-8,18-18,18c-9.9,0-18-8-18-18l0,0l0,0 c0-3.8,1.2-7.4,3.4-10.5c0.2-0.2,0.1-0.5-0.1-0.8s-0.5-0.1-0.8,0.1c-1.4,2-2.5,4.3-3.1,6.7c-0.5-2.4-1.6-4.6-3.1-6.7 C35.3,1.1,35,1,34.8,1.2c-0.2,0.2-0.3,0.5-0.1,0.8c2.2,3.1,3.4,6.7,3.4,10.5l0,0l0,0c0,9.9-8,18-18,18c-9.9,0-18-8-18-18 C2.2,8.7,3.4,5,5.6,2c0.2-0.2,0.1-0.5-0.1-0.8C5.2,1,4.9,1.1,4.7,1.3C2.3,4.6,1.1,8.4,1.1,12.5c0,10.5,8.5,19.1,19.1,19.1 c9,0,16.4-6.2,18.5-14.6c2,8.3,9.5,14.6,18.5,14.6c10.5,0,19.1-8.5,19.1-19.1c0-4.1-1.3-7.9-3.6-11.2C72.5,1.1,72.2,1.1,71.8,1.2z" class="st1"/><path d="M57.3,19.3c2,0,3.6-1.6,3.6-3.6s-1.6-3.6-3.6-3.6s-3.6,1.6-3.6,3.6C53.6,17.6,55.3,19.3,57.3,19.3z M57.3,13.2 c1.4,0,2.5,1.1,2.5,2.5s-1.1,2.5-2.5,2.5c-1.4,0-2.5-1.1-2.5-2.5C54.7,14.3,55.8,13.2,57.3,13.2z" class="st1"/><path d="M20.3,19.3c2,0,3.6-1.6,3.6-3.6s-1.6-3.6-3.6-3.6s-3.6,1.6-3.6,3.6C16.6,17.6,18.3,19.3,20.3,19.3z M20.3,13.2 c1.4,0,2.5,1.1,2.5,2.5s-1.1,2.5-2.5,2.5s-2.5-1.1-2.5-2.5C17.7,14.3,18.9,13.2,20.3,13.2z" class="st1"/><circle cx="57.3" cy="15.7" r="1" class="st1"/><circle cx="20.3" cy="15.7" r="1" class="st1"/></g></svg>