<svg xmlns="http://www.w3.org/2000/svg" xmlns:xlink="http://www.w3.org/1999/xlink" id="Layer_4" x="0" y="0" version="1.1" viewBox="0 0 32 32" xml:space="preserve" style="enable-background:new 0 0 32 32"><style type="text/css">.st0{fill:#474647}</style><g><path d="M8.6,1.2c0-0.4,2.5-1.1,7.1-1.1c4.7,0,7.1,0.7,7.1,1.1c0,0.4-2.5,1.1-7.1,1.1C11.1,2.3,8.6,1.6,8.6,1.2z M8,26.1c-1.9-0.2-4-0.6-6-1.2c0,0,0.3,0.9,0.6,1.2c0,0,2,0.7,5.4,1C7.9,26.9,8,26.5,8,26.1z M12.9,22c0.5,0,1.1,0,1.7,0.1 c0,0,0.3,0.1,0.6,0.1c0.4,0,1-0.1,1.4-0.5c0.3-0.3,0.3-0.7,0.3-1.3c-0.1-0.9-0.4-2.1-0.7-3.6C15.5,14,14.7,10,14.5,5.5 c0-0.1,0-0.2,0.1-0.3c0,0,0-0.1,0-0.1c0-0.4,0.3-0.7,2.2-1.1c1-0.2,2.7-0.4,5.4-0.4c0.2,0,0.5,0,0.7,0c0.1-1,0.1-1.7,0.2-2.1 c-0.8,0.8-4.7,1.1-7.4,1.1c-2.6,0-6.3-0.3-7.3-1c0.2,6.6,2,12.1,2.3,14.9c0.3,2.8-2.8,2.2-2.8,2.2c-7.4-1.2-6,5.6-6,5.6 c2.1,0.6,4.2,1,6.1,1.2c0.1-0.7,0.4-1.4,0.9-2C9.9,22.5,11.2,22,12.9,22z M18.5,29.6c6.6,0,11.3-1.7,11.3-1.7 c0.9-4.7-0.7-3.7-0.8-9.9c-0.1-5.5,0.4-11.3,0.6-12.5c-0.8,0.8-4.7,1.1-7.4,1.1c-2.6,0-6.3-0.3-7.3-1c0.2,6.6,2,12.1,2.3,14.9 c0.2,1.9-1.2,2.2-2.1,2.2c-0.4,0-0.7-0.1-0.7-0.1c-0.6-0.1-1.1-0.1-1.6-0.1c-5.6,0-4.4,5.8-4.4,5.8C12.1,29.2,15.5,29.6,18.5,29.6z M18.6,30.2c-3.1,0-6.6-0.4-10.2-1.4c0,0,0.3,0.9,0.6,1.2c0,0,3.9,1.3,10.1,1.3c1.4,0,3-0.1,4.6-0.2c0,0,0.3-0.5,0.7-0.5 c0.2,0,0.4,0.1,0.6,0.4c0,0,2.4-0.3,4.2-0.9c0.5-0.2,0.4-1.3,0.4-1.3S25.1,30.2,18.6,30.2z M22.2,6.2c4.7,0,7.2-0.7,7.2-1.1 c0-0.4-2.5-1.1-7.2-1.1c-4.7,0-7.1,0.7-7.1,1.1C15.1,5.5,17.5,6.2,22.2,6.2z" class="st0"/></g></svg>