<svg xmlns="http://www.w3.org/2000/svg" xmlns:xlink="http://www.w3.org/1999/xlink" id="Layer_1" x="0" y="0" version="1.1" viewBox="0 0 32 32" xml:space="preserve" style="enable-background:new 0 0 32 32"><style type="text/css">.st0{fill:#454546}</style><g><circle cx="23.1" cy="17.3" r="2" class="st0"/><path d="M29.6,13.1c0.3-3.9-0.6-7.2-2.7-9.6c-2-2.3-5.1-3.6-8.7-3.6c-2.4,0-4.7,0.6-6.5,1.7c-0.1,0-0.3,0-0.5,0 C3,3.2,0,8.2,0,12.4c0,2.2,0.7,4,2,5.2c0.8,0.7,1.6,1.2,2.4,1.4c0.3,3.5,2.2,6,4,6h0.5c2.1,4.7,7.4,6.8,9.3,6.8 c2.4,0,8.9-2.9,9.9-9.2c1.7-0.7,3.9-2.7,3.9-5C32,15.5,31,13.8,29.6,13.1z M2.8,12.4c0-1.2,0.4-4.9,5.4-6.9c-0.7,1.4-1.2,3-1.4,4.8 c-1.1,0.9-2,2.8-2.3,5.8c-0.2-0.1-0.4-0.2-0.6-0.4C3.2,14.9,2.8,13.9,2.8,12.4z M27,20.4c-0.7,0-1.2,0.5-1.3,1.2 c-0.4,5.4-6.1,7.8-7.5,7.8c-1.2,0-5.3-1.6-6.9-5.2c0.4-0.3,0.8-0.5,1.3-0.5c1.4,0,1.4,0,1.4,0c0.8,0,2.8-1.5,2.8-7.1 c0-4.1-2-5.6-2.8-5.6c0,0-0.1,0-1.4,0c-1.3,0-2-1.5-2.8-1.5H9.4c0.3-1.5,1-3.2,2-4.3c1.6-1.8,3.9-2.7,6.8-2.7c2.9,0,5.3,1,6.8,2.7 c1.8,2,2.4,5,2,8.7c0,0.4,0.1,0.7,0.3,1c0.2,0.3,0.6,0.4,0.9,0.4c0.6,0,1.3,0.9,1.3,2.3C29.5,18.9,27.5,20.3,27,20.4z M11.1,17.3 c0-1.2,1-2.2,2.2-2.2c1.2,0,2.2,1,2.2,2.2c0,1.2-1,2.2-2.2,2.2C12,19.5,11.1,18.6,11.1,17.3z" class="st0"/></g></svg>