<?xml version="1.0" encoding="utf-8"?>
<!-- Generator: Adobe Illustrator 19.1.0, SVG Export Plug-In . SVG Version: 6.00 Build 0)  -->
<!DOCTYPE svg PUBLIC "-//W3C//DTD SVG 1.1//EN" "http://www.w3.org/Graphics/SVG/1.1/DTD/svg11.dtd">
<svg version="1.1" id="Bulb" xmlns="http://www.w3.org/2000/svg" xmlns:xlink="http://www.w3.org/1999/xlink" x="0px" y="0px"
	 viewBox="0 0 32 32" enable-background="new 0 0 32 32" xml:space="preserve">
<g>
	<g>
		<path fill="#474647" d="M9.5,9.9C8.8,9.9,8.1,9.4,8,8.6c-0.1-0.4,0-0.9,0.2-1.2c0.2-0.4,0.6-0.6,1-0.7l14-3.3c0.1,0,0.2,0,0.4,0
			c0.8,0,1.4,0.5,1.6,1.2c0.1,0.4,0,0.9-0.2,1.2c-0.2,0.4-0.6,0.6-1,0.7l-14,3.3c0,0-0.1,0-0.2,0C9.7,9.9,9.6,9.9,9.5,9.9z"/>
	</g>
	<g>
		<path fill="#474647" d="M10.8,5C10,5,9.4,4.5,9.2,3.7c-0.1-0.4,0-0.9,0.2-1.2c0.2-0.4,0.6-0.6,1-0.7l6.8-1.6c0.1,0,0.2,0,0.4,0
			c0.8,0,1.4,0.5,1.6,1.2c0.2,0.9-0.3,1.7-1.2,1.9l-6.8,1.6c0,0-0.1,0-0.2,0C10.9,5,10.9,5,10.8,5z"/>
	</g>
	<g>
		<path fill="#474647" d="M9.5,15c-0.8,0-1.4-0.5-1.6-1.2c-0.1-0.4,0-0.9,0.2-1.2c0.2-0.4,0.6-0.6,1-0.7l14-3.3c0.1,0,0.2,0,0.4,0
			c0.8,0,1.4,0.5,1.6,1.2c0.1,0.4,0,0.9-0.2,1.2c-0.2,0.4-0.6,0.6-1,0.7L9.9,15c0,0-0.1,0-0.1,0C9.7,15,9.6,15,9.5,15z"/>
	</g>
	<g>
		<g>
			<path fill="#474647" d="M20.9,22.3h-3.2l0.1-0.7c0.4-2.3,1.9-3.3,1.9-3.4c0.3-0.2,0.6-0.3,0.9-0.3c0.5,0,1,0.3,1.3,0.7
				c0.2,0.4,0.3,0.8,0.2,1.2c-0.1,0.4-0.3,0.8-0.7,1c-0.1,0.1-0.4,0.4-0.5,1L20.9,22.3z"/>
		</g>
	</g>
	<g>
		<g>
			<path fill="#474647" d="M13.3,22.4l-0.2-0.2c-1-1-2.4-2.1-3.7-2.8c-0.6-0.3-0.9-1-0.8-1.6c0.1-0.7,0.6-1.2,1.2-1.3l12.4-2.9
				c0.9-0.2,1.7,0.3,1.9,1.2c0.1,0.4,0,0.8-0.2,1.2c-0.2,0.4-0.6,0.6-1,0.7l-9,2.1c0.1,0.1,0.2,0.2,0.4,0.3c0.8,0.7,1.7,1.7,2.2,2.4
				l0.7,0.9L13.3,22.4z"/>
		</g>
	</g>
	<path fill="#474647" d="M12.7,23.8c0,0,0,1.3,0,1.9c0,1.2,1.6,1.6,1.6,2.1l0,2.8c0,0.4,0.3,0.8,0.6,0.8h1.2c0,0,0.3,0,0.3,0.2v0.3
		c0,0.2,0.1,0.3,0.3,0.3h1.2c0.2,0,0.4,0,0.4-0.3v-0.3c0-0.2,0.2-0.1,0.2-0.1h1.1c0.4,0,0.6-0.4,0.6-0.8l0-2.7
		c0-0.4,1.5-0.9,1.5-2.1c0-0.5,0-1.9,0-1.9H12.7z"/>
</g>
</svg>
