<svg xmlns="http://www.w3.org/2000/svg" xmlns:xlink="http://www.w3.org/1999/xlink" id="Layer_1" x="0" y="0" version="1.1" viewBox="-6 0 18.9 32" xml:space="preserve" style="enable-background:new -6 0 18.9 32"><style type="text/css">.st0{fill:#464646}</style><path d="M3.4,0.8c-1.9,0-5.8,8.4-5.9,17.8c0,2.3,2.9,4.5,2.9,4.5s0.4,3-0.5,4.3c-0.9,1.3-4.6,2.9-4.7,3.6	c-0.1,0.7,2.3,0.4,2.3,0.4s3.7-0.5,5.9-0.6c2.2-0.1,6.5,0.6,7.1,0.6c0.6,0,1.4,0.1,1.3-0.7c-0.1-0.8-3.5-1.7-4.6-3.4	c-1.1-1.7-0.8-4.4-0.8-4.4s3.1-2.1,3.2-4.3C9.6,11.2,5.3,0.8,3.4,0.8z" class="st0"/></svg>