<svg xmlns="http://www.w3.org/2000/svg" xmlns:xlink="http://www.w3.org/1999/xlink" id="Layer_1" x="0" y="0" version="1.1" viewBox="0 0 36.8 32" xml:space="preserve" style="enable-background:new 0 0 36.8 32"><style type="text/css">.st0{fill:#474647}</style><path d="M34.1,8.2C34,8.1,34,8,33.9,7.9C33.6,7.4,29.3,0,18.7,0l-18,15.6c-0.2,0.1-0.4,0.4-0.4,0.6v3.4	c0,0.2,0.1,0.4,0.3,0.6c0.2,0.1,0.4,0.2,0.6,0.2c0.2,0,0.4-0.1,0.6-0.1c0.9,0,1.7,0.5,1.9,1.2c0.1,0.4,0,0.8-0.3,1.2	c-0.3,0.4-0.9,0.7-1.5,0.9c-0.3,0.1-0.5,0.1-0.8,0.1c-0.2,0-0.4,0.1-0.5,0.2s-0.2,0.3-0.2,0.5V31c0,0.2,0.1,0.4,0.2,0.5	c0.1,0.1,0.3,0.2,0.5,0.2c0,0,0.1,0,0.1,0L33.7,28c0.3,0,0.5-0.2,0.6-0.5C38.4,17.4,34.3,8.5,34.1,8.2z M33.1,26.6L1.7,30.1v-5.1	C1.9,25,2,25,2.1,25c0.9-0.2,1.7-0.7,2.3-1.4C5,22.8,5.2,21.9,5,21.1c-0.3-1.4-1.7-2.3-3.3-2.3v-2l13.5-3.2	c-0.2,0.4-0.2,0.8-0.2,1.2c0,1.6,1.3,2.9,2.9,2.9c1.6,0,2.9-1.3,2.9-2.9c0-0.9-0.4-1.7-1.1-2.3L33,9.3	C33.8,11.3,36.2,18.6,33.1,26.6z M12.2,17.7c0.9,0,1.7,0.7,1.7,1.7c0,0.9-0.7,1.7-1.7,1.7s-1.7-0.7-1.7-1.7	C10.6,18.4,11.3,17.7,12.2,17.7z M14.2,22.5c1.4,0,2.6,1.2,2.6,2.6s-1.2,2.6-2.6,2.6s-2.6-1.2-2.6-2.6S12.8,22.5,14.2,22.5z M6.3,24.7c0.9,0,1.7,0.7,1.7,1.7S7.2,28,6.3,28s-1.7-0.7-1.7-1.7S5.4,24.7,6.3,24.7z M24.6,22.5c1,0,1.8,0.8,1.8,1.8	s-0.8,1.8-1.8,1.8s-1.8-0.8-1.8-1.8S23.5,22.5,24.6,22.5z M28.3,13.6c1.6,0,2.9,1.3,2.9,2.9c0,1.6-1.3,2.9-2.9,2.9s-2.9-1.3-2.9-2.9	C25.3,15,26.6,13.6,28.3,13.6z" class="st0"/></svg>