<svg xmlns="http://www.w3.org/2000/svg" xmlns:xlink="http://www.w3.org/1999/xlink" id="Layer_1" x="0" y="0" version="1.1" viewBox="0 0 37.9 32" xml:space="preserve" style="enable-background:new 0 0 37.9 32"><style type="text/css">.st0{fill:#464547}</style><path d="M37.4,9c0-2-1.7-3.7-3.7-3.7c-2,0-3.7,1.7-3.7,3.7c0,0.9,0.3,1.7,0.9,2.4L27,15.6l-1.9-8.3	c1.5-0.5,2.6-1.9,2.6-3.5c0-2-1.7-3.7-3.7-3.7c-2,0-3.7,1.7-3.7,3.7c0,1.3,0.7,2.5,1.7,3.1l-3.2,8.3l-3.2-8.3c1-0.7,1.7-1.8,1.7-3.1	c0-2-1.7-3.7-3.7-3.7c-2,0-3.7,1.7-3.7,3.7c0,1.7,1.1,3.1,2.6,3.5l-1.9,8.3L7,11.4C7.5,10.7,7.8,9.9,7.8,9c0-2-1.7-3.7-3.7-3.7	c-2,0-3.7,1.7-3.7,3.7c0,2,1.6,3.6,3.5,3.7l4.2,11.8h21.4l4.2-11.8C35.8,12.6,37.4,11,37.4,9z" class="st0"/><rect width="21.4" height="5.2" x="8.2" y="26.7" class="st0"/></svg>