<svg xmlns="http://www.w3.org/2000/svg" xmlns:xlink="http://www.w3.org/1999/xlink" id="Layer_1" x="0" y="0" version="1.1" viewBox="0 0 36.9 32" xml:space="preserve" style="enable-background:new 0 0 36.9 32"><style type="text/css">.st0{fill:#6bbe53}.st1{fill:#d83a3a}.st2{fill:#4379bd}</style><g><path d="M24,12.8l-0.5-5.9c0-0.1-0.1-0.1-0.1-0.2c-0.1,0-0.1,0-0.2,0.1l-6.9,6c-0.1,0.1-0.1,0.1-0.1,0.2l4.3,18.5 c0,0.1,0.1,0.1,0.1,0.1h0.1c0.1,0,0.1,0,0.1-0.1l1.8-1.8c0.1-0.1,0.1-0.1,0.1-0.2c0-0.1-0.1-0.1-0.1-0.1c-0.2-0.1-0.3-0.3-0.3-0.5 l-0.1-14.3c0.2-0.2,1.1-1.1,1.6-1.7C23.9,12.9,24,12.8,24,12.8z" class="st0"/><path d="M14.3,0.6c-0.1-0.1-0.1,0-0.2,0c-0.1,0.1-0.1,0.1-0.1,0.2L16,11.2c0,0.1,0.1,0.1,0.1,0.1h0.1 c0.1,0,0.1,0,0.1-0.1l0.8-0.7c1.7-1.4,5.2-4.5,6-5.3c0.1-0.1,0.1-0.1,0.1-0.2c0-0.1-0.1-0.1-0.1-0.1L14.3,0.6z" class="st0"/><path d="M6.2,9.2c0,0.1,0.1,0.1,0.1,0.1l8.3,2.4h0.1c0.1,0,0.1,0,0.1-0.1c0.1-0.1,0.1-0.1,0.1-0.2L12.9,1.1 c0-0.1-0.1-0.1-0.1-0.1c-0.1,0-0.1,0-0.2,0.1l-6.4,8C6.2,9.1,6.2,9.2,6.2,9.2z" class="st0"/><path d="M1.9,13.8c-0.1,0.1-0.1,0.1-0.1,0.1l-0.7,5.3c0,0.1,0,0.1,0.1,0.2c0.1,0.1,0.1,0.1,0.1,0.1c0,0,0,0,0.1,0 c1.3-0.2,4-0.8,6.8-1.4c0.1,0,0.1-0.1,0.1-0.1c0-0.1,0-0.1,0-0.2l-1.6-3.3c0-0.1-0.1-0.1-0.1-0.1l-4.5-0.6 C2,13.7,1.9,13.7,1.9,13.8z" class="st1"/><path d="M36.3,14.9c0.1-0.1,0.1-0.1,0.1-0.1c0-0.1,0-0.1-0.1-0.1l-5.5-5.8c-0.1-0.1-0.2-0.1-0.2,0l-6.6,5.5 c-0.1,0.1-0.1,0.1-0.1,0.1c0,0.1,0,0.1,0.1,0.1l5.8,4.7c0.1,0,0.1,0.1,0.1,0.1s0.1,0,0.1-0.1c0.7-0.5,2.7-1.9,5.8-4.2L36.3,14.9z" class="st2"/><path d="M9,28.7c0.1,0.1,0.1,0.1,0.1,0.1h0.1c0,0,3.4-0.9,3.5-0.9c0.1,0,0.1-0.1,0.1-0.1c0-0.1,0-0.1,0-0.2l-3.9-8.5 c-0.1-0.1-0.1-0.1-0.2-0.1c-1.4,0.3-4.7,1.1-6.8,1.4c-0.1,0-0.1,0.1-0.1,0.1c0,0.1,0,0.1,0.1,0.2L9,28.7z" class="st1"/><path d="M23.6,28.7l3.3,2c0,0,0.1,0,0.1,0H27c0.1,0,0.1-0.1,0.1-0.1c0.4-1.7,1.2-5.6,2-10.1c0-0.1,0-0.1-0.1-0.2 L23.8,16c-0.1-0.1-0.1-0.1-0.2,0c-0.1,0.1-0.1,0.1-0.1,0.2l0.1,12.5C23.5,28.6,23.6,28.6,23.6,28.7z" class="st2"/><path d="M15.4,30.2l3.8,1.5h0.1c0.1,0,0.1,0,0.1-0.1c0.1-0.1,0.1-0.1,0.1-0.2l-4.2-18.3c0-0.1-0.1-0.1-0.1-0.1 l-8.6-2.4c-0.1,0-0.1,0-0.2,0.1c-0.1,0.1-0.1,0.1,0,0.2l9,19.2C15.2,30.1,15.3,30.2,15.4,30.2z" class="st0"/><path d="M28.7,29.6c0.1,0,0.1,0,0.1-0.1l2.4-2.2l0.1-0.1l4.4-10.2c0.1-0.1,0-0.2-0.1-0.2c-0.1-0.1-0.2-0.1-0.2,0 c-2.9,2.1-4.4,3.2-5,3.5c-0.1,0-0.1,0.1-0.1,0.1c-0.3,1.7-1.1,6-1.8,8.9c0,0.1,0,0.2,0.1,0.2C28.6,29.6,28.7,29.6,28.7,29.6z" class="st2"/></g></svg>