<svg xmlns="http://www.w3.org/2000/svg" xmlns:xlink="http://www.w3.org/1999/xlink" id="Layer_1" x="0" y="0" enable-background="new 0 0 44.4 36" version="1.1" viewBox="0 0 44.4 36" xml:space="preserve"><path fill="#474647" d="M44.3,3.2c-6.9-5.2-16-2.5-16-2.5c6.7-1.6,11.2,8.3,12,9.7c1.2,2.1,3.1,2.1,3.1,2.1	c-0.8-1.7,0.3-5.3,0.7-6.8C44.7,4.1,44.3,3.2,44.3,3.2z"/><path fill="#474647" d="M17,0.7c0,0-9.1-2.7-16,2.5c0,0-0.3,0.9,0.1,2.5c0.5,1.6,1.5,5.1,0.7,6.8c0,0,1.9,0,3.1-2.1	C5.8,9,10.2-0.8,17,0.7z"/><path fill="#474647" d="M22.5,33c-2.6,0.9-4.5,0.2-4.5,0.2s1.1,2.9,4.6,2.8c3.5-0.1,4.3-2.6,4.3-2.6C25,33.9,22.5,33,22.5,33z"/><g><polygon fill="#474647" points="27.4 8.5 25.2 6.9 24.7 8.5"/><polygon fill="#474647" points="23.5 4.8 24.9 5.8 25.7 3.1"/><path fill="#474647" d="M38.3,8.6c0,0-3.6-8.5-10.4-7.4l-0.8,0.9c0,0-0.1,0-0.4-0.1l-1.3,4.2l3.2,2.4l0.8,0.6h-4.9l-1.6,5.3 l-1.6-5.3h-5l4.1-3L19,2c-0.5,0.1-0.9,0.1-0.9,0.1l-0.8-0.9c-6.9-1-10.5,7.9-10.5,7.9s1.7,3,3.2,4.2c0,0-1.6,8.5,4.2,13.4 c0,0,0.9,3.5,1.9,4.5c1.1,1,2.9,2.4,6.4,0.9c3.5,1.5,5.4,0.1,6.4-0.9c1.1-1,1.9-4.5,1.9-4.5c5.8-4.9,4.2-13.4,4.2-13.4 C36.7,12.1,38.3,8.6,38.3,8.6z M14.6,15.2c-1.7-0.3-2.2-2.2-2.2-2.2c0.4-0.6,1.2-1.7,3-1.6c1.8,0.2,3.8,2.7,3.8,2.7 C18.1,14.9,16.3,15.5,14.6,15.2z M26.7,26c-0.1,0.5-0.9,1-1.1,1c0,0-0.2-1.3-1.1-0.9c-0.9,0.4-1,2-0.3,2.2c0.8,0.2-0.3,1.3-0.7,1.5 c-0.4,0.3-0.7,1-0.7,1.4h0c0-0.4-0.3-1.2-0.7-1.4c-0.4-0.3-1.5-1.3-0.7-1.5c0.8-0.2,0.6-1.8-0.3-2.2c-0.9-0.4-1.1,0.9-1.1,0.9 c-0.3,0-1.1-0.6-1.1-1c-0.1-0.5-0.3-1.9,1.3-2.8c1.6-0.9,2.6-0.2,2.6-0.2h0c0,0,1-0.7,2.6,0.2C27.1,24.1,26.8,25.6,26.7,26z M30.8,15.3c-1.7,0.3-3.5-0.3-4.7-1.1c0,0,2.1-2.5,3.8-2.7c1.8-0.2,2.6,0.9,3,1.6C33,13.1,32.6,15,30.8,15.3z"/><path fill="#474647" d="M22.9,4.3l3.3-2.4c-0.8-0.1-2.1-0.2-3.5-0.2c-1.2-0.1-2.3,0-3,0.1L22.9,4.3z"/><polygon fill="#474647" points="24.7 6.5 22.9 5.2 21.1 6.5 21.8 8.5 24 8.5"/><polygon fill="#474647" points="18.3 8.5 21.1 8.5 20.6 6.9"/><polygon fill="#474647" points="20.1 3.1 20.9 5.8 22.3 4.8"/><polygon fill="#474647" points="23.8 9.2 22 9.2 22.9 12.2"/></g></svg>