<?xml version="1.0" encoding="utf-8"?>
<!-- Generator: Adobe Illustrator 19.1.0, SVG Export Plug-In . SVG Version: 6.00 Build 0)  -->
<svg version="1.1" id="Layer_2" xmlns="http://www.w3.org/2000/svg" xmlns:xlink="http://www.w3.org/1999/xlink" x="0px" y="0px"
	 viewBox="0 0 32 32" style="enable-background:new 0 0 32 32;" xml:space="preserve">
<style type="text/css">
	.st0{fill:#474647;}
</style>
<g id="intimacy_1_">
	<path class="st0" d="M16.2,31.9c3.4,0,6.1-2.7,6.1-6.1V23c4.5-0.6,7.9-4.4,7.9-9c0-7.7-6.3-14-14-14c-7.7,0-14,6.3-14,14
		c0,4.6,3.5,8.4,7.9,9v2.8C10.1,29.2,12.8,31.9,16.2,31.9z M16.2,29.7c-1.7,0-3.1-1.1-3.6-2.7h7.3C19.3,28.5,17.9,29.7,16.2,29.7z
		 M4.4,14c0-6.5,5.3-11.7,11.7-11.7c6.5,0,11.7,5.3,11.7,11.7c0,3.4-2.5,6.1-5.7,6.7V9.9c0-0.6-0.5-1.1-1.1-1.1S20,9.3,20,9.9v14.8
		h-7.6V9.9c0-0.6-0.5-1.1-1.1-1.1s-1.1,0.5-1.1,1.1v10.8C6.9,20.2,4.4,17.4,4.4,14z"/>
</g>
<g id="guides">
</g>
</svg>
