<?xml version="1.0" encoding="utf-8"?>
<!-- Generator: Adobe Illustrator 21.0.2, SVG Export Plug-In . SVG Version: 6.00 Build 0)  -->
<svg version="1.1" id="Layer_2" xmlns="http://www.w3.org/2000/svg" xmlns:xlink="http://www.w3.org/1999/xlink" x="0px" y="0px"
	 viewBox="0 0 33.2 32" style="enable-background:new 0 0 33.2 32;" xml:space="preserve">
<style type="text/css">
	.st0{fill:#333333;}
</style>
<g>
	<path class="st0" d="M31.5,22.5c-0.1-0.5,0.1-1.2,0.1-1.2c-0.2,0-0.6,0.5-0.8,0.8c-0.5-0.3-0.9-0.5-1.3-0.6
		c-0.1-0.5,0.2-1.1,0.2-1.1c-0.2,0-0.8,0.8-0.9,0.9c-0.5-0.1-0.8-0.1-1.4-0.1c-0.2-0.6,0.2-1.5,0.2-1.5c-0.3,0-1,1-1.2,1.2
		c0,0,0,0-0.1,0c-0.3-0.1-0.5-0.2-0.8-0.4c0-0.6,0.4-1.4,0.4-1.4c-0.2,0-0.8,0.5-1.1,0.8c-0.2-0.3-0.5-0.6-0.7-0.9
		c0,0,0.6,1.6-1.6,3.2c0,0,2.7,1,5.3,1c2.5,0,3,0.7,3.4,2c0.1,0.5-0.1,1.1-0.5,1.7l-0.6,0.1c0,0-1.2,0.3-1.4,0.3
		c-0.2,0-1.1,0.6-1.1,0.6l1,0.1L28,28.6c-0.3,0.2-0.5,0.4-0.7,0.7L27,29.9l1.3-0.5l-1.1,2c0,0,2-1.2,2.3-1.6l-0.4,1.3
		c0,0,1-0.8,1.2-1.4c0.1-0.3,0.2-0.7,0.2-0.7l0.4,1c0,0,0.2-1.1,0.2-1.6c0-0.2,0-0.5,0-0.7C32.5,26.2,33.5,24,31.5,22.5z"/>
	<path class="st0" d="M17.7,26.6c0,0,0.6-0.7,0.6-1c0-0.4-0.6-1.1-0.6-1.1s0,0-0.6-0.5c-0.6-0.5-1-1.7-1-1.7l-1.4,0.2l-0.5,0.1
		c0,0,0.8,1.8,1.6,2.6c0.8,0.9-0.7,2.2-1.2,2.1c-0.6-0.1-1.6,0.4-1.6,0.4c-1.4-0.1-0.8,1-0.8,1s0.1-0.6,0.7-0.2c0.6,0.4,1-0.1,1-0.1
		l1.3,0.2c0.5-0.7,1.8-1.4,1.8-1.4L17.7,26.6z"/>
	<path class="st0" d="M8.2,23c0,0-0.2,1-0.5,1.5c-0.3,0.5-1.3,1.5-1.3,1.8s0.1,1.1,0.4,1.2c0.2,0.1,0.8,0.5,1-0.1
		c0,0-0.7-0.1-0.7-0.7c0,0,0.7-0.4,0.7-0.7c0-0.3,0.4,0,0.5,0.3c0.1,0.3,0.2,0.9,0.2,1s0.4,0.8,0.4,0.8l0.1-1.2c0,0,0.7-0.7,0.2-1.3
		s0.8-2.2,0.8-2.2S8.5,23.2,8.2,23z"/>
	<path class="st0" d="M21.7,26c0,0,0.7-0.5,0.6-1.1c-0.1-0.6-1.2-0.6-1.2-1.6c-0.1-1,1.2-1.4,1.8-2.1c0.6-0.7,2.4-2.9-2.4-5
		c-0.3-0.1-0.6-0.2-1.1-0.3c0.6-1.1,2.5-1.8,3-1.7c0.7,0.2,0.9,1.6,0.9,1.6c0.6-0.7,0.1-1.6,0.1-1.6c0.8-0.2,1.9,1.7,1.9,1.7
		c1,0.7,0.3,2,0.3,2c1.2,0,0.8-2.3,0.8-2.3s-0.3-2.3,0.7-2.4c1-0.1,2.1,0.7,2.1,0.7c0.6,0.9-1,1.6-1,1.6c2.3,0.4,1.9-2.2,1.9-2.2
		l-2.3-3.3c0,0-5-4.7-6.6-6.1s-6.9-1.4-7.7-1.4c-0.8,0-1.1,0.2-1.1-0.3S14,0.7,14,0.7L12.4,1C10.4,1.9,11,3,11,3
		c4.3,3.3,5.5,8.6,4.4,10.1c-0.7,0.9-1.9,1.4-2.8,1.6l0.1,0c-1.1,0.4-2.3,0.2-3.1-0.6l0.5-0.7l-0.8,0.4c-0.2-0.2-0.3-0.4-0.4-0.6
		c-0.1-0.1-0.1-0.2-0.2-0.3l0.7-0.6l-0.9,0.3c-0.2-0.4-0.3-0.8-0.4-1.2l1.1-0.2L8.1,11c0-0.3-0.1-0.6-0.1-0.8l0.8-0.6l-1,0
		C7.6,9.1,7.4,8.8,7.2,8.4c0.3-0.1,1.2-0.5,1.2-0.5C8.2,8,7.1,8,6.9,7.9c0,0-0.1-0.1-0.1-0.1c0.6-0.1,0.9-0.6,0.9-0.6
		C7.3,7.2,6.5,7.4,6.2,7.3c0,0-0.1,0-0.1-0.1c0.3-0.9,2-1.7,2-1.7C6,5.8,5.2,6.7,4.9,7.2C4.1,7.6,3.8,8.5,2.9,9c-1,0.6-1.4,1-1.4,1
		c-0.1,0.1-0.2,0.3-0.2,0.4c0,0.3,0.1,0.5,0.3,0.7l0.1-0.3L2,11l0.1-0.4l0.3,0.2l0.2-0.3c0.5,0,1.3,0,1.3,0
		c-0.3,0.2-0.4,0.6-0.5,0.7l-0.2-0.1l-0.1,0.3l-0.3,0v0.3l-0.3,0l0,0.4c-0.1,0.6,0.6,0.2,0.6,0.2c1-0.8,1.6-1.4,2.2-1.2
		c0.6,0.2,0.5,1,0.6,1.4c0,1,0.1,1.4,0.3,2c0.2,0.8,0.6,1.4,1.2,2.1L8,17c-1.2,1,0,3.6,0,3.6l0.8,0.3l-3.1-0.3c0,0-0.7,0.1-1,0.6
		S4,22.1,3.7,22.5C3.4,22.9,3.8,24,3.8,24l0.1-0.8c0,0,0.5-0.4,0.9-0.8c0,0-0.2,0.7-0.1,1c0,0.3,0.1,1,0.4,1.1L5,23.6
		c0,0,0.1,0,0.4-0.4s0.4-1,0.4-1L6.7,22c0,0,2.4,1.2,3.7,0.8c1.2-0.3,0.6-3.4,0.6-3.4s0.7,1.2,0.5,2.7c0,0,2.3-0.1,3.5-0.3l1.4-0.2
		c0,0,1.3-3.2,3.4-3.5c0,0-2.5,1.6-2.7,4.1c-0.2,2.4,3.9,2.6,2.3,4.1c-1.1,1-0.3,1.1-2,1.3c-1,0.1-1.5,0.8-1.8,1.3
		c0,0,0.4-0.3,1-0.1c0,0,0.8-0.5,1.3-0.5c0,0-0.8,0.4-1.2,1.2c-0.4,0.8-0.1,1.2-0.1,1.2s0.3-1.1,0.8-1.1s0.5-0.7,2-0.6l0.6-0.3
		c0,0,1.5,0.3,1.4,1.2c0,0,1.1-0.8-0.2-1.4c0,0-0.5-0.6-1-0.6C20.3,27.9,20.9,26.2,21.7,26z M4.2,9.1c0,0,0.1-0.3,0.4-0.4
		s0.5,0.1,0.5,0.1S4.9,9.3,4.2,9.1z"/>
	<path class="st0" d="M13,11.3c0,2.8-0.7,3.2-0.7,3.2s2.7-1,2.9-2c0.2-1,0.3-2.1-0.4-3.7c-0.7-1.6-2.1-3.9-4-5.6c0,0-0.6-0.6,0-1.2
		L9.9,2.3c0,0-1.7,0.5-1.6,1.2C8.7,5.2,13,6.2,13,11.3z"/>
</g>
</svg>
