<?xml version="1.0" encoding="utf-8"?>
<!-- Generator: Adobe Illustrator 19.1.0, SVG Export Plug-In . SVG Version: 6.00 Build 0)  -->
<svg version="1.1" id="Layer_1" xmlns="http://www.w3.org/2000/svg" xmlns:xlink="http://www.w3.org/1999/xlink" x="0px" y="0px"
	 viewBox="0 0 32 32" style="enable-background:new 0 0 32 32;" xml:space="preserve">
<style type="text/css">
	.st0{fill:#454546;}
	.st1{fill:none;}
</style>
<g>
	<g>
		<g>
			<path class="st0" d="M4.1,14c0,0.1,0.1,0.2,0.2,0.2l0,0c0.1,0,0.2-0.1,0.2-0.2c0-3.1,1.3-3.9,2.7-4.7c1.6-1,3.3-2.1,3.2-6.7
				c0.1-0.1,0.2-0.2,0.2-0.4c0-0.2-0.2-0.4-0.4-0.4c-0.2,0-0.4,0.2-0.4,0.4c0,0.2,0.2,0.4,0.3,0.4C10.1,7,8.5,8,6.9,9
				C5.5,9.8,4.1,10.7,4.1,14z"/>
		</g>
	</g>
	<g>
		<g>
			<path class="st0" d="M3.7,14.1C3.7,14.1,3.7,14.1,3.7,14.1c0.2,0,0.2-0.1,0.2-0.2c-1.4-3-0.1-4.3,1.1-5.5
				c0.7-0.7,1.4-1.3,1.4-2.3c0.1-0.1,0.2-0.2,0.2-0.4c0-0.2-0.2-0.4-0.4-0.4S5.7,5.5,5.7,5.8C5.7,6,5.8,6.2,6,6.2
				C5.9,7,5.4,7.6,4.7,8.2C3.5,9.4,2.1,10.8,3.5,14C3.6,14.1,3.6,14.1,3.7,14.1z"/>
		</g>
	</g>
	<g>
		<g>
			<path class="st1" d="M21.8,7.8c-0.7,0.2-1.2,0.1-1.8-0.1c-0.7-0.2-1.5-0.4-2.7,0.3c-0.1,0-0.1,0.2-0.1,0.2c0,0.1,0.1,0.1,0.1,0.1
				s0.1,0,0.1,0c1-0.6,1.7-0.4,2.4-0.3c0.6,0.1,1.2,0.3,1.9,0.1C22,8.1,22,8,22,7.9C22,7.9,21.9,7.8,21.8,7.8z"/>
		</g>
	</g>
	<g>
		<g>
			<circle class="st0" cx="7.9" cy="11.9" r="0.2"/>
		</g>
	</g>
	<g>
		<g>
			<path class="st1" d="M21.8,7.8c-0.7,0.2-1.2,0.1-1.8-0.1c-0.7-0.2-1.5-0.4-2.7,0.3c-0.1,0-0.1,0.2-0.1,0.2c0,0.1,0.1,0.1,0.1,0.1
				s0.1,0,0.1,0c1-0.6,1.7-0.4,2.4-0.3c0.6,0.1,1.2,0.3,1.9,0.1C22,8.1,22,8,22,7.9C22,7.9,21.9,7.8,21.8,7.8z"/>
		</g>
	</g>
	<g>
		<g>
			<circle class="st1" cx="8.2" cy="11.9" r="0.6"/>
		</g>
	</g>
	<g>
		<g>
			<path class="st1" d="M21.9,8.2C22,8.1,22,8,22,8c0-0.1-0.1-0.1-0.2-0.1C21.1,8.1,20.6,8,20,7.8c-0.7-0.2-1.5-0.4-2.7,0.3
				c-0.1,0-0.1,0.2-0.1,0.2c0,0.1,0.1,0.1,0.1,0.1s0.1,0,0.1,0c1-0.6,1.7-0.4,2.4-0.3C20.5,8.2,21.1,8.4,21.9,8.2z"/>
		</g>
	</g>
	<g>
		<g>
			<circle class="st1" cx="8.2" cy="11.9" r="0.6"/>
		</g>
	</g>
	<g>
		<g>
			<path class="st1" d="M21.9,8.2C22,8.1,22,8,22,8c0-0.1-0.1-0.1-0.2-0.1C21.1,8.1,20.6,8,20,7.8c-0.7-0.2-1.5-0.4-2.7,0.3
				c-0.1,0-0.1,0.2-0.1,0.2c0,0.1,0.1,0.1,0.1,0.1s0.1,0,0.1,0c1-0.6,1.7-0.4,2.4-0.3C20.5,8.2,21.1,8.4,21.9,8.2z"/>
		</g>
	</g>
	<g>
		<g>
			<circle class="st1" cx="8.2" cy="11.9" r="0.6"/>
		</g>
	</g>
	<g>
		<g>
			<path class="st0" d="M28.4,14.3c-2-0.5-2.7-1.7-3.4-2.7c-0.5-0.8-1.1-1.7-2.1-2l0,0c-0.6,0.3-1.2,0.4-1.7,0.5c0,0,0,0,0,0
				C21.1,10,21,10,21,9.9c0-0.1,0.1-0.2,0.2-0.2c1.5,0,3.7-2.1,4-3.4c0-0.1,0-0.1,0-0.2c0,0-0.1-0.1-0.2,0c-1.9,0.4-3.1,0.1-4.2-0.2
				c-1.4-0.4-2.7-0.7-4.7,0.7c0,0-0.2,0.6-0.2,0.9c0,0.1-0.1,0.1-0.2,0.1c0,0,0,0-0.1,0c-0.1,0-0.1-0.1-0.1-0.2
				c0.1-0.2,0.1-0.4,0.2-0.6c0.2-1.4,0.1-2.7-0.4-3.5c-0.3-0.6-0.7-0.9-1.1-0.9c-0.1,0-0.1,0-0.1,0.1c0,0,0,0.1,0,0.1
				c0.5,2.7-1.3,5.1-2,5.6c-0.1-1-0.7-1.7-1.5-1.7c-0.1,0-0.2,0.1-0.2,0.2c0,2.4-0.6,4-1.2,4.2c-0.3-0.3-0.7-0.5-1.2-0.5l0,0
				c-0.4,0-0.9,0.2-1.2,0.5S6.5,11.5,6.5,12c0,0.4,0.1,0.8,0.3,1.1l-2.5,1.8c-0.2-0.2-0.6-0.3-0.9-0.3c-0.8,0-1.5,0.7-1.5,1.5
				c0,0,0,0.1,0,0.1c0.5,0.5,0.7,1,0.9,1.4c0.2,0.4,0.4,0.8,0.7,0.8c0.2,0.1,0.5-0.1,0.9-0.3c0.9,0.7,1.9-0.2,3.2-1.5
				c1.4-1.3,3.3-3.2,6.2-4.3c0.1,0.4,0.1,0.9,0.1,1.4c-1.7,0.1-2.4,1.2-3,2.2c-0.6,1-1.2,1.9-2.5,1.9c-0.1,0-0.2,0.1-0.2,0.2
				c0,0.1,0.1,0.2,0.2,0.2c1.5,0,2.2-1,2.8-2c0.7-1,1.3-2,2.7-2.1c-0.2,1.3-0.7,2.6-1.7,3.8c-1.3,1.6-3.2,2.7-4.8,2.7
				c-0.2-0.3-0.6-0.5-1.1-0.6c-0.6-0.1-1.1,0.1-1.4,0.4c0,0,0,0,0,0.1c0,0,0,0.1,0.1,0.1c1.1,1,1.5,2,1.8,2.9c0.4,1,0.7,1.8,1.7,2.1
				c0,0,0,0,0.1,0c0,0,0.1,0,0.1,0c0,0,0.1-0.1,0.1-0.1c0-0.7,0.1-1.4,0.2-1.7c0.2,0.3,0.7,0.6,1.2,0.6c0,0,0.1,0,0.1-0.1
				c0-0.1,0-0.1,0-0.1c0-1,0.4-2.1,1.2-2.9c0.9-0.9,2.1-1.5,3.5-1.5c1.8,0,3.5-1.1,4.2-2.6c0.7-1.4-0.6-2.9-1.5-3.2
				c-0.7-0.2-1.3,0.1-1.6,0.4c-0.7,0.8-0.4,1.8,0.4,2c0.6,0.1,1.3-0.5,1.1-1.1c-0.1-0.2-0.3-0.4-0.5-0.4c-0.2,0-0.3,0.1-0.3,0.2
				c0,0.1-0.1,0.1-0.2,0.1c-0.1,0-0.1-0.1-0.1-0.2c0.2-0.3,0.4-0.4,0.6-0.4c0.3,0,0.6,0.2,0.7,0.6c0.2,0.4,0.1,0.8-0.2,1.2
				c-0.2,0.3-0.9,0.6-1.6,0.2c-0.5-0.3-1.1-1.5-0.2-2.3c0.4-0.4,1.2-0.7,2-0.5c0.2,0,0.3,0.1,0.4,0.2c-0.1-0.4,0.1-0.9,0.2-1.3
				c0.1-0.2,0.2-0.5,0.1-0.6c-0.1,0-0.3,0-0.6,0c-0.5,0.1-1.2,0.2-1.6-0.2c-0.2-0.2-0.3-0.5-0.3-0.8c0-0.1,0.1-0.2,0.2-0.2
				c0.1,0,0.2,0.1,0.2,0.2c0,0.2,0.1,0.4,0.2,0.6c0.3,0.2,0.9,0.2,1.3,0.1c0.4-0.1,0.7-0.1,0.9,0.1c0.1,0.2,0,0.5-0.1,0.8
				c-0.2,0.5-0.3,1.1-0.1,1.5c0.9,0.7,1.5,2.1,1.3,3.7c-0.4,3.2-6.2,7-6.2,7c-2.7,1.8-3.7,4.5-3.7,6.4l0,0v0v0v0c0,0,0,0,0,0l0,0
				c0,0,0,0,0,0c0,0,0,0,0,0c0,0,0,0,0.1,0l0,0l0,0c0,0,0,0,0.1,0l0,0l0,0l0,0c1.4-1.6,2.6-2,4.2-2.3c0,0,0-0.1,0-0.1
				c0-0.9,1-2,2-3.1c0.7-0.8,1.4-1.6,1.5-2.1c0-0.1,0.1-0.2,0.2-0.1c0.1,0,0.2,0.1,0.1,0.2c-0.1,0.6-0.8,1.4-1.6,2.2
				c-0.9,1-1.9,2.1-1.9,2.9c0.1-0.1,0.2-0.2,0.3-0.2c1.1-0.8,3.3-2.5,5.1-2.3c-0.4-1.5,0.2-2.4,0.8-3.4c0.7-1.2,1.5-2.3,0.8-4.5
				c0-0.1,0-0.2,0.1-0.2c0.1,0,0.2,0,0.2,0.1c0.7,2.3-0.1,3.6-0.8,4.7c-0.7,1-1.2,1.9-0.8,3.2c2.5-0.1,4.1-1.8,4.7-5.2
				c0,0,0.5-3.5-1.1-6.1c-0.8-1.3-1.9-2-3.3-2.3c-0.1,0-0.2-0.1-0.1-0.2c0-0.1,0.1-0.2,0.2-0.1c1.5,0.3,2.7,1.1,3.5,2.5
				c0.8,1.3,1.2,3,1.3,4.5c0.4-1.3,1-2.6,2-3c0.8-0.3,1.8-0.1,2.9,0.8c0,0,0.1,0,0.2,0c0.1,0,0.1-0.1,0.1-0.1
				C31.3,15.1,28.7,14.3,28.4,14.3z M8.2,12.5c-0.3,0-0.6-0.2-0.6-0.6s0.2-0.6,0.6-0.6s0.6,0.2,0.6,0.6S8.5,12.5,8.2,12.5z
				 M19.9,8.1c-0.7-0.2-1.4-0.3-2.4,0.3c0,0-0.1,0-0.1,0c-0.1,0-0.1,0-0.1-0.1c0-0.1,0-0.2,0.1-0.2c1.1-0.7,1.9-0.5,2.7-0.3
				c0.6,0.1,1.1,0.2,1.8,0.1c0.1,0,0.2,0,0.2,0.1c0,0.1,0,0.2-0.1,0.2C21.1,8.4,20.5,8.2,19.9,8.1z"/>
		</g>
	</g>
</g>
</svg>
