<?xml version="1.0" encoding="utf-8"?>
<!-- Generator: Adobe Illustrator 19.1.0, SVG Export Plug-In . SVG Version: 6.00 Build 0)  -->
<!DOCTYPE svg PUBLIC "-//W3C//DTD SVG 1.1//EN" "http://www.w3.org/Graphics/SVG/1.1/DTD/svg11.dtd">
<svg version="1.1" xmlns="http://www.w3.org/2000/svg" xmlns:xlink="http://www.w3.org/1999/xlink" x="0px" y="0px"
	 viewBox="0 0 33 32" enable-background="new 0 0 33 32" xml:space="preserve">
<g id="Layer_2">
	<g>
		<path fill="#464646" d="M16.4,24C7.3,24,4.3,11.9,3.8,9.7c-0.8-0.4-3-1.8-3-4c0-2.4,2-3.5,2.9-3.9V0H5v2.7L4.6,2.8
			C4.5,2.8,2,3.7,2,5.7c0,1.8,2.5,3,2.6,3l0.3,0.1L5,9.2c0,0.1,2.7,13.6,11.4,13.6c8.7,0,11.7-13.7,11.7-13.8l0.1-0.4l0.4-0.1
			c0.1,0,2.1-0.5,2.1-2.7c0-2.3-2.2-2.9-2.3-2.9l-0.5-0.1V0h1.3v1.8c1.2,0.5,2.8,1.7,2.8,4c0,2.3-1.6,3.5-2.7,3.9
			C28.7,11.9,25.4,24,16.4,24z"/>
	</g>
	<circle fill="#464646" cx="11.4" cy="2.6" r="2.4"/>
	<circle fill="#464646" cx="21.4" cy="2.6" r="2.4"/>
</g>
<g id="Layer_7">
	<path fill="#464646" d="M21.4,25.8c-0.1,0.1,0-0.2-0.1-0.1c-0.9,0.4-2.4,0.9-2.8,0.9c-0.4,0,0.1-0.2,0.2-0.3c0-0.1-1.1,0.4-2.4,0.5
		v0c0,0,0,0,0,0c0,0,0,0,0,0v0c-1.3-0.1-2.5-0.6-2.4-0.5c0,0.1,0.6,0.3,0.2,0.3c-0.4,0-1.9-0.5-2.8-0.9c-0.1,0,0,0.2-0.1,0.1
		c-2.3-3.1-0.1-5-0.1-5c1.6,1.4,3.8,1.7,3.9-1.4c0.4,0,0.9,0,1.3,0c0.4,0,0.9,0,1.3,0c0.1,3.4,2.9,2.8,4.5,1.3
		C22.1,20.7,23.8,24,21.4,25.8z"/>
</g>
</svg>
