<svg xmlns="http://www.w3.org/2000/svg" xmlns:xlink="http://www.w3.org/1999/xlink" x="0" y="0" enable-background="new 0 0 33 32" version="1.1" viewBox="0 0 33 32" xml:space="preserve"><g id="Layer_2"><g><path fill="#464646" d="M16.4,24C7.3,24,4.3,11.9,3.8,9.7c-0.8-0.4-3-1.8-3-4c0-2.4,2-3.5,2.9-3.9V0H5v2.7L4.6,2.8 C4.5,2.8,2,3.7,2,5.7c0,1.8,2.5,3,2.6,3l0.3,0.1L5,9.2c0,0.1,2.7,13.6,11.4,13.6c8.7,0,11.7-13.7,11.7-13.8l0.1-0.4l0.4-0.1 c0.1,0,2.1-0.5,2.1-2.7c0-2.3-2.2-2.9-2.3-2.9l-0.5-0.1V0h1.3v1.8c1.2,0.5,2.8,1.7,2.8,4c0,2.3-1.6,3.5-2.7,3.9 C28.7,11.9,25.4,24,16.4,24z"/></g><circle cx="11.4" cy="2.6" r="2.4" fill="#464646"/><circle cx="21.4" cy="2.6" r="2.4" fill="#464646"/></g><g id="Layer_6"><g><path fill="#464646" d="M28.7,13.1c0,0,0.7,0.5,1,0.7L29,9l-0.7-0.1c-1.3,2.6-5.9,2.9-5.9,2.9l-5.2-1.5l0.6,2.2 c0,0,4.7,0.6,4.9,1.7l-1.8,2.4c0,0-3.4-1.2-3.3-1.6h-1.3c0.1,0.4-2.7,1.6-2.7,1.6s-2.8-1.5-2.5-2.3c0.3-0.9,4.4-1.7,4.4-1.7 l0.7-2.3l-5.3,1.4c0,0-6.2,0.2-6.2-3L4.1,8.9c0,0-0.2,2.8-0.5,4.7c0,0,0.3-0.1,0.8-0.3c-1.6,2-1.1,5.1-0.2,7.4 c0-0.7,0.3-1.1,0.5-1.5c-0.2,1.4,0.2,3.2,0.9,4.5c-0.1-0.6-0.1-1.3,0-1.9c0,1.9,1.5,3.6,2.8,4.7c-0.4-0.4-0.5-1-0.5-1.5 c0.4,0.9,1.2,1.9,2.1,2.4c1.8,1.1,3.5,2.1,5.1,3.7c0-0.3,0-0.7,0.1-1c0.3,0.5,2.3,1.2,2.3,1.9c0.8-1,1.8-2.3,1.8-2.3 c0,0.2,0,0.6-0.3,1c3.1-2.6,4.6-1.6,7.4-5.5c0,0-0.2,1.1-0.5,1.5c1.2-1.2,2.8-2.8,2.8-4.7c0.1,0.6,0.1,1.3,0,1.9 c0.7-1.2,1.1-3.1,0.9-4.5c0.2,0.5,0.5,0.9,0.5,1.5C30.1,18.6,30.2,15.2,28.7,13.1z"/><path fill="#464646" d="M18.8,30.7c-0.1,0-0.1,0.1-0.2,0.1C18.7,30.8,18.7,30.8,18.8,30.7z"/></g></g></svg>