<?xml version="1.0" encoding="utf-8"?>
<!-- Generator: Adobe Illustrator 19.1.0, SVG Export Plug-In . SVG Version: 6.00 Build 0)  -->
<!DOCTYPE svg PUBLIC "-//W3C//DTD SVG 1.1//EN" "http://www.w3.org/Graphics/SVG/1.1/DTD/svg11.dtd">
<svg version="1.1" xmlns="http://www.w3.org/2000/svg" xmlns:xlink="http://www.w3.org/1999/xlink" x="0px" y="0px"
	 viewBox="0 0 33 32" enable-background="new 0 0 33 32" xml:space="preserve">
<g id="Layer_2">
	<g>
		<path fill="#464646" d="M16.4,24C7.3,24,4.3,11.9,3.8,9.7c-0.8-0.4-3-1.8-3-4c0-2.4,2-3.5,2.9-3.9V0H5v2.7L4.6,2.8
			C4.5,2.8,2,3.7,2,5.7c0,1.8,2.5,3,2.6,3l0.3,0.1L5,9.2c0,0.1,2.7,13.6,11.4,13.6c8.7,0,11.7-13.7,11.7-13.8l0.1-0.4l0.4-0.1
			c0.1,0,2.1-0.5,2.1-2.7c0-2.3-2.2-2.9-2.3-2.9l-0.5-0.1V0h1.3v1.8c1.2,0.5,2.8,1.7,2.8,4c0,2.3-1.6,3.5-2.7,3.9
			C28.7,11.9,25.4,24,16.4,24z"/>
	</g>
	<circle fill="#464646" cx="11.4" cy="2.6" r="2.4"/>
	<circle fill="#464646" cx="21.4" cy="2.6" r="2.4"/>
</g>
<g id="Layer_13">
	<path fill="#464646" d="M30.8,17.8c-0.6-1.4,0-3.3,0.1-5.3c0.1-2-1.7-2.9-1.6-4.7c0.2-1.8,0-3.5-1-3.6c-0.8-0.1-1.2,4.3-1.7,5.5
		c-0.9,2-2.7,4-4,2.4c-0.9-1.1-1.7-2.3-3.3-2.4c-1.1-0.1-2.1,0.4-2.8,0.4c-0.7,0-1.7-0.5-2.8-0.4c-1.5,0.1-2.4,1.3-3.3,2.4
		c-1.3,1.6-3-0.4-4-2.4C6,8.5,5.7,4.1,4.9,4.2c-0.9,0.1-1.1,1.8-1,3.6c0.2,1.8-1.7,2.7-1.6,4.7c0.1,2,0.6,3.9,0.1,5.3
		c-0.6,1.4-0.7,3.6,0.2,4.9c0.9,1.3,1.8,2.4,2.1,3.8c0.3,1.4,2,3.9,4.4,3.7c2.4-0.2,3.8,1.9,7.6,1.9c3.8,0,5.2-2,7.6-1.9
		c2.4,0.2,4.1-2.3,4.4-3.7c0.3-1.4,1.2-2.5,2.1-3.8C31.6,21.4,31.4,19.2,30.8,17.8z M20.6,15.2c-0.6,0.6-1.8,0.3-2.3-0.2
		c-0.3-0.4-0.8-0.9-1.8-0.9c-1,0-1.5,0.5-1.8,0.9c-0.4,0.5-1.7,0.8-2.3,0.2c-0.6-0.6,0.2-1,1.3-1.3c1.1-0.4,2-0.9,2.8-1.5
		c0.8,0.6,1.7,1.2,2.8,1.5C20.4,14.2,21.2,14.6,20.6,15.2z"/>
</g>
</svg>
