<svg xmlns="http://www.w3.org/2000/svg" xmlns:xlink="http://www.w3.org/1999/xlink" x="0" y="0" enable-background="new 0 0 33 32" version="1.1" viewBox="0 0 33 32" xml:space="preserve"><g id="Layer_16" display="none"><image width="512" height="512" display="inline" overflow="visible" transform="matrix(7.965434e-002 0 0 7.965434e-002 -3.3489 -21.9497)" xlink:href="../../../../Users/Le/Desktop/Cinema-Borg-Head-icon.png"/></g><g id="Layer_2"><g><path fill="#464646" d="M16.4,24C7.3,24,4.3,11.9,3.8,9.7c-0.8-0.4-3-1.8-3-4c0-2.4,2-3.5,2.9-3.9V0H5v2.7L4.6,2.8 C4.5,2.8,2,3.7,2,5.7c0,1.8,2.5,3,2.6,3l0.3,0.1L5,9.2c0,0.1,2.7,13.6,11.4,13.6c8.7,0,11.7-13.7,11.7-13.8l0.1-0.4l0.4-0.1 c0.1,0,2.1-0.5,2.1-2.7c0-2.3-2.2-2.9-2.3-2.9l-0.5-0.1V0h1.3v1.8c1.2,0.5,2.8,1.7,2.8,4c0,2.3-1.6,3.5-2.7,3.9 C28.7,11.9,25.4,24,16.4,24z"/></g><circle cx="21.4" cy="2.6" r="2.4" fill="#464646"/><circle cx="21.4" cy="2.6" r="2.4" fill="#464646"/></g><g id="Layer_17"><path fill="#464646" d="M15.4,0H1.7c-2.6,4.1-1.5,9.1,1.4,11c3.4,2.3,7.9-0.2,9.9-1.8c0.7-0.6,2.3-2,2.9-4.3 C16.4,2.6,15.7,0.7,15.4,0z M10.6,5.1C9.2,5.1,8.2,4,8.2,2.6s1.1-2.4,2.4-2.4S13,1.3,13,2.6S11.9,5.1,10.6,5.1z"/></g></svg>