<svg xmlns="http://www.w3.org/2000/svg" xmlns:xlink="http://www.w3.org/1999/xlink" x="0" y="0" enable-background="new 0 0 33 32" version="1.1" viewBox="0 0 33 32" xml:space="preserve"><g id="Layer_2"><g><path fill="#464646" d="M16.4,24C7.3,24,4.3,11.9,3.8,9.7c-0.8-0.4-3-1.8-3-4c0-2.4,2-3.5,2.9-3.9V0H5v2.7L4.6,2.8 C4.5,2.8,2,3.7,2,5.7c0,1.8,2.5,3,2.6,3l0.3,0.1L5,9.2c0,0.1,2.7,13.6,11.4,13.6c8.7,0,11.7-13.7,11.7-13.8l0.1-0.4l0.4-0.1 c0.1,0,2.1-0.5,2.1-2.7c0-2.3-2.2-2.9-2.3-2.9l-0.5-0.1V0h1.3v1.8c1.2,0.5,2.8,1.7,2.8,4c0,2.3-1.6,3.5-2.7,3.9 C28.7,11.9,25.4,24,16.4,24z"/></g><circle cx="11.4" cy="2.6" r="2.4" fill="#464646"/><circle cx="21.4" cy="2.6" r="2.4" fill="#464646"/></g><g id="Layer_16"><path fill="#464646" d="M23.4,20c-2.6,1.2-5.8,0.6-5.4-1.4c-0.2,0-0.9,0-1.7,0c-0.7,0-1.4,0-1.7,0c0.4,2-2.8,2.6-5.4,1.4 c-2.2-1-2.4-5-2.6-5.8c-0.2-0.7-1.5,5.1,0.3,6.5c0-0.3-0.1-0.1-0.1-0.3c0.5,1.2,1.7,2.1,3.4,2.8c0.1-0.1-0.1-0.2-0.1-0.4 c0.8,0.8,1.6,1.1,3,1.6c-0.1-0.2,0,0-0.1-0.2c0.7,0.8,2.4,1.2,3,1.2c0.1,0,0.2,0,0.3,0c0.1,0,0.2,0,0.3,0c0.6,0,2.3-0.5,3-1.2 c-0.1,0.2,0,0-0.1,0.2c1.4-0.5,2.2-0.8,3-1.6c0.1,0.1-0.1,0.2-0.1,0.4c1.7-0.7,2.9-1.7,3.4-2.8c0,0.2,0,0-0.1,0.3 c1.8-1.5,0.8-5.3,0.5-6.2C26,13.7,25.6,19,23.4,20z"/><path fill="#464646" d="M9.3,17c2.6-1.2,11.6-1.2,14.2,0c2.2,1,4.1,0.7,2.3-0.8c0,0.3,0.1,0.1,0.1,0.3c-0.5-1.2-1.7-2.1-3.4-2.8 c-0.1,0.1,0.1,0.2,0.1,0.4c-0.8-0.8-1.6-1.1-3-1.6c0.1,0.2,0,0,0.1,0.2c-0.7-0.8-2.4-1.2-3-1.2c-0.1,0-0.2,0-0.3,0 c-0.1,0-0.2,0-0.3,0c-0.6,0-2.3,0.5-3,1.2c0.1-0.2,0,0,0.1-0.2c-1.4,0.5-2.2,0.8-3,1.6c-0.1-0.1,0.1-0.2,0.1-0.4 c-1.7,0.7-2.9,1.7-3.4,2.8c0-0.2,0,0,0.1-0.3C5.2,17.7,7.2,18,9.3,17z"/></g></svg>