<?xml version="1.0" encoding="utf-8"?>
<!-- Generator: Adobe Illustrator 19.1.0, SVG Export Plug-In . SVG Version: 6.00 Build 0)  -->
<!DOCTYPE svg PUBLIC "-//W3C//DTD SVG 1.1//EN" "http://www.w3.org/Graphics/SVG/1.1/DTD/svg11.dtd">
<svg version="1.1" xmlns="http://www.w3.org/2000/svg" xmlns:xlink="http://www.w3.org/1999/xlink" x="0px" y="0px"
	 viewBox="0 0 33 32" enable-background="new 0 0 33 32" xml:space="preserve">
<g id="Layer_2">
	<g>
		<path fill="#464646" d="M16.4,24C7.3,24,4.3,11.9,3.8,9.7c-0.8-0.4-3-1.8-3-4c0-2.4,2-3.5,2.9-3.9V0H5v2.7L4.6,2.8
			C4.5,2.8,2,3.7,2,5.7c0,1.8,2.5,3,2.6,3l0.3,0.1L5,9.2c0,0.1,2.7,13.6,11.4,13.6c8.7,0,11.7-13.7,11.7-13.8l0.1-0.4l0.4-0.1
			c0.1,0,2.1-0.5,2.1-2.7c0-2.3-2.2-2.9-2.3-2.9l-0.5-0.1V0h1.3v1.8c1.2,0.5,2.8,1.7,2.8,4c0,2.3-1.6,3.5-2.7,3.9
			C28.7,11.9,25.4,24,16.4,24z"/>
	</g>
	<circle fill="#464646" cx="11.4" cy="2.6" r="2.4"/>
	<circle fill="#464646" cx="21.4" cy="2.6" r="2.4"/>
</g>
<g id="Layer_10">
	<circle fill="#464646" cx="6.9" cy="10.1" r="0.9"/>
	<circle fill="#464646" cx="10.6" cy="10.1" r="0.9"/>
	<circle fill="#464646" cx="14.2" cy="10.1" r="0.9"/>
	<circle fill="#464646" cx="17.8" cy="10.1" r="0.9"/>
	<circle fill="#464646" cx="25.1" cy="10.1" r="0.9"/>
	<circle fill="#464646" cx="21.4" cy="10.1" r="0.9"/>
	<circle fill="#464646" cx="8.8" cy="11.7" r="0.9"/>
	<circle fill="#464646" cx="12.4" cy="11.7" r="0.9"/>
	<circle fill="#464646" cx="16" cy="11.7" r="0.9"/>
	<circle fill="#464646" cx="19.6" cy="11.7" r="0.9"/>
	<circle fill="#464646" cx="23.3" cy="11.7" r="0.9"/>
	<circle fill="#464646" cx="10.6" cy="13.5" r="0.9"/>
	<circle fill="#464646" cx="25.1" cy="13.5" r="0.9"/>
	<circle fill="#464646" cx="8.8" cy="15.3" r="0.9"/>
	<circle fill="#464646" cx="23.3" cy="15.3" r="0.9"/>
	<circle fill="#464646" cx="21.4" cy="16.9" r="0.9"/>
	<circle fill="#464646" cx="17.8" cy="17.1" r="0.9"/>
	<circle fill="#464646" cx="14.2" cy="17.1" r="0.9"/>
	<circle fill="#464646" cx="10.6" cy="17.1" r="0.9"/>
	<circle fill="#464646" cx="12.4" cy="18.9" r="0.9"/>
	<circle fill="#464646" cx="16" cy="18.9" r="0.9"/>
	<circle fill="#464646" cx="19.6" cy="18.9" r="0.9"/>
	<circle fill="#464646" cx="14.2" cy="20.8" r="0.9"/>
	<circle fill="#464646" cx="17.8" cy="20.8" r="0.9"/>
</g>
</svg>
