<svg xmlns="http://www.w3.org/2000/svg" xmlns:xlink="http://www.w3.org/1999/xlink" x="0" y="0" enable-background="new 0 0 33 32" version="1.1" viewBox="0 0 33 32" xml:space="preserve"><g id="Layer_2"><g><path fill="#464646" d="M16.4,24C7.3,24,4.3,11.9,3.8,9.7c-0.8-0.4-3-1.8-3-4c0-2.4,2-3.5,2.9-3.9V0H5v2.7L4.6,2.8 C4.5,2.8,2,3.7,2,5.7c0,1.8,2.5,3,2.6,3l0.3,0.1L5,9.2c0,0.1,2.7,13.6,11.4,13.6c8.7,0,11.7-13.7,11.7-13.8l0.1-0.4l0.4-0.1 c0.1,0,2.1-0.5,2.1-2.7c0-2.3-2.2-2.9-2.3-2.9l-0.5-0.1V0h1.3v1.8c1.2,0.5,2.8,1.7,2.8,4c0,2.3-1.6,3.5-2.7,3.9 C28.7,11.9,25.4,24,16.4,24z"/></g><circle cx="11.4" cy="2.6" r="2.4" fill="#464646"/><circle cx="21.4" cy="2.6" r="2.4" fill="#464646"/></g><g id="Layer_5"><g><path fill="#464646" d="M28.8,9.1h-0.9c0,7.5-4,4.7-10.9,4.7l0.2,1.2c1.4,0.3,2.5,0,3.3,0.7c0,0,0.6,1.6,0.1,3.1 c-0.2,0.5-2.3,1-2.6,0.9c-0.7-0.1-0.5-1.7-0.5-1.7l-2.2,0c0,0,0.4,1.6-0.5,1.7c-0.3,0-2.3-0.4-2.5-0.9c-0.5-1.5,0.1-3.2,0.1-3.2 c0.8-0.6,1.9-0.3,3.2-0.6l0.2-1.2c-6.5,0-10.9,2-10.9-4.7H4.2v7.4c0,0.3,0,0.7,0,1l0,0c0,2.1,0.8,4.1,2.1,5.7 C6.5,22.7,7,22.3,7.5,22c0,0,0,0,0,0c0,0.2,0,0.3,0,0.5c0,0.5,0.1,0.9,0.3,1.3c0.1,0.4,0.3,0.9,0.6,1.2C9,26,10,26.6,11.2,26.7 c-0.2-0.3-0.1-1.6,0.4-1.9c0.1,0,2.2,1.8,3,2c0,0,0,0,0,0c0.7,0.3,1.5,0.5,2.3,0.8c0.9-0.6,1.8-1.2,2.6-1.7 c0.4-0.2,0.7-0.5,1.1-0.7c0.5-0.2,1-0.4,1.5-0.5c0.1,0.7,0,1.4-0.4,2c1.1-0.1,2.2-0.7,2.8-1.7c0.3-0.5,0.6-1,0.7-1.6 c0.1-0.2,0.1-0.4,0.1-0.7c0-0.3,0-0.6-0.1-0.9c0,0,0,0,0,0c0,0,0.1,0,0.1,0c0.5,0.3,1,0.7,1.3,1.3c1.3-1.6,2.1-3.6,2.1-5.7l0,0 c0-0.4,0-0.9,0-1.4V9.1z"/></g></g></svg>