<?xml version="1.0" encoding="utf-8"?>
<!-- Generator: Adobe Illustrator 19.1.0, SVG Export Plug-In . SVG Version: 6.00 Build 0)  -->
<!DOCTYPE svg PUBLIC "-//W3C//DTD SVG 1.1//EN" "http://www.w3.org/Graphics/SVG/1.1/DTD/svg11.dtd">
<svg version="1.1" xmlns="http://www.w3.org/2000/svg" xmlns:xlink="http://www.w3.org/1999/xlink" x="0px" y="0px"
	 viewBox="0 0 33 32" enable-background="new 0 0 33 32" xml:space="preserve">
<g id="Layer_2">
	<g>
		<path fill="#464646" d="M16.4,24C7.3,24,4.3,11.9,3.8,9.7c-0.8-0.4-3-1.8-3-4c0-2.4,2-3.5,2.9-3.9V0H5v2.7L4.6,2.8
			C4.5,2.8,2,3.7,2,5.7c0,1.8,2.5,3,2.6,3l0.3,0.1L5,9.2c0,0.1,2.7,13.6,11.4,13.6c8.7,0,11.7-13.7,11.7-13.8l0.1-0.4l0.4-0.1
			c0.1,0,2.1-0.5,2.1-2.7c0-2.3-2.2-2.9-2.3-2.9l-0.5-0.1V0h1.3v1.8c1.2,0.5,2.8,1.7,2.8,4c0,2.3-1.6,3.5-2.7,3.9
			C28.7,11.9,25.4,24,16.4,24z"/>
	</g>
	<circle fill="#464646" cx="11.8" cy="3.8" r="2.4"/>
</g>
<g id="Layer_17">
	<path fill="#464646" d="M25.4,13.9l0-3.6c-0.1-1.4-0.8-2.5-1.9-3.2c0.3-0.2,0.5-0.4,0.8-0.6c0.7-0.7,1.1-1.7,1.1-2.7
		c0-1-0.4-2-1.1-2.7C23.6,0.4,22.6,0,21.6,0h0c0,0,0,0,0,0c-1,0-1.9,0.4-2.7,1.1c-0.7,0.7-1.1,1.7-1.1,2.7c0,1,0.4,2,1.1,2.7
		c0.6,0.6,1.4,1,2.3,1.1c0.2,0,0.4,0,0.6,0c1.4,0.2,2.5,1.4,2.5,2.9l0,3.6c0.1,2.1,1.8,3.8,4,3.8v-1.1
		C26.7,16.8,25.4,15.5,25.4,13.9z M18.9,3.8c0-0.7,0.3-1.4,0.8-1.9c0,0,0,0,0,0l0,0c0.5-0.5,1.2-0.8,1.9-0.8c0,0,0.1,0,0.1,0
		c0.1,0,0.1,0,0.1,0c0.6,0.1,1.2,0.3,1.6,0.8l0,0c0,0,0,0,0,0c0.5,0.5,0.8,1.2,0.8,1.9c0,0.7-0.3,1.4-0.8,1.9c0,0,0,0,0,0l0,0
		c-0.4,0.4-1,0.7-1.6,0.8c-0.2,0-0.5,0-0.5,0c0,0,0,0,0,0c-0.6-0.1-1.2-0.3-1.6-0.8l0,0c0,0,0,0,0,0C19.2,5.2,18.9,4.5,18.9,3.8z"/>
	<path fill="#464646" d="M13.2,11.6c-0.4,0.4-0.7,1.3-1.1,2.6c-0.4,1.3-1.2,2.3-1.2,2.3s1-0.8,2.3-1.2c1.3-0.4,2.2-0.7,2.6-1.1
		c0.8-0.8,0.9-1.7,0-2.6C15,10.7,14,10.8,13.2,11.6z"/>
	<path fill="#464646" d="M19.9,11.6c-0.8-0.8-1.7-0.9-2.6,0c-0.9,0.9-0.8,1.9,0,2.7c0.4,0.4,1.3,0.7,2.6,1.1
		c1.3,0.4,2.3,1.2,2.3,1.2s-0.8-1-1.2-2.3C20.5,12.9,20.3,12,19.9,11.6z"/>
</g>
</svg>
