<svg xmlns="http://www.w3.org/2000/svg" xmlns:xlink="http://www.w3.org/1999/xlink" id="Layer_1" x="0" y="0" version="1.1" viewBox="0 0 37.1 32" xml:space="preserve" style="enable-background:new 0 0 37.1 32"><style type="text/css">.st0{fill:#c0282d}.st1{fill:#222221}</style><g id="XMLID_67_"><g id="XMLID_63_"><path id="XMLID_64_" d="M21.1,0c-4.7,0-9,2.1-11.9,5.4H28l-1.4,1.5C26,7.6,26,7.6,25.4,8.5C24.9,9.2,25,10,25,10 l0.2,0.9H20l0.6-1.3l-3.4,0l-2.3,5.7h3l1.5-3.4l5.3,0l-1.5,3.5h4.1l-2.1,4.8l-4.2,0l-1.6,3.6l-5.3,0l1.6-3.6l-2.9,0l-2.2,5 c-0.3,0.6-0.7,1.2-1.1,1.7C12.3,30,16.5,32,21.1,32c8.8,0,16-7.2,16-16S29.9,0,21.1,0z" class="st0"/></g><path id="XMLID_60_" d="M26.1,16.1H22l1.5-3.5l-3.6,0l-1.5,3.4h-4.6l2.9-7.2l5.2,0l-0.6,1.3h3.1c0,0-0.2-1.1,0.5-2.1 c0.7-1,0.7-1,1.5-1.9H4.5c0,0-0.9,0.6-0.9,1.5c0,0.9,0.8,1.3,0.8,1.3l7.2,0l-3.1,7.2c-3.2,1.2-5.4,3.3-6.8,6.3l-1.5,3.4 C0.1,26.1,0,26.3,0,26.5c0,0.7,0.5,1.2,1.4,1.6c0.7,0.3,1.5,0.5,2.4,0.5c1.3,0,2.5-0.3,3.5-0.9c1.2-0.7,2-1.6,2.6-2.8l2.4-5.4 l4.6,0L15.3,23l3.6,0l1.6-3.6l4.2,0L26.1,16.1z M4.3,25.6c-0.2,0.4-0.5,0.6-0.8,0.6c-0.3,0-0.5-0.1-0.5-0.3c0,0,0-0.1,0-0.1 l1.5-3.3c0.8-1.8,1.6-2.7,2.6-3C5.7,22.2,4.8,24.2,4.3,25.6z" class="st1"/></g></svg>