<svg xmlns="http://www.w3.org/2000/svg" xmlns:xlink="http://www.w3.org/1999/xlink" id="Layer_1" x="0" y="0" version="1.1" viewBox="0 0 32 32" xml:space="preserve" style="enable-background:new 0 0 32 32"><style type="text/css">.st0{fill:#454546}</style><path d="M16,24.5c-3.4,0-4.1-1.3-4.1-2.7c0-2.7,2.1-4.1,4.1-4.1s4.1,1.3,4.1,4.1C20.1,23.1,19.4,24.5,16,24.5z M21.5,15	c-1.5,0-2.7-1.2-2.7-2.7s1.2-2.7,2.7-2.7c1.5,0,2.7,1.2,2.7,2.7S23,15,21.5,15z M10.5,15c-1.5,0-2.7-1.2-2.7-2.7S9,9.5,10.5,9.5	s2.7,1.2,2.7,2.7S12.1,15,10.5,15z M3.7,31.3c1.3,0,2.7-2.7,5.5-2.7s4.1,2.7,6.8,2.7c2.7,0,4-2.7,6.8-2.7c3.4,0,4.1,2.7,5.5,2.7	c0.7,0,1.3-0.7,1.3-1.3V14.3c0-9.5-6.8-13.6-13.6-13.6S2.4,4.8,2.4,14.3V30C2.4,30.6,3.1,31.3,3.7,31.3z" class="st0"/></svg>