<svg xmlns="http://www.w3.org/2000/svg" xmlns:xlink="http://www.w3.org/1999/xlink" id="Layer_2" x="0" y="0" version="1.1" viewBox="3.2 0 25.1 32" xml:space="preserve" style="enable-background:new 3.2 0 25.1 32"><style type="text/css">.st0{fill:#454546}</style><g><path d="M24.3,20.4c-0.6,0-1,0.3-1,0.7c0,0,0,0,0,0.3c-0.1,0.9-0.2,1.8-0.2,1.8c-0.1,0.6,0.3,1,0.8,1 c0.5,0,1-0.4,1.1-1c0,0,0.1-0.6,0.2-1.5c0.1-0.4,0.1-0.4,0.1-0.4C25.3,20.8,24.8,20.4,24.3,20.4z" class="st0"/><path d="M23.2,17.1l0.1,1.5c0,0.6,0.5,1,1,1c0.6,0,1-0.5,1-1l-0.1-1.5c-0.1-0.6-0.6-1-1.1-1 C23.5,16.1,23.1,16.6,23.2,17.1z" class="st0"/><path d="M9.3,10.8c0.3-0.4,0.8-0.4,0.8-0.4c2.1,0,3.8-1.5,4.1-3.5l0,0c0,0,0,0,0,0c0,0,0-0.1,0-0.1 c0-0.2,0.1-0.5,0.4-0.7l0,0c0.2-0.1,0.3,0,0.1,0.3C14.2,7,15,8.1,13.4,9.7c-1.6,1.6,0.1,1.4,0.1,1.4s5.8,0,7.4,0 c1.6,0,1.2-0.3,0.3-1.3C20.2,8.7,20,6.9,20,6.6c0-0.3-0.5-0.8-0.5-0.8s-0.2-1.9-0.2-2.2c0-0.3,0.1-0.2,0.3-0.5 c0.3-0.3,0.2-0.4,0.5-0.7c0.3-0.3,0.4-0.7,0.4-0.7c0-0.1,0-0.2,0-0.5c0-0.7-0.5-0.5-0.5-0.5s-0.3-0.1-0.6-0.4 c-0.3-0.3-0.8-0.3-0.8-0.3h-4.9c-0.7,0-0.8,0.5-0.8,0.5s-0.4,1-0.6,1.5c0,0-0.2,0.5-1,0.3c-0.4-0.1-0.8-0.2-1.2-0.2 C7.8,2.2,6,4,6,6.3c0,1.5,0.8,2.7,1.9,3.5c0,0,0,0,0,0c0.5,0.4,0.5,0.8,0.5,0.8C8,12,7.7,13.4,7.6,14.9c-0.2,5,0.8,10.8,1.1,10.7 c0.3-0.1,0.1-1.3,0.1-1.3C8.5,19.2,8.4,15,9,12.2C9.1,11.7,9.2,11.3,9.3,10.8z M12.8,5.9c0.1,0,0.2,0,0.3,0c0.1,0,0.7,0.2,0.5,1 c-0.3,1.7-1.7,3-3.5,3c-0.6,0-0.4-0.5-0.4-0.6c0.5-1.6,1-2.9,1.1-3.1C11,6,11.5,5.9,12.8,5.9z M8.8,9C8.6,9.5,8.1,9.3,8,9.3 C7.1,8.6,6.5,7.5,6.5,6.3c0-2,1.6-3.6,3.6-3.6c0.5,0,0.9,0.1,1.3,0.2c0,0,0.4,0.2,0.3,0.8c-0.2,0.3-0.4,0.5-0.7,0.7 C10.8,4.6,9.7,6.5,8.8,9C8.8,9,8.8,9,8.8,9z" class="st0"/><path d="M11,12.1c-0.4,0.2-0.9,2.3-0.9,2.3c-0.3,0.5-0.1,0.9,0.5,0.9c0.5,0,1.1-0.4,1.2-1c0,0,0.2-1.4,0.4-1.8 c0.2-0.5,0.2-0.9-0.1-0.9C11.9,11.7,11.4,11.9,11,12.1z" class="st0"/><path d="M18.7,20.4c-0.6,0-1,0.5-1,1v1.7c0,0.6,0.5,1,1,1H21c0.6,0,1.1-0.5,1.1-1c0,0,0.1-0.8,0.2-1.8 c0-0.3,0-0.3,0-0.3c0-0.4-0.4-0.7-1-0.7L18.7,20.4L18.7,20.4z" class="st0"/><path d="M22.7,14.4c0.1,0.5,0.7,1,1.2,1s0.7-0.4,0.5-0.9c0,0-0.5-2.1-0.9-2.3c-0.4-0.2-0.9-0.5-1.1-0.5 c-0.2,0-0.3,0.4-0.1,0.9C22.5,13,22.7,14.4,22.7,14.4z" class="st0"/><path d="M22.2,17.1c-0.1-0.6-0.6-1-1.1-1h-2.4c-0.6,0-1,0.5-1,1v1.5c0,0.6,0.5,1,1,1h2.6c0.6,0,1-0.5,1-1L22.2,17.1z" class="st0"/><path d="M18.7,15.3H21c0.6,0,0.9-0.4,0.8-1c0,0-0.2-1.4-0.4-1.8c-0.2-0.5-0.8-0.9-1.4-0.9h-1.2c-0.6,0-1,0.5-1,1v1.6 C17.7,14.9,18.2,15.3,18.7,15.3z" class="st0"/><path d="M10.1,19.7L10.1,19.7c0.6,0,1.1-0.5,1.1-1l0.1-1.5c0.1-0.6-0.4-1-0.9-1c-0.6,0-1.1,0.5-1.2,1l-0.1,1.5 C9.1,19.2,9.6,19.7,10.1,19.7z" class="st0"/><path d="M15.6,16.1h-2.3c-0.6,0-1.1,0.5-1.1,1l-0.1,1.5c0,0.6,0.4,1,1,1h2.5c0.6,0,1-0.5,1-1v-1.5 C16.7,16.6,16.2,16.1,15.6,16.1z" class="st0"/><path d="M15.6,11.7h-1.1c-0.6,0-1.2,0.4-1.4,0.9c-0.2,0.5-0.4,1.8-0.4,1.8c-0.1,0.5,0.2,1,0.8,1h2.2c0.6,0,1-0.5,1-1 v-1.6C16.7,12.1,16.2,11.7,15.6,11.7z" class="st0"/><path d="M23.7,24.9c-0.5,0-0.9,0.4-1,1l-0.3,1.4c-0.1,0.5,0,1,0.3,1c0.3,0,0.7-0.4,1-0.9l0.6-1.5 C24.4,25.4,24.2,24.9,23.7,24.9z" class="st0"/><path d="M19.9,29.1h-1.2c-0.6,0-1,0.5-1,1V31c0,0.6,0.5,1,1,1h0.2c0.6,0,1.2-0.4,1.4-0.9 C20.4,30.6,20.5,29.1,19.9,29.1z" class="st0"/><path d="M11.4,23.2c0,0-0.1-0.8-0.2-1.8c0-0.3,0-0.3,0-0.3c0-0.4-0.5-0.7-1-0.7h0c-0.6,0-1,0.4-1,0.8c0,0,0,0,0.1,0.4 c0.1,0.9,0.2,1.5,0.2,1.5c0.1,0.5,0.6,1,1.1,1C11.1,24.2,11.5,23.7,11.4,23.2z" class="st0"/><path d="M15.6,20.4h-2.5c-0.6,0-1,0.3-1,0.7c0,0,0,0,0,0.3c0.1,0.9,0.2,1.8,0.2,1.8c0.1,0.6,0.6,1,1.1,1h2.2 c0.6,0,1-0.5,1-1v-1.7C16.7,20.9,16.2,20.4,15.6,20.4z" class="st0"/><path d="M20.9,24.9h-2.1c-0.6,0-1,0.5-1,1v1.4c0,0.6,0.5,1,1,1h1.4c0.6,0,1.1-0.4,1.3-1l0.3-1.4 C21.8,25.4,21.4,24.9,20.9,24.9z" class="st0"/><path d="M22.3,29.1c-0.2,0-0.7,0.9-0.8,1.2c-0.1,0.3,0,0.3,0.3,0.1C22,30.1,22.5,29.1,22.3,29.1z" class="st0"/><path d="M15.6,29.1h-1.1c-0.6,0-0.6,1.5-0.4,2c0.2,0.5,0.8,0.9,1.4,0.9h0.1c0.6,0,1-0.5,1-1v-0.8 C16.7,29.6,16.2,29.1,15.6,29.1z" class="st0"/><path d="M12.2,29.1c-0.2,0-0.2,0.3,0.1,0.7c0.3,0.4,0.9,0.9,0.8,0.5C12.9,30,12.4,29.1,12.2,29.1z" class="st0"/><path d="M15.6,24.9h-2c-0.6,0-0.9,0.4-0.8,1l0.3,1.4c0.1,0.5,0.7,1,1.3,1h1.3c0.6,0,1-0.5,1-1V26 C16.7,25.4,16.2,24.9,15.6,24.9z" class="st0"/><path d="M12.2,27.4l-0.3-1.4c-0.1-0.6-0.6-1-1.1-1c-0.5,0-0.7,0.4-0.5,1l0.6,1.5c0.2,0.5,0.7,0.9,1,0.9 C12.1,28.4,12.3,27.9,12.2,27.4z" class="st0"/></g></svg>