<?xml version="1.0" encoding="utf-8"?>
<!-- Generator: Adobe Illustrator 19.1.0, SVG Export Plug-In . SVG Version: 6.00 Build 0)  -->
<!DOCTYPE svg PUBLIC "-//W3C//DTD SVG 1.1//EN" "http://www.w3.org/Graphics/SVG/1.1/DTD/svg11.dtd">
<svg version="1.1" id="Layer_8" xmlns="http://www.w3.org/2000/svg" xmlns:xlink="http://www.w3.org/1999/xlink" x="0px" y="0px"
	 viewBox="0 0 32 32" enable-background="new 0 0 32 32" xml:space="preserve">
<path fill="#464646" d="M31.4,24.3C28,30.7,18,32,16,31.9l0,0c-2,0.2-12-1.2-15.4-7.6c-0.4-1-1-2.2-0.2-3.4s6.9,1.4,6.9,1.4
	c-0.1,1-0.5,3-0.5,3c3.6,2.1,9,2.2,9.2,2.2l0,0c0,0,5.5-0.1,9.2-2.2c0,0-0.4-2.1-0.5-3c0,0,6.1-2.5,6.9-1.4
	C32.4,22,31.8,23.2,31.4,24.3z M16,23.8L16,23.8c-4.6,0-8.7-1.9-8.7-1.9s0-3.2,1.6-7.9c0.6-1.7,2.1-3.3,4.2-1.9s2.8,1.3,2.8,1.3l0,0
	c0.1,0,0.9,0.1,2.8-1.3c2.1-1.4,3.7,0.3,4.3,1.9c1.6,4.7,1.6,7.9,1.6,7.9S20.5,23.9,16,23.8z"/>
</svg>
