<svg xmlns="http://www.w3.org/2000/svg" xmlns:xlink="http://www.w3.org/1999/xlink" id="Layer_9" x="0" y="0" enable-background="new 0 0 32 32" version="1.1" viewBox="0 0 32 32" xml:space="preserve"><path fill="#464646" d="M6.7,27.3c0,0,5.1,3.7,6.5,4.1c1.4,0.4,4.3,1,6.2-0.6c1.9-1.6,5.2-3.4,6.3-3.7c1.1-0.3,3.3-0.8,4.5,0	c1.3,0.8-4.9-3.2-4.9-3.2s-2.3-1.2-3.9-0.9c-1.7,0.2-5.4,1.8-7.7,2.5C11.4,26.2,6.7,27.3,6.7,27.3z"/><path fill="#464646" d="M25.9,27.2c0,0,1.9-0.4,3-0.3c1.4,0.1,2,0.5,2,0.5s1.1,0.9,1.1,1.2c0,0.3,0.2,0.9-0.4,1.1	c-0.6,0.2-1,0.1-1.6-0.2C29.3,29.2,25.9,27.2,25.9,27.2z"/><path fill="#464646" d="M25.1,23.4c0,0-2.2-1-3.3-0.9c-1.1,0.1-6.4,1.8-7.8,2.5c-1.5,0.6-7.1,2.1-7.8,2.2c-1.7,0.1-3,0-4.5,0.4	C0.8,27.7,0,27.9,0,27.9S-0.1,22,0.6,20c0.3-0.7,0.7-4.9,4.6-7c2.4-1.3,8.1-1.9,10.9-1.3c2.8,0.6,6.4,2,7.3,4.9	C24.3,19.6,25.1,23.4,25.1,23.4z"/><path fill="#464646" d="M9.8,11.5c0,0,0.6-0.2,1-0.2s1,0,1,0s-0.3-0.5-0.7-0.6c-0.4,0-0.5,0-0.9,0.1C9.9,11,9.8,11.5,9.8,11.5z"/></svg>