<svg xmlns="http://www.w3.org/2000/svg" xmlns:xlink="http://www.w3.org/1999/xlink" id="Layer_5" x="0" y="0" enable-background="new 0 0 32 32" version="1.1" viewBox="0 0 32 32" xml:space="preserve"><g><path fill="#464646" d="M14.9,7.1c-0.2-0.1-0.3-0.1-0.5,0c-0.2,0.1-0.3,0.2-0.3,0.4C11.6,17.5,6.1,22,6,22.1 c-0.1,0.1-0.1,0.1-0.2,0.2h21.8C26.3,12.6,15.3,7.3,14.9,7.1z"/><path fill="#464646" d="M28.6,23.6h-1H5.9H3.5c-1,0-1.8,0.8-1.8,1.8v4.8c0,1,0.8,1.8,1.8,1.8h25.2c1,0,1.8-0.8,1.8-1.8v-4.8 C30.4,24.4,29.6,23.6,28.6,23.6z"/><path fill="#464646" d="M14.2,1.9c-1.7,0-3.1,1.4-3.1,3.2c0,1.7,1.4,3.2,3.1,3.2c1.7,0,3-1.4,3-3.2C17.2,3.3,15.8,1.9,14.2,1.9z"/></g></svg>