<?xml version="1.0" encoding="utf-8"?>
<!-- Generator: Adobe Illustrator 19.1.0, SVG Export Plug-In . SVG Version: 6.00 Build 0)  -->
<!DOCTYPE svg PUBLIC "-//W3C//DTD SVG 1.1//EN" "http://www.w3.org/Graphics/SVG/1.1/DTD/svg11.dtd">
<svg version="1.1" id="Layer_2" xmlns="http://www.w3.org/2000/svg" xmlns:xlink="http://www.w3.org/1999/xlink" x="0px" y="0px"
	 viewBox="0 0 32 32" enable-background="new 0 0 32 32" xml:space="preserve">
<path fill="#464646" d="M30.3,25.9c0,2.5-6.5,6.1-14.3,6.1S1.7,28.4,1.7,25.9c0-1.9,2.2-3,5.7-3.8c-0.2-4.4-1.5-9.5-1.7-10.4
	c0,0,0-0.1,0-0.1c0-0.9,4.7-1.7,10.4-1.7s10.4,0.7,10.4,1.7c0,0,0,0.1,0,0.1c-0.2,0.9-1.5,6-1.7,10.4C28.1,23,30.3,24,30.3,25.9z
	 M24.6,22.5c-0.9,2.5-6.4,2.6-8.6,2.7c-2.2-0.1-7.8-0.2-8.6-2.7c0,1,0,2-0.1,2.8c1.8,3.2,8.7,3.1,8.7,3.1s6.9,0.1,8.7-3.1
	C24.6,24.5,24.6,23.6,24.6,22.5z"/>
</svg>
