<svg xmlns="http://www.w3.org/2000/svg" xmlns:xlink="http://www.w3.org/1999/xlink" id="Layer_6" x="0" y="0" enable-background="new 0 0 32 32" version="1.1" viewBox="0 0 32 32" xml:space="preserve"><g><path fill="#464646" d="M24,0c-1.5,0-2.8,0.4-4,1c-1.2-0.6-2.5-1-4-1c-1.5,0-2.8,0.4-4,1c-1.2-0.6-2.5-1-4-1C3.6,0,0,3.3,0,7.4 c0,4,3.4,7.3,7.7,7.4h16.5c4.3-0.1,7.7-3.4,7.7-7.4C32,3.3,28.4,0,24,0z"/></g><rect width="25.6" height="5.2" x="3.2" y="26.8" fill="#464646"/><path fill="#464646" d="M3,8.5c0.1,0,0.3,0,0.4,0V26h4.8V8.5h2V26h4.9V8.5h2V26h4.9V8.5h2V26h4.8V8.5c0.1,0,0.3,0,0.4,0H3z"/></svg>