<?xml version="1.0" encoding="utf-8"?>
<!-- Generator: Adobe Illustrator 19.1.0, SVG Export Plug-In . SVG Version: 6.00 Build 0)  -->
<!DOCTYPE svg PUBLIC "-//W3C//DTD SVG 1.1//EN" "http://www.w3.org/Graphics/SVG/1.1/DTD/svg11.dtd">
<svg version="1.1" id="Layer_7" xmlns="http://www.w3.org/2000/svg" xmlns:xlink="http://www.w3.org/1999/xlink" x="0px" y="0px"
	 viewBox="0 0 32 32" enable-background="new 0 0 32 32" xml:space="preserve">
<path fill="#464646" d="M29.7,25.8c0,0-1.4,0.1-2.4-0.1c0,0,0.2,1.5,0.2,1.8c0,0-2.2,1.7-6.1,2.3c-4,0.6-7.2,0.6-8.9,0.6
	c-1.1,0-3.7,0-5.9-0.5c0,0-1.6-0.4-2-0.8l0.3-2.4c1.8,1.7,8.1,1.4,10.2,1.3c9.8-0.5,12.1-2.1,12.1-2.1c-0.8-6.8-1.3-6.9-2.4-8.5
	c-1.1-1.6-4.5-2.6-9-2.5c-4.5,0.1-7.4,1.5-9.1,3.2C5.6,19.4,5.1,23,5,25.1c-2.5-0.6-3-0.6-4,0.3c-1,0.9-0.9,2.2-0.5,2.8
	c0.2,0.3,1.4,2.5,6.3,3.4c3.8,0.7,11.4,0.4,15.6-0.3c4.1-0.7,5.6-1.5,6.5-2c0.9-0.5,2.5-1.7,2.6-3.5C31.5,25.7,31.5,24.3,29.7,25.8z
	 M17.6,16.8c0.1-0.5,1.3-0.7,2.6-0.4c1.3,0.3,2.4,0.9,2.3,1.4c-0.1,0.5-1.3,0.7-2.6,0.4C18.5,17.9,17.5,17.3,17.6,16.8z M4.5,29.8
	C4.5,29.8,4.5,29.8,4.5,29.8L4.5,29.8C4.5,29.8,4.4,29.8,4.5,29.8c-0.1,0-0.2,0-0.3-0.1c-0.1,0-0.2,0-0.3-0.1
	c-0.1,0-0.2-0.1-0.3-0.1c-0.2-0.1-0.5-0.2-0.8-0.3c-0.1,0-0.2-0.1-0.2-0.1c0,0-0.1,0-0.1-0.1c0,0-0.1,0-0.1-0.1
	C2.1,29,2,28.9,1.8,28.8c0,0-0.1-0.1-0.1-0.1c0,0-0.1-0.1-0.1-0.1c-0.1-0.1-0.1-0.1-0.2-0.2c-0.1-0.1-0.1-0.1-0.2-0.2
	c0,0-0.1-0.1-0.1-0.1c0,0-0.1-0.1-0.1-0.1c0,0,0,0,0-0.1c0,0,0,0,0-0.1c0,0,0-0.1-0.1-0.1c0-0.1-0.1-0.1-0.1-0.2
	c0-0.1-0.1-0.1-0.1-0.2c0,0,0-0.1,0-0.1c0,0,0-0.1,0-0.1c0,0,0-0.1,0-0.1c0,0,0-0.1,0-0.1c0-0.1,0-0.1,0-0.2c0-0.1,0-0.1,0-0.2
	c0,0,0-0.1,0-0.1c0,0,0,0,0-0.1c0,0,0,0,0,0c0,0,0-0.1,0-0.1c0,0,0-0.1,0-0.1l0,0c0,0,0,0,0,0c0,0,0,0,0,0c0,0,0,0,0,0.1
	c0,0,0,0,0,0.1c0,0,0,0,0,0c0,0,0,0,0,0.1c0,0,0,0.1,0,0.1c0,0,0,0.1,0,0.1c0,0.1,0,0.1,0,0.2c0,0.1,0,0.1,0.1,0.2c0,0,0,0.1,0,0.1
	c0,0,0,0.1,0,0.1c0,0.1,0.1,0.1,0.1,0.2c0,0.1,0.1,0.1,0.1,0.2c0,0,0,0.1,0.1,0.1c0,0,0,0,0,0l0,0c0.1,0.1,0.2,0.2,0.4,0.3
	c0.1,0.1,0.3,0.2,0.4,0.3c0.1,0.1,0.3,0.2,0.4,0.3c0.1,0.1,0.3,0.2,0.4,0.2c0.3,0.1,0.6,0.3,0.8,0.4c0.1,0.1,0.2,0.1,0.3,0.2
	c0.1,0,0.2,0.1,0.2,0.1C4.3,29.7,4.4,29.8,4.5,29.8C4.4,29.8,4.5,29.8,4.5,29.8C4.5,29.8,4.5,29.8,4.5,29.8z M31.2,25.8
	C31.2,25.8,31.2,25.8,31.2,25.8C31.2,25.8,31.2,25.8,31.2,25.8C31.2,25.8,31.2,25.8,31.2,25.8c-0.1,0-0.1-0.1-0.2-0.1
	c-0.1,0-0.1,0-0.2,0.1c0,0-0.1,0-0.1,0.1c0,0-0.1,0.1-0.1,0.1c-0.1,0.1-0.2,0.2-0.3,0.3c-0.1,0.1-0.2,0.2-0.3,0.3
	c-0.1,0.1-0.2,0.2-0.3,0.3c-0.1,0.1-0.2,0.2-0.3,0.3c-0.2,0.2-0.5,0.5-0.7,0.7c-0.2,0.2-0.5,0.4-0.7,0.5c-0.2,0.1-0.4,0.2-0.5,0.3
	c-0.1,0-0.1,0.1-0.2,0.1c0,0-0.1,0-0.1,0c0,0,0,0,0,0c0,0,0,0,0,0l0,0c0,0,0,0,0.1,0c0,0,0.1,0,0.1-0.1c0.1-0.1,0.3-0.2,0.5-0.3
	c0.2-0.1,0.4-0.3,0.6-0.5c0.2-0.2,0.4-0.4,0.7-0.7c0.1-0.1,0.2-0.2,0.3-0.4c0.1-0.1,0.2-0.2,0.3-0.3c0.1-0.1,0.2-0.2,0.3-0.3
	c0.1-0.1,0.2-0.2,0.3-0.2c0.1-0.1,0.2-0.1,0.3-0.1c0.1,0,0.1,0,0.2,0c0,0,0.1,0,0.1,0c0,0,0,0,0.1,0c0,0,0,0,0,0
	C31.2,25.7,31.2,25.7,31.2,25.8C31.2,25.7,31.2,25.7,31.2,25.8C31.2,25.8,31.2,25.8,31.2,25.8C31.2,25.8,31.2,25.8,31.2,25.8
	C31.3,25.8,31.3,25.8,31.2,25.8z"/>
</svg>
