<?xml version="1.0" encoding="utf-8"?>
<!-- Generator: Adobe Illustrator 19.1.0, SVG Export Plug-In . SVG Version: 6.00 Build 0)  -->
<!DOCTYPE svg PUBLIC "-//W3C//DTD SVG 1.1//EN" "http://www.w3.org/Graphics/SVG/1.1/DTD/svg11.dtd">
<svg version="1.1" id="Layer_4" xmlns="http://www.w3.org/2000/svg" xmlns:xlink="http://www.w3.org/1999/xlink" x="0px" y="0px"
	 viewBox="0 0 32 32" enable-background="new 0 0 32 32" xml:space="preserve">
<path fill="#464646" d="M0,26.8C0,29.2,1.4,32,4,32h24.1c2.6,0,4-2.8,4-5.2H0z"/>
<path fill="#464646" d="M24.2,18.2l-3.4,3.4l-4.7-4.7l-4.7,4.7l-3.4-3.4C7,21.3,6.6,24,6.6,24h18.9C25.5,24,25.1,21.3,24.2,18.2z"/>
<path fill="#464646" d="M16.1,14.5l4.7,4.7l2.9-2.9c-1.5-4.4-3.9-9-7.6-9c-3.7,0-6.2,4.6-7.6,9l2.9,2.9L16.1,14.5z"/>
</svg>
