<?xml version="1.0" encoding="utf-8"?>
<!-- Generator: Adobe Illustrator 19.1.0, SVG Export Plug-In . SVG Version: 6.00 Build 0)  -->
<!DOCTYPE svg PUBLIC "-//W3C//DTD SVG 1.1//EN" "http://www.w3.org/Graphics/SVG/1.1/DTD/svg11.dtd">
<svg version="1.1" id="Layer_1" xmlns="http://www.w3.org/2000/svg" xmlns:xlink="http://www.w3.org/1999/xlink" x="0px" y="0px"
	 viewBox="0 0 32 32" enable-background="new 0 0 32 32" xml:space="preserve">
<path fill="#464646" d="M16,32c-8,0-14.4-3-14.4-6.8c0-2.3,2.1-4.7,7-5.6c-5,4-3,5.7-2.3,6.9c0.8,1.3,5.6,4,15.1,2.3
	c7.5-1.4,5.8-6.7,4.4-8.7c3.3,1,4.7,3.2,4.7,5C30.4,29,23.9,32,16,32z M24,26.2c-7.1,4-15.4,0-15.4,0C4.9,24.4,8,21.9,8,21.9
	s2.6-3.3,2-4c-0.5-0.7-0.2-3,0.6-5.5s2.1-3.8,0.9-5.5S3,7.8,3,7.8c3.9-8,15.6-9,16.6-4.6c1,4.4,1.7,4.9,1.7,4.9
	c2,4.5,2.9,11.8,2.9,11.8C26.9,24.9,24,26.2,24,26.2z"/>
</svg>
