<svg xmlns="http://www.w3.org/2000/svg" xmlns:xlink="http://www.w3.org/1999/xlink" id="Layer_1" x="0" y="0" version="1.1" viewBox="0 0 32.7 32" xml:space="preserve" style="enable-background:new 0 0 32.7 32"><style type="text/css">.st0{fill:#454546}</style><g><g><path d="M24.2,18.1c-1.1,0-2,0.7-2,1.6v10.6c0,0.9,1,1.6,2,1.6c1.1,0,2-0.7,2-1.6v0c0,0-0.1,0,0,0 c0,0-0.1-10.8-0.1-10.8C26.1,18.7,25.2,18.1,24.2,18.1z" class="st0"/><path d="M31.5,21.3c0.6-1.7,0.9-3.4,0.9-5.2c0-2.2-0.4-4.2-1.2-6.1c0.2-0.7,0.1-1.5-0.4-2.1 c-2.9-4.4-7.5-7.2-12.7-7.7c-0.2,0-0.4,0-0.5-0.1c-0.1,0-0.2,0-0.3,0c-0.3,0-0.6,0-1,0c0,0,0,0,0,0c0,0,0,0,0,0 c-0.1,0-0.2,0-0.3,0c-0.2,0-0.4,0-0.5,0C10,0.3,4.9,3.1,1.8,7.7C1.4,8.4,1.3,9.2,1.5,9.9c-0.8,1.9-1.2,4-1.2,6.2 c0,1.9,0.3,3.8,1,5.5c-0.8,1-1.2,2.3-1.2,3.7c0,3.2,2.7,5.9,5.9,5.9V19.3c-0.9,0-1.6,0.2-2.3,0.5c-0.4-1.2-0.6-2.5-0.6-3.8 c0-1.5,0.2-2.9,0.7-4.3c1,0.2,2-0.2,2.6-1.1c2.3-3.3,6-5.3,10-5.3c4.1,0,7.8,2,10.1,5.4c0.5,0.8,1.4,1.2,2.2,1.2 c0.2,0,0.3,0,0.5,0c0.4,1.3,0.7,2.7,0.7,4.1c0,1.1-0.2,2.3-0.5,3.4c-0.7-0.3-1.5-0.5-2.4-0.6v11.9c3.2-0.1,5.9-2.7,5.9-5.9 C32.7,23.5,32.3,22.3,31.5,21.3z" class="st0"/><path d="M8.4,18.3c-1.1,0-2,0.7-2,1.6v0c0,0,0.1,0,0,0c0,0,0.1,10.8,0.1,10.8c0.1,0.8,1,1.4,2,1.4c1.1,0,2-0.7,2-1.6 V19.9C10.4,19,9.5,18.3,8.4,18.3z" class="st0"/></g></g></svg>