<svg xmlns="http://www.w3.org/2000/svg" xmlns:xlink="http://www.w3.org/1999/xlink" id="Layer_1" x="0" y="0" version="1.1" viewBox="0 0 32 32" xml:space="preserve" style="enable-background:new 0 0 32 32"><style type="text/css">.st0{fill:#474647}</style><path d="M27.9,7.3c0.2-1.1,0.4-2.3,0.5-3.5c0.5-4.4-6.2-5.1-6.7-0.7l0,0.2c-0.1,0.3-0.2,0.6-0.3,0.9	c-1.7,0-3.3,1-3.8,3.1c-1.3,5-5.6,9.4-11.7,11.4c-2.2,0.7-3,2.4-2.9,4.1c-4.3,0.9-3.1,7.4,1.3,6.6c1-0.2,1.9-0.4,2.8-0.6	c0.7,2.1,2.8,3.7,5.6,2.8c9.1-2.9,16.4-9.8,18.7-18.8C32.2,9.8,30.2,7.7,27.9,7.3z M6.3,20c6.5-2.1,11.1-6.8,12.5-12.3	c0.4-1.4,1.4-2.1,2.5-2.2c0,0.2,0,0.4,0,0.5c-0.3,1.3-0.7,2.6-1.2,3.9c-0.2,0.1-0.4,0.3-0.5,0.4c-0.8,0.9-1,1.8-1,2.7	c-0.7,1.1-1.5,2.2-2.4,3.1c-0.3,0.1-0.5,0.2-0.6,0.2c-1,0.5-1.6,1.3-2.1,2.2c-0.7,0.6-1.5,1.1-2.4,1.5c-0.6,0-1.2,0.1-1.8,0.6	C9.1,20.8,9,21,8.9,21.2c-1,0.4-2.1,0.8-3.3,1.1c-0.1,0-0.2,0-0.3,0c-0.3,0-0.7,0-1,0.1C4.3,21.4,4.9,20.4,6.3,20z M3.4,25.3	c-0.6,0.6-1.6-0.3-0.9-1c2.2-2.1,3.4-0.9,5.6-1.2c0.5-0.1,1.2-1.4,1.7-1.8c1.7-1.3,2.8,0.5,4.2-1.9c0.5-0.9,1-1.8,2-2.3	c0.9-0.5,3.5-0.9,3.5-2.2c0-0.6-0.1-1-0.1-1.6c0-0.9,0.1-1.7,0.8-2.5c0.4-0.5,2.3-1.2,2.3-1.7c0-2.3-1.1-3.2,0.2-6.1	c0.4-0.8,1.6-0.2,1.2,0.6c-1.1,2.4-0.1,3.4-0.1,5.5c0,1.9-1.8,1.7-2.7,2.6c-0.4,0.4-0.4,0.8-0.4,1.6c0,0.6,0.1,1,0.1,1.6	c0,2.4-2.6,2.6-4.2,3.4c-1.7,0.9-1.2,3.7-4.5,3.8c-0.5,0-1,0-1.4,0.3c-0.9,0.7-0.8,1.9-2.3,2.1C6.5,24.8,5,23.8,3.4,25.3z M30.1,12.5c-2.1,8.4-9,15-17.8,17.8c-2,0.6-3.4-0.5-3.9-2c-0.5-1.6,0-3.3,2-3.9C17.5,22.1,22.6,17,24.1,11c0.5-2,2.2-2.7,3.8-2.3	C29.5,9.1,30.7,10.5,30.1,12.5z" class="st0"/></svg>