<svg xmlns="http://www.w3.org/2000/svg" id="Layer_1" viewBox="0 0 32 32"><style>.st0{fill:#ce2027}</style><path d="M15.7 30.7c-2.9 0-5.9-.9-8.4-2.5C4 26 1.8 22.8 1.1 19.1c-.7-3.5 0-7.3 2.1-10.4 2-2.9 4.9-4.9 8.3-5.6 3.2-.6 6.7.1 9.4 2 2.6 1.8 4.4 4.5 5 7.5.5 2.9-.1 6-1.8 8.4-1.6 2.3-4 3.9-6.8 4.4-2.6.4-5.3-.2-7.5-1.7-2-1.5-3.4-3.6-3.8-6-.4-2.3.2-4.6 1.6-6.5 1.3-1.7 3.2-2.9 5.2-3.1 2-.3 4 .3 5.5 1.5 1.4 1.1 2.3 2.7 2.5 4.5.2 1.6-.3 3.3-1.4 4.6-1 1.1-2.3 1.8-3.7 1.9-1.3.1-2.7-.4-3.6-1.4-.8-.8-1.2-1.9-1.2-3 0-1 .6-2.1 1.5-2.7.7-.5 1.5-.6 2.3-.4.7.2 1 .9.8 1.6-.2.7-.9 1-1.6.8h-.1c-.2.1-.4.5-.4.7 0 .4.1.8.5 1.1.4.4 1.1.7 1.7.6.9-.1 1.6-.6 1.9-1 .6-.7.9-1.7.8-2.7-.1-1.1-.7-2.1-1.6-2.8-1-.8-2.3-1.2-3.6-1-1.4.2-2.7 1-3.6 2.1-1 1.3-1.4 3-1.1 4.6.3 1.7 1.2 3.3 2.7 4.3 1.6 1.2 3.6 1.6 5.6 1.3 2.1-.4 3.9-1.5 5.1-3.3 1.3-1.9 1.8-4.3 1.4-6.5-.4-2.4-1.8-4.5-3.9-5.9-2.2-1.5-4.9-2.1-7.5-1.6-2.7.5-5.1 2.1-6.7 4.5-1.7 2.5-2.3 5.6-1.7 8.5.6 3 2.4 5.7 5.1 7.5 2.8 1.8 6.2 2.5 9.4 1.9 5.8-1.2 10.2-6.4 10.5-12.5 0-.7.6-1.2 1.3-1.2.7 0 1.2.6 1.2 1.3-.4 7.2-5.7 13.4-12.5 14.8-.7.4-1.7.5-2.7.5z" class="st0"><animateTransform attributeName="transform" begin="0s" dur="2.5s" from="0 16 16" repeatCount="indefinite" to="360 16 16" type="rotate"/></path></svg>