<svg xmlns="http://www.w3.org/2000/svg" xmlns:xlink="http://www.w3.org/1999/xlink" id="Layer_3" x="0" y="0" version="1.1" viewBox="0 0 31.4 32" xml:space="preserve" style="enable-background:new 0 0 31.4 32"><style type="text/css">.st0{fill:#343434}</style><path d="M23,8.9c-5.1,0-7.4-8.3-7.4-8.3s-2.3,8.3-7.4,8.3c-0.4,0-0.9-0.1-1.4-0.2L0.4,6.3c0,0,4.8,5,5.2,10.4	c0,0,0.1,0.3,0.6,0.8c-0.1,1-0.1,2.5-0.2,3.4c0,1.5,0.2,3.1,0.6,4.5c0.8,2.3,2.4,3.6,3.9,4.7c1.6,1.1,3.3,2.2,4.9,1.7	c1.7,0.5,3.4-0.6,4.9-1.7c1.5-1.1,3.1-2.4,3.9-4.7c0.5-1.3,0.7-2.9,0.6-4.5c0-0.9,0-2.4-0.2-3.4c0.6-0.4,0.6-0.8,0.6-0.8	c0.4-5.4,5.2-10.4,5.2-10.4l-6.4,2.4C24,8.8,23.5,8.9,23,8.9z M23.6,21c-0.2,0.4-0.5,0.7-0.8,1c-0.6,0.6-1.1,1.2-1.5,2.2	c-0.1,0.3-0.2,0.6-0.4,0.9c-0.2,0.6-0.6,1-0.9,1.5c-0.3,0.4-0.5,0.8-0.8,1c-0.4,0.3-0.8,0.4-1.3,0.4c-0.3,0-0.7,0-1-0.3	c-0.3-0.3-0.4-0.7-0.6-1c-0.1-0.2-0.4-0.4-0.6-0.5c0,0,0,0,0,0c0,0,0,0-0.1,0c0,0,0,0-0.1,0c0,0,0,0,0,0c-0.2,0.1-0.4,0.3-0.6,0.5	c-0.2,0.3-0.4,0.8-0.6,1c-0.3,0.3-0.7,0.3-1,0.3c-0.4,0-0.9-0.1-1.3-0.4c-0.3-0.2-0.6-0.6-0.8-1c-0.3-0.5-0.6-0.9-0.9-1.5	c-0.1-0.3-0.2-0.6-0.4-0.9c-0.4-0.9-1-1.5-1.5-2.2c-0.3-0.3-0.6-0.6-0.8-1c-0.3-0.5-0.5-1.9-0.7-3.1c1.3,0.6,3.8,1.3,8.7,1.3	c4.9,0,7.4-0.6,8.7-1.3C24.1,19.1,23.8,20.5,23.6,21z M24.8,9.7l2.8-1c-1.3,2-2.8,4.8-3.1,7.7c-0.3,0.3-1.8,1.7-8.9,1.7	S7,16.7,6.7,16.4C6.4,13.5,5,10.7,3.7,8.7l2.8,1c0,0,0.1,0,0.1,0C7.1,9.9,7.7,10,8.2,10c3.8,0,6.2-3.6,7.4-6.3	C16.9,6.4,19.2,10,23,10C23.6,10,24.2,9.9,24.8,9.7C24.8,9.7,24.8,9.7,24.8,9.7z" class="st0"/><g><ellipse cx="14.6" cy="19.8" class="st0" rx=".2" ry=".6" transform="matrix(0.2588 -0.9659 0.9659 0.2588 -8.2939 28.7764)"/><ellipse cx="16.7" cy="19.8" class="st0" rx=".6" ry=".2" transform="matrix(0.9659 -0.2588 0.2588 0.9659 -4.5548 4.984)"/></g><g><path d="M14.4,11.7V11h2.4v0.7l-0.6,0.1V16l0.6,0.1v0.7h-2.4v-0.7L15,16v-4.2L14.4,11.7z" class="st0"/></g><polygon points="15.6 7.3 16 8.4 17.1 8.4 16.2 9.1 16.5 10.1 15.6 9.5 14.7 10.1 15.1 9.1 14.2 8.4 15.3 8.4" class="st0"/><path d="M18.6,21.4l0.1,1.1c0,0.1-0.1,0.2-0.2,0.3l-0.9,0.1c-0.1,0-0.2-0.1-0.3-0.2l-0.1-1l-0.7,0.1l0.1,1.5	c0,0.1-0.1,0.2-0.2,0.3l-0.9,0.1c-0.1,0-0.2-0.1-0.3-0.2L15,21.8l-0.7,0.1l0.2,1c0,0.1-0.1,0.3-0.2,0.3l-0.9,0.2	c-0.1,0-0.3-0.1-0.3-0.2l-0.2-1.1l-1.8,0.2c0,0,2.4,3.1,5.2,2.7c2.8-0.4,3.5-3.7,3.5-3.7L18.6,21.4z" class="st0"/></svg>