<svg xmlns="http://www.w3.org/2000/svg" xmlns:xlink="http://www.w3.org/1999/xlink" id="Layer_2" x="0" y="0" version="1.1" viewBox="0 0 36.9 32" xml:space="preserve" style="enable-background:new 0 0 36.9 32"><style type="text/css">.st0{fill:#333}</style><path d="M18.5,0.6L0.4,31.9h36.1L18.5,0.6z M18.8,27.9c3.1,0,5.6-2.5,5.6-5.6c0-1.1-0.3-2-0.8-2.9	c2.8,1.6,4.7,4.1,4.7,4.1S24.1,29,18.6,29s-9.7-5.5-9.7-5.5s2-2.8,5.2-4.3c-0.6,0.9-0.9,2-0.9,3.2C13.2,25.4,15.6,27.9,18.8,27.9z M14.8,21.3c0-0.9,0.7-1.5,1.5-1.5s1.5,0.7,1.5,1.5c0,0.9-0.7,1.5-1.5,1.5S14.8,22.1,14.8,21.3z M30.1,24.3l3.3,5.6H23.2	C26.6,28.5,29,25.8,30.1,24.3z M27.4,19.7c-2.1-1.9-5.1-3.7-8.8-3.7s-6.7,1.8-8.8,3.7l8.8-15.3L27.4,19.7z M7,24.3	c1.1,1.4,3.5,4.1,7,5.6H3.8L7,24.3z" class="st0"/></svg>