<?xml version="1.0" encoding="utf-8"?>
<!-- Generator: Adobe Illustrator 19.1.0, SVG Export Plug-In . SVG Version: 6.00 Build 0)  -->
<svg version="1.1" id="Layer_3" xmlns="http://www.w3.org/2000/svg" xmlns:xlink="http://www.w3.org/1999/xlink" x="0px" y="0px"
	 viewBox="0 0 32 32" style="enable-background:new 0 0 32 32;" xml:space="preserve">
<style type="text/css">
	.st0{fill:#F4C328;}
	.st1{fill:#61A34D;}
</style>
<g>
	<path class="st0" d="M5.8,10.7c-4.3,4.3-5.4,10.5-3,14.9C2.1,26.1,1.5,27,1.5,28c0,1.6,1.3,2.8,2.8,2.8c1,0,1.9-0.5,2.4-1.3
		c4.4,2.4,10.6,1.4,14.9-3c5.1-5.1,5.7-12.8,1.3-17.1S10.9,5.6,5.8,10.7z"/>
	<path class="st1" d="M27.8,6.4c-1.2,0-2,0.3-2.6,0.7c0.4-0.6,0.7-1.4,0.7-2.6c0-2.7-1.9-3.7-1.9-3.7s-1.9,1-1.9,3.7
		c0,2.9,1.9,3.7,1.9,3.7s1,1.9,3.7,1.9s3.7-1.9,3.7-1.9S30.5,6.4,27.8,6.4z"/>
</g>
</svg>
