<svg xmlns="http://www.w3.org/2000/svg" xmlns:xlink="http://www.w3.org/1999/xlink" id="Layer_3" x="0" y="0" version="1.1" viewBox="0 0 32 32" xml:space="preserve" style="enable-background:new 0 0 32 32"><style type="text/css">.st0{fill:#f4c328}.st1{fill:#61a34d}</style><g><path d="M5.8,10.7c-4.3,4.3-5.4,10.5-3,14.9C2.1,26.1,1.5,27,1.5,28c0,1.6,1.3,2.8,2.8,2.8c1,0,1.9-0.5,2.4-1.3 c4.4,2.4,10.6,1.4,14.9-3c5.1-5.1,5.7-12.8,1.3-17.1S10.9,5.6,5.8,10.7z" class="st0"/><path d="M27.8,6.4c-1.2,0-2,0.3-2.6,0.7c0.4-0.6,0.7-1.4,0.7-2.6c0-2.7-1.9-3.7-1.9-3.7s-1.9,1-1.9,3.7 c0,2.9,1.9,3.7,1.9,3.7s1,1.9,3.7,1.9s3.7-1.9,3.7-1.9S30.5,6.4,27.8,6.4z" class="st1"/></g></svg>