<?xml version="1.0" encoding="utf-8"?>
<!-- Generator: Adobe Illustrator 19.1.0, SVG Export Plug-In . SVG Version: 6.00 Build 0)  -->
<!DOCTYPE svg PUBLIC "-//W3C//DTD SVG 1.1//EN" "http://www.w3.org/Graphics/SVG/1.1/DTD/svg11.dtd">
<svg version="1.1" xmlns="http://www.w3.org/2000/svg" xmlns:xlink="http://www.w3.org/1999/xlink" x="0px" y="0px"
	 viewBox="0 0 32 32" style="enable-background:new 0 0 32 32;" xml:space="preserve">
<style type="text/css">
	.st0{display:none;}
	.st1{fill:#D5AACF;}
	.st2{fill:#353535;}
</style>
<g id="Layer_1" class="st0">
	
		<image style="display:inline;overflow:visible;" width="786" height="1017" xlink:href="BA184B68.jpg"  transform="matrix(1 0 0 1 -578 -341)">
	</image>
</g>
<g id="Layer_2">
	<path class="st1" d="M27,16.1c0,0,2.1-1.2,1.6-4.1C28.4,7.1,23,7,23,7s-1.1-7-6.7-7S9.1,7,9.1,7S5.5,7,4,9.4
		C1.7,12.9,4.9,16,4.9,16s-3.8,2.7-2.5,6.7c1.7,3.4,5,3.5,5,3.5s0.1,1.8,1.2,2.5c1.1,0.7,2.9,0.4,2.9,0.4s0.2,2.2,1.4,2.6
		c1.2,0.3,1.7-0.8,1.7-0.8s0.2,1.2,1.4,1.2c1.2,0,1.4-1.2,1.4-1.2s1.1,1.5,2.2,0.6c1.1-0.9,1.1-2.3,1.1-2.3s1.7,0.4,2.7-0.4
		s1.3-2.5,1.3-2.5s3.8-0.1,4.9-3.8C30.8,18.7,27,16.1,27,16.1z M17.7,6.1l0.4,2.3L16,7.4l-2.1,1.1l0.4-2.3l-1.7-1.6L15,4.2l1-2.1
		l1,2.1l2.3,0.3L17.7,6.1z"/>
	<circle class="st2" cx="10.5" cy="13.2" r="0.8"/>
	<path class="st2" d="M16.1,15.5c-3.3,0-6.1,3.1-6.1,6.9h12.1C22.2,18.6,19.5,15.5,16.1,15.5z"/>
	<g>
		<path class="st2" d="M13.9,12.5c-0.1,0-0.1,0-0.2,0L9.3,9.9C9.1,9.8,9.1,9.6,9.1,9.5c0.1-0.1,0.3-0.2,0.4-0.1l4.5,2.5
			c0.1,0.1,0.2,0.3,0.1,0.4C14.1,12.4,14,12.5,13.9,12.5z"/>
	</g>
	<g>
		<path class="st2" d="M18.3,12.7c-0.1,0-0.2,0-0.2-0.1c-0.1-0.1-0.1-0.3,0-0.4l3.4-3.4c0.1-0.1,0.3-0.1,0.4,0
			c0.1,0.1,0.1,0.3,0,0.4l-3.4,3.4C18.5,12.7,18.4,12.7,18.3,12.7z"/>
	</g>
	<circle class="st2" cx="21.2" cy="13.2" r="0.8"/>
</g>
</svg>
