<svg xmlns="http://www.w3.org/2000/svg" xmlns:xlink="http://www.w3.org/1999/xlink" id="Layer_5" x="0" y="0" version="1.1" viewBox="0 0 32 32" xml:space="preserve" style="enable-background:new 0 0 32 32"><style type="text/css">.st0{fill:#474647}</style><g><path d="M19.9,19.6c1.2,0,2.2-1,2.2-2.2V17V9.5c0-1.2-1-2.2-2.2-2.2s-2.2,1-2.2,2.2v7.9C17.8,18.6,18.7,19.6,19.9,19.6 z" class="st0"/><path d="M16.3,17.4L16.3,17.4l-1.2,1.9C15.9,19,16.3,18.3,16.3,17.4z" class="st0"/><path d="M6.3,19.6c0,0.3,0,0.5,0,0.7l4.9-7.4L9.3,2C9.2,0.9,8.2,0.2,7.1,0.2c-0.6,0-1.2,0.3-1.6,0.7 C5.1,1.3,4.9,1.9,4.9,2.5l1.3,15.6V19.6z" class="st0"/><path d="M13.4,11.3c0.9-0.2,1.8,0,2.5,0.5c0.1,0.1,0.3,0.2,0.4,0.3V9.5c0-1.2-1-2.2-2.2-2.2S12,8.3,12,9.5v2V12 C12.4,11.7,12.8,11.5,13.4,11.3z" class="st0"/><path d="M27.7,3.9c0.1-0.6-0.1-1.2-0.6-1.7c-0.4-0.4-1-0.7-1.6-0.7c-1.1,0-2,0.8-2.1,2L23,7.7c0.3,0.5,0.5,1.2,0.5,1.8 v7.7c0,1.8-1.3,3.5-3.1,3.8c-1.4,0.2-2.6-0.4-3.4-1.4c-0.5,0.7-1.3,1.2-2.2,1.4v1.6c0,0.4-0.3,0.7-0.7,0.7c-0.4,0-0.7-0.3-0.7-0.7 v-3.2l2.3-3.8c0.5-0.9,0.3-2-0.6-2.6c-0.4-0.3-0.9-0.4-1.5-0.3c-0.5,0.1-0.9,0.4-1.2,0.8L6.9,22c-0.1,0.2-0.2,0.4-0.1,0.7 c0.6,1.7,1.8,3.2,3.4,4.3c0.2,0.1,0.3,0.3,0.3,0.6v3.5c0,0.4,0.3,0.7,0.7,0.7h10.1c0.4,0,0.7-0.3,0.7-0.7v-2.1 c0-0.3,0.2-0.5,0.4-0.7c2.3-1,3.9-3.3,3.9-5.9l0-4.3L27.7,3.9z" class="st0"/></g></svg>