<?xml version="1.0" encoding="utf-8"?>
<!-- Generator: Adobe Illustrator 23.0.3, SVG Export Plug-In . SVG Version: 6.00 Build 0)  -->
<svg version="1.1" xmlns="http://www.w3.org/2000/svg" xmlns:xlink="http://www.w3.org/1999/xlink" x="0px" y="0px"
	 viewBox="0 0 32.3 32" style="enable-background:new 0 0 32.3 32;" xml:space="preserve">
<style type="text/css">
	.st0{display:none;}
	.st1{display:inline;}
	.st2{fill:#333333;}
	.st3{display:inline;fill:#EE262F;}
</style>
<g id="Layer_1" class="st0">
	<g class="st1">
		<g transform="translate(50 50) scale(0.69 0.69) rotate(0) translate(-50 -50)">
			<g>
				<circle class="st2" cx="2.8" cy="15.8" r="3.2"/>
				<path class="st2" d="M31.4,5.6c-1.9-4-3.5-7-4.7-9.2c1-1.7,1.9-3.6,2.4-5.6C29.4-10.2,32-19.6,28-22c-1.1-0.7-2.3-0.4-4-0.1
					c-1.9,0.4-3.5,1.1-6.3,2.6c-1.1,0.6-2.1,1.2-3.1,1.8c-3.4-1.9-7.5-2.9-11.6-2.9c-0.1,0-0.1,0-0.2,0c-0.1,0-0.2,0-0.3,0
					c-4,0.1-8,1-11.4,2.9c-1-0.6-2-1.2-3.1-1.8c-2.8-1.5-4.4-2.2-6.3-2.6c-1.7-0.4-2.9-0.6-4,0.1c-4.1,2.4-1.5,11.8-1.2,12.9
					c0.6,2,1.4,3.8,2.4,5.6c-1.2,2.2-2.8,5.2-4.7,9.2c-1,2-1.7,4.4-2.3,6.7c-0.4,1.5-0.1,3,0.9,4.2c1,1.2,2.5,1.8,4,1.6
					c1.7-0.2,3.6-0.3,6.4-0.1l1.5,0.1c3.3,0.3,4.4,0.4,7.4,0.9c1.3,1.1,3,2.4,5.3,3.4c0.7,0.3,1.4,0.6,2,0.8
					c1.2,0.4,2.4,0.6,3.6,0.6s2.5-0.2,3.6-0.6c0.6-0.2,1.3-0.5,2-0.8c2.2-1,3.9-2.3,5.2-3.4c3-0.6,4.1-0.7,7.4-0.9l1.5-0.1
					c2.8-0.2,4.7-0.1,6.4,0.1c1.5,0.2,3-0.5,4-1.6c1-1.2,1.3-2.7,0.9-4.2C33.1,10,32.4,7.7,31.4,5.6z M-7.6,5.1c0-1.1,0.9-2,2-2
					s2,0.9,2,2s-0.9,2-2,2C-6.7,7.1-7.6,6.2-7.6,5.1z M11.3,7.1c-1.1,0-2-0.9-2-2s0.9-2,2-2s2,0.9,2,2S12.4,7.1,11.3,7.1z
					 M30.2,14.3c-0.1,0.1-0.4,0.5-1,0.4c-0.9-0.1-1.9-0.2-3-0.2c-0.1-0.2-0.2-0.4-0.3-0.6C24.6,11.3,23,8,20.1,5
					c-3.4-3.4-5.9-4.8-8.2-5.9c-0.5-0.2-0.9-0.3-1.4-0.3c-1.3,0-2.6,0.8-3.1,2L5.1,5.5C4.4,7.2,5,9.1,6.5,10
					c1.5,0.8,2.6,1.7,3.5,2.6c1.1,1.2,1.8,2.4,2.3,3.4c-0.2,0.1-0.3,0.2-0.5,0.3c-1.2,1.1-2.8,2.3-4.7,3.1c-0.6,0.3-1.2,0.5-1.7,0.7
					c-1.6,0.6-3.4,0.6-5,0c-0.5-0.2-1.1-0.4-1.7-0.7c-2-0.9-3.5-2.1-4.7-3.1c-0.1-0.1-0.2-0.2-0.3-0.2c0.4-1,0.9-2.2,2.1-3.5
					c0.8-0.9,2-1.7,3.5-2.6c1.6-0.9,2.2-2.8,1.4-4.4L-1.6,1c-0.6-1.2-1.7-2.1-3.1-2.2c-0.5,0-1.1,0.1-1.6,0.3
					c-2.3,1.1-4.9,2.5-8.2,5.9c-2.9,3-4.5,6.2-5.8,8.9c-0.1,0.2-0.2,0.4-0.3,0.6c-1.2,0-2.2,0.1-3,0.2c-0.5,0.1-0.9-0.3-1-0.4
					c-0.1-0.2-0.4-0.5-0.2-1.1c0.6-2.1,1.3-4.3,2.1-6.1c2.2-4.5,3.9-7.7,5.1-9.9c0.3-0.6,0.3-1.3-0.1-1.8c-1.1-1.7-2-3.6-2.6-5.5
					c-1.3-4.4-1.1-8.3-0.5-8.9c0.3,0,1,0.2,1.6,0.3c1.3,0.3,2.6,0.7,5.3,2.3c1.3,0.7,2.5,1.5,3.8,2.3c0,0,0.1,0,0.1,0.1
					c0,0,0.1,0,0.1,0.1c0.1,0,0.1,0,0.2,0.1c0,0,0.1,0,0.1,0c0.1,0,0.1,0,0.2,0c0,0,0.1,0,0.1,0c0.1,0,0.1,0,0.2,0c0,0,0.1,0,0.1,0
					c0.1,0,0.1,0,0.2-0.1c0,0,0.1,0,0.1,0c0.1,0,0.1-0.1,0.2-0.1c0,0,0,0,0.1,0c2.7-1.7,5.9-2.6,9.2-2.9v4c0,1,0.8,1.7,1.7,1.7
					s1.7-0.8,1.7-1.7v-4c0.6,0,1.1,0.1,1.6,0.2v1.5c0,1,0.8,1.7,1.7,1.7s1.7-0.8,1.7-1.7v-0.7c1.4,0.5,2.8,1.1,4.1,1.9
					c0.1,0,0.1,0.1,0.2,0.1c0,0,0.1,0,0.1,0c0.2,0.1,0.4,0.1,0.6,0.1c0.3,0,0.7-0.1,1-0.3c1.2-0.8,2.4-1.5,3.7-2.3
					c2.7-1.5,4-2,5.3-2.3c0.6-0.1,1.3-0.3,1.6-0.3c0.6,0.6,0.8,4.4-0.5,8.9c-0.6,2-1.4,3.8-2.6,5.5c-0.4,0.5-0.4,1.3-0.1,1.8
					c1.3,2.2,2.9,5.4,5.1,9.9c0.9,1.8,1.5,4,2.1,6.2C30.6,13.8,30.4,14.1,30.2,14.3z"/>
				<path class="st2" d="M24.3-16.2c0-0.1-0.1-0.3-0.3-0.3c-0.1-0.1-0.3-0.1-0.4,0c-2.6,0.9-5.2,2.3-6.7,4c-0.2,0.2-0.2,0.5,0,0.7
					l4,5.1c0.1,0.1,0.3,0.2,0.4,0.2c0,0,0,0,0,0c0.2,0,0.3-0.1,0.5-0.2c0.6-0.9,1.5-2.5,2-3.9C24.5-13.1,24.6-15.2,24.3-16.2z"/>
				<path class="st2" d="M-18.3-16.5c-0.1,0-0.3,0-0.4,0c-0.1,0.1-0.2,0.2-0.3,0.3c-0.3,1-0.2,3,0.6,5.5c0.4,1.4,1.3,3,2,3.9
					c0.1,0.1,0.3,0.2,0.5,0.2c0,0,0,0,0,0c0.2,0,0.3-0.1,0.4-0.2l4-5.1c0.2-0.2,0.2-0.5,0-0.7C-13.1-14.2-15.6-15.7-18.3-16.5z"/>
			</g>
		</g>
	</g>
</g>
<g id="Layer_2" class="st0">
	<g class="st1">
		<g>
			<g>
				<g>
					<path class="st2" d="M21.4-13.9c-2.9-1.8-7.2-2.9-12.2-3.4c-0.6-2.9-3.2-5.2-6.3-5.2s-5.8,2.2-6.3,5.2c-5,0.5-9.3,1.6-12.2,3.4
						c-1.2,0.7-0.6,2.5,0.7,2.5h35.7C22-11.4,22.5-13.2,21.4-13.9z M-0.7-17.5c0.6-1.3,1.9-2.2,3.5-2.2s2.9,0.9,3.5,2.2
						c-1.1,0-2.3-0.1-3.5-0.1C1.6-17.6,0.4-17.5-0.7-17.5z"/>
					<path class="st2" d="M18-8.7h-30.4c-0.6,0-1.1,0.5-1,1.1l3.5,27.9c0.2,2.1,2,3.6,4.1,3.6h17.2c2.1,0,3.8-1.5,4.1-3.6l3.5-27.9
						C19-8.2,18.6-8.7,18-8.7z M-3.6,17.9C-3.7,17.9-3.7,17.9-3.6,17.9c-0.7,0-1.3-0.5-1.3-1.1L-6.4-1.4C-6.5-2-6-2.6-5.3-2.7
						C-4.7-2.7-4-2.3-4-1.6l1.5,18.2C-2.4,17.3-2.9,17.9-3.6,17.9z M4,16.7c0,0.7-0.5,1.2-1.2,1.2s-1.2-0.5-1.2-1.2V-1.5
						c0-0.7,0.5-1.2,1.2-1.2S4-2.2,4-1.5V16.7z M10.5,16.8c0,0.6-0.6,1.1-1.2,1.1c0,0,0,0-0.1,0c-0.7,0-1.2-0.6-1.1-1.3L9.6-1.6
						c0-0.7,0.6-1.2,1.3-1.1c0.7,0,1.2,0.6,1.1,1.3L10.5,16.8z"/>
				</g>
			</g>
		</g>
	</g>
</g>
<g id="Layer_3" class="st0">
	<g class="st1">
		<g transform="translate(50 50) scale(0.69 0.69) rotate(0) translate(-50 -50)">
			<g>
				<path class="st2" d="M-3.5-11.6c-14.3,0.3-17.4,9.4-13.2,17.4c1.4,2.6,3.8,7.7,3.9,12.6c0.2,7.3,9.4,7.1,11.8,1
					c0.9-2.2,0.2-4.8-1.5-6.6c-7.5-7.3-0.1-13,2.1-15.3C4-7,1.2-11.7-3.5-11.6z"/>
				
					<ellipse transform="matrix(0.1471 -0.9891 0.9891 0.1471 12.4176 -21.1583)" class="st2" cx="-6.1" cy="-17.8" rx="3.4" ry="2.4"/>
				
					<ellipse transform="matrix(0.1471 -0.9891 0.9891 0.1471 18.3208 -14.8886)" class="st2" cx="0.5" cy="-18.1" rx="4.1" ry="2.8"/>
				
					<ellipse transform="matrix(0.9996 -2.874918e-02 2.874918e-02 0.9996 0.4664 -0.3286)" class="st2" cx="-11.2" cy="-16.4" rx="1.7" ry="2.5"/>
				
					<ellipse transform="matrix(0.9879 -0.1554 0.1554 0.9879 2.0545 -2.4328)" class="st2" cx="-14.5" cy="-14.4" rx="1.4" ry="1.8"/>
				
					<ellipse transform="matrix(0.9996 -2.873568e-02 2.873568e-02 0.9996 0.3251 -0.4979)" class="st2" cx="-17.2" cy="-11.6" rx="1.2" ry="1.7"/>
				<path class="st2" d="M15.1-14.4c-1.1,0-2.1,0.3-2.9,0.9C8.8-11,12.6-7,12.6-7c1.7,1.7,7.8,6.4,1.7,12.3c-1.5,1.4-2,3.4-1.3,5.2
					c1.9,4.9,9.3,5.1,9.5-0.8c0.1-3.9,2-8,3.2-10.2C29.1-6.9,26.6-14.2,15.1-14.4z"/>
				<ellipse transform="matrix(0.9891 -0.1471 0.1471 0.9891 3.0247 2.318)" class="st2" cx="17.2" cy="-19.3" rx="1.9" ry="2.7"/>
				<ellipse transform="matrix(0.9891 -0.1471 0.1471 0.9891 2.9615 1.4645)" class="st2" cx="11.4" cy="-19.3" rx="2.2" ry="3.2"/>
				
					<ellipse transform="matrix(2.873136e-02 -0.9996 0.9996 2.873136e-02 38.8116 3.611)" class="st2" cx="21.3" cy="-18.2" rx="2" ry="1.5"/>
				<ellipse transform="matrix(0.1554 -0.9879 0.9879 0.1554 36.6692 9.6723)" class="st2" cx="24" cy="-16.6" rx="1.5" ry="1.1"/>
				
					<ellipse transform="matrix(2.873719e-02 -0.9996 0.9996 2.873719e-02 39.6893 12.1726)" class="st2" cx="26.1" cy="-14.3" rx="1.4" ry="1"/>
			</g>
		</g>
	</g>
</g>
<g id="Layer_4" class="st0">
	<g class="st1">
		<g transform="translate(50 50) scale(0.69 0.69) rotate(0) translate(-50 -50)">
			<g>
				<path class="st2" d="M21.6-21.5c-1-0.8-2.2-1.1-3.5-0.9c-1.2,0.2-2.4,0.8-3.1,1.8l-5.8,7.6l-12.5,1.5c-0.4,0-0.7,0.2-0.9,0.5
					L-21,10.8c-1.2,1.6-0.9,3.8,0.7,5.1l9.1,7c0.8,0.6,1.7,0.8,2.7,0.7c1-0.1,1.7-0.6,2.3-1.4L10.6,0v0l11.7-14.9
					C23.9-17,23.7-19.9,21.6-21.5z M6,1.5l-0.7,1L-0.7-2c-0.2-0.2-0.5-0.1-0.7,0.1l-1.2,1.5c-0.2,0.2-0.1,0.5,0.1,0.7l5.9,4.5
					L1.7,7.1l-5.9-4.5c-0.2-0.2-0.5-0.1-0.7,0.1l-1.2,1.6C-6.2,4.4-6.2,4.7-6,4.9l5.9,4.5l-1.7,2.2l-5.9-4.5C-7.9,7-8.2,7-8.4,7.2
					l-1.2,1.5C-9.8,9-9.7,9.3-9.5,9.5l5.9,4.5l-1.7,2.2l-5.9-4.5c-0.2-0.2-0.5-0.1-0.7,0.1l-1.2,1.5c-0.2,0.2-0.1,0.5,0.1,0.7
					l5.9,4.5l-0.7,1c-0.2,0.3-0.6,0.5-0.9,0.5c-0.4,0-0.7-0.1-1-0.3l-7.8-6c-0.6-0.5-0.7-1.4-0.3-2l13.9-18c0.2-0.3,0.6-0.5,0.9-0.5
					c0.4,0,0.7,0.1,1,0.3l7.8,6C6.3,0,6.4,0.9,6,1.5z"/>
			</g>
		</g>
	</g>
</g>
<g id="Layer_5">
	<g>
		<g transform="translate(50 50) scale(0.69 0.69) rotate(0) translate(-50 -50)">
			<g>
				<path class="st2" d="M0.9-22.6c-12.7,0-23.1,10.4-23.1,23.1s10.4,23.1,23.1,23.1S24,13.2,24,0.5S13.6-22.6,0.9-22.6z M0.9,21.4
					C-10.6,21.4-20,12.1-20,0.5s9.4-20.9,20.9-20.9S21.8-11,21.8,0.5S12.4,21.4,0.9,21.4z"/>
				<path class="st2" d="M12.2-13.2c0.2-0.4,0.2-0.8-0.1-1.2c-0.2-0.5-0.6-0.9-1.1-1.2c-1.1-0.6-2.3-0.5-2.7,0.2
					c-0.2,0.4-0.2,0.8,0.1,1.2c0.1,0.2,0.3,0.4,0.5,0.6s0.4,0.4,0.7,0.5c0.5,0.3,1.1,0.5,1.6,0.4C11.6-12.6,12-12.8,12.2-13.2z"/>
				<path class="st2" d="M-5-10.1c0.3,0.3,0.7,0.5,1.1,0.5l0,0l0,0c-0.1,1,0.4,1.8,1.1,2.3c0.2,0.2,0.5,0.2,0.7,0.3
					C-1.4-7-0.5-7.2,0.1-7.8c0.5-0.1,1-0.4,1.3-0.8C1.8-9,2-9.5,2-10.1c0-0.7-0.3-1.3-0.8-1.7c-0.1-0.2-0.2-0.4-0.4-0.6
					c-0.2-0.2-0.3-0.3-0.5-0.5c-0.3-0.2-0.5-0.2-0.8-0.3c-0.3-0.1-0.6,0-0.9,0.1c-0.6,0.2-1.1,0.5-1.6,1c-0.2-0.2-0.3-0.3-0.5-0.3
					c-0.2-0.1-0.4-0.1-0.6-0.1c-0.6,0-1.1,0.4-1.3,0.9c-0.1,0.2-0.1,0.4-0.1,0.6s0.1,0.4,0.1,0.6C-5.1-10.3-5.1-10.2-5-10.1z"/>
				<path class="st2" d="M6.9-11.1c-0.2,0-0.4,0.1-0.6,0.1c-0.4,0.1-0.8,0.3-1.1,0.6C5.1-10.3,5-10.1,4.8-9.9
					C3.2-9.8,1.9-8.5,1.9-6.9c0,1.3,0.8,2.4,1.9,2.9c0.1,0,0.1,0,0.1,0.1C4-4.3,4.3-4.6,4.8-4.6s0.8,0.3,0.8,0.8
					C6.9-4.1,7.9-5.1,8-6.4c0.8-0.4,1.3-1.2,1.3-2.2c0-0.7-0.3-1.3-0.7-1.7C8.2-10.8,7.6-11.1,6.9-11.1z"/>
				<path class="st2" d="M15.3-9.4c-0.3-0.4-0.6-0.7-1-0.9c-0.3-0.1-0.6-0.2-1-0.2c-0.4,0-0.7,0.1-1,0.2C11.7-10,11.3-9.6,11-9
					c-0.1,0.3-0.2,0.6-0.2,1c0,0.4,0.1,0.7,0.2,1c0.3,0.6,0.7,1.1,1.3,1.3c0.3,0.1,0.6,0.2,1,0.2c0.7,0,1.3-0.3,1.7-0.7
					c0.5-0.5,0.7-1.1,0.7-1.7C15.8-8.6,15.6-9,15.3-9.4z"/>
				<path class="st2" d="M11.7-2.5c-0.2,0-0.3,0.1-0.4,0.1c-0.4,0.2-0.7,0.6-0.7,1s0.3,0.8,0.7,1c0.1,0.1,0.3,0.1,0.4,0.1
					c0.6,0,1.1-0.5,1.1-1.1C12.8-2,12.3-2.5,11.7-2.5z"/>
				<circle class="st2" cx="-10.1" cy="-13.4" r="1.1"/>
				<path class="st2" d="M14.8-12.7c0.2,0,0.4-0.1,0.5-0.2c-0.5-0.5-0.9-1-1.4-1.4l0,0c-0.1,0.2-0.1,0.3-0.1,0.5
					c0,0.3,0.1,0.6,0.3,0.8C14.2-12.8,14.4-12.7,14.8-12.7z"/>
				<circle class="st2" cx="5.7" cy="13.6" r="0.5"/>
				<path class="st2" d="M-3.1-4.8c-0.3,0.2-0.4,0.5-0.4,0.7s0.2,0.5,0.4,0.7s0.6,0.3,0.9,0.3s0.7-0.1,0.9-0.3
					C-1-3.6-0.8-3.8-0.8-4.1S-1-4.6-1.2-4.8s-0.6-0.3-0.9-0.3C-2.5-5.1-2.8-5-3.1-4.8z"/>
				<path class="st2" d="M-0.3,7.2L-0.3,7.2c-1.6,0-2.9,1.3-2.9,2.9c0,1.6,1.3,2.4,2.9,2.4l0,0c1,0,1.9-0.3,2.4-0.9
					c0.3-0.4,0.5-0.9,0.5-1.5c0-0.6-0.2-1.2-0.5-1.6C1.6,7.7,0.8,7.2-0.3,7.2z"/>
				<path class="st2" d="M-6.2,9.2c0.3,0.4,0.8,0.6,1.3,0.6c0.2,0,0.4-0.1,0.6-0.1c0.6-0.3,1-0.8,1-1.5c0-0.5-0.2-0.9-0.5-1.1
					C-4,7-4.1,6.9-4.3,6.8s-0.4-0.1-0.6-0.1c-0.7,0-1.2,0.4-1.5,1c-0.1-0.3-0.3-0.5-0.4-0.7C-7,6.7-7.2,6.5-7.4,6.4l0,0
					C-5.3,6-3.8,4.2-3.8,2c0-2.5-2-4.4-4.4-4.4c-0.3,0-0.5,0-0.8,0.1c-0.3,0.1-0.5,0.1-0.7,0.2c0.5-0.5,0.8-1.1,1-1.8
					c0.1-0.3,0.1-0.5,0.1-0.7c0-0.2,0-0.3-0.1-0.5c0.3-0.3,0.5-0.6,0.7-1C-7.8-6.6-7.7-7-7.7-7.5c0-1.7-1.4-3.2-3.2-3.2
					c-0.2,0-0.4,0-0.6,0.1c-0.4,0.1-0.8,0.2-1.1,0.5c-0.3,0.2-0.6,0.5-0.9,0.8c-0.2,0.2-0.3,0.5-0.4,0.7C-14-8.4-14-8.2-14.1-7.8
					l0,0c0.7,0.1,1.2,0.6,1.2,1.3c0,0.8-0.6,1.3-1.3,1.3c-0.6,0-1.1-0.4-1.3-0.9c-0.2,0.4-0.3,0.9-0.3,1.3c0,0.7,0.2,1.4,0.6,1.9
					c-0.3,0.3-0.7,0.3-1,0.1c-0.2-0.2-0.4-0.4-0.6-0.6c-0.1-0.1-0.2-0.3-0.3-0.4c-0.2-0.3-0.3-0.5-0.4-0.7c-0.2-0.4-0.3-0.9-0.4-1.2
					c-0.5,1.6-0.9,3.4-0.9,5.2c0,0.3,0,0.5,0,0.8c0,0.3,0,0.5,0,0.7c0.8-0.3,1.7,0.5,2.1,1.5c0.4,1.1,0,2.2-0.8,2.5
					c-0.2,0.1-0.5,0.1-0.7,0c0,0.1,0.1,0.2,0.1,0.3c0.5,1.6,1.1,3.2,1.9,4.7c0.1-0.1,0.1-0.3,0.2-0.3c0.3-0.2,0.8-0.1,1,0.3
					c0.3,0.4,0.3,0.9,0,1.1l0,0l0,0c0.2,0.1,0.3,0.2,0.5,0.3c0.5,0.3,1,0.5,1.5,0.5c0.3,0.1,0.5,0.1,0.7,0c-0.3,0.2-0.4,0.5-0.4,0.8
					c0,0.5,0.4,0.9,0.9,0.9s0.9-0.4,0.9-0.9c0-0.4-0.3-0.7-0.6-0.9c0.2-0.1,0.4-0.1,0.6-0.2c0.2,0.1,0.4,0.2,0.6,0.2
					c0.2,0.1,0.5,0.1,0.7,0.1C-7.8,12.1-6.4,10.9-6.2,9.2L-6.2,9.2z M-11.7,7.4c-0.5,0-0.9-0.4-0.9-0.9c0-0.5,0.4-0.9,0.9-0.9
					c0.5,0,0.9,0.4,0.9,0.9C-10.9,7-11.3,7.4-11.7,7.4z M-8.9,4.4c-0.7,0-1.3-0.6-1.3-1.3c0-0.1,0.1-0.2,0.1-0.3
					c-0.2,0.2-0.4,0.3-0.7,0.4c-1,0.3-2.1-0.2-2.3-1.1c-0.2-0.5-0.1-0.9,0.2-1.3c-0.2,0-0.3,0-0.5,0c-0.3-0.7-0.8-1.3-1.5-1.7
					l1.1-0.7l0,0c0.3,0.1,0.5,0.2,0.8,0.3c0.3,0.1,0.6,0.1,0.9,0.1c0.4,0,0.7-0.1,1-0.2c-0.5,0.4-0.8,0.9-1,1.5l0,0
					c0.1-0.1,0.3-0.2,0.4-0.2c1-0.3,2.1,0.2,2.3,1.1c0.1,0.4,0.1,0.7-0.1,1.1C-9.5,2-9.3,1.9-9,1.9c0.7,0,1.3,0.6,1.3,1.3
					C-7.7,3.9-8.2,4.4-8.9,4.4z"/>
				<path class="st2" d="M-3.8,14.6c0-0.7-0.4-1.2-0.9-1.4C-4.9,13-5.1,13-5.3,13c-0.9,0-1.7,0.7-1.5,1.5c0.1,0.6,0.9,0.7,1.5,1.3
					C-5.2,15.9-5.1,16-5,16c0.1,0,0.2,0.1,0.3,0c0.1,0,0.2-0.1,0.3-0.1c0.1-0.1,0.2-0.1,0.3-0.2C-4,15.4-3.8,15-3.8,14.6z"/>
				<path class="st2" d="M-2,19c-0.3-0.3-0.6-0.5-1-0.5c-0.2,0-0.4,0-0.6,0.1s-0.4,0.2-0.5,0.3c-0.2,0.1-0.3,0.3-0.4,0.5
					c0.9,0.3,1.9,0.5,2.9,0.6c0-0.1-0.1-0.2-0.1-0.4C-1.8,19.4-1.9,19.2-2,19z"/>
			</g>
		</g>
	</g>
</g>
<g id="Layer_7" class="st0">
	<g class="st1">
		<g transform="translate(50 50) scale(0.69 0.69) rotate(0) translate(-50 -50)">
			<path class="st2" d="M19.4-13.4c1.2-1,3.3-2.2,5.6-0.9c0.5,0.2,1.1,0.1,1.3-0.4c0.3-0.5,0.1-1.1-0.4-1.3
				c-2.5-1.3-5.4-0.8-7.9,1.3c-1-0.9-2.1-1.8-3.3-2.6c-0.4-0.2-0.9-0.2-1.2,0.1l-2.9,2.9c-2.8-1.5-6.1-2.4-9.5-2.4
				c-11.2,0-20.3,9.1-20.3,20.3c0,11.2,9.1,20.3,20.3,20.3c11.2,0,20.3-9.1,20.3-20.3c0-3.4-0.9-6.7-2.4-9.5L22-8.8
				c0.3-0.3,0.4-0.8,0.1-1.2C21.3-11.2,20.4-12.4,19.4-13.4z M0.5-10.9C-3-10.9-6.4-9.5-8.9-7c-0.2,0.2-0.4,0.3-0.7,0.3
				c-0.3,0-0.5-0.1-0.7-0.3c-0.4-0.4-0.4-1,0-1.4c2.9-2.9,6.7-4.5,10.8-4.5c0.5,0,1,0.4,1,1C1.5-11.3,1.1-10.9,0.5-10.9z"/>
		</g>
	</g>
	<path class="st3" d="M37.1,7.5l-1.2-2.6l0.8-1.2c0.1-0.2,0.1-0.5,0-0.7c-0.1-0.2-0.3-0.4-0.6-0.4H34c-0.4,0-0.7,0.3-0.7,0.7
		C33.3,3.7,33.6,4,34,4h0.9l-0.3,0.5c-0.1,0.2-0.1,0.4,0,0.7l0.8,1.6L34,6.5c-0.2-0.1-0.4,0-0.6,0.1l-0.8,0.7l-0.2-0.8
		c-0.1-0.4-0.5-0.6-0.8-0.5c-0.4,0.1-0.6,0.5-0.5,0.8l0.5,1.8C31.6,8.8,31.8,9,32,9.1c0.1,0,0.1,0,0.2,0c0.2,0,0.3-0.1,0.4-0.2
		L34,7.8l2.4,0.6c0.3,0.1,0.5,0,0.7-0.2C37.2,8,37.2,7.7,37.1,7.5z"/>
	<path class="st3" d="M30.6,3.3c0.1,0,0.2,0.1,0.3,0.1c0.2,0,0.5-0.1,0.6-0.4l0.5-0.9l0.2,0.3c0.2,0.3,0.6,0.3,0.9,0.1
		c0.3-0.2,0.3-0.6,0.1-0.9l-0.9-1.1c-0.1-0.2-0.4-0.3-0.6-0.3c-0.2,0-0.4,0.2-0.5,0.4l-0.9,1.9C30.1,2.8,30.3,3.2,30.6,3.3z"/>
</g>
<g id="Layer_6" class="st0">
	<g class="st1">
		<g transform="translate(50 50) scale(0.69 0.69) rotate(0) translate(-50 -50)">
			<title>Artboard 53</title>
			<path class="st2" d="M40.7,13.9l-12.9-2.6L38,3.7c0.7-0.5,0.9-1.6,0.3-2.3c-0.4-0.5-1-0.8-1.6-0.6L24.1,3.3l11-16.5
				c0.5-0.8,0.3-1.8-0.5-2.3c-0.6-0.4-1.3-0.4-1.8,0L16.2-4.4l2.7-16.1c0.2-0.9-0.5-1.8-1.4-1.9c-0.6-0.1-1.2,0.1-1.6,0.6L4-6.9
				L-7.9-21.8c-0.6-0.7-1.6-0.8-2.3-0.3c-0.5,0.4-0.7,1-0.6,1.6l2.6,15.7l-9.9-7.4c-0.7-0.5-1.8-0.4-2.3,0.3c-0.3,0.4-0.4,1-0.2,1.5
				l6,18.1l-11.5,2.9c-0.9,0.2-1.4,1.1-1.2,2c0.1,0.4,0.4,0.8,0.8,1l16.5,9.9c0.3,0.2,0.6,0.2,0.8,0.2h5l-3.3-13.2l6.6,3.3L2.4,4
				l3.3,9.9l9.9-6.6l-3.3,9.9l9.9-3.3l-5,9.9c0.1,0,0.3,0,0.4,0l23.1-6.6c0.9-0.2,1.4-1.1,1.2-2C41.8,14.5,41.3,14.1,40.7,13.9
				L40.7,13.9z"/>
		</g>
	</g>
</g>
</svg>
