<svg xmlns="http://www.w3.org/2000/svg" xmlns:xlink="http://www.w3.org/1999/xlink" version="1.1" x="0px" y="0px" viewBox="0 0 100 125" enable-background="new 0 0 100 100" xml:space="preserve"><path d="M47.413,98.974c-0.937-0.607-1.702-2.012-1.702-3.132v-9.326c0-1.111-0.796-1.569-1.763-1.029L40,87.702  c-0.97,0.541-2.559,0.541-3.52-0.013l-0.293-0.159c-0.971-0.557-1.756-1.924-1.756-3.038v-0.665c0-1.108,0.789-2.475,1.759-3.024  l7.565-4.293c0.966-0.56,1.759-1.916,1.759-3.03v-4.736c0-1.12-0.768-1.54-1.705-0.94l-4.636,2.983  c-0.937,0.596-1.702,0.184-1.702-0.931v-5.268c0-1.115-0.79-1.566-1.753-1.009l-4.178,2.405c-0.966,0.557-1.756,1.926-1.756,3.038  v8.578c0,1.114-0.776,2.508-1.72,3.096l-0.76,0.468c-0.949,0.587-2.482,0.564-3.414-0.045l-0.177-0.124  c-0.923-0.614-1.686-2.026-1.686-3.146V73.44c0-1.11-0.794-1.57-1.764-1.029l-8.142,4.594c-0.966,0.54-2.599,0.638-3.626,0.203  l-1.254-0.524c-1.022-0.428-1.865-1.702-1.865-2.802v-1.297c0-1.111,0.798-2.457,1.779-2.992l8.689-4.751  c0.982-0.534,0.964-1.383-0.032-1.887l-4.039-2.028c-0.999-0.499-1.809-1.822-1.809-2.937v-0.832c0-1.114,0.803-2.461,1.779-2.995  l0.79-0.439c0.978-0.534,2.562-0.511,3.522,0.06l7.494,4.413c0.962,0.563,2.539,0.57,3.503,0.013l4.119-2.375  c0.967-0.558,1.713-1.043,1.665-1.085c-0.05-0.044-0.886-0.528-1.853-1.078l-4.284-2.464c-0.967-0.551-0.984-1.484-0.04-2.071  l4.135-2.561c0.943-0.594,0.934-1.531-0.034-2.085l-4.094-2.381c-0.965-0.548-2.541-0.54-3.498,0.016l-7.49,4.406  c-0.963,0.564-2.566,0.613-3.565,0.121l-0.494-0.247c-0.996-0.497-1.811-1.809-1.811-2.929v-0.818c0-1.114,0.794-2.468,1.768-3.015  l3.901-2.195c0.973-0.544,0.962-1.428-0.014-1.962l-8.307-4.509c-0.978-0.524-1.779-1.872-1.779-2.985v-1.288  c0-1.11,0.809-2.437,1.8-2.955l0.956-0.491c0.993-0.514,2.595-0.469,3.557,0.078l8.186,4.729c0.965,0.557,1.753,0.102,1.753-1.009  v-4.558c0-1.114,0.757-2.533,1.677-3.155l0.17-0.115c0.921-0.626,2.466-0.679,3.435-0.117l0.809,0.464  c0.964,0.558,1.753,1.928,1.746,3.041l-0.019,8.822c0,1.121,0.786,2.48,1.759,3.038l4.338,2.474  c0.962,0.558,1.754,0.095,1.749-1.019l-0.016-5.049c-0.003-1.118,0.796-1.592,1.779-1.068l4.673,2.51  c0.981,0.534,1.786,0.052,1.786-1.062v-4.741c0-1.111-0.794-2.48-1.759-3.031l-7.568-4.308c-0.971-0.551-1.756-1.914-1.756-3.025  v-0.618c0-1.121,0.786-2.49,1.747-3.047l0.303-0.174c0.965-0.563,2.551-0.573,3.52-0.022l3.945,2.218  c0.971,0.551,1.767,0.08,1.767-1.032V4.178c0-1.113,0.757-2.523,1.69-3.139l0.892-0.58c0.93-0.606,2.457-0.616,3.394-0.007  l0.914,0.6c0.937,0.602,1.703,2.012,1.703,3.125v9.302c0,1.111,0.801,1.583,1.771,1.046l4.2-2.333  c0.976-0.534,2.533-0.476,3.465,0.138l0.512,0.345c0.928,0.61,1.69,2.027,1.69,3.141v0.151c0,1.111-0.794,2.484-1.763,3.031  l-7.949,4.502c-0.967,0.547-1.756,1.91-1.756,3.021v4.741c0,1.114,0.776,1.543,1.726,0.968l4.388-2.67  c0.946-0.578,1.726-0.148,1.726,0.966v5.518c0,1.12,0.806,1.586,1.782,1.062l4.518-2.467c0.982-0.534,1.782-1.874,1.782-2.995  v-9.724c0-1.121,0.826-2.405,1.838-2.881l0.22-0.108c1.009-0.466,2.668-0.479,3.688-0.026l0.385,0.167  c1.019,0.453,1.855,1.726,1.855,2.848v4.751c0,1.118,0.801,1.602,1.782,1.069l8.467-4.575c0.979-0.528,2.558-0.482,3.513,0.088  l0.746,0.459c0.95,0.58,1.73,1.962,1.73,3.083v0.926c0,1.114-0.793,2.474-1.756,3.024l-8.232,4.683  c-0.971,0.551-0.963,1.453,0.002,2l3.813,2.129c0.976,0.548,1.773,1.905,1.773,3.018v0.708c0,1.114-0.799,2.467-1.776,3.001  l-0.267,0.155c-0.972,0.53-2.554,0.511-3.515-0.053l-7.792-4.61c-0.96-0.563-2.515-0.537-3.457,0.055l-4.378,2.792  c-0.94,0.588-0.934,1.563,0.006,2.149l4.11,2.562c0.944,0.593,0.93,1.53-0.037,2.084l-4.263,2.444  c-0.96,0.56-0.949,1.436,0.039,1.957l4.44,2.326c0.988,0.514,2.591,0.491,3.566-0.049l7.743-4.329  c0.972-0.537,2.517-0.458,3.424,0.184l0.315,0.219c0.911,0.653,1.652,2.088,1.652,3.192v0.497c0,1.121-0.793,2.475-1.768,3.024  l-3.545,1.989c-0.97,0.544-0.979,1.466-0.019,2.028l7.782,4.627c0.958,0.57,1.741,1.946,1.741,3.057v1.207  c0,1.114-0.827,2.4-1.839,2.87l-1.085,0.499c-1.018,0.462-2.635,0.385-3.608-0.168l-7.549-4.295  c-0.971-0.551-1.759-0.089-1.759,1.027v4.283c0,1.114-0.794,2.475-1.773,3.015l-0.439,0.253c-0.972,0.54-2.561,0.53-3.522-0.017  l-0.377-0.219c-0.973-0.557-1.759-1.918-1.759-3.031v-8.604c0-1.114-0.79-2.474-1.764-3.03l-4.678-2.663  c-0.962-0.551-1.756-0.09-1.756,1.022v4.745c0,1.114-0.78,1.549-1.73,0.963l-4.384-2.668c-0.949-0.586-1.726-0.147-1.726,0.972  v4.736c0,1.114,0.789,2.47,1.756,3.03l7.564,4.293c0.969,0.55,1.763,1.916,1.763,3.024v0.933c0,1.115-0.821,2.436-1.814,2.929  l-0.203,0.102c-0.993,0.499-2.606,0.453-3.575-0.089l-3.901-2.208c-0.968-0.546-1.762-0.089-1.762,1.023v9.326  c0,1.12-0.768,2.526-1.709,3.125l-0.908,0.578c-0.937,0.61-2.464,0.603-3.399,0L47.413,98.974z"/><text x="0" y="115" fill="#000000" font-size="5px" font-weight="bold" font-family="'Helvetica Neue', Helvetica, Arial-Unicode, Arial, Sans-serif">Created by Lil Squid</text><text x="0" y="120" fill="#000000" font-size="5px" font-weight="bold" font-family="'Helvetica Neue', Helvetica, Arial-Unicode, Arial, Sans-serif">from the Noun Project</text></svg>