<?xml version="1.0" encoding="utf-8"?><!DOCTYPE svg PUBLIC "-//W3C//DTD SVG 1.1//EN" "http://www.w3.org/Graphics/SVG/1.1/DTD/svg11.dtd"><svg version="1.1" xmlns="http://www.w3.org/2000/svg" xmlns:xlink="http://www.w3.org/1999/xlink" x="0px" y="0px" viewBox="-9.55 23.331 100 57.67125" enable-background="new -9.55 23.331 100 46.137" xml:space="preserve"><g><path d="M57.389,46.436c0,8.123-5.514,14.945-12.999,16.967h40.039V29.393H44.103C51.734,31.319,57.389,38.207,57.389,46.436z
		 M70.414,40.806c3.11,0,5.632,2.521,5.632,5.63s-2.521,5.629-5.632,5.629c-3.108,0-5.63-2.521-5.63-5.629
		S67.306,40.806,70.414,40.806z"/><path d="M-9.55,23.331v46.137h100V23.331H-9.55z M86.913,65.888H-6.012V26.912h92.926V65.888z"/><path d="M31.994,41.555v0.818c0,1.473,0.517,2.727,1.553,3.764c1.038,1.037,2.29,1.555,3.765,1.555h1.228h3.273h1.226
		c0.57,0,1.052,0.2,1.451,0.596c0.398,0.401,0.598,0.883,0.598,1.45v1.228h-0.033c-0.076,0.393-0.262,0.736-0.557,1.031
		c-0.404,0.403-0.889,0.607-1.459,0.607h-5.727c-0.568,0-1.051-0.199-1.447-0.599c-0.4-0.399-0.598-0.881-0.598-1.449
		c0-0.447-0.16-0.83-0.483-1.154c-0.321-0.322-0.705-0.484-1.153-0.484c-0.447,0-0.831,0.164-1.152,0.484
		c-0.321,0.323-0.482,0.707-0.482,1.154c0,1.474,0.517,2.729,1.553,3.765c1.038,1.037,2.29,1.554,3.765,1.554h1.228v0.819
		c0,0.447,0.158,0.831,0.482,1.154c0.324,0.323,0.708,0.483,1.154,0.483c0.449,0,0.833-0.162,1.153-0.483
		c0.324-0.322,0.484-0.707,0.484-1.154v-0.819v-0.002h1.221c1.475,0,2.728-0.517,3.766-1.554c0.938-0.939,1.451-2.056,1.538-3.354
		h0.019v-1.228c0-1.474-0.521-2.726-1.555-3.764c-1.037-1.036-2.291-1.553-3.766-1.553h-1.226h-3.273h-1.228
		c-0.568,0-1.051-0.199-1.447-0.598c-0.4-0.397-0.598-0.882-0.598-1.448v-0.818c0-0.566,0.197-1.051,0.598-1.449
		c0.396-0.398,0.879-0.596,1.447-0.596h5.727c0.57,0,1.052,0.198,1.449,0.596c0.4,0.398,0.6,0.882,0.6,1.449
		c0,0.447,0.158,0.831,0.483,1.153c0.32,0.322,0.706,0.483,1.151,0.483c0.45,0,0.834-0.162,1.156-0.483
		c0.323-0.322,0.485-0.706,0.485-1.153c0-1.474-0.521-2.727-1.556-3.764c-1.037-1.038-2.291-1.555-3.766-1.555h-1.226v-0.819
		c0-0.446-0.16-0.831-0.484-1.153c-0.32-0.322-0.704-0.482-1.153-0.482c-0.446,0-0.831,0.161-1.154,0.482
		c-0.323,0.322-0.482,0.707-0.482,1.153v0.819h-1.228c-1.474,0-2.727,0.518-3.765,1.555C32.51,38.828,31.994,40.081,31.994,41.555z"/><path d="M22.195,46.436c0-8.229,5.655-15.117,13.287-17.043H-3.531v34.011h38.726C27.709,61.381,22.195,54.559,22.195,46.436z
		 M9.171,52.066c-3.11,0-5.63-2.521-5.63-5.63c0-3.11,2.521-5.631,5.63-5.631s5.631,2.521,5.631,5.631
		C14.802,49.545,12.281,52.066,9.171,52.066z"/></g><text x="-9.55" y="84.468" fill="#000000" font-size="5px" font-weight="bold" font-family="'Helvetica Neue', Helvetica, Arial-Unicode, Arial, Sans-serif">Created by Antonieta Gomez</text><text x="-9.55" y="89.468" fill="#000000" font-size="5px" font-weight="bold" font-family="'Helvetica Neue', Helvetica, Arial-Unicode, Arial, Sans-serif">from the Noun Project</text></svg>