<svg xmlns="http://www.w3.org/2000/svg" xmlns:xlink="http://www.w3.org/1999/xlink" version="1.1" x="0px" y="0px" viewBox="0 0 100 125" enable-background="new 0 0 100 100" xml:space="preserve"><path fill="#000000" d="M83.17,72.633c-0.115,3.151-1.76,6.443-4.363,9.047c-2.6,2.599-5.888,4.244-9.036,4.362l3.827,3.825  c2.723,2.723,7.51,2.214,11.561-1.836c4.052-4.053,4.562-8.841,1.839-11.562L83.17,72.633L83.17,72.633z M8.218,7.689  c4.686-5.235,10.793-3.149,17.362,3.419l55.066,55.067c0.087,0.086,0.17,0.172,0.251,0.262c0.398-0.014,0.817,0.131,1.19,0.506  l7.211,7.226c4.595,4.596,2.778,11.542-1.84,16.161c-4.622,4.62-11.567,6.437-16.164,1.84l-7.218-7.218  c-0.367-0.369-0.515-0.78-0.505-1.174c-0.091-0.084-0.181-0.171-0.269-0.259L20.385,40.6C2.005,22.221,5.118,11.153,8.218,7.689  L8.218,7.689z M9.951,9.238c-1.833,2.048-5.998,11.643,12.077,29.719l42.919,42.919c2.989,2.987,8.083,2.292,12.216-1.841  c4.133-4.132,4.831-9.228,1.841-12.217L23.937,12.752C17.421,6.236,13.087,5.734,9.951,9.238L9.951,9.238z M37.661,29.638  L78.58,70.557c1.094,1.095-0.549,2.737-1.645,1.644L36.017,31.281C34.922,30.186,36.565,28.543,37.661,29.638L37.661,29.638z   M28.364,38.936l40.918,40.919c1.094,1.095-0.548,2.739-1.644,1.643L26.72,40.578C25.625,39.484,27.267,37.841,28.364,38.936  L28.364,38.936z M32.357,36.731l41.935,41.933c1.097,1.097-0.547,2.739-1.644,1.645L30.714,38.374  C29.62,37.279,31.264,35.636,32.357,36.731L32.357,36.731z M35.457,33.632l41.935,41.933c1.096,1.096-0.549,2.741-1.646,1.646  L33.812,35.276C32.717,34.182,34.362,32.537,35.457,33.632L35.457,33.632z"/><path fill="#000000" d="M110.871,4.036c4.683-5.233,10.793-3.148,17.361,3.42L183.3,62.523c0.086,0.086,0.167,0.174,0.251,0.26  c0.396-0.01,0.816,0.133,1.189,0.508l7.208,7.228c4.597,4.595,2.783,11.539-1.838,16.158c-4.621,4.622-11.567,6.438-16.164,1.841  l-7.218-7.218c-0.366-0.369-0.514-0.782-0.503-1.174c-0.092-0.083-0.183-0.173-0.271-0.26l-42.918-42.918  C104.658,18.568,107.77,7.5,110.871,4.036L110.871,4.036z M112.603,5.587c-1.833,2.048-5.997,11.643,12.077,29.718l42.919,42.92  c2.989,2.987,8.084,2.293,12.217-1.84c4.132-4.133,4.83-9.229,1.84-12.218L126.588,9.1C120.072,2.585,115.738,2.083,112.603,5.587  L112.603,5.587z M140.312,25.986l40.918,40.92c1.096,1.094-0.548,2.736-1.644,1.643L138.669,27.63  C137.574,26.535,139.217,24.891,140.312,25.986L140.312,25.986z M131.015,35.284l40.919,40.918c1.096,1.097-0.55,2.739-1.644,1.645  l-40.919-40.919C128.274,35.833,129.92,34.188,131.015,35.284L131.015,35.284z M135.01,33.081l41.933,41.935  c1.096,1.096-0.548,2.739-1.644,1.644l-41.934-41.936C132.27,33.629,133.913,31.986,135.01,33.081L135.01,33.081z M138.11,29.979  l41.933,41.935c1.097,1.096-0.547,2.74-1.644,1.643l-41.933-41.934C135.371,30.527,137.015,28.884,138.11,29.979L138.11,29.979z"/><text x="0" y="115" fill="#000000" font-size="5px" font-weight="bold" font-family="'Helvetica Neue', Helvetica, Arial-Unicode, Arial, Sans-serif">Created by Simon Child</text><text x="0" y="120" fill="#000000" font-size="5px" font-weight="bold" font-family="'Helvetica Neue', Helvetica, Arial-Unicode, Arial, Sans-serif">from the Noun Project</text></svg>