<svg xmlns="http://www.w3.org/2000/svg" xmlns:xlink="http://www.w3.org/1999/xlink" xmlns:sketch="http://www.bohemiancoding.com/sketch/ns" viewBox="0 0 110 137.5" version="1.1" x="0px" y="0px"><title>headphone</title><desc>Created with Sketch.</desc><g stroke="none" stroke-width="1" fill="none" fill-rule="evenodd" sketch:type="MSPage"><g sketch:type="MSArtboardGroup" fill="#000000"><path d="M101.140308,73.6372418 C100.787077,75.0603006 99.6141538,76.288183 98.2295385,76.8700065 C97.5033846,77.2937124 96.6701538,77.5543594 95.7692308,77.5543594 L90.6923077,77.5543594 L90.6923077,86.2014183 C90.6923077,88.930183 88.488,91.1425947 85.7692308,91.1425947 C83.0504615,91.1425947 80.8461538,88.930183 80.8461538,86.2014183 L80.8461538,89.9073006 C80.8461538,92.6360653 78.6418462,94.8484771 75.9230769,94.8484771 C73.2043077,94.8484771 71,92.6360653 71,89.9073006 L71,60.2602418 C71,57.5314771 73.2043077,55.3190653 75.9230769,55.3190653 C78.6418462,55.3190653 80.8461538,57.5314771 80.8461538,60.2602418 L80.8461538,63.9661241 C80.8461538,61.2373594 83.0504615,59.0249477 85.7692308,59.0249477 C88.488,59.0249477 90.6923077,61.2373594 90.6923077,63.9661241 L90.6923077,67.6720065 L92.4153846,67.6720065 C92.8252308,65.6325359 93.1538462,63.3274771 93.1538462,61.17683 C93.1538462,39.1997124 74.6135385,21.4880653 52.4067692,22.969183 C33.7298462,24.2155947 18.5089231,39.2577712 16.9766154,57.9811241 C16.7169231,61.1570653 17.1772308,64.7307712 17.7470769,67.6720065 L19.3076923,67.6720065 L19.3076923,63.9661241 C19.3076923,61.2373594 21.512,59.0249477 24.2307692,59.0249477 C26.9495385,59.0249477 29.1538462,61.2373594 29.1538462,63.9661241 L29.1538462,60.2602418 C29.1538462,57.5314771 31.3581538,55.3190653 34.0769231,55.3190653 C36.7956923,55.3190653 39,57.5314771 39,60.2602418 L39,89.9073006 C39,92.6360653 36.7956923,94.8484771 34.0769231,94.8484771 C31.3581538,94.8484771 29.1538462,92.6360653 29.1538462,89.9073006 L29.1538462,86.2014183 C29.1538462,88.930183 26.9495385,91.1425947 24.2307692,91.1425947 C21.512,91.1425947 19.3076923,88.930183 19.3076923,86.2014183 L19.3076923,77.5543594 L13.9230769,77.5543594 C12.5089231,77.5543594 11.2424615,76.94783 10.344,75.9892418 C9.61169231,75.3592418 9.04184615,74.5464183 8.80553846,73.6495947 C8.80553846,73.6495947 7,66.80483 7,61.17683 C7,33.5519477 30.2836923,11.2845359 58.1889231,13.1041241 C82.056,14.6605947 101.365538,34.0893006 102.899077,58.0441241 C103.332308,64.8024183 101.140308,73.6372418 101.140308,73.6372418" sketch:type="MSShapeGroup"/></g></g><text x="0" y="125" fill="#000000" font-size="5px" font-weight="bold" font-family="'Helvetica Neue', Helvetica, Arial-Unicode, Arial, Sans-serif">Created by Jamie Rothwell</text><text x="0" y="130" fill="#000000" font-size="5px" font-weight="bold" font-family="'Helvetica Neue', Helvetica, Arial-Unicode, Arial, Sans-serif">from the Noun Project</text></svg>