<svg xmlns="http://www.w3.org/2000/svg" xmlns:xlink="http://www.w3.org/1999/xlink" id="Layer_1" x="0" y="0" version="1.1" viewBox="0 0 32 32" xml:space="preserve" style="enable-background:new 0 0 32 32"><style type="text/css">.st0{fill:#474647}</style><g id="intimacy"><path d="M16,0C7.2,0,0,7.2,0,16c0,5.3,4,9.7,9.1,10.2C9.8,29.5,12.6,32,16,32s6.2-2.5,6.8-5.7c5.1-0.6,9.1-5,9.1-10.2 C32,7.2,24.8,0,16,0z M2.6,16c0-6.8,5.1-12.4,11.7-13.3l-5,20.9C5.6,23.2,2.6,19.9,2.6,16z M11.7,25.1l3-12.8v16.8 C13,28.6,11.7,27,11.7,25.1z M17.3,29.2V12.4l3,12.8C20.3,27,19,28.6,17.3,29.2z M22.6,23.7l-5-20.9C24.3,3.6,29.4,9.2,29.4,16 C29.4,19.9,26.4,23.2,22.6,23.7z" class="st0"/></g></svg>