<?xml version="1.0" encoding="utf-8"?>
<!-- Generator: Adobe Illustrator 19.1.0, SVG Export Plug-In . SVG Version: 6.00 Build 0)  -->
<svg version="1.1" id="Layer_1" xmlns="http://www.w3.org/2000/svg" xmlns:xlink="http://www.w3.org/1999/xlink" x="0px" y="0px"
	 viewBox="0 0 32 32" style="enable-background:new 0 0 32 32;" xml:space="preserve">
<style type="text/css">
	.st0{fill:#474647;}
</style>
<g id="intimacy">
	<path class="st0" d="M16,0C7.2,0,0,7.2,0,16c0,5.3,4,9.7,9.1,10.2C9.8,29.5,12.6,32,16,32s6.2-2.5,6.8-5.7c5.1-0.6,9.1-5,9.1-10.2
		C32,7.2,24.8,0,16,0z M2.6,16c0-6.8,5.1-12.4,11.7-13.3l-5,20.9C5.6,23.2,2.6,19.9,2.6,16z M11.7,25.1l3-12.8v16.8
		C13,28.6,11.7,27,11.7,25.1z M17.3,29.2V12.4l3,12.8C20.3,27,19,28.6,17.3,29.2z M22.6,23.7l-5-20.9C24.3,3.6,29.4,9.2,29.4,16
		C29.4,19.9,26.4,23.2,22.6,23.7z"/>
</g>
<g id="guides_1_">
</g>
</svg>
