<svg xmlns="http://www.w3.org/2000/svg" xmlns:xlink="http://www.w3.org/1999/xlink" id="Layer_7" x="0" y="0" version="1.1" viewBox="0 0 32 32" xml:space="preserve" style="enable-background:new 0 0 32 32"><style type="text/css">.st0{fill:#d22026}</style><path d="M19.5,11.1c0,0-0.1-0.1-0.1-0.1c-0.1-0.1-0.1-0.2-0.2-0.4c-0.1-0.2-0.3-0.4-0.5-0.5c-0.9-0.9-3-0.6-4-0.5	c0,0-0.1,0-0.1,0c-0.1,0-0.1,0-0.2,0.1c0,0,0,0,0,0c0,0,0,0,0,0c0,0-0.1,0-0.1,0c-0.1,0.1-0.1,0.1,0,0.2c0.7,1.2,1.8,0.9,3,1.2	c2.2,0.4,1.4,3.6,1.1,5.1c0,0.2,0.2,0.3,0.3,0.1C19.7,14.9,20.4,12.8,19.5,11.1z" class="st0"/><path d="M14.5,8.1c-0.3,0-0.7,0-1,0.1c0,0-0.1,0-0.1,0.1c-1,0.4-1.7,1.5-2,2.4C11,11.9,11,13.1,11,14.2c0,0,0,0,0,0	c0,0,0,0.1,0,0.1c0,0,0,0,0,0c0,0,0,0,0,0c0,0,0,0.1,0,0.1c0,0.2,0,0.4,0,0.6c0,0,0,0,0,0c0,0,0,0,0,0c0,0.3,0,0.5,0,0.8	c0,0.2,0.3,0.1,0.3-0.1c-0.1-0.2,0-0.5,0-0.7c0-0.1,0-0.3,0-0.4c0-0.4,0-0.8,0.2-1.2c0.1-0.2,0.1-0.4,0.2-0.7c0,0,0,0,0,0	c0-0.3,0.1-0.5,0.2-0.8c0-0.1,0.1-0.2,0.1-0.3c0.1-0.2,0.2-0.4,0.4-0.5c0.1-0.2,0.3-0.4,0.4-0.5c0.6-0.7,1-1.4,1.6-2.1	C14.7,8.4,14.6,8.3,14.5,8.1C14.5,8.1,14.5,8.1,14.5,8.1z" class="st0"/><path d="M25.1,8.4c-0.2-0.7-0.6-1.3-0.4-2.1c0-0.3,0.1-0.7-0.1-0.9c-1.3-1.3-2.4-1.7-4.1-2.3C16.9,1.6,13,2.5,10.1,4.7	c-1.3,1-4.4,3.9-2.9,5.7c0.1,0.2,0.4,0.2,0.5,0c0.1-0.1,0.1-0.1,0.2-0.2c0,0,0,0,0,0c0.1,0,0.1,0,0.2-0.1c2.8-2.4,7.6-6.5,11.3-3.7	c1.6,1.2,3.3,3.6,4,5.4c0.7,1.9-0.1,3.7-0.7,5.4c0,0.4-0.1,0.7-0.3,1.1v0c-0.1,0.3-0.2,0.5-0.3,0.8c0,0,0,0.1,0,0.1c0,0,0,0,0,0	c0,0,0,0,0,0c0,0,0,0,0,0.1c0,0.2,0.2,0.3,0.3,0.3c0.2-0.4,0.4-0.8,0.7-1.1c0.3-0.3,0.6-0.8,0.8-1.2c0-0.1,0.1-0.2,0.1-0.3	c0,0,0,0,0,0l0,0C25.2,14.4,25.8,11.2,25.1,8.4z" class="st0"/><path d="M30.9,13.6c-0.4-1.6-1.6-3-2.4-4.4c-0.4-0.6-1.1-1.4-1.9-1.7c-0.1,0-0.2-0.1-0.3-0.1c0,0,0,0,0,0	c-0.1,0-0.2,0-0.3,0c-0.1,0-0.2,0-0.3-0.1c0,0-0.1,0-0.1,0c0,0,0,0-0.1,0c-0.1,0.1-0.2,0.3-0.1,0.5c1.3,2.2,0.5,4.5,0.5,6.8	c0,0.8,0.8,1.7,1,2.5c0.1,0.6,0.2,1.2,0.6,1.7c0.1,0.2,0.3,0.2,0.5,0.1c1.2-0.6,2.4-1.1,3-2.3C31.5,15.9,31.1,14.5,30.9,13.6z" class="st0"/><path d="M26.2,16.4c0-0.1,0-0.1,0-0.1c-0.1,0-0.3,0-0.4,0.1c0,0,0,0-0.1,0.1c0,0.1-0.1,0.1-0.1,0.2c0,0,0,0.1-0.1,0.1	c0,0,0,0.1,0,0.1c-0.1,0.3-0.3,0.7-0.5,0.9c0,0,0,0,0,0c-0.1,0.2-0.3,0.4-0.4,0.6c-0.5,0.8-0.9,1.5-1.5,2.1c-0.4,0.5-0.9,1-1.5,1.5	c-0.4,0.4-0.8,0.8-1.3,1c-0.3,0.1-0.7,0.1-1,0c-0.1,0-0.1,0-0.2,0c-0.1,0-0.2,0-0.3-0.1c-0.2,0-0.4,0-0.6-0.1c0,0.1,0,0.1,0,0.2	c0.4,0.4,0.9,0.7,1.4,0.8c0,0,0,0,0.1,0c0,0,0,0,0,0c0.1,0,0.2,0.1,0.3,0.1c0.2,0.2,0.5,0.3,0.7,0.5c0.5,0.3,0.9,0.8,1.5,1	c0.9,0.3,1.6-0.6,2.1-1.2c0.3-0.4,0.6-0.8,0.9-1.3c0.3-0.4,0.4-0.8,0.5-1.3c0.1-0.2,0.2-0.4,0.2-0.6c0,0,0-0.1,0.1-0.1	C27.1,19.4,26.1,18,26.2,16.4z" class="st0"/><path d="M15.9,17.4c-1.7-0.1-2.8-1.6-2.7-3.3c0-0.1,0-0.1-0.1-0.1c-0.2,0-0.3,0.2-0.4,0.3c0,0,0,0.1-0.1,0.1	c-0.3,1.1-0.4,2.4,0.4,3.3c0.7,0.8,2.1,0.8,2.8,0.1C16.1,17.6,16.1,17.4,15.9,17.4z" class="st0"/><path d="M16.5,13.8c-0.2-0.3-0.6-0.4-0.9-0.5c-0.3-0.1-0.8-0.3-1.1-0.1c-0.6,0.3-1,1.5-0.5,2c0.1,0.1,0.3-0.1,0.3-0.2	c0,0,0,0,0,0c0,0,0-0.1,0-0.1c0-0.1,0.1-0.2,0.1-0.3c0.4-0.7,1.3-1,2-0.5C16.4,14.2,16.6,14,16.5,13.8z" class="st0"/><path d="M17.1,14.4C17.1,14.4,17.1,14.4,17.1,14.4c0-0.1-0.1-0.1-0.1-0.2c0,0,0,0,0,0c0,0-0.1-0.1-0.1-0.1	c-0.2-0.2-0.4,0.1-0.2,0.3c0,0,0.1,0.1,0.1,0.1c0,0.3-0.1,0.5-0.2,0.8c0,0,0,0,0,0c0,0,0,0.1-0.1,0.1c0,0,0,0,0,0c0,0,0,0,0,0	c0,0-0.1,0.1-0.1,0.1c-0.1,0.1-0.2,0.2-0.3,0.3c-0.4,0.3-1,0.4-1.3-0.1c-0.1-0.1-0.3-0.1-0.3,0.1c-0.2,1,1.2,1.3,1.9,1	C17.1,16.4,17.5,15.1,17.1,14.4z" class="st0"/><path d="M18.2,14.2c-0.2-0.9-0.3-1.8-1-2.5c-0.6-0.4-1.4,0-2,0c-0.3,0-0.5,0.1-0.8,0.1c-0.3,0-0.5,0.1-0.8,0.3	c-0.5,0.2-0.9,0.5-1.2,1c-0.1,0.1-0.2,0.3-0.2,0.4c0,0.1,0,0.2,0,0.2c0,0,0,0,0,0c0.1,0,0.2,0,0.3,0c0,0,0,0,0,0c0,0,0.1,0,0.1-0.1	c0,0,0,0,0,0c0.7-0.9,1.9-1.2,3-1.3c1,0.3,1.7,1.4,2.4,2C18.1,14.5,18.3,14.3,18.2,14.2z" class="st0"/><path d="M15.5,14.5c-0.1-0.4-0.7-0.2-0.9,0.1c-0.1,0.1-0.2,0.4-0.2,0.5c0,0.1,0.1,0.2,0.2,0.2c0,0,0.1,0,0.1,0	c0,0,0.1,0,0.1,0c0.2,0,0.4-0.1,0.5-0.3C15.4,15,15.6,14.8,15.5,14.5z" class="st0"/><path d="M8.6,0.8C7.7,1.1,7,1.7,6.4,2.3c-1,1-1.6,2.3-2.1,3.6c0,0,0,0.1,0,0.1c0,0.1-0.1,0.2-0.1,0.3	C4.2,6.7,4.1,7.1,4.1,7.4c-0.3,1.9-0.2,3.9,0.1,5.7c0,0.2,0.1,0.4,0.1,0.5c0,0.3,0.1,0.6,0.2,0.8c0,0,0,0.1,0.1,0.1	C5,16.3,5.8,17.9,7.2,19c0.1,0.1,0.3,0,0.3-0.2c-0.4-0.9-0.5-1.9-0.6-2.9c-0.1-0.9-0.3-1.7-0.5-2.6C6,12.1,5.7,10.8,5.7,9.5	c0-0.2,0-0.5,0-0.7c0-0.7,0.7-1.9,1.1-2.6C6.8,6.1,6.9,5.9,7,5.8C7.6,5,8.4,4.2,9.2,3.6c0.6-0.4,1-0.7,1.9-1.2	c0.6-0.3,4.4-0.7,4.6-1C15.1,0.4,10.8,0,8.6,0.8z" class="st0"/><path d="M13.1,29c0-0.2,0-0.3-0.1-0.5c0-0.1-0.1-0.1-0.1-0.2c-0.4-1.4-1.2-2.8-2.5-3.7c-0.8-0.5-1.6-1-2.4-1.6	c-0.8-0.7-1.5-1.5-2.1-2.3c-2.5-3.6-3.4-8.2-3-12.5C3.1,8.2,3,8,2.8,8.1C2.5,8.3,2.1,8.5,1.7,8.7c0,0,0,0,0,0C1.6,8.9,1.4,9,1.4,9.1	c-0.2,0.3-0.4,0.7-0.5,1c-0.5,1.2-0.6,2.6-0.6,3.8c0,1.1,0,2.3,0.2,3.4C0.7,19,1,20.6,0.4,22.1c0,0.1,0,0.2,0.1,0.2	c0.6,0.2,1.1,1,1.4,1.4c0.4,0.4,0.8,0.9,1.2,1.3c1.3,1.3,3,2.2,4.6,3.2c0.9,0.6,1.9,1.1,2.9,1.5c0.5,0.2,1.2,0.5,1.8,0.5	C13.1,30.2,13.2,29.6,13.1,29z" class="st0"/><path d="M19.6,18.2c-2.5,0.5-6.8,1.8-8.6-0.8c-0.8-1.1-1-2.7-1.1-4.1c-0.1-1.3,0-2.9,0.8-4c0.1-0.2-0.1-0.4-0.3-0.2	c-0.7,0.7-1.4,1.5-2,2.2c-0.1,0.1-0.2,0.2-0.2,0.3c0,0.1-0.1,0.2-0.1,0.3c0.2,1.1,0.6,2.2,0.9,3.3c0.4,1.4,0.1,2.9,0.2,4.4	c0,0.1,0.1,0.1,0.1,0.2c2,0.3,4,0.6,6,0.5c1.5,0,3.9-0.2,4.5-1.9C19.8,18.3,19.7,18.1,19.6,18.2z" class="st0"/><path d="M17.4,23c-0.4,0-0.8,0-1.2,0c-0.5-0.1-1-0.3-1.5-0.4c-1.4-0.6-2.7-1.4-4.2-1.7c0,0,0,0,0,0c-0.1,0-0.2,0-0.3,0	c-0.1,0-0.3,0.1-0.4,0.2c0,0,0,0,0,0c0,0,0,0,0,0c0,0,0,0,0,0c0,0,0,0-0.1,0c-0.5,0.2-1.2,0.1-1.7,0c-0.1,0-0.2,0.1-0.1,0.2	c0.4,1.7,2.8,2.4,4.3,2.6c0,0,0.1,0,0.1,0c0.4,0.1,0.7,0.1,1.1,0.2c1.4,0.1,3.1,0.1,4.1-0.9C17.6,23.2,17.6,22.9,17.4,23z" class="st0"/><path d="M29.3,18.8c-0.8,0.9-1.7,1.4-2.4,2.4c-0.6,0.9-0.9,2-1.4,3c-0.1,0.1-0.1,0.2-0.2,0.3c-0.1,0.2-0.2,0.3-0.3,0.5	c-0.4,0.5-0.8,1-1.3,1.4c-0.2,0.1-0.5,0.2-0.7,0.3c-0.1,0-0.2,0.1-0.3,0.1c-0.1,0.1-0.3,0.1-0.4,0.1c-0.1,0-0.2,0.1-0.4,0.1	c-0.1,0-0.2,0-0.3,0c0,0-0.1,0-0.1,0c0,0,0,0,0,0c0,0,0,0,0,0c0,0,0,0-0.1,0h0c0,0,0,0-0.1,0c-0.2,0-0.3-0.1-0.5-0.2	c-0.1-0.1-0.3-0.1-0.4-0.2c0,0,0,0,0,0c-0.1,0-0.2-0.1-0.2-0.1c0,0-0.1,0-0.1-0.1c0,0,0,0-0.1,0c0,0,0,0-0.1,0c0,0,0,0,0,0	c-0.8-0.3-1.7-0.9-1.9-0.9c-1.5-0.7-3.1-0.4-4.7-0.3c-0.1,0-0.2,0.2-0.1,0.3c0.1,0.2,0.2,0.4,0.5,0.5c0.1,0.3,0.1,0.6,0.3,0.9	c0.2,1.1,0.6,2.2,1.7,2.5c0.4,0.1,0.8,0,1.2,0c0.2,0,0.4-0.1,0.6-0.1c0.4,0,0.8-0.1,1.1-0.2c0.2,0,0.3-0.1,0.5-0.1	c1.3-0.3,2.5-0.6,3.8-1c1.8-0.5,4.1-0.8,5.3-2.4c1.3-1.9-0.2-4.5,1.5-6.2C29.7,18.9,29.4,18.7,29.3,18.8z" class="st0"/><path d="M22,12.2c-0.1-0.5-0.4-0.9-0.7-1.4c-0.1-0.3-0.3-0.6-0.5-0.9c0,0,0,0,0,0c-0.1-0.1-0.2-0.2-0.2-0.3	c-0.3-0.4-0.6-0.7-1-1c0,0,0,0,0,0c-0.1,0-0.1-0.1-0.2-0.2c0,0,0,0,0,0c0,0-0.1-0.1-0.1-0.1c-0.1,0-0.1-0.1-0.2-0.1c0,0-0.1,0-0.1,0	c-0.3-0.2-0.6-0.4-0.9-0.6c-0.6-0.4-1.3-0.8-2.1-0.9c-0.3,0-0.5,0-0.8-0.1c-0.1,0-0.1,0-0.2,0c0,0,0,0,0,0c-0.1,0-0.1,0-0.2,0	c-0.1,0-0.3,0-0.4,0.1c-0.1,0-0.2,0.1-0.2,0.1c0,0.1,0,0.2,0.2,0.2c0.4,0,0.7,0.1,1,0.2c0.2,0,0.3,0,0.5,0.1c0.5,0,0.9,0.1,1.3,0.4	c0,0,0.1,0,0.1,0.1c0.2,0.1,0.4,0.2,0.5,0.3c0.2,0.1,0.4,0.3,0.6,0.5c0.1,0.1,0.2,0.2,0.3,0.3C18.8,8.9,18.9,9,19,9.1	c1.9,2.2,2.7,5.7,1.6,8c0,0.1,0,0.2,0.1,0.2c1.5,0.6,1.5-1.8,1.5-2.6C22.1,13.9,22.2,13,22,12.2z" class="st0"/></svg>