<svg xmlns="http://www.w3.org/2000/svg" xmlns:xlink="http://www.w3.org/1999/xlink" id="Layer_6" x="0" y="0" version="1.1" viewBox="0 0 32 32" xml:space="preserve" style="enable-background:new 0 0 32 32"><style type="text/css">.st0{fill:#9b1c1f}</style><path d="M15.8,28l2.8-8.6l9.1,0l-7.3-5.3l2.8-8.6c-1.9,1.4-5.3,3.9-7.3,5.3L8.4,5.4l2.8,8.6l-7.3,5.3h9L15.8,28z M15.8,22.1l-0.9-2.7l1.8,0L15.8,22.1L15.8,22.1z M19.1,17.6l0.5-1.7l2.3,1.7C22,17.6,19.1,17.6,19.1,17.6z M17.2,17.6h-3l-0.9-2.8	l2.4-1.7l2.4,1.7C18.1,14.8,17.2,17.6,17.2,17.6z M12.4,17.6H9.5l2.3-1.7L12.4,17.6z M18.7,12.9l-1.4-1l2.3-1.7L18.7,12.9z M12.8,12.9l-0.9-2.7l2.3,1.7v0L12.8,12.9L12.8,12.9z" class="st0"/><g><path d="M15.8,31.4C7.4,31.4,0.5,24.5,0.5,16c0-8.5,6.9-15.4,15.4-15.4S31.2,7.5,31.2,16 C31.2,24.5,24.3,31.4,15.8,31.4z M15.8,1.1C7.7,1.1,1,7.8,1,16c0,8.2,6.7,14.9,14.9,14.9S30.7,24.2,30.7,16 C30.7,7.8,24,1.1,15.8,1.1z" class="st0"/></g><g><path d="M15.8,29.1C8.6,29.1,2.7,23.2,2.7,16c0-7.2,5.9-13.1,13.1-13.1c7.2,0,13.1,5.9,13.1,13.1 C28.9,23.2,23.1,29.1,15.8,29.1z M15.8,3.4C8.9,3.4,3.2,9.1,3.2,16s5.7,12.6,12.6,12.6c6.9,0,12.6-5.7,12.6-12.6S22.8,3.4,15.8,3.4 z" class="st0"/></g><g><path d="M24.3,5.1h-0.2L24,4.8h-0.5l-0.1,0.4h-0.2l0.5-1.4h0.2L24.3,5.1z M23.9,4.6L23.7,4l-0.2,0.6H23.9z" class="st0"/></g><g><path d="M7.9,5.2c-0.2,0-0.3,0-0.5-0.1l0-0.2C7.6,4.9,7.8,5,7.9,5C8,5,8,5,8.1,5c0,0,0.1,0,0.1,0c0,0,0.1,0,0.1-0.1 s0-0.1,0-0.1c0,0,0-0.1,0-0.1s0-0.1-0.1-0.1c0,0-0.1,0-0.1-0.1c0,0-0.1,0-0.1-0.1l-0.1,0c-0.1,0-0.2-0.1-0.2-0.1 c0-0.1-0.1-0.1-0.1-0.2c0,0,0-0.1,0-0.1c0,0,0-0.1,0.1-0.1c0,0,0.1-0.1,0.2-0.1c0.1,0,0.1,0,0.2,0c0,0,0.1,0,0.1,0s0.1,0,0.1,0 s0.1,0,0.1,0c0,0,0.1,0,0.1,0l0,0.2C8.2,3.9,8.1,3.9,8,3.9c0,0-0.1,0-0.1,0c0,0-0.1,0-0.1,0c0,0-0.1,0-0.1,0.1c0,0,0,0.1,0,0.1 c0,0.1,0,0.1,0.1,0.1S7.9,4.3,8,4.3c0,0,0,0,0.1,0c0,0,0,0,0,0c0,0,0,0,0,0s0.1,0,0.1,0l0.1,0c0,0,0,0,0,0c0,0,0,0,0,0l0.1,0.1 c0,0,0.1,0.1,0.1,0.1c0,0,0,0.1,0,0.1c0,0,0,0.1,0,0.1c0,0,0,0.1-0.1,0.1c0,0-0.1,0.1-0.2,0.1C8.1,5.1,8,5.2,7.9,5.2z" class="st0"/></g><g><path d="M30,19.1h-0.4v1.2h-0.2v-1.2H29v-0.2h1V19.1z" class="st0"/></g><g><path d="M16.5,30.6h-0.2l-0.1-0.4h-0.5l-0.1,0.4h-0.2l0.5-1.4H16L16.5,30.6z M16.1,30.1l-0.2-0.6l-0.2,0.6H16.1z" class="st0"/></g><g><path d="M2.9,20.1H2.7L2,19v1.1H1.8v-1.4H2l0.7,1v-1h0.2V20.1z" class="st0"/></g></svg>