<?xml version="1.0" encoding="utf-8"?>
<!-- Generator: Adobe Illustrator 16.0.0, SVG Export Plug-In . SVG Version: 6.00 Build 0)  -->
<svg version="1.2" baseProfile="tiny" id="Layer_1" xmlns="http://www.w3.org/2000/svg" xmlns:xlink="http://www.w3.org/1999/xlink"
	 x="0px" y="0px" width="32px" height="32px" viewBox="0 0 32 32" xml:space="preserve">
<path fill="#454545" d="M29.783,13.467c0.011-0.215,0.021-0.433,0.021-0.651c0-6.839-6.18-12.384-13.806-12.384
	c-7.623,0-13.801,5.544-13.801,12.384c0,0.218,0.006,0.436,0.02,0.651H2.211c-0.124,2.454,0.586,4.448,0.586,4.448
	c1.21,2.781,1.267,3.606,1.412,4.524c0.142,0.916-0.322,1.631-0.247,2.311c0.075,0.68,0.749,0.949,1.112,1.11
	c0.365,0.163,1.17-0.144,1.17-0.144c1.322-0.748,1.61-0.995,2.739-0.355c0.877,0.496,1.432,2.261,1.639,3.038
	c0.001,0.024,0.006,0.051,0.013,0.081l0.522,2.006c0.059,0.227,0.29,0.451,0.514,0.496c0.224,0.044,0.433-0.108,0.464-0.342
	l0.192-1.405c0.069,0.008,0.142,0.016,0.214,0.022l-0.077,1.38c-0.013,0.234,0.167,0.444,0.401,0.465l0.822,0.074
	c0.233,0.02,0.415-0.155,0.401-0.39l-0.079-1.425c0.113,0.006,0.229,0.011,0.346,0.015l-0.072,1.41
	c-0.012,0.234,0.169,0.444,0.403,0.465l0.819,0.076c0.234,0.021,0.416-0.151,0.403-0.388l-0.079-1.534
	c0.055,0,0.11,0.001,0.167,0.001c0.061,0,0.12-0.001,0.181-0.001l-0.075,1.534c-0.011,0.236,0.17,0.409,0.405,0.388l0.819-0.076
	c0.234-0.021,0.415-0.23,0.401-0.465l-0.078-1.41c0.117-0.004,0.235-0.01,0.348-0.015l-0.075,1.425
	c-0.012,0.234,0.169,0.409,0.403,0.39l0.823-0.074c0.233-0.021,0.413-0.23,0.398-0.465l-0.082-1.381
	c0.08-0.008,0.161-0.017,0.238-0.024l0.193,1.408c0.032,0.233,0.239,0.386,0.463,0.342c0.222-0.045,0.451-0.27,0.508-0.497
	l0.499-2.004c0.008-0.035,0.011-0.065,0.012-0.095c0.21-0.781,0.764-2.531,1.633-3.025c1.131-0.64,1.421-0.393,2.743,0.355
	c0,0,0.804,0.307,1.17,0.144c0.362-0.161,1.036-0.431,1.11-1.11c0.076-0.68-0.389-1.395-0.246-2.311
	c0.146-0.918,0.201-1.743,1.411-4.524c0,0,0.71-1.994,0.587-4.448L29.783,13.467L29.783,13.467z M14.505,23.205
	c0.189-0.842,0.604-2.224,0.919-3.065c0.315-0.845,0.817-0.845,1.115,0c0.298,0.842,0.713,2.224,0.921,3.065
	c0.21,0.845-0.034,1.672-0.541,1.842c-0.507,0.167-1.335,0.167-1.841,0C14.573,24.877,14.315,24.05,14.505,23.205z M9.17,21.692
	c-3.059-0.621-3.436-5.94,0.554-6.668C16.153,13.848,13.808,22.637,9.17,21.692z M22.831,21.692
	c-4.638,0.944-6.984-7.844-0.555-6.668C26.266,15.752,25.89,21.071,22.831,21.692z"/>
</svg>
