<svg xmlns="http://www.w3.org/2000/svg" xmlns:xlink="http://www.w3.org/1999/xlink" id="Layer_1" x="0" y="0" version="1.1" viewBox="0 0 28.6 32" xml:space="preserve" style="enable-background:new 0 0 28.6 32"><style type="text/css">.st0{fill:#454546}</style><path d="M13.5,31.7c-0.3-0.2-0.5-0.6-0.5-1v-3c0-0.4-0.3-0.5-0.6-0.3l-1.3,0.7c-0.3,0.2-0.8,0.2-1.1,0L9.9,28	c-0.3-0.2-0.6-0.6-0.6-1v-0.2c0-0.4,0.3-0.8,0.6-1l2.4-1.4c0.3-0.2,0.6-0.6,0.6-1V22c0-0.4-0.2-0.5-0.5-0.3l-1.5,1	c-0.3,0.2-0.5,0.1-0.5-0.3v-1.7c0-0.4-0.3-0.5-0.6-0.3l-1.3,0.8c-0.3,0.2-0.6,0.6-0.6,1v2.7c0,0.4-0.2,0.8-0.6,1L7,26	c-0.3,0.2-0.8,0.2-1.1,0l-0.1,0c-0.3-0.2-0.5-0.6-0.5-1v-1.4c0-0.4-0.3-0.5-0.6-0.3l-2.6,1.5c-0.3,0.2-0.8,0.2-1.2,0.1l-0.4-0.2	C0.3,24.4,0,24,0,23.6v-0.4c0-0.4,0.3-0.8,0.6-1l2.8-1.5c0.3-0.2,0.3-0.4,0-0.6L2,19.5c-0.3-0.2-0.6-0.6-0.6-0.9v-0.3	c0-0.4,0.3-0.8,0.6-1l0.3-0.1c0.3-0.2,0.8-0.2,1.1,0l2.4,1.4c0.3,0.2,0.8,0.2,1.1,0l1.3-0.8c0.3-0.2,0.5-0.3,0.5-0.3	c0,0-0.3-0.2-0.6-0.3l-1.4-0.8c-0.3-0.2-0.3-0.5,0-0.7l1.3-0.8c0.3-0.2,0.3-0.5,0-0.7l-1.3-0.8c-0.3-0.2-0.8-0.2-1.1,0l-2.4,1.4	c-0.3,0.2-0.8,0.2-1.1,0L2,14.8c-0.3-0.2-0.6-0.6-0.6-0.9v-0.3c0-0.4,0.3-0.8,0.6-1L3.2,12c0.3-0.2,0.3-0.5,0-0.6L0.6,9.9	C0.3,9.7,0,9.3,0,9V8.5c0-0.4,0.3-0.8,0.6-0.9l0.3-0.2c0.3-0.2,0.8-0.2,1.1,0L4.6,9c0.3,0.2,0.6,0,0.6-0.3V7.2c0-0.4,0.2-0.8,0.5-1	l0.1,0c0.3-0.2,0.8-0.2,1.1,0l0.3,0.1c0.3,0.2,0.6,0.6,0.6,1l0,2.8c0,0.4,0.3,0.8,0.6,1l1.4,0.8c0.3,0.2,0.6,0,0.6-0.3l0-1.6	c0-0.4,0.3-0.5,0.6-0.3l1.5,0.8c0.3,0.2,0.6,0,0.6-0.3V8.5c0-0.4-0.3-0.8-0.6-1L9.9,6.1C9.5,6,9.3,5.5,9.3,5.2V5	c0-0.4,0.3-0.8,0.6-1L10,3.9c0.3-0.2,0.8-0.2,1.1,0l1.3,0.7c0.3,0.2,0.6,0,0.6-0.3v-3c0-0.4,0.2-0.8,0.5-1l0.3-0.2	c0.3-0.2,0.8-0.2,1.1,0l0.3,0.2c0.3,0.2,0.5,0.6,0.5,1v3c0,0.4,0.3,0.5,0.6,0.3l1.3-0.7c0.3-0.2,0.8-0.2,1.1,0l0.2,0.1	c0.3,0.2,0.5,0.6,0.5,1v0c0,0.4-0.3,0.8-0.6,1l-2.5,1.4c-0.3,0.2-0.6,0.6-0.6,1V10c0,0.4,0.2,0.5,0.6,0.3l1.4-0.9	c0.3-0.2,0.6,0,0.6,0.3v1.8c0,0.4,0.3,0.5,0.6,0.3l1.4-0.8c0.3-0.2,0.6-0.6,0.6-1V7c0-0.4,0.3-0.8,0.6-0.9l0.1,0	c0.3-0.1,0.9-0.2,1.2,0l0.1,0.1c0.3,0.1,0.6,0.6,0.6,0.9v1.5c0,0.4,0.3,0.5,0.6,0.3l2.7-1.5c0.3-0.2,0.8-0.2,1.1,0L28,7.6	c0.3,0.2,0.6,0.6,0.6,1v0.3c0,0.4-0.3,0.8-0.6,1l-2.6,1.5c-0.3,0.2-0.3,0.5,0,0.6l1.2,0.7c0.3,0.2,0.6,0.6,0.6,1v0.2	c0,0.4-0.3,0.8-0.6,1l-0.1,0c-0.3,0.2-0.8,0.2-1.1,0l-2.5-1.5c-0.3-0.2-0.8-0.2-1.1,0l-1.4,0.9c-0.3,0.2-0.3,0.5,0,0.7l1.3,0.8	c0.3,0.2,0.3,0.5,0,0.7l-1.4,0.8c-0.3,0.2-0.3,0.5,0,0.6l1.4,0.7c0.3,0.2,0.8,0.2,1.1,0l2.5-1.4c0.3-0.2,0.8-0.1,1.1,0.1l0.1,0.1	c0.3,0.2,0.5,0.7,0.5,1v0.2c0,0.4-0.3,0.8-0.6,1l-1.1,0.6c-0.3,0.2-0.3,0.5,0,0.6l2.5,1.5c0.3,0.2,0.6,0.6,0.6,1v0.4	c0,0.4-0.3,0.8-0.6,0.9l-0.3,0.2c-0.3,0.1-0.8,0.1-1.2-0.1l-2.4-1.4c-0.3-0.2-0.6,0-0.6,0.3V25c0,0.4-0.3,0.8-0.6,1L22.7,26	c-0.3,0.2-0.8,0.2-1.1,0l-0.1-0.1c-0.3-0.2-0.6-0.6-0.6-1v-2.8c0-0.4-0.3-0.8-0.6-1l-1.5-0.9c-0.3-0.2-0.6,0-0.6,0.3v1.5	c0,0.4-0.2,0.5-0.6,0.3l-1.4-0.9c-0.3-0.2-0.6,0-0.6,0.3v1.5c0,0.4,0.3,0.8,0.6,1l2.4,1.4c0.3,0.2,0.6,0.6,0.6,1v0.3	c0,0.4-0.3,0.8-0.6,0.9l-0.1,0c-0.3,0.2-0.8,0.1-1.1,0l-1.2-0.7c-0.3-0.2-0.6,0-0.6,0.3v3c0,0.4-0.2,0.8-0.5,1l-0.3,0.2	c-0.3,0.2-0.8,0.2-1.1,0L13.5,31.7z" class="st0"/></svg>