<?xml version="1.0" encoding="utf-8"?>
<!-- Generator: Adobe Illustrator 19.1.0, SVG Export Plug-In . SVG Version: 6.00 Build 0)  -->
<svg version="1.1" id="Layer_2" xmlns="http://www.w3.org/2000/svg" xmlns:xlink="http://www.w3.org/1999/xlink" x="0px" y="0px"
	 viewBox="1.3 0 28.8 32" style="enable-background:new 1.3 0 28.8 32;" xml:space="preserve">
<style type="text/css">
	.st0{fill:#464646;}
</style>
<path class="st0" d="M26.5,16.1c0-2.5,2.1-11.8,2.1-11.9l0.2-0.7l-14.1-3l-0.4,1.6c-1.8,8.4-1.8,8.4-2.3,10.2l0,0.1
	c-0.4,1.3-1.9,2.5-3.6,3.8c-2.6,2-5.5,4.2-5.6,7.9c-0.2,4.1,3.2,6.9,5.5,7.2l0,0c0.1,0.2,0.1,0.1,0.2,0.1c3.6,0.6,6.5-1.7,8.4-3.3
	c0.3-0.2,0.6-0.5,0.8-0.7c1.4-1.1,2.5-1.6,3.6-2c1-0.4,1.9-0.8,2.9-1.6C26.2,22.1,26.5,19.1,26.5,16.1z M20.6,24
	c-1.1,0.5-2.3,1-3.9,2.2c-0.3,0.2-0.6,0.4-0.9,0.7c-1,0.9-2.3,1.9-3.7,2.6c-0.4-5.1-4.5-7.1-7.2-7.8c0.9-1.7,2.7-3,4.3-4.3
	c1.8-1.4,3.6-2.8,4.1-4.5l0-0.1c0.4-1.5,0.5-1.8,1.4-5.7l11.4,2.4c-0.5,2.6-1,5.4-1,6.7c0,0.6,0,1.1-0.1,1.7c-2.6,0.2-5.1,0.2-5.4,1
	c-0.2,0.6,1.1,2.9,2.2,4.6C21.4,23.6,21,23.8,20.6,24z"/>
</svg>
