<?xml version="1.0" encoding="utf-8"?>
<!-- Generator: Adobe Illustrator 19.1.0, SVG Export Plug-In . SVG Version: 6.00 Build 0)  -->
<svg version="1.1" id="Layer_1" xmlns="http://www.w3.org/2000/svg" xmlns:xlink="http://www.w3.org/1999/xlink" x="0px" y="0px"
	 viewBox="0 0 32 32" style="enable-background:new 0 0 32 32;" xml:space="preserve">
<style type="text/css">
	.st0{fill:#454546;}
</style>
<polygon class="st0" points="16,0.3 20.8,10.1 31.6,11.6 23.8,19.2 25.7,30 16,24.9 6.3,30 8.2,19.2 0.4,11.6 11.2,10.1 "/>
<g>
	<path class="st0" d="M16,2.5l3.9,8l0.2,0.5l0.5,0.1l8.8,1.3l-6.4,6.2l-0.4,0.4l0.1,0.5l1.5,8.8L16.5,24L16,23.8L15.5,24l-7.9,4.1
		l1.5-8.8l0.1-0.5l-0.4-0.4l-6.4-6.2l8.8-1.3l0.5-0.1l0.2-0.5L16,2.5 M16,0.3l-4.8,9.8L0.4,11.6l7.8,7.6L6.3,30l9.7-5.1l9.7,5.1
		l-1.8-10.8l7.8-7.6l-10.8-1.6L16,0.3L16,0.3z"/>
</g>
</svg>
