<svg xmlns="http://www.w3.org/2000/svg" xmlns:xlink="http://www.w3.org/1999/xlink" x="0" y="0" version="1.1" viewBox="0 0 32 32" xml:space="preserve" style="enable-background:new 0 0 32 32"><style type="text/css">.st0{fill:#454546}</style><g id="Layer_1"><polygon points="16 24.9 16 .3 11.2 10.1 .4 11.6 8.2 19.2 6.3 30" class="st0"/></g><g id="Layer_2"><g><path d="M16,2.5l3.9,8l0.2,0.5l0.5,0.1l8.8,1.3l-6.4,6.2l-0.4,0.4l0.1,0.5l1.5,8.8L16.5,24L16,23.8L15.5,24l-7.9,4.1 l1.5-8.8l0.1-0.5l-0.4-0.4l-6.4-6.2l8.8-1.3l0.5-0.1l0.2-0.5L16,2.5 M16,0.3l-4.8,9.8L0.4,11.6l7.8,7.6L6.3,30l9.7-5.1l9.7,5.1 l-1.8-10.8l7.8-7.6l-10.8-1.6L16,0.3L16,0.3z" class="st0"/></g></g></svg>