<svg xmlns="http://www.w3.org/2000/svg" xmlns:xlink="http://www.w3.org/1999/xlink" id="Layer_1" x="0" y="0" version="1.1" viewBox="0 0 37.5 32" xml:space="preserve" style="enable-background:new 0 0 37.5 32"><style type="text/css">.st0{fill:#454546}</style><path d="M34.3,27.8l-3-3.8l-3.1,3.9l-3.2-4L22,27.7l-2.8-3.6l-3,3.8l-3.1-3.9L10,27.9l-2.9-3.6v0H5.2l-0.3-2l4.8,0.5	l-0.6-4.9l5.1,0.6l-0.6-4.8l4.6,0.5l-0.6-4.8l4.9,0.5L22,5l4.6,0.5L21.1,0L0,21.3l3,3H1.1V32h36v-7.8L34.3,27.8z M4.7,29.2	c-0.7,0-1.3-0.6-1.3-1.3s0.6-1.3,1.3-1.3S6,27.2,6,27.9S5.4,29.2,4.7,29.2z" class="st0"/></svg>