<svg xmlns="http://www.w3.org/2000/svg" xmlns:xlink="http://www.w3.org/1999/xlink" id="Layer_1" x="0" y="0" version="1.1" viewBox="0 0 350 120" xml:space="preserve" style="enable-background:new 0 0 350 120"><style type="text/css">.st0{fill:#35465d}.st1{fill:#fff}</style><rect width="350" height="120" class="st0"/><g><g><path d="M307.4,70.4c-4.5,0-8.1,3.6-8.1,7.9c0,4.4,3.6,7.9,8.1,7.9c4.5,0,8.1-3.6,8.1-7.9 C315.5,74,311.9,70.4,307.4,70.4z M263,74.9l0-46.5h-4.9c0,0-8.1,2.9-14,3.6v8.8h3.7c1.2,0,1.7,0.5,1.7,1.6v32.6 c0,1.1-0.7,1.8-1.8,1.8c-0.9,0.1-3,0.2-3,0.2v8.8h23.1V77c0,0-2.1-0.1-3-0.2C263.7,76.7,263,76.1,263,74.9z M309.6,51.8 c-0.5-9.8-13.7-10.3-20.7-3.6l-1.3-3.8h-16v9l3.4,0c1.2,0,1.6,0.5,1.6,1.6v19.9c0,1.1-0.7,1.8-1.8,1.8c-0.9,0.1-2.8,0.2-2.8,0.2 v8.8h22.6V77c0,0-1.9-0.1-2.8-0.2c-1.1-0.1-1.8-0.7-1.8-1.8l0-13.5c0-2.5,0.6-6.8,5-7.8c0.6,4.2,4.6,5.5,6.6,5.5 C306.8,59.1,309.6,55.3,309.6,51.8z M224.5,43.9c-3.4,0.1-7,1.5-9.7,3.7V28.4H210c0,0-7.9,2.8-14.1,3.6l-0.2,8.8l3.9,0 c1.2,0,1.7,0.5,1.7,1.6v43.4l11.1,0l1.6-3.6c0.3,0.2,5.4,5,13.5,4c10.2-1.2,15.6-9.3,15.6-21.6C243.1,58.2,241.1,43.1,224.5,43.9z M222.4,76.2c-1.9,0.1-5.4-0.2-7.6-4.1v-5.8l0,0h0c0,0,0-4.2,0-6.7c0-2.9,2.7-5.4,6.8-5.6c4.2-0.2,7.9,2.7,7.9,10.7 C229.5,75.6,224.7,76,222.4,76.2z M192.6,75c0,0,0-10.2,0-12.5c0-4.5-0.1-9.1-3-12.9c-2.7-3.5-7.2-6-14-5.7 c-4.5,0.2-9.4,2.3-12,5.9l-0.4,0.5l-0.3-0.3c-2.7-4-7.1-6.5-14-6.2c-4.5,0.2-9.4,2.3-12,5.9l-0.4-5.4h-16.7v9l3.9,0.1 c1.2,0,1.7,0.5,1.7,1.6l0,17.6V75c0,1.1-0.7,1.8-1.8,1.8c-0.9,0.1-2.8,0.2-2.8,0.2v8.8l22.6,0V77c0,0-1.8-0.1-2.8-0.2 c-1.1-0.1-1.8-0.7-1.8-1.8c0,0,0-11.2,0-13.5c0-2.2,1.9-6.9,7.8-6.9c4.8,0,5.7,2.9,5.7,6.3c0,3.4,0,14.1,0,14.1 c0,1.2-0.7,1.8-1.8,1.8c-0.9,0.1-2.8,0.2-2.8,0.2v8.8h22.6V77c0,0-1.8-0.1-2.8-0.2c-1.1-0.1-1.8-0.7-1.8-1.8h0c0,0,0-11.2,0-13.5 c0-2.2,1.7-6.9,7.6-6.9c4.8,0,5.9,2.9,5.9,6.3v11.8l0,2.3c0,1.2-0.7,1.8-1.8,1.8c-0.9,0.1-2.8,0.2-2.8,0.2v8.8h22.6V77 c0,0-1.8-0.1-2.8-0.2C193.2,76.7,192.6,76.1,192.6,75z M112.3,75.1V44.5H93.5v9l3.6,0c1.2,0,1.7,0.5,1.7,1.6l0,14 c0,1.4-1,6.5-7.8,6.6c-4.7,0.1-5.7-2.7-5.7-6.3V44.5H71.5v25.6c0,6.5,3,16.7,16.8,16.3c4.5-0.1,9.7-2.4,12.4-5.8l0.1,5.2h15.4V77 c0,0-1.2-0.1-2.2-0.2C113,76.8,112.3,76.2,112.3,75.1z M61.1,76.1c-4.6,0.1-5.5-3.2-5.5-5.5V54h10.7v-9.6H55.6V30.2 c0,0-8.3,0-8.4,0c-0.1,0-0.4,0.1-0.4,0.4c-0.5,4.4-2.6,12.1-11.3,15.1V54h6.6v17.4c0,6.3,3.9,15.2,16.4,15 c4.2-0.1,8.9-1.8,9.9-3.3l-2.8-8C64.6,75.6,62.6,76,61.1,76.1z" class="st1"/></g></g></svg>