<svg xmlns="http://www.w3.org/2000/svg" xmlns:xlink="http://www.w3.org/1999/xlink" id="Layer_3" x="0" y="0" version="1.1" viewBox="0 0 53.9 32" xml:space="preserve" style="enable-background:new 0 0 53.9 32"><style type="text/css">.st0{fill:#333}</style><path d="M26.9,2.4C30.4,1.1,34,1,37.1,2.7c7.9,4.6,9.3,15.6,8,24.1c-1.1,7-3.8,13.4-5.8,20.1c-0.1,0.3-0.3,0.4-0.6,0.4	l0,0c-0.4,0-0.7-0.4-0.6-0.8C40,40,42.6,33.7,43.7,27c1.4-8.3,0.1-19-7.6-23.4c-4.6,3.6-5.8,10.8-6.8,16.5c2.1,4.7,8.9,4.9,11.9,1.2	c0.4-0.6,1.3,0.2,0.7,0.7c-3.2,3.6-8.4,3.7-12.1,1c-2.9,5.4-0.8,11.6,0.5,17.2c-0.2,2.3-1.1,4.5-1.4,6.7c-0.1,0.3-0.3,0.5-0.5,0.5	l0,0c-0.4,0-0.6-0.3-0.6-0.7c0.4-2.2,1.2-4.2,1.4-6.4c-1.4-5.9-3.5-12.6-0.3-18.3c-0.3-0.3-0.4-0.7-0.6-1.1	c-1.1,0.4-2.3,0.4-3.3-0.1c-0.4,0.8-0.2,0.4-0.7,1.3c3.5,5.6,1.6,12.4-0.1,18.3c0.3,2.2,1.2,4.2,1.7,6.3c0.1,0.4-0.2,0.7-0.5,0.7	l0,0c-0.3,0-0.5-0.2-0.5-0.5c-0.5-2.3-1.6-4.4-1.8-6.8c1.5-5.6,3.5-11.9,0.3-17.3c-3.7,2.8-8.9,2.8-12.1-0.9	c-0.4-0.5,0.4-1.2,0.7-0.7c3.4,3.7,9.5,3.5,12.1-1.2c-1.1-5.7-1.6-12.6-6.4-16.4C9.9,8,8.8,18.8,10,27.1c0.9,6.6,3.1,13,4.9,19.5	c0.1,0.4-0.2,0.8-0.6,0.8l0,0c-0.3,0-0.5-0.2-0.6-0.4c-1.8-6.5-4-13-5-19.8c-1.2-8.7,0-19.9,8.2-24.5C20.2,0.9,23.8,1.1,26.9,2.4 M41.9,3.3c4.4,3.8,6.6,11.6,5.8,17.6c-0.1,0.7,1,0.8,1.1,0.2c0.8-6.3-1.5-14.4-6.2-18.5C42.2,2.1,41.4,2.9,41.9,3.3 M45.8,3.3	c3.5,2.8,5.3,10,4.9,16c-0.1,0.7,1,0.8,1,0.1c0.5-6.4-1.5-14-5.3-17C45.9,2.1,45.2,3,45.8,3.3 M11.4,3.3C7,7.1,4.8,14.9,5.6,20.9	c0.1,0.7-1,0.8-1.1,0.2C3.7,14.7,6,6.6,10.8,2.6C11.2,2.1,12,2.9,11.4,3.3 M7.6,3.3c-3.5,2.8-5.3,10-4.9,16.1c0.1,0.7-1,0.8-1,0.1	C1.2,13,3.2,5.5,7,2.5C7.5,2,8.1,3,7.6,3.3z" class="st0"/></svg>