<?xml version="1.0" encoding="utf-8"?>
<!-- Generator: Adobe Illustrator 19.1.0, SVG Export Plug-In . SVG Version: 6.00 Build 0)  -->
<svg version="1.1" xmlns="http://www.w3.org/2000/svg" xmlns:xlink="http://www.w3.org/1999/xlink" x="0px" y="0px"
	 viewBox="0 0 32 32" style="enable-background:new 0 0 32 32;" xml:space="preserve">
<style type="text/css">
	.st0{fill:#454546;}
</style>
<g id="Layer_1">
</g>
<g id="Layer_2">
	<g>
		<path class="st0" d="M15.9,30.8C7.7,30.8,1,24.2,1,15.9S7.7,1,15.9,1s14.9,6.7,14.9,14.9S24.2,30.8,15.9,30.8z M15.9,2.1
			C8.3,2.1,2.1,8.3,2.1,15.9s6.2,13.8,13.8,13.8s13.8-6.2,13.8-13.8S23.5,2.1,15.9,2.1z"/>
	</g>
	<g>
		<path class="st0" d="M9,16.7c-2.1,0-3.9-1.6-3.9-3.6c0-1.3,2.1-1.7,3.9-1.7s3.9,0.5,3.9,1.7C12.9,15.1,11.2,16.7,9,16.7z M9,12.1
			c-1.9,0-3.1,0.5-3.1,1C5.9,14.7,7.3,16,9,16s3.1-1.3,3.1-2.9c0-0.2-0.3-0.5-0.8-0.6C10.7,12.2,9.9,12.1,9,12.1z"/>
	</g>
	<g>
		<path class="st0" d="M22.1,16.7c-2.1,0-3.9-1.6-3.9-3.6c0-1.3,2.1-1.7,3.9-1.7c1.8,0,3.9,0.5,3.9,1.7C26,15.1,24.3,16.7,22.1,16.7
			z M22.1,12.1c-1.9,0-3.1,0.5-3.1,1c0,1.6,1.4,2.9,3.1,2.9s3.1-1.3,3.1-2.9c0-0.2-0.3-0.5-0.8-0.6C23.8,12.2,23,12.1,22.1,12.1z"/>
	</g>
	<g>
		<path class="st0" d="M9.6,14.7c-0.3,0-0.6-0.3-0.6-0.6s0.3-0.6,0.6-0.6c0.3,0,0.6,0.3,0.6,0.6S9.9,14.7,9.6,14.7z M9.6,13.9
			c-0.1,0-0.2,0.1-0.2,0.2s0.1,0.2,0.2,0.2c0.1,0,0.2-0.1,0.2-0.2S9.7,13.9,9.6,13.9z"/>
	</g>
	<g>
		<path class="st0" d="M9.6,15.5c-0.8,0-1.4-0.7-1.4-1.4s0.7-1.4,1.4-1.4c0.8,0,1.4,0.7,1.4,1.4S10.4,15.5,9.6,15.5z M9.6,13.4
			c-0.4,0-0.7,0.3-0.7,0.7s0.3,0.7,0.7,0.7c0.4,0,0.7-0.3,0.7-0.7S10,13.4,9.6,13.4z"/>
	</g>
	<g>
		<path class="st0" d="M9.6,16.4c-1.3,0-2.4-1.1-2.4-2.4s1.1-2.4,2.4-2.4s2.4,1.1,2.4,2.4S10.9,16.4,9.6,16.4z M9.6,12.5
			c-0.9,0-1.6,0.7-1.6,1.6c0,0.9,0.7,1.6,1.6,1.6c0.9,0,1.6-0.7,1.6-1.6C11.2,13.2,10.5,12.5,9.6,12.5z"/>
	</g>
	<g>
		<path class="st0" d="M21.8,14.7c-0.3,0-0.6-0.3-0.6-0.6c0-0.3,0.3-0.6,0.6-0.6s0.6,0.3,0.6,0.6C22.3,14.4,22.1,14.7,21.8,14.7z
			 M21.8,13.9c-0.1,0-0.2,0.1-0.2,0.2c0,0.1,0.1,0.2,0.2,0.2s0.2-0.1,0.2-0.2C21.9,14,21.9,13.9,21.8,13.9z"/>
	</g>
	<g>
		<path class="st0" d="M21.8,15.5c-0.8,0-1.4-0.7-1.4-1.4c0-0.8,0.7-1.4,1.4-1.4c0.8,0,1.4,0.7,1.4,1.4
			C23.2,14.9,22.6,15.5,21.8,15.5z M21.8,13.4c-0.4,0-0.7,0.3-0.7,0.7c0,0.4,0.3,0.7,0.7,0.7s0.7-0.3,0.7-0.7
			C22.4,13.7,22.1,13.4,21.8,13.4z"/>
	</g>
	<g>
		<path class="st0" d="M21.8,16.4c-1.3,0-2.4-1.1-2.4-2.4s1.1-2.4,2.4-2.4s2.4,1.1,2.4,2.4S23.1,16.4,21.8,16.4z M21.8,12.5
			c-0.9,0-1.6,0.7-1.6,1.6c0,0.9,0.7,1.6,1.6,1.6s1.6-0.7,1.6-1.6C23.4,13.2,22.7,12.5,21.8,12.5z"/>
	</g>
	<g>
		<path class="st0" d="M19.9,22.5h-8.8c-0.2,0-0.4-0.2-0.4-0.4c0-0.2,0.2-0.4,0.4-0.4h8.8c0.2,0,0.4,0.2,0.4,0.4
			C20.3,22.3,20.2,22.5,19.9,22.5z"/>
	</g>
	<g>
		<path class="st0" d="M11.9,27.8l-0.7-3.5l-0.4-2.1l1.1,0l1.1,0.1l-0.4,2.1L11.9,27.8z M11.8,22.8l0.2,0.9l0.2-0.9l-0.2,0
			L11.8,22.8z"/>
	</g>
	<g>
		<path class="st0" d="M19.2,27.8l-0.7-3.5l-0.4-2.1l1.1,0l1.1,0.1l-0.4,2.1L19.2,27.8z M19,22.9l0.2,0.9l0.2-0.9l-0.2,0L19,22.9z"
			/>
	</g>
	<g>
		<path class="st0" d="M12.2,12.1C12.2,12.1,12.2,12.1,12.2,12.1l-6.4-1c-0.2,0-0.3-0.2-0.3-0.4c0-0.2,0.2-0.3,0.4-0.3l6.3,1
			c0.2,0,0.3,0.2,0.3,0.4C12.5,12,12.4,12.1,12.2,12.1z"/>
	</g>
	<g>
		<path class="st0" d="M18.6,12.1c-0.2,0-0.3-0.1-0.4-0.3c0-0.2,0.1-0.4,0.3-0.4l6.3-1c0.2,0,0.4,0.1,0.4,0.3c0,0.2-0.1,0.4-0.3,0.4
			L18.6,12.1C18.6,12.1,18.6,12.1,18.6,12.1z"/>
	</g>
	<g>
		<path class="st0" d="M15.9,24.1h-0.8c-0.2,0-0.4-0.2-0.4-0.4s0.2-0.4,0.4-0.4h0.8c0.2,0,0.4,0.2,0.4,0.4S16.1,24.1,15.9,24.1z"/>
	</g>
	<g>
		<path class="st0" d="M9.7,18c-0.2,0-0.4-0.2-0.4-0.4c0-0.2,0.2-0.4,0.4-0.4c1.7,0,3.1-1.3,3.1-2.9c0-0.2,0.2-0.4,0.4-0.4
			c0.2,0,0.4,0.2,0.4,0.4C13.6,16.3,11.8,18,9.7,18z"/>
	</g>
	<g>
		<path class="st0" d="M21.3,18c-2.1,0-3.8-1.7-3.8-3.7c0-0.2,0.2-0.4,0.4-0.4s0.4,0.2,0.4,0.4c0,1.6,1.4,2.9,3.1,2.9
			c0.2,0,0.4,0.2,0.4,0.4C21.7,17.8,21.5,18,21.3,18z"/>
	</g>
	<g>
		<polygon class="st0" points="15.8,10.6 13.4,6.4 10.9,2.2 15.8,1.4 20.8,2.2 18.3,6.4 		"/>
	</g>
</g>
</svg>
