<?xml version="1.0" encoding="utf-8"?>
<!-- Generator: Adobe Illustrator 19.1.0, SVG Export Plug-In . SVG Version: 6.00 Build 0)  -->
<svg version="1.1" id="Layer_1" xmlns="http://www.w3.org/2000/svg" xmlns:xlink="http://www.w3.org/1999/xlink" x="0px" y="0px"
	 viewBox="0 0 41.7 29.7" style="enable-background:new 0 0 41.7 29.7;" xml:space="preserve">
<style type="text/css">
	.st0{fill:#454546;}
</style>
<path class="st0" d="M0.4,1.9c1.3-2.6,4-2.4,7.3-0.4l27.8,16.3c0,0,0.1,0.1,0.1,0.1c0.2,0,0.3,0,0.5,0.1l3.6,2.1
	c2.3,1.4,2.3,4.3,0.9,6.7c-1.4,2.3-4,3.8-6.3,2.4l-3.6-2.1c-0.2-0.1-0.3-0.3-0.3-0.4c0,0-0.1-0.1-0.1-0.1L8.7,13.8
	C-0.6,8.4-0.5,3.6,0.4,1.9L0.4,1.9z M1.2,2.4C0.7,3.4,0,7.7,9.2,13l21.7,12.7c1.5,0.9,3.5,0.1,4.7-2c1.2-2.1,1-4.2-0.5-5.1L7.2,2.3
	C3.9,0.4,2.1,0.6,1.2,2.4L1.2,2.4z M14.5,7.7l20.7,12.1c0.6,0.3,0.1,1.2-0.5,0.8L14,8.5C13.4,8.2,13.9,7.3,14.5,7.7L14.5,7.7z
	 M11.7,12.3l20.7,12.1c0.6,0.3,0.1,1.2-0.5,0.8L11.2,13.2C10.7,12.9,11.2,12,11.7,12.3L11.7,12.3z M13.1,11l21.2,12.4
	c0.6,0.3,0.1,1.2-0.5,0.8L12.6,11.9C12,11.6,12.5,10.7,13.1,11L13.1,11z M14,9.5l21.2,12.4c0.6,0.3,0.1,1.2-0.5,0.8L13.5,10.3
	C13,10,13.5,9.2,14,9.5L14,9.5z"/>
</svg>
